<?xml version="1.0" encoding="UTF-8" standalone="no"?>
<!DOCTYPE svg PUBLIC "-//W3C//DTD SVG 1.1//EN"
 "http://www.w3.org/Graphics/SVG/1.1/DTD/svg11.dtd">
<!-- Generated by graphviz version 2.40.1 (20161225.0304)
 -->
<!-- Title: G Pages: 1 -->
<svg width="1928pt" height="2087pt"
 viewBox="0.00 0.00 1927.88 2086.58" xmlns="http://www.w3.org/2000/svg" xmlns:xlink="http://www.w3.org/1999/xlink">
<g id="graph0" class="graph" transform="scale(1 1) rotate(0) translate(7.992 2078.592)">
<title>G</title>
<polygon fill="#eeeeff" stroke="transparent" points="-7.992,7.992 -7.992,-2078.592 1919.889,-2078.592 1919.889,7.992 -7.992,7.992"/>
<!-- assertions.js -->
<g id="node1" class="node">
<title>assertions.js</title>
<polygon fill="none" stroke="#242424" stroke-width="4" points="1176.8977,-1696.8007 1067.6963,-1696.8007 1067.6963,-1587.5993 1176.8977,-1587.5993 1176.8977,-1696.8007"/>
<text text-anchor="middle" x="1122.297" y="-1639.8" font-family="Fira Code" font-size="12.00" fill="#242424">assertions.js</text>
</g>
<!-- f&#45;utility/f&#45;utility.js -->
<g id="node2" class="node">
<title>f&#45;utility/f&#45;utility.js</title>
<polygon fill="none" stroke="#0c821d" stroke-width="4" points="798.6975,-207.0005 623.8965,-207.0005 623.8965,-32.1995 798.6975,-32.1995 798.6975,-207.0005"/>
<text text-anchor="middle" x="711.297" y="-117.2" font-family="Fira Code" font-size="12.00" fill="#0c821d">f&#45;utility/f&#45;utility.js</text>
</g>
<!-- assertions.js&#45;&gt;f&#45;utility/f&#45;utility.js -->
<g id="edge1" class="edge">
<title>assertions.js&#45;&gt;f&#45;utility/f&#45;utility.js</title>
<path fill="none" stroke="#242424" d="M1088.4124,-1587.3951C1072.9258,-1559.4357 1056.1008,-1524.2544 1047.297,-1490.4 1004.7161,-1326.6573 1028.297,-1279.3886 1028.297,-1110.2 1028.297,-1110.2 1028.297,-1110.2 1028.297,-802.8 1028.297,-587.1582 1110.001,-506.1575 1004.297,-318.2 961.4302,-241.9764 875.682,-189.1269 807.9728,-157.2186"/>
<polygon fill="#242424" stroke="#242424" points="809.0901,-153.879 798.5448,-152.8549 806.1498,-160.2316 809.0901,-153.879"/>
</g>
<!-- ramda/src/all.js -->
<g id="node3" class="node">
<title>ramda/src/all.js</title>
<polygon fill="none" stroke="#0c821d" stroke-width="4" points="1187.9972,-1454.5002 1056.5969,-1454.5002 1056.5969,-1323.0998 1187.9972,-1323.0998 1187.9972,-1454.5002"/>
<text text-anchor="middle" x="1122.297" y="-1386.4" font-family="Fira Code" font-size="12.00" fill="#0c821d">ramda/src/all.js</text>
</g>
<!-- assertions.js&#45;&gt;ramda/src/all.js -->
<g id="edge2" class="edge">
<title>assertions.js&#45;&gt;ramda/src/all.js</title>
<path fill="none" stroke="#242424" d="M1122.297,-1587.5279C1122.297,-1551.6581 1122.297,-1504.2548 1122.297,-1464.7422"/>
<polygon fill="#242424" stroke="#242424" points="1125.7971,-1464.6157 1122.297,-1454.6158 1118.7971,-1464.6158 1125.7971,-1464.6157"/>
</g>
<!-- ramda/src/length.js -->
<g id="node4" class="node">
<title>ramda/src/length.js</title>
<polygon fill="none" stroke="#0c821d" stroke-width="4" points="1358.5971,-1465.1001 1205.9969,-1465.1001 1205.9969,-1312.4999 1358.5971,-1312.4999 1358.5971,-1465.1001"/>
<text text-anchor="middle" x="1282.297" y="-1386.4" font-family="Fira Code" font-size="12.00" fill="#0c821d">ramda/src/length.js</text>
</g>
<!-- assertions.js&#45;&gt;ramda/src/length.js -->
<g id="edge3" class="edge">
<title>assertions.js&#45;&gt;ramda/src/length.js</title>
<path fill="none" stroke="#242424" d="M1156.8176,-1587.5279C1177.6545,-1554.5276 1204.6551,-1511.7654 1228.2692,-1474.3665"/>
<polygon fill="#242424" stroke="#242424" points="1231.4988,-1475.8073 1233.8783,-1465.4831 1225.5799,-1472.07 1231.4988,-1475.8073"/>
</g>
<!-- ramda/src/propSatisfies.js -->
<g id="node5" class="node">
<title>ramda/src/propSatisfies.js</title>
<polygon fill="none" stroke="#0c821d" stroke-width="4" points="1579.9971,-1490.5001 1376.5969,-1490.5001 1376.5969,-1287.0999 1579.9971,-1287.0999 1579.9971,-1490.5001"/>
<text text-anchor="middle" x="1478.297" y="-1386.4" font-family="Fira Code" font-size="12.00" fill="#0c821d">ramda/src/propSatisfies.js</text>
</g>
<!-- assertions.js&#45;&gt;ramda/src/propSatisfies.js -->
<g id="edge4" class="edge">
<title>assertions.js&#45;&gt;ramda/src/propSatisfies.js</title>
<path fill="none" stroke="#242424" d="M1177.2435,-1612.0965C1228.192,-1583.2807 1305.2591,-1537.3618 1367.297,-1490.4 1367.6745,-1490.1142 1368.0523,-1489.8274 1368.4303,-1489.5395"/>
<polygon fill="#242424" stroke="#242424" points="1370.6401,-1492.2549 1376.3885,-1483.3551 1366.3448,-1486.7276 1370.6401,-1492.2549"/>
</g>
<!-- either/ap.js -->
<g id="node6" class="node">
<title>either/ap.js</title>
<polygon fill="none" stroke="#242424" stroke-width="4" points="152.6978,-1907.4008 49.8962,-1907.4008 49.8962,-1804.5992 152.6978,-1804.5992 152.6978,-1907.4008"/>
<text text-anchor="middle" x="101.297" y="-1853.6" font-family="Fira Code" font-size="12.00" fill="#242424">either/ap.js</text>
</g>
<!-- entrust/entrust.js -->
<g id="node7" class="node">
<title>entrust/entrust.js</title>
<polygon fill="none" stroke="#0c821d" stroke-width="4" points="304.8976,-1714.8005 159.6965,-1714.8005 159.6965,-1569.5995 304.8976,-1569.5995 304.8976,-1714.8005"/>
<text text-anchor="middle" x="232.297" y="-1639.8" font-family="Fira Code" font-size="12.00" fill="#0c821d">entrust/entrust.js</text>
</g>
<!-- either/ap.js&#45;&gt;entrust/entrust.js -->
<g id="edge5" class="edge">
<title>either/ap.js&#45;&gt;entrust/entrust.js</title>
<path fill="none" stroke="#242424" d="M132.6748,-1804.7896C147.5646,-1780.4885 165.7183,-1750.8605 182.43,-1723.5859"/>
<polygon fill="#242424" stroke="#242424" points="185.5591,-1725.1783 187.7993,-1714.823 179.5904,-1721.5211 185.5591,-1725.1783"/>
</g>
<!-- either/assert.js -->
<g id="node8" class="node">
<title>either/assert.js</title>
<polygon fill="none" stroke="#242424" stroke-width="4" points="262.9972,-521.5002 131.5969,-521.5002 131.5969,-390.0998 262.9972,-390.0998 262.9972,-521.5002"/>
<text text-anchor="middle" x="197.297" y="-453.4" font-family="Fira Code" font-size="12.00" fill="#242424">either/assert.js</text>
</g>
<!-- either/assert.js&#45;&gt;f&#45;utility/f&#45;utility.js -->
<g id="edge6" class="edge">
<title>either/assert.js&#45;&gt;f&#45;utility/f&#45;utility.js</title>
<path fill="none" stroke="#242424" d="M251.174,-389.975C273.1664,-365.5837 299.8647,-338.8621 327.297,-318.2 417.2068,-250.4798 533.5581,-193.9466 614.515,-158.7339"/>
<polygon fill="#242424" stroke="#242424" points="615.9231,-161.9384 623.7139,-154.7583 613.146,-155.5128 615.9231,-161.9384"/>
</g>
<!-- either/bimap.js -->
<g id="node9" class="node">
<title>either/bimap.js</title>
<polygon fill="none" stroke="#242424" stroke-width="4" points="294.297,-1918 170.297,-1918 170.297,-1794 294.297,-1794 294.297,-1918"/>
<text text-anchor="middle" x="232.297" y="-1853.6" font-family="Fira Code" font-size="12.00" fill="#242424">either/bimap.js</text>
</g>
<!-- either/bimap.js&#45;&gt;entrust/entrust.js -->
<g id="edge7" class="edge">
<title>either/bimap.js&#45;&gt;entrust/entrust.js</title>
<path fill="none" stroke="#242424" d="M232.297,-1793.873C232.297,-1772.3934 232.297,-1747.9702 232.297,-1725.0936"/>
<polygon fill="#242424" stroke="#242424" points="235.7971,-1725.0538 232.297,-1715.0539 228.7971,-1725.0539 235.7971,-1725.0538"/>
</g>
<!-- either/fold.js -->
<g id="node10" class="node">
<title>either/fold.js</title>
<polygon fill="none" stroke="#242424" stroke-width="4" points="428.5972,-1914.3002 311.9968,-1914.3002 311.9968,-1797.6998 428.5972,-1797.6998 428.5972,-1914.3002"/>
<text text-anchor="middle" x="370.297" y="-1853.6" font-family="Fira Code" font-size="12.00" fill="#242424">either/fold.js</text>
</g>
<!-- either/fold.js&#45;&gt;entrust/entrust.js -->
<g id="edge8" class="edge">
<title>either/fold.js&#45;&gt;entrust/entrust.js</title>
<path fill="none" stroke="#242424" d="M332.5879,-1797.5782C317.8823,-1774.7952 300.7709,-1748.2849 284.8904,-1723.6816"/>
<polygon fill="#242424" stroke="#242424" points="287.6943,-1721.5716 279.3305,-1715.0678 281.813,-1725.3678 287.6943,-1721.5716"/>
</g>
<!-- either/guided&#45;left.js -->
<g id="node11" class="node">
<title>either/guided&#45;left.js</title>
<polygon fill="none" stroke="#242424" stroke-width="4" points="587.9971,-1193.9001 420.5969,-1193.9001 420.5969,-1026.4999 587.9971,-1026.4999 587.9971,-1193.9001"/>
<text text-anchor="middle" x="504.297" y="-1107.8" font-family="Fira Code" font-size="12.00" fill="#242424">either/guided&#45;left.js</text>
</g>
<!-- fantasy&#45;eithers/fantasy&#45;eithers.js -->
<g id="node12" class="node">
<title>fantasy&#45;eithers/fantasy&#45;eithers.js</title>
<polygon fill="none" stroke="#0c821d" stroke-width="4" points="588.5971,-933.1001 327.9969,-933.1001 327.9969,-672.4999 588.5971,-672.4999 588.5971,-933.1001"/>
<text text-anchor="middle" x="458.297" y="-800.4" font-family="Fira Code" font-size="12.00" fill="#0c821d">fantasy&#45;eithers/fantasy&#45;eithers.js</text>
</g>
<!-- either/guided&#45;left.js&#45;&gt;fantasy&#45;eithers/fantasy&#45;eithers.js -->
<g id="edge9" class="edge">
<title>either/guided&#45;left.js&#45;&gt;fantasy&#45;eithers/fantasy&#45;eithers.js</title>
<path fill="none" stroke="#242424" d="M491.7273,-1026.2016C487.8843,-1000.5205 483.5485,-971.5457 479.3038,-943.1805"/>
<polygon fill="#242424" stroke="#242424" points="482.7487,-942.5511 477.8072,-933.1792 475.8258,-943.5871 482.7487,-942.5511"/>
</g>
<!-- either/guided.js -->
<g id="node13" class="node">
<title>either/guided.js</title>
<polygon fill="none" stroke="#242424" stroke-width="4" points="309.9972,-868.5002 178.5969,-868.5002 178.5969,-737.0998 309.9972,-737.0998 309.9972,-868.5002"/>
<text text-anchor="middle" x="244.297" y="-800.4" font-family="Fira Code" font-size="12.00" fill="#242424">either/guided.js</text>
</g>
<!-- either/guided&#45;left.js&#45;&gt;either/guided.js -->
<g id="edge10" class="edge">
<title>either/guided&#45;left.js&#45;&gt;either/guided.js</title>
<path fill="none" stroke="#242424" d="M425.9721,-1026.4906C421.0571,-1021.6045 416.1399,-1016.808 411.297,-1012.2 372.2521,-975.0491 353.6703,-974.7111 319.297,-933.2 305.3492,-916.3558 292.5014,-896.5789 281.5263,-877.5901"/>
<polygon fill="#242424" stroke="#242424" points="284.4312,-875.617 276.4559,-868.6424 278.341,-879.0682 284.4312,-875.617"/>
</g>
<!-- either/guided.js&#45;&gt;f&#45;utility/f&#45;utility.js -->
<g id="edge13" class="edge">
<title>either/guided.js&#45;&gt;f&#45;utility/f&#45;utility.js</title>
<path fill="none" stroke="#242424" d="M254.6873,-736.8119C274.0759,-620.287 318.3541,-384.1386 368.297,-318.2 430.3775,-236.2365 536.8457,-182.2934 614.7332,-151.5849"/>
<polygon fill="#242424" stroke="#242424" points="616.0293,-154.8363 624.0851,-147.9548 613.4962,-148.3107 616.0293,-154.8363"/>
</g>
<!-- either/guided.js&#45;&gt;either/assert.js -->
<g id="edge14" class="edge">
<title>either/guided.js&#45;&gt;either/assert.js</title>
<path fill="none" stroke="#242424" d="M235.4014,-737.124C227.473,-678.589 215.8703,-592.9259 207.5534,-531.5225"/>
<polygon fill="#242424" stroke="#242424" points="211.0067,-530.9416 206.1961,-521.5019 204.0701,-531.8812 211.0067,-530.9416"/>
</g>
<!-- either/guided&#45;right.js -->
<g id="node14" class="node">
<title>either/guided&#45;right.js</title>
<polygon fill="none" stroke="#242424" stroke-width="4" points="402.6975,-1197.6005 227.8965,-1197.6005 227.8965,-1022.7995 402.6975,-1022.7995 402.6975,-1197.6005"/>
<text text-anchor="middle" x="315.297" y="-1107.8" font-family="Fira Code" font-size="12.00" fill="#242424">either/guided&#45;right.js</text>
</g>
<!-- either/guided&#45;right.js&#45;&gt;fantasy&#45;eithers/fantasy&#45;eithers.js -->
<g id="edge11" class="edge">
<title>either/guided&#45;right.js&#45;&gt;fantasy&#45;eithers/fantasy&#45;eithers.js</title>
<path fill="none" stroke="#242424" d="M355.8926,-1022.9338C367.5398,-997.8963 380.5418,-969.9465 393.2682,-942.5892"/>
<polygon fill="#242424" stroke="#242424" points="396.5267,-943.8826 397.5711,-933.3394 390.1798,-940.9301 396.5267,-943.8826"/>
</g>
<!-- either/guided&#45;right.js&#45;&gt;either/guided.js -->
<g id="edge12" class="edge">
<title>either/guided&#45;right.js&#45;&gt;either/guided.js</title>
<path fill="none" stroke="#242424" d="M295.1412,-1022.9338C284.6436,-977.4836 271.9293,-922.4363 261.8411,-878.7585"/>
<polygon fill="#242424" stroke="#242424" points="265.1945,-877.7244 259.5337,-868.7686 258.374,-879.2998 265.1945,-877.7244"/>
</g>
<!-- either/index.js -->
<g id="node15" class="node">
<title>either/index.js</title>
<polygon fill="none" stroke="#242424" stroke-width="4" points="327.297,-1450.8 203.297,-1450.8 203.297,-1326.8 327.297,-1326.8 327.297,-1450.8"/>
<text text-anchor="middle" x="265.297" y="-1386.4" font-family="Fira Code" font-size="12.00" fill="#242424">either/index.js</text>
</g>
<!-- either/index.js&#45;&gt;either/assert.js -->
<g id="edge15" class="edge">
<title>either/index.js&#45;&gt;either/assert.js</title>
<path fill="none" stroke="#242424" d="M243.4279,-1326.7656C231.9179,-1292.218 218.3542,-1248.2216 209.297,-1208.2 156.5885,-975.2937 153.9581,-910.7029 169.297,-672.4 172.3233,-625.3835 179.0083,-572.9802 185.0873,-531.4957"/>
<polygon fill="#242424" stroke="#242424" points="188.5697,-531.8716 186.5762,-521.466 181.6456,-530.8436 188.5697,-531.8716"/>
</g>
<!-- either/index.js&#45;&gt;either/guided&#45;left.js -->
<g id="edge16" class="edge">
<title>either/index.js&#45;&gt;either/guided&#45;left.js</title>
<path fill="none" stroke="#242424" d="M318.6358,-1326.6235C350.1718,-1289.8623 390.6844,-1242.6372 425.8146,-1201.6862"/>
<polygon fill="#242424" stroke="#242424" points="428.6814,-1203.7199 432.536,-1193.8511 423.3684,-1199.1622 428.6814,-1203.7199"/>
</g>
<!-- either/index.js&#45;&gt;either/guided.js -->
<g id="edge18" class="edge">
<title>either/index.js&#45;&gt;either/guided.js</title>
<path fill="none" stroke="#242424" d="M245.3199,-1326.4361C235.324,-1291.977 224.3073,-1248.1695 219.297,-1208.2 204.9774,-1093.9652 219.0913,-960.547 231.1955,-878.8783"/>
<polygon fill="#242424" stroke="#242424" points="234.7017,-879.0997 232.7351,-868.689 227.7802,-878.0537 234.7017,-879.0997"/>
</g>
<!-- either/index.js&#45;&gt;either/guided&#45;right.js -->
<g id="edge17" class="edge">
<title>either/index.js&#45;&gt;either/guided&#45;right.js</title>
<path fill="none" stroke="#242424" d="M276.4557,-1326.6235C282.7441,-1291.585 290.7384,-1247.0404 297.8377,-1207.4831"/>
<polygon fill="#242424" stroke="#242424" points="301.3002,-1208.0034 299.6218,-1197.5424 294.4103,-1206.7668 301.3002,-1208.0034"/>
</g>
<!-- errors/expect&#45;function.js -->
<g id="node16" class="node">
<title>errors/expect&#45;function.js</title>
<polygon fill="none" stroke="#242424" stroke-width="4" points="958.297,-1208.2 762.297,-1208.2 762.297,-1012.2 958.297,-1012.2 958.297,-1208.2"/>
<text text-anchor="middle" x="860.297" y="-1107.8" font-family="Fira Code" font-size="12.00" fill="#242424">errors/expect&#45;function.js</text>
</g>
<!-- katsu&#45;curry/katsu&#45;curry.js -->
<g id="node17" class="node">
<title>katsu&#45;curry/katsu&#45;curry.js</title>
<polygon fill="none" stroke="#0c821d" stroke-width="4" points="961.9971,-904.5001 758.5969,-904.5001 758.5969,-701.0999 961.9971,-701.0999 961.9971,-904.5001"/>
<text text-anchor="middle" x="860.297" y="-800.4" font-family="Fira Code" font-size="12.00" fill="#0c821d">katsu&#45;curry/katsu&#45;curry.js</text>
</g>
<!-- errors/expect&#45;function.js&#45;&gt;katsu&#45;curry/katsu&#45;curry.js -->
<g id="edge19" class="edge">
<title>errors/expect&#45;function.js&#45;&gt;katsu&#45;curry/katsu&#45;curry.js</title>
<path fill="none" stroke="#242424" d="M860.297,-1012.0915C860.297,-981.0951 860.297,-946.6126 860.297,-914.7259"/>
<polygon fill="#242424" stroke="#242424" points="863.7971,-914.4719 860.297,-904.4719 856.7971,-914.472 863.7971,-914.4719"/>
</g>
<!-- guiderail.js -->
<g id="node18" class="node">
<title>guiderail.js</title>
<polygon fill="none" stroke="#242424" stroke-width="4" points="701.6978,-1907.4008 598.8962,-1907.4008 598.8962,-1804.5992 701.6978,-1804.5992 701.6978,-1907.4008"/>
<text text-anchor="middle" x="650.297" y="-1853.6" font-family="Fira Code" font-size="12.00" fill="#242424">guiderail.js</text>
</g>
<!-- guiderail.js&#45;&gt;f&#45;utility/f&#45;utility.js -->
<g id="edge20" class="edge">
<title>guiderail.js&#45;&gt;f&#45;utility/f&#45;utility.js</title>
<path fill="none" stroke="#242424" d="M646.6351,-1804.5597C641.6965,-1733.8179 632.8783,-1602.5111 627.297,-1490.4 625.0359,-1444.9813 623.4285,-709.6172 597.297,-672.4 543.3269,-595.5341 453.8492,-671.2422 401.297,-593.4 332.8594,-492.0279 342.6029,-425.508 401.297,-318.2 446.2088,-236.0896 541.1621,-182.9363 614.2187,-152.4775"/>
<polygon fill="#242424" stroke="#242424" points="615.9881,-155.5354 623.92,-148.5115 613.3392,-149.0559 615.9881,-155.5354"/>
</g>
<!-- multirail.js -->
<g id="node19" class="node">
<title>multirail.js</title>
<polygon fill="none" stroke="#242424" stroke-width="4" points="780.6978,-1693.6008 677.8962,-1693.6008 677.8962,-1590.7992 780.6978,-1590.7992 780.6978,-1693.6008"/>
<text text-anchor="middle" x="729.297" y="-1639.8" font-family="Fira Code" font-size="12.00" fill="#242424">multirail.js</text>
</g>
<!-- guiderail.js&#45;&gt;multirail.js -->
<g id="edge21" class="edge">
<title>guiderail.js&#45;&gt;multirail.js</title>
<path fill="none" stroke="#242424" d="M669.2195,-1804.7896C680.4715,-1774.3378 694.8145,-1735.5211 706.6639,-1703.4525"/>
<polygon fill="#242424" stroke="#242424" points="710.0721,-1704.3268 710.2551,-1693.7336 703.506,-1701.9006 710.0721,-1704.3268"/>
</g>
<!-- rail.js -->
<g id="node20" class="node">
<title>rail.js</title>
<polygon fill="none" stroke="#242424" stroke-width="4" points="702.6982,-1422.2012 635.8958,-1422.2012 635.8958,-1355.3988 702.6982,-1355.3988 702.6982,-1422.2012"/>
<text text-anchor="middle" x="669.297" y="-1386.4" font-family="Fira Code" font-size="12.00" fill="#242424">rail.js</text>
</g>
<!-- guiderail.js&#45;&gt;rail.js -->
<g id="edge22" class="edge">
<title>guiderail.js&#45;&gt;rail.js</title>
<path fill="none" stroke="#242424" d="M652.3847,-1804.665C656.1503,-1712.0711 664.0142,-1518.7024 667.5311,-1432.2232"/>
<polygon fill="#242424" stroke="#242424" points="671.0285,-1432.3548 667.9379,-1422.2208 664.0343,-1432.0703 671.0285,-1432.3548"/>
</g>
<!-- multirail.js&#45;&gt;f&#45;utility/f&#45;utility.js -->
<g id="edge41" class="edge">
<title>multirail.js&#45;&gt;f&#45;utility/f&#45;utility.js</title>
<path fill="none" stroke="#242424" d="M729.4577,-1590.8436C729.7404,-1495.9242 730.297,-1286.61 730.297,-1110.2 730.297,-1110.2 730.297,-1110.2 730.297,-802.8 730.297,-594.0622 721.325,-349.5893 715.7117,-217.0621"/>
<polygon fill="#242424" stroke="#242424" points="719.2028,-216.7766 715.28,-206.9348 712.2091,-217.0748 719.2028,-216.7766"/>
</g>
<!-- multirail.js&#45;&gt;rail.js -->
<g id="edge43" class="edge">
<title>multirail.js&#45;&gt;rail.js</title>
<path fill="none" stroke="#242424" d="M717.1551,-1590.9207C706.0999,-1544.2307 689.9576,-1476.0565 679.5395,-1432.0574"/>
<polygon fill="#242424" stroke="#242424" points="682.9242,-1431.1616 677.2142,-1422.2371 676.1126,-1432.7745 682.9242,-1431.1616"/>
</g>
<!-- ramda/src/chain.js -->
<g id="node23" class="node">
<title>ramda/src/chain.js</title>
<polygon fill="none" stroke="#0c821d" stroke-width="4" points="903.8976,-1461.4005 758.6965,-1461.4005 758.6965,-1316.1995 903.8976,-1316.1995 903.8976,-1461.4005"/>
<text text-anchor="middle" x="831.297" y="-1386.4" font-family="Fira Code" font-size="12.00" fill="#0c821d">ramda/src/chain.js</text>
</g>
<!-- multirail.js&#45;&gt;ramda/src/chain.js -->
<g id="edge42" class="edge">
<title>multirail.js&#45;&gt;ramda/src/chain.js</title>
<path fill="none" stroke="#242424" d="M749.9382,-1590.9207C763.7884,-1556.5125 782.3353,-1510.4362 798.2229,-1470.9664"/>
<polygon fill="#242424" stroke="#242424" points="801.5016,-1472.1941 801.9889,-1461.6105 795.0079,-1469.5802 801.5016,-1472.1941"/>
</g>
<!-- rail.js&#45;&gt;f&#45;utility/f&#45;utility.js -->
<g id="edge47" class="edge">
<title>rail.js&#45;&gt;f&#45;utility/f&#45;utility.js</title>
<path fill="none" stroke="#242424" d="M671.15,-1355.5226C673.1218,-1319.2932 676.2357,-1259.6434 678.297,-1208.2 692.9412,-842.7354 704.2964,-408.0189 708.9717,-217.3789"/>
<polygon fill="#242424" stroke="#242424" points="712.4773,-217.1887 709.2229,-207.1061 705.4794,-217.0175 712.4773,-217.1887"/>
</g>
<!-- rail.js&#45;&gt;either/guided&#45;left.js -->
<g id="edge48" class="edge">
<title>rail.js&#45;&gt;either/guided&#45;left.js</title>
<path fill="none" stroke="#242424" d="M649.558,-1355.4711C627.3156,-1317.9151 590.1993,-1255.2447 559.0536,-1202.6556"/>
<polygon fill="#242424" stroke="#242424" points="562.0184,-1200.7932 553.911,-1193.9725 555.9954,-1204.3603 562.0184,-1200.7932"/>
</g>
<!-- rail.js&#45;&gt;either/guided&#45;right.js -->
<g id="edge49" class="edge">
<title>rail.js&#45;&gt;either/guided&#45;right.js</title>
<path fill="none" stroke="#242424" d="M635.6957,-1368.1216C585.0389,-1336.3309 486.9905,-1272.3731 411.297,-1208.2 409.7642,-1206.9005 408.2281,-1205.5801 406.6907,-1204.2418"/>
<polygon fill="#242424" stroke="#242424" points="408.8021,-1201.436 399.0008,-1197.4129 404.1541,-1206.6701 408.8021,-1201.436"/>
</g>
<!-- rail.js&#45;&gt;errors/expect&#45;function.js -->
<g id="edge50" class="edge">
<title>rail.js&#45;&gt;errors/expect&#45;function.js</title>
<path fill="none" stroke="#242424" d="M692.1464,-1355.4711C715.594,-1321.2694 753.3213,-1266.239 787.1038,-1216.9625"/>
<polygon fill="#242424" stroke="#242424" points="790.1559,-1218.7003 792.9237,-1208.4733 784.3824,-1214.7421 790.1559,-1218.7003"/>
</g>
<!-- pipelines/reject&#45;non&#45;functions.js -->
<g id="node26" class="node">
<title>pipelines/reject&#45;non&#45;functions.js</title>
<polygon fill="none" stroke="#242424" stroke-width="4" points="663.8973,-582.4003 410.6967,-582.4003 410.6967,-329.1997 663.8973,-329.1997 663.8973,-582.4003"/>
<text text-anchor="middle" x="537.297" y="-453.4" font-family="Fira Code" font-size="12.00" fill="#242424">pipelines/reject&#45;non&#45;functions.js</text>
</g>
<!-- rail.js&#45;&gt;pipelines/reject&#45;non&#45;functions.js -->
<g id="edge51" class="edge">
<title>rail.js&#45;&gt;pipelines/reject&#45;non&#45;functions.js</title>
<path fill="none" stroke="#242424" d="M671.5713,-1355.3715C677.7345,-1252.0834 690.491,-929.5133 630.297,-672.4 624.045,-645.6951 614.6926,-618.1276 604.2916,-591.9794"/>
<polygon fill="#242424" stroke="#242424" points="607.4151,-590.368 600.416,-582.4143 600.9275,-592.9968 607.4151,-590.368"/>
</g>
<!-- handrail.js -->
<g id="node21" class="node">
<title>handrail.js</title>
<polygon fill="none" stroke="#242424" stroke-width="4" points="939.9972,-1903.7002 844.5968,-1903.7002 844.5968,-1808.2998 939.9972,-1808.2998 939.9972,-1903.7002"/>
<text text-anchor="middle" x="892.297" y="-1853.6" font-family="Fira Code" font-size="12.00" fill="#242424">handrail.js</text>
</g>
<!-- handrail.js&#45;&gt;assertions.js -->
<g id="edge24" class="edge">
<title>handrail.js&#45;&gt;assertions.js</title>
<path fill="none" stroke="#242424" d="M939.9532,-1811.7005C974.7393,-1779.3645 1022.2187,-1735.2293 1060.008,-1700.1017"/>
<polygon fill="#242424" stroke="#242424" points="1062.4887,-1702.5744 1067.43,-1693.2024 1057.7228,-1697.4474 1062.4887,-1702.5744"/>
</g>
<!-- handrail.js&#45;&gt;f&#45;utility/f&#45;utility.js -->
<g id="edge23" class="edge">
<title>handrail.js&#45;&gt;f&#45;utility/f&#45;utility.js</title>
<path fill="none" stroke="#242424" d="M909.1438,-1808.2684C937.1635,-1724.4887 990.297,-1545.0219 990.297,-1388.8 990.297,-1388.8 990.297,-1388.8 990.297,-802.8 990.297,-579.3987 860.8594,-343.367 778.3111,-215.5542"/>
<polygon fill="#242424" stroke="#242424" points="781.0815,-213.3941 772.6974,-206.9167 775.2122,-217.2088 781.0815,-213.3941"/>
</g>
<!-- handrail.js&#45;&gt;errors/expect&#45;function.js -->
<g id="edge25" class="edge">
<title>handrail.js&#45;&gt;errors/expect&#45;function.js</title>
<path fill="none" stroke="#242424" d="M899.8985,-1808.1157C914.2169,-1709.8588 941.3367,-1478.5918 913.297,-1287.2 909.9608,-1264.4277 904.3313,-1240.5164 897.9562,-1217.8934"/>
<polygon fill="#242424" stroke="#242424" points="901.3185,-1216.9212 895.1829,-1208.2838 894.593,-1218.8622 901.3185,-1216.9212"/>
</g>
<!-- handrail.js&#45;&gt;multirail.js -->
<g id="edge26" class="edge">
<title>handrail.js&#45;&gt;multirail.js</title>
<path fill="none" stroke="#242424" d="M855.9195,-1808.2852C831.9597,-1776.8582 800.4024,-1735.4658 774.786,-1701.8659"/>
<polygon fill="#242424" stroke="#242424" points="777.2559,-1699.3327 768.4096,-1693.5023 771.6892,-1703.5768 777.2559,-1699.3327"/>
</g>
<!-- handrail.js&#45;&gt;rail.js -->
<g id="edge27" class="edge">
<title>handrail.js&#45;&gt;rail.js</title>
<path fill="none" stroke="#242424" d="M878.9763,-1808.1454C861.9329,-1750.0371 829.7216,-1649.8281 789.297,-1569.4 764.0209,-1519.1111 727.3372,-1465.9607 701.1925,-1430.4449"/>
<polygon fill="#242424" stroke="#242424" points="703.8866,-1428.2019 695.119,-1422.2537 698.2636,-1432.3711 703.8866,-1428.2019"/>
</g>
<!-- index.js -->
<g id="node22" class="node">
<title>index.js</title>
<polygon fill="none" stroke="#242424" stroke-width="4" points="568.8981,-2070.4011 495.6959,-2070.4011 495.6959,-1997.1989 568.8981,-1997.1989 568.8981,-2070.4011"/>
<text text-anchor="middle" x="532.297" y="-2031.4" font-family="Fira Code" font-size="12.00" fill="#242424">index.js</text>
</g>
<!-- index.js&#45;&gt;f&#45;utility/f&#45;utility.js -->
<g id="edge28" class="edge">
<title>index.js&#45;&gt;f&#45;utility/f&#45;utility.js</title>
<path fill="none" stroke="#242424" d="M569.0241,-2028.7723C757.6052,-2001.9564 1608.297,-1868.4506 1608.297,-1642.2 1608.297,-1642.2 1608.297,-1642.2 1608.297,-802.8 1608.297,-404.0479 1040.372,-207.3097 808.3177,-143.5658"/>
<polygon fill="#242424" stroke="#242424" points="809.0971,-140.1507 798.5289,-140.9011 807.2584,-146.9049 809.0971,-140.1507"/>
</g>
<!-- index.js&#45;&gt;either/ap.js -->
<g id="edge30" class="edge">
<title>index.js&#45;&gt;either/ap.js</title>
<path fill="none" stroke="#242424" d="M495.5533,-2028.5357C425.9335,-2017.2765 271.8823,-1986.1309 161.297,-1918 159.0652,-1916.625 156.8582,-1915.1483 154.683,-1913.5902"/>
<polygon fill="#242424" stroke="#242424" points="156.5132,-1910.5805 146.4655,-1907.2198 152.2244,-1916.1128 156.5132,-1910.5805"/>
</g>
<!-- index.js&#45;&gt;either/assert.js -->
<g id="edge31" class="edge">
<title>index.js&#45;&gt;either/assert.js</title>
<path fill="none" stroke="#242424" d="M495.4604,-2030.648C391.6975,-2020.9577 100.6777,-1987.9321 41.297,-1918 -38.2306,-1824.3411 22.297,-1765.0683 22.297,-1642.2 22.297,-1642.2 22.297,-1642.2 22.297,-1110.2 22.297,-894.0766 112.4795,-651.0165 163.367,-531.068"/>
<polygon fill="#242424" stroke="#242424" points="166.7031,-532.1679 167.4123,-521.5968 160.2657,-529.4184 166.7031,-532.1679"/>
</g>
<!-- index.js&#45;&gt;either/bimap.js -->
<g id="edge32" class="edge">
<title>index.js&#45;&gt;either/bimap.js</title>
<path fill="none" stroke="#242424" d="M495.4415,-2018.5851C448.8466,-1998.5954 367.0264,-1960.9483 303.297,-1918 303.1104,-1917.8742 302.9238,-1917.7481 302.7371,-1917.6214"/>
<polygon fill="#242424" stroke="#242424" points="304.5129,-1914.5901 294.3307,-1911.6619 300.4645,-1920.3007 304.5129,-1914.5901"/>
</g>
<!-- index.js&#45;&gt;either/fold.js -->
<g id="edge33" class="edge">
<title>index.js&#45;&gt;either/fold.js</title>
<path fill="none" stroke="#242424" d="M498.7305,-1996.9597C478.9924,-1975.2965 453.4522,-1947.2654 430.3523,-1921.9125"/>
<polygon fill="#242424" stroke="#242424" points="432.913,-1919.5262 423.5908,-1914.4916 427.7387,-1924.2407 432.913,-1919.5262"/>
</g>
<!-- index.js&#45;&gt;either/guided&#45;left.js -->
<g id="edge34" class="edge">
<title>index.js&#45;&gt;either/guided&#45;left.js</title>
<path fill="none" stroke="#242424" d="M531.1821,-1997.0238C527.1431,-1863.7963 513.1973,-1403.7826 507.1412,-1204.0178"/>
<polygon fill="#242424" stroke="#242424" points="510.6341,-1203.7264 506.8326,-1193.837 503.6373,-1203.9385 510.6341,-1203.7264"/>
</g>
<!-- index.js&#45;&gt;either/guided.js -->
<g id="edge36" class="edge">
<title>index.js&#45;&gt;either/guided.js</title>
<path fill="none" stroke="#242424" d="M510.8667,-1997.1499C498.4248,-1974.8068 483.1215,-1945.3727 472.297,-1918 451.2387,-1864.7482 458.9658,-1847.0064 437.297,-1794 394.2311,-1688.6518 391.4415,-1653.0759 314.297,-1569.4 271.0154,-1522.4539 224.5896,-1546.6103 194.297,-1490.4 86.9676,-1291.2415 165.392,-1011.3226 213.7775,-878.4795"/>
<polygon fill="#242424" stroke="#242424" points="217.1759,-879.3795 217.3503,-868.7861 210.6078,-876.9587 217.1759,-879.3795"/>
</g>
<!-- index.js&#45;&gt;either/guided&#45;right.js -->
<g id="edge35" class="edge">
<title>index.js&#45;&gt;either/guided&#45;right.js</title>
<path fill="none" stroke="#242424" d="M523.6564,-1997.0238C492.5329,-1864.555 385.5027,-1409.011 338.1472,-1207.4557"/>
<polygon fill="#242424" stroke="#242424" points="341.4951,-1206.4021 335.8006,-1197.4678 334.6807,-1208.0032 341.4951,-1206.4021"/>
</g>
<!-- index.js&#45;&gt;guiderail.js -->
<g id="edge37" class="edge">
<title>index.js&#45;&gt;guiderail.js</title>
<path fill="none" stroke="#242424" d="M556.7467,-1996.9597C572.2796,-1973.5551 592.7455,-1942.7175 610.5733,-1915.8548"/>
<polygon fill="#242424" stroke="#242424" points="613.6458,-1917.5548 616.2593,-1907.2873 607.8134,-1913.684 613.6458,-1917.5548"/>
</g>
<!-- index.js&#45;&gt;multirail.js -->
<g id="edge39" class="edge">
<title>index.js&#45;&gt;multirail.js</title>
<path fill="none" stroke="#242424" d="M569.0584,-2021.3782C611.264,-2004.9743 678.7244,-1971.7128 710.297,-1918 748.8075,-1852.4842 746.948,-1762.5031 739.9248,-1703.3849"/>
<polygon fill="#242424" stroke="#242424" points="743.3945,-1702.9238 738.6609,-1693.4452 736.4504,-1703.8069 743.3945,-1702.9238"/>
</g>
<!-- index.js&#45;&gt;rail.js -->
<g id="edge40" class="edge">
<title>index.js&#45;&gt;rail.js</title>
<path fill="none" stroke="#242424" d="M540.1548,-1996.8054C563.8832,-1885.0911 634.7318,-1551.5341 660.119,-1432.0104"/>
<polygon fill="#242424" stroke="#242424" points="663.5665,-1432.6248 662.2206,-1422.1158 656.7192,-1431.1704 663.5665,-1432.6248"/>
</g>
<!-- index.js&#45;&gt;handrail.js -->
<g id="edge38" class="edge">
<title>index.js&#45;&gt;handrail.js</title>
<path fill="none" stroke="#242424" d="M569.1315,-2015.6078C632.0296,-1984.5432 760.5608,-1921.063 835.1804,-1884.2092"/>
<polygon fill="#242424" stroke="#242424" points="837.0335,-1887.1977 844.4497,-1879.6313 833.9337,-1880.9214 837.0335,-1887.1977"/>
</g>
<!-- index.js&#45;&gt;ramda/src/chain.js -->
<g id="edge29" class="edge">
<title>index.js&#45;&gt;ramda/src/chain.js</title>
<path fill="none" stroke="#242424" d="M569.122,-2029.2342C662.1574,-2016.8677 902.578,-1979.4608 949.297,-1918 1050.3393,-1785.0748 954.7092,-1582.2893 886.4403,-1470.2702"/>
<polygon fill="#242424" stroke="#242424" points="889.3883,-1468.3825 881.1643,-1461.7029 883.4278,-1472.0531 889.3883,-1468.3825"/>
</g>
<!-- pipelines/all&#45;props&#45;are&#45;functions.js -->
<g id="node24" class="node">
<title>pipelines/all&#45;props&#45;are&#45;functions.js</title>
<polygon fill="none" stroke="#242424" stroke-width="4" points="1911.9971,-593.5001 1636.5969,-593.5001 1636.5969,-318.0999 1911.9971,-318.0999 1911.9971,-593.5001"/>
<text text-anchor="middle" x="1774.297" y="-453.4" font-family="Fira Code" font-size="12.00" fill="#242424">pipelines/all&#45;props&#45;are&#45;functions.js</text>
</g>
<!-- pipelines/all&#45;props&#45;are&#45;functions.js&#45;&gt;f&#45;utility/f&#45;utility.js -->
<g id="edge44" class="edge">
<title>pipelines/all&#45;props&#45;are&#45;functions.js&#45;&gt;f&#45;utility/f&#45;utility.js</title>
<path fill="none" stroke="#242424" d="M1636.4246,-326.0565C1631.7581,-323.2716 1627.0448,-320.6427 1622.297,-318.2 1349.5651,-177.8796 981.5012,-136.4782 808.6273,-124.4365"/>
<polygon fill="#242424" stroke="#242424" points="808.7449,-120.9365 798.5308,-123.7513 808.2708,-127.9204 808.7449,-120.9365"/>
</g>
<!-- katsu&#45;curry/lib/utils/length.js -->
<g id="node25" class="node">
<title>katsu&#45;curry/lib/utils/length.js</title>
<polygon fill="none" stroke="#0c821d" stroke-width="4" points="1893.9971,-239.3001 1654.5969,-239.3001 1654.5969,.1001 1893.9971,.1001 1893.9971,-239.3001"/>
<text text-anchor="middle" x="1774.297" y="-117.2" font-family="Fira Code" font-size="12.00" fill="#0c821d">katsu&#45;curry/lib/utils/length.js</text>
</g>
<!-- pipelines/all&#45;props&#45;are&#45;functions.js&#45;&gt;katsu&#45;curry/lib/utils/length.js -->
<g id="edge45" class="edge">
<title>pipelines/all&#45;props&#45;are&#45;functions.js&#45;&gt;katsu&#45;curry/lib/utils/length.js</title>
<path fill="none" stroke="#242424" d="M1774.297,-318.0845C1774.297,-295.4397 1774.297,-272.0339 1774.297,-249.5853"/>
<polygon fill="#242424" stroke="#242424" points="1777.7971,-249.3447 1774.297,-239.3447 1770.7971,-249.3447 1777.7971,-249.3447"/>
</g>
<!-- pipelines/reject&#45;non&#45;functions.js&#45;&gt;f&#45;utility/f&#45;utility.js -->
<g id="edge46" class="edge">
<title>pipelines/reject&#45;non&#45;functions.js&#45;&gt;f&#45;utility/f&#45;utility.js</title>
<path fill="none" stroke="#242424" d="M602.831,-329.1763C622.1978,-291.756 643.0784,-251.411 661.2981,-216.2071"/>
<polygon fill="#242424" stroke="#242424" points="664.6278,-217.3882 666.1158,-206.8984 658.411,-214.1707 664.6278,-217.3882"/>
</g>
</g>
</svg>
