<?xml version="1.0" encoding="UTF-8" standalone="no"?>
<!DOCTYPE svg PUBLIC "-//W3C//DTD SVG 1.1//EN"
 "http://www.w3.org/Graphics/SVG/1.1/DTD/svg11.dtd">
<!-- Generated by graphviz version 2.40.1 (20161225.0304)
 -->
<!-- Title: G Pages: 1 -->
<svg width="1810pt" height="2072pt"
 viewBox="0.00 0.00 1809.85 2072.18" xmlns="http://www.w3.org/2000/svg" xmlns:xlink="http://www.w3.org/1999/xlink">
<g id="graph0" class="graph" transform="scale(1 1) rotate(0) translate(7.992 2064.192)">
<title>G</title>
<polygon fill="#eeeeff" stroke="transparent" points="-7.992,7.992 -7.992,-2064.192 1801.8629,-2064.192 1801.8629,7.992 -7.992,7.992"/>
<!-- assertions/all&#45;props&#45;are&#45;functions.js -->
<g id="node1" class="node">
<title>assertions/all&#45;props&#45;are&#45;functions.js</title>
<polygon fill="none" stroke="#242424" stroke-width="4" points="359.2712,-536.0003 76.4706,-536.0003 76.4706,-253.1997 359.2712,-253.1997 359.2712,-536.0003"/>
<text text-anchor="middle" x="217.8709" y="-392.2" font-family="Fira Code" font-size="12.00" fill="#242424">assertions/all&#45;props&#45;are&#45;functions.js</text>
</g>
<!-- f&#45;utility/f&#45;utility.js -->
<g id="node2" class="node">
<title>f&#45;utility/f&#45;utility.js</title>
<polygon fill="none" stroke="#0c821d" stroke-width="4" points="917.2713,-174.6005 742.4704,-174.6005 742.4704,.2005 917.2713,.2005 917.2713,-174.6005"/>
<text text-anchor="middle" x="829.8709" y="-84.8" font-family="Fira Code" font-size="12.00" fill="#0c821d">f&#45;utility/f&#45;utility.js</text>
</g>
<!-- assertions/all&#45;props&#45;are&#45;functions.js&#45;&gt;f&#45;utility/f&#45;utility.js -->
<g id="edge1" class="edge">
<title>assertions/all&#45;props&#45;are&#45;functions.js&#45;&gt;f&#45;utility/f&#45;utility.js</title>
<path fill="none" stroke="#242424" d="M359.3767,-261.9989C363.8518,-259.0056 368.3541,-256.131 372.8709,-253.4 487.9423,-183.8233 636.734,-136.4872 732.7394,-110.6505"/>
<polygon fill="#242424" stroke="#242424" points="733.6795,-114.0222 742.4406,-108.0645 731.8765,-107.2583 733.6795,-114.0222"/>
</g>
<!-- assertions/judge&#45;object.js -->
<g id="node3" class="node">
<title>assertions/judge&#45;object.js</title>
<polygon fill="none" stroke="#242424" stroke-width="4" points="469.571,-1722.3001 266.1708,-1722.3001 266.1708,-1518.8999 469.571,-1518.8999 469.571,-1722.3001"/>
<text text-anchor="middle" x="367.8709" y="-1618.2" font-family="Fira Code" font-size="12.00" fill="#242424">assertions/judge&#45;object.js</text>
</g>
<!-- assertions/judge&#45;object.js&#45;&gt;f&#45;utility/f&#45;utility.js -->
<g id="edge2" class="edge">
<title>assertions/judge&#45;object.js&#45;&gt;f&#45;utility/f&#45;utility.js</title>
<path fill="none" stroke="#242424" d="M330.2345,-1518.7448C286.9015,-1387.0864 227.4277,-1151.3712 274.8709,-954.6 356.9348,-614.2388 416.3622,-527.7542 633.8709,-253.4 662.4814,-217.3122 699.8863,-183.3051 734.3417,-155.5682"/>
<polygon fill="#242424" stroke="#242424" points="736.9224,-157.9873 742.5655,-149.0203 732.5622,-152.5111 736.9224,-157.9873"/>
</g>
<!-- assertions/reject&#45;non&#45;functions.js -->
<g id="node4" class="node">
<title>assertions/reject&#45;non&#45;functions.js</title>
<polygon fill="none" stroke="#242424" stroke-width="4" points="802.1709,-1215.3001 541.5708,-1215.3001 541.5708,-954.6999 802.1709,-954.6999 802.1709,-1215.3001"/>
<text text-anchor="middle" x="671.8709" y="-1082.6" font-family="Fira Code" font-size="12.00" fill="#242424">assertions/reject&#45;non&#45;functions.js</text>
</g>
<!-- assertions/reject&#45;non&#45;functions.js&#45;&gt;f&#45;utility/f&#45;utility.js -->
<g id="edge3" class="edge">
<title>assertions/reject&#45;non&#45;functions.js&#45;&gt;f&#45;utility/f&#45;utility.js</title>
<path fill="none" stroke="#242424" d="M692.5266,-954.5551C724.6466,-751.7109 785.8401,-365.2624 814.4314,-184.7034"/>
<polygon fill="#242424" stroke="#242424" points="817.9104,-185.1105 816.0176,-174.6862 810.9966,-184.0157 817.9104,-185.1105"/>
</g>
<!-- either/ap.js -->
<g id="node5" class="node">
<title>either/ap.js</title>
<polygon fill="none" stroke="#242424" stroke-width="4" points="1452.2717,-1136.4008 1349.4701,-1136.4008 1349.4701,-1033.5992 1452.2717,-1033.5992 1452.2717,-1136.4008"/>
<text text-anchor="middle" x="1400.8709" y="-1082.6" font-family="Fira Code" font-size="12.00" fill="#242424">either/ap.js</text>
</g>
<!-- entrust/entrust.js -->
<g id="node6" class="node">
<title>entrust/entrust.js</title>
<polygon fill="none" stroke="#0c821d" stroke-width="4" points="1604.4714,-817.8005 1459.2703,-817.8005 1459.2703,-672.5995 1604.4714,-672.5995 1604.4714,-817.8005"/>
<text text-anchor="middle" x="1531.8709" y="-742.8" font-family="Fira Code" font-size="12.00" fill="#0c821d">entrust/entrust.js</text>
</g>
<!-- either/ap.js&#45;&gt;entrust/entrust.js -->
<g id="edge4" class="edge">
<title>either/ap.js&#45;&gt;entrust/entrust.js</title>
<path fill="none" stroke="#242424" d="M1420.6247,-1033.7606C1441.6666,-979.1803 1475.289,-891.9673 1500.0685,-827.6918"/>
<polygon fill="#242424" stroke="#242424" points="1503.4804,-828.5716 1503.8119,-817.982 1496.949,-826.0536 1503.4804,-828.5716"/>
</g>
<!-- either/assert.js -->
<g id="node7" class="node">
<title>either/assert.js</title>
<polygon fill="none" stroke="#242424" stroke-width="4" points="1343.571,-460.3002 1212.1707,-460.3002 1212.1707,-328.8998 1343.571,-328.8998 1343.571,-460.3002"/>
<text text-anchor="middle" x="1277.8709" y="-392.2" font-family="Fira Code" font-size="12.00" fill="#242424">either/assert.js</text>
</g>
<!-- either/assert.js&#45;&gt;f&#45;utility/f&#45;utility.js -->
<g id="edge5" class="edge">
<title>either/assert.js&#45;&gt;f&#45;utility/f&#45;utility.js</title>
<path fill="none" stroke="#242424" d="M1211.942,-347.4492C1173.0843,-319.8108 1122.8687,-284.3554 1077.8709,-253.4 1027.9231,-219.0394 971.844,-181.3809 925.6642,-150.6117"/>
<polygon fill="#242424" stroke="#242424" points="927.4237,-147.5784 917.1604,-144.9489 923.5439,-153.4048 927.4237,-147.5784"/>
</g>
<!-- either/bimap.js -->
<g id="node8" class="node">
<title>either/bimap.js</title>
<polygon fill="none" stroke="#242424" stroke-width="4" points="1593.8709,-1147 1469.8709,-1147 1469.8709,-1023 1593.8709,-1023 1593.8709,-1147"/>
<text text-anchor="middle" x="1531.8709" y="-1082.6" font-family="Fira Code" font-size="12.00" fill="#242424">either/bimap.js</text>
</g>
<!-- either/bimap.js&#45;&gt;entrust/entrust.js -->
<g id="edge6" class="edge">
<title>either/bimap.js&#45;&gt;entrust/entrust.js</title>
<path fill="none" stroke="#242424" d="M1531.8709,-1022.6754C1531.8709,-968.0682 1531.8709,-888.2742 1531.8709,-828.2559"/>
<polygon fill="#242424" stroke="#242424" points="1535.371,-828.0467 1531.8709,-818.0467 1528.371,-828.0468 1535.371,-828.0467"/>
</g>
<!-- either/fold.js -->
<g id="node9" class="node">
<title>either/fold.js</title>
<polygon fill="none" stroke="#242424" stroke-width="4" points="1728.171,-1143.3002 1611.5707,-1143.3002 1611.5707,-1026.6998 1728.171,-1026.6998 1728.171,-1143.3002"/>
<text text-anchor="middle" x="1669.8709" y="-1082.6" font-family="Fira Code" font-size="12.00" fill="#242424">either/fold.js</text>
</g>
<!-- either/fold.js&#45;&gt;entrust/entrust.js -->
<g id="edge7" class="edge">
<title>either/fold.js&#45;&gt;entrust/entrust.js</title>
<path fill="none" stroke="#242424" d="M1646.1478,-1026.5863C1623.8279,-971.6276 1590.1913,-888.8036 1565.1839,-827.2273"/>
<polygon fill="#242424" stroke="#242424" points="1568.4091,-825.867 1561.4036,-817.9189 1561.9236,-828.501 1568.4091,-825.867"/>
</g>
<!-- either/guided&#45;left.js -->
<g id="node10" class="node">
<title>either/guided&#45;left.js</title>
<polygon fill="none" stroke="#242424" stroke-width="4" points="1101.571,-1168.7001 934.1707,-1168.7001 934.1707,-1001.2999 1101.571,-1001.2999 1101.571,-1168.7001"/>
<text text-anchor="middle" x="1017.8709" y="-1082.6" font-family="Fira Code" font-size="12.00" fill="#242424">either/guided&#45;left.js</text>
</g>
<!-- fantasy&#45;eithers/fantasy&#45;eithers.js -->
<g id="node11" class="node">
<title>fantasy&#45;eithers/fantasy&#45;eithers.js</title>
<polygon fill="none" stroke="#0c821d" stroke-width="4" points="1194.1709,-875.5001 933.5708,-875.5001 933.5708,-614.8999 1194.1709,-614.8999 1194.1709,-875.5001"/>
<text text-anchor="middle" x="1063.8709" y="-742.8" font-family="Fira Code" font-size="12.00" fill="#0c821d">fantasy&#45;eithers/fantasy&#45;eithers.js</text>
</g>
<!-- either/guided&#45;left.js&#45;&gt;fantasy&#45;eithers/fantasy&#45;eithers.js -->
<g id="edge8" class="edge">
<title>either/guided&#45;left.js&#45;&gt;fantasy&#45;eithers/fantasy&#45;eithers.js</title>
<path fill="none" stroke="#242424" d="M1029.2417,-1001.0045C1033.9631,-966.1277 1039.5717,-924.6969 1044.8853,-885.4453"/>
<polygon fill="#242424" stroke="#242424" points="1048.356,-885.8976 1046.2292,-875.5184 1041.4192,-884.9584 1048.356,-885.8976"/>
</g>
<!-- either/guided.js -->
<g id="node12" class="node">
<title>either/guided.js</title>
<polygon fill="none" stroke="#242424" stroke-width="4" points="1343.571,-810.9002 1212.1707,-810.9002 1212.1707,-679.4998 1343.571,-679.4998 1343.571,-810.9002"/>
<text text-anchor="middle" x="1277.8709" y="-742.8" font-family="Fira Code" font-size="12.00" fill="#242424">either/guided.js</text>
</g>
<!-- either/guided&#45;left.js&#45;&gt;either/guided.js -->
<g id="edge9" class="edge">
<title>either/guided&#45;left.js&#45;&gt;either/guided.js</title>
<path fill="none" stroke="#242424" d="M1073.0187,-1001.2729C1084.8372,-985.2294 1097.7404,-968.9688 1110.8709,-954.6 1147.2276,-914.8146 1168.4976,-917.1111 1202.8709,-875.6 1216.8187,-858.7558 1229.6665,-838.9789 1240.6415,-819.9901"/>
<polygon fill="#242424" stroke="#242424" points="1243.8268,-821.4682 1245.712,-811.0424 1237.7367,-818.017 1243.8268,-821.4682"/>
</g>
<!-- either/guided.js&#45;&gt;f&#45;utility/f&#45;utility.js -->
<g id="edge12" class="edge">
<title>either/guided.js&#45;&gt;f&#45;utility/f&#45;utility.js</title>
<path fill="none" stroke="#242424" d="M1241.6629,-679.4837C1229.7146,-658.5617 1216.091,-635.4857 1202.8709,-614.8 1103.9138,-459.9605 978.8696,-287.2481 901.6444,-182.9384"/>
<polygon fill="#242424" stroke="#242424" points="904.243,-180.5665 895.477,-174.6161 898.619,-184.7343 904.243,-180.5665"/>
</g>
<!-- either/guided.js&#45;&gt;either/assert.js -->
<g id="edge13" class="edge">
<title>either/guided.js&#45;&gt;either/assert.js</title>
<path fill="none" stroke="#242424" d="M1277.8709,-679.2548C1277.8709,-619.8786 1277.8709,-532.6335 1277.8709,-470.4012"/>
<polygon fill="#242424" stroke="#242424" points="1281.371,-470.2494 1277.8709,-460.2495 1274.371,-470.2495 1281.371,-470.2494"/>
</g>
<!-- either/guided&#45;right.js -->
<g id="node13" class="node">
<title>either/guided&#45;right.js</title>
<polygon fill="none" stroke="#242424" stroke-width="4" points="1294.2713,-1172.4005 1119.4704,-1172.4005 1119.4704,-997.5995 1294.2713,-997.5995 1294.2713,-1172.4005"/>
<text text-anchor="middle" x="1206.8709" y="-1082.6" font-family="Fira Code" font-size="12.00" fill="#242424">either/guided&#45;right.js</text>
</g>
<!-- either/guided&#45;right.js&#45;&gt;fantasy&#45;eithers/fantasy&#45;eithers.js -->
<g id="edge10" class="edge">
<title>either/guided&#45;right.js&#45;&gt;fantasy&#45;eithers/fantasy&#45;eithers.js</title>
<path fill="none" stroke="#242424" d="M1170.0448,-997.4931C1155.6644,-963.322 1138.815,-923.2839 1122.829,-885.2976"/>
<polygon fill="#242424" stroke="#242424" points="1125.8903,-883.5486 1118.7854,-875.6891 1119.4383,-886.2638 1125.8903,-883.5486"/>
</g>
<!-- either/guided&#45;right.js&#45;&gt;either/guided.js -->
<g id="edge11" class="edge">
<title>either/guided&#45;right.js&#45;&gt;either/guided.js</title>
<path fill="none" stroke="#242424" d="M1225.1551,-997.4931C1236.5807,-942.8114 1251.1454,-873.1057 1262.0691,-820.8257"/>
<polygon fill="#242424" stroke="#242424" points="1265.5147,-821.4479 1264.134,-810.9434 1258.6626,-820.0161 1265.5147,-821.4479"/>
</g>
<!-- either/index.js -->
<g id="node14" class="node">
<title>either/index.js</title>
<polygon fill="none" stroke="#242424" stroke-width="4" points="1383.8709,-1429.2 1259.8709,-1429.2 1259.8709,-1305.2 1383.8709,-1305.2 1383.8709,-1429.2"/>
<text text-anchor="middle" x="1321.8709" y="-1364.8" font-family="Fira Code" font-size="12.00" fill="#242424">either/index.js</text>
</g>
<!-- either/index.js&#45;&gt;either/ap.js -->
<g id="edge14" class="edge">
<title>either/index.js&#45;&gt;either/ap.js</title>
<path fill="none" stroke="#242424" d="M1339.3056,-1304.9207C1352.541,-1257.6416 1370.643,-1192.9786 1383.7905,-1146.0136"/>
<polygon fill="#242424" stroke="#242424" points="1387.1919,-1146.8464 1386.5173,-1136.273 1380.451,-1144.9592 1387.1919,-1146.8464"/>
</g>
<!-- either/index.js&#45;&gt;either/bimap.js -->
<g id="edge15" class="edge">
<title>either/index.js&#45;&gt;either/bimap.js</title>
<path fill="none" stroke="#242424" d="M1383.997,-1306.2469C1409.419,-1279.6212 1438.1359,-1247.2457 1460.8709,-1215.4 1473.989,-1197.025 1486.4417,-1175.9594 1497.1489,-1156.1953"/>
<polygon fill="#242424" stroke="#242424" points="1500.3183,-1157.6901 1501.9416,-1147.2203 1494.1436,-1154.3926 1500.3183,-1157.6901"/>
</g>
<!-- either/index.js&#45;&gt;either/fold.js -->
<g id="edge16" class="edge">
<title>either/index.js&#45;&gt;either/fold.js</title>
<path fill="none" stroke="#242424" d="M1384.0109,-1346.1282C1445.9554,-1322.5012 1540.5962,-1278.9754 1602.8709,-1215.4 1620.2473,-1197.6606 1634.1104,-1174.5031 1644.6142,-1152.6335"/>
<polygon fill="#242424" stroke="#242424" points="1647.8829,-1153.9042 1648.9107,-1143.3593 1641.5313,-1150.9617 1647.8829,-1153.9042"/>
</g>
<!-- either/index.js&#45;&gt;either/guided&#45;left.js -->
<g id="edge17" class="edge">
<title>either/index.js&#45;&gt;either/guided&#45;left.js</title>
<path fill="none" stroke="#242424" d="M1259.5698,-1330.1174C1215.2193,-1301.9563 1155.7705,-1260.4852 1110.8709,-1215.4 1099.1431,-1203.6238 1087.8221,-1190.2383 1077.3573,-1176.6369"/>
<polygon fill="#242424" stroke="#242424" points="1080.1179,-1174.4846 1071.2981,-1168.6142 1074.532,-1178.7034 1080.1179,-1174.4846"/>
</g>
<!-- either/index.js&#45;&gt;either/guided.js -->
<g id="edge19" class="edge">
<title>either/index.js&#45;&gt;either/guided.js</title>
<path fill="none" stroke="#242424" d="M1320.4142,-1304.8979C1318.1998,-1224.033 1313.1136,-1078.5908 1302.8709,-954.6 1299.2107,-910.2927 1293.398,-860.9047 1288.2983,-821.2249"/>
<polygon fill="#242424" stroke="#242424" points="1291.7415,-820.56 1286.9846,-811.093 1284.7996,-821.4601 1291.7415,-820.56"/>
</g>
<!-- either/index.js&#45;&gt;either/guided&#45;right.js -->
<g id="edge18" class="edge">
<title>either/index.js&#45;&gt;either/guided&#45;right.js</title>
<path fill="none" stroke="#242424" d="M1296.4913,-1304.9207C1281.7637,-1268.7804 1262.8967,-1222.4825 1246.2758,-1181.6963"/>
<polygon fill="#242424" stroke="#242424" points="1249.4507,-1180.2127 1242.4357,-1172.2729 1242.9683,-1182.8544 1249.4507,-1180.2127"/>
</g>
<!-- errors/expect&#45;function&#45;props.js -->
<g id="node15" class="node">
<title>errors/expect&#45;function&#45;props.js</title>
<polygon fill="none" stroke="#242424" stroke-width="4" points="523.571,-1204.7001 284.1708,-1204.7001 284.1708,-965.2999 523.571,-965.2999 523.571,-1204.7001"/>
<text text-anchor="middle" x="403.8709" y="-1082.6" font-family="Fira Code" font-size="12.00" fill="#242424">errors/expect&#45;function&#45;props.js</text>
</g>
<!-- errors/expect&#45;function&#45;props.js&#45;&gt;f&#45;utility/f&#45;utility.js -->
<g id="edge20" class="edge">
<title>errors/expect&#45;function&#45;props.js&#45;&gt;f&#45;utility/f&#45;utility.js</title>
<path fill="none" stroke="#242424" d="M454.1166,-965.3353C522.1604,-803.5816 647.6659,-506.2848 756.8709,-253.4 766.5891,-230.8955 777.1411,-206.7231 787.1229,-183.974"/>
<polygon fill="#242424" stroke="#242424" points="790.3968,-185.2235 791.2126,-174.6601 783.9874,-182.4092 790.3968,-185.2235"/>
</g>
<!-- guiderail.js -->
<g id="node16" class="node">
<title>guiderail.js</title>
<polygon fill="none" stroke="#242424" stroke-width="4" points="925.2717,-1903.8008 822.4701,-1903.8008 822.4701,-1800.9992 925.2717,-1800.9992 925.2717,-1903.8008"/>
<text text-anchor="middle" x="873.8709" y="-1850" font-family="Fira Code" font-size="12.00" fill="#242424">guiderail.js</text>
</g>
<!-- guiderail.js&#45;&gt;f&#45;utility/f&#45;utility.js -->
<g id="edge21" class="edge">
<title>guiderail.js&#45;&gt;f&#45;utility/f&#45;utility.js</title>
<path fill="none" stroke="#242424" d="M895.5094,-1801.1251C904.331,-1777.5426 913.4776,-1748.9224 917.8709,-1722.2 932.5217,-1633.0852 919.1191,-1609.3025 917.8709,-1519 915.2039,-1326.0558 905.8709,-1277.9626 905.8709,-1085 905.8709,-1085 905.8709,-1085 905.8709,-745.2 905.8709,-526.16 909.1765,-469.5759 873.8709,-253.4 870.1829,-230.8187 864.7584,-206.8587 858.968,-184.3705"/>
<polygon fill="#242424" stroke="#242424" points="862.2999,-183.278 856.3777,-174.4928 855.5288,-185.0536 862.2999,-183.278"/>
</g>
<!-- multirail.js -->
<g id="node17" class="node">
<title>multirail.js</title>
<polygon fill="none" stroke="#242424" stroke-width="4" points="909.2717,-1672.0008 806.4701,-1672.0008 806.4701,-1569.1992 909.2717,-1569.1992 909.2717,-1672.0008"/>
<text text-anchor="middle" x="857.8709" y="-1618.2" font-family="Fira Code" font-size="12.00" fill="#242424">multirail.js</text>
</g>
<!-- guiderail.js&#45;&gt;multirail.js -->
<g id="edge22" class="edge">
<title>guiderail.js&#45;&gt;multirail.js</title>
<path fill="none" stroke="#242424" d="M870.3199,-1800.9561C867.8963,-1765.844 864.6739,-1719.1593 862.1148,-1682.0846"/>
<polygon fill="#242424" stroke="#242424" points="865.5923,-1681.6353 861.4119,-1671.9001 858.6089,-1682.1174 865.5923,-1681.6353"/>
</g>
<!-- rail.js -->
<g id="node18" class="node">
<title>rail.js</title>
<polygon fill="none" stroke="#242424" stroke-width="4" points="812.2721,-1400.6012 745.4697,-1400.6012 745.4697,-1333.7988 812.2721,-1333.7988 812.2721,-1400.6012"/>
<text text-anchor="middle" x="778.8709" y="-1364.8" font-family="Fira Code" font-size="12.00" fill="#242424">rail.js</text>
</g>
<!-- guiderail.js&#45;&gt;rail.js -->
<g id="edge23" class="edge">
<title>guiderail.js&#45;&gt;rail.js</title>
<path fill="none" stroke="#242424" d="M836.3652,-1801.1936C821.5989,-1778.2061 806.2039,-1750.0316 797.8709,-1722.2 765.5228,-1614.1608 769.673,-1479.4915 774.699,-1411.2496"/>
<polygon fill="#242424" stroke="#242424" points="778.2193,-1411.1238 775.5077,-1400.8818 771.2405,-1410.5793 778.2193,-1411.1238"/>
</g>
<!-- multirail.js&#45;&gt;f&#45;utility/f&#45;utility.js -->
<g id="edge40" class="edge">
<title>multirail.js&#45;&gt;f&#45;utility/f&#45;utility.js</title>
<path fill="none" stroke="#242424" d="M859.4665,-1569.2766C862.2897,-1473.9015 867.8709,-1262.8669 867.8709,-1085 867.8709,-1085 867.8709,-1085 867.8709,-745.2 867.8709,-526.5206 871.2189,-471.3083 852.8709,-253.4 850.9867,-231.023 848.1516,-207.0513 845.1091,-184.4747"/>
<polygon fill="#242424" stroke="#242424" points="848.5747,-183.9843 843.7472,-174.5532 841.6397,-184.9363 848.5747,-183.9843"/>
</g>
<!-- multirail.js&#45;&gt;rail.js -->
<g id="edge42" class="edge">
<title>multirail.js&#45;&gt;rail.js</title>
<path fill="none" stroke="#242424" d="M841.884,-1569.3207C827.328,-1522.6307 806.074,-1454.4565 792.3568,-1410.4574"/>
<polygon fill="#242424" stroke="#242424" points="795.613,-1409.1422 789.2952,-1400.6371 788.9302,-1411.2257 795.613,-1409.1422"/>
</g>
<!-- ramda/src/chain.js -->
<g id="node21" class="node">
<title>ramda/src/chain.js</title>
<polygon fill="none" stroke="#0c821d" stroke-width="4" points="1079.4714,-1439.8005 934.2703,-1439.8005 934.2703,-1294.5995 1079.4714,-1294.5995 1079.4714,-1439.8005"/>
<text text-anchor="middle" x="1006.8709" y="-1364.8" font-family="Fira Code" font-size="12.00" fill="#0c821d">ramda/src/chain.js</text>
</g>
<!-- multirail.js&#45;&gt;ramda/src/chain.js -->
<g id="edge41" class="edge">
<title>multirail.js&#45;&gt;ramda/src/chain.js</title>
<path fill="none" stroke="#242424" d="M888.0232,-1569.3207C908.3408,-1534.7673 935.5772,-1488.4472 958.8503,-1448.8672"/>
<polygon fill="#242424" stroke="#242424" points="962.0064,-1450.4048 964.0581,-1440.0105 955.9722,-1446.8567 962.0064,-1450.4048"/>
</g>
<!-- rail.js&#45;&gt;f&#45;utility/f&#45;utility.js -->
<g id="edge43" class="edge">
<title>rail.js&#45;&gt;f&#45;utility/f&#45;utility.js</title>
<path fill="none" stroke="#242424" d="M787.8492,-1333.7372C795.5868,-1303.1771 806.2227,-1256.6161 810.8709,-1215.4 853.6277,-836.2666 842.3232,-381.0004 834.4687,-184.8947"/>
<polygon fill="#242424" stroke="#242424" points="837.9544,-184.4685 834.0508,-174.619 830.9602,-184.753 837.9544,-184.4685"/>
</g>
<!-- rail.js&#45;&gt;assertions/reject&#45;non&#45;functions.js -->
<g id="edge44" class="edge">
<title>rail.js&#45;&gt;assertions/reject&#45;non&#45;functions.js</title>
<path fill="none" stroke="#242424" d="M766.282,-1333.9982C755.9036,-1306.6265 740.4304,-1265.8178 724.9985,-1225.118"/>
<polygon fill="#242424" stroke="#242424" points="728.2136,-1223.725 721.3955,-1215.6155 721.6683,-1226.2068 728.2136,-1223.725"/>
</g>
<!-- rail.js&#45;&gt;either/guided&#45;left.js -->
<g id="edge45" class="edge">
<title>rail.js&#45;&gt;either/guided&#45;left.js</title>
<path fill="none" stroke="#242424" d="M806.99,-1333.9982C839.5679,-1295.5317 894.6212,-1230.5274 940.3083,-1176.5822"/>
<polygon fill="#242424" stroke="#242424" points="943.1853,-1178.6008 946.9773,-1168.7078 937.8436,-1174.0768 943.1853,-1178.6008"/>
</g>
<!-- rail.js&#45;&gt;either/guided&#45;right.js -->
<g id="edge46" class="edge">
<title>rail.js&#45;&gt;either/guided&#45;right.js</title>
<path fill="none" stroke="#242424" d="M812.2237,-1349.844C841.6356,-1334.7135 885.776,-1312.4291 924.8709,-1294.4 1006.4301,-1256.788 1040.4122,-1271.0969 1110.8709,-1215.4 1123.5639,-1205.3663 1135.4019,-1193.253 1146.1278,-1180.5025"/>
<polygon fill="#242424" stroke="#242424" points="1149.0516,-1182.4554 1152.6602,-1172.4941 1143.6272,-1178.0309 1149.0516,-1182.4554"/>
</g>
<!-- rail.js&#45;&gt;errors/expect&#45;function&#45;props.js -->
<g id="edge47" class="edge">
<title>rail.js&#45;&gt;errors/expect&#45;function&#45;props.js</title>
<path fill="none" stroke="#242424" d="M745.3945,-1349.8734C696.4688,-1323.8316 603.5728,-1271.6256 532.8709,-1215.4 531.0989,-1213.9909 529.3259,-1212.5594 527.5532,-1211.108"/>
<polygon fill="#242424" stroke="#242424" points="529.7066,-1208.3463 519.7874,-1204.6233 525.2199,-1213.7194 529.7066,-1208.3463"/>
</g>
<!-- handrail.js -->
<g id="node19" class="node">
<title>handrail.js</title>
<polygon fill="none" stroke="#242424" stroke-width="4" points="662.5711,-1900.1002 567.1707,-1900.1002 567.1707,-1804.6998 662.5711,-1804.6998 662.5711,-1900.1002"/>
<text text-anchor="middle" x="614.8709" y="-1850" font-family="Fira Code" font-size="12.00" fill="#242424">handrail.js</text>
</g>
<!-- handrail.js&#45;&gt;assertions/all&#45;props&#45;are&#45;functions.js -->
<g id="edge25" class="edge">
<title>handrail.js&#45;&gt;assertions/all&#45;props&#45;are&#45;functions.js</title>
<path fill="none" stroke="#242424" d="M566.9746,-1841.5825C478.7996,-1820.6559 296.1852,-1772.2641 256.8709,-1722.2 158.8394,-1597.3637 217.8709,-1525.927 217.8709,-1367.2 217.8709,-1367.2 217.8709,-1367.2 217.8709,-1085 217.8709,-899.6583 217.8709,-686.3289 217.8709,-546.4435"/>
<polygon fill="#242424" stroke="#242424" points="221.371,-546.0811 217.8709,-536.0812 214.371,-546.0812 221.371,-546.0811"/>
</g>
<!-- handrail.js&#45;&gt;f&#45;utility/f&#45;utility.js -->
<g id="edge24" class="edge">
<title>handrail.js&#45;&gt;f&#45;utility/f&#45;utility.js</title>
<path fill="none" stroke="#242424" d="M566.9451,-1842.7975C469.3594,-1822.4158 252.1449,-1772.5569 196.8709,-1722.2 70.5081,-1607.0783 48.8709,-1538.1402 48.8709,-1367.2 48.8709,-1367.2 48.8709,-1367.2 48.8709,-745.2 48.8709,-526.4592 -72.599,-421.0776 67.8709,-253.4 152.2377,-152.6921 546.5477,-109.1635 732.4335,-93.9945"/>
<polygon fill="#242424" stroke="#242424" points="732.792,-97.4771 742.4789,-93.1859 732.2303,-90.4997 732.792,-97.4771"/>
</g>
<!-- handrail.js&#45;&gt;assertions/judge&#45;object.js -->
<g id="edge26" class="edge">
<title>handrail.js&#45;&gt;assertions/judge&#45;object.js</title>
<path fill="none" stroke="#242424" d="M567.2468,-1807.7066C541.55,-1783.5912 508.6977,-1752.7606 477.1073,-1723.1142"/>
<polygon fill="#242424" stroke="#242424" points="479.2253,-1720.3019 469.5383,-1716.0109 474.4351,-1725.4063 479.2253,-1720.3019"/>
</g>
<!-- handrail.js&#45;&gt;assertions/reject&#45;non&#45;functions.js -->
<g id="edge27" class="edge">
<title>handrail.js&#45;&gt;assertions/reject&#45;non&#45;functions.js</title>
<path fill="none" stroke="#242424" d="M618.4149,-1804.6856C626.8551,-1691.0542 648.41,-1400.858 661.4252,-1225.6322"/>
<polygon fill="#242424" stroke="#242424" points="664.9229,-1225.7913 662.1733,-1215.5595 657.9421,-1225.2727 664.9229,-1225.7913"/>
</g>
<!-- handrail.js&#45;&gt;errors/expect&#45;function&#45;props.js -->
<g id="edge28" class="edge">
<title>handrail.js&#45;&gt;errors/expect&#45;function&#45;props.js</title>
<path fill="none" stroke="#242424" d="M601.7516,-1804.6856C569.8299,-1688.5873 487.2301,-1388.1747 439.4459,-1214.3854"/>
<polygon fill="#242424" stroke="#242424" points="442.7997,-1213.3808 436.7737,-1204.6665 436.0502,-1215.2366 442.7997,-1213.3808"/>
</g>
<!-- handrail.js&#45;&gt;multirail.js -->
<g id="edge29" class="edge">
<title>handrail.js&#45;&gt;multirail.js</title>
<path fill="none" stroke="#242424" d="M662.5899,-1806.8804C701.7069,-1769.5663 757.2447,-1716.5882 799.0986,-1676.6634"/>
<polygon fill="#242424" stroke="#242424" points="801.663,-1679.0543 806.483,-1669.6193 796.8313,-1673.9892 801.663,-1679.0543"/>
</g>
<!-- handrail.js&#45;&gt;rail.js -->
<g id="edge30" class="edge">
<title>handrail.js&#45;&gt;rail.js</title>
<path fill="none" stroke="#242424" d="M635.2086,-1804.572C645.2847,-1780.1319 657.3082,-1749.7986 666.8709,-1722.2 697.7004,-1633.2239 698.2728,-1608.7182 726.8709,-1519 738.6145,-1482.1577 752.911,-1440.639 763.5393,-1410.3469"/>
<polygon fill="#242424" stroke="#242424" points="766.9768,-1411.1222 766.9941,-1400.5273 760.3736,-1408.7989 766.9768,-1411.1222"/>
</g>
<!-- index.js -->
<g id="node20" class="node">
<title>index.js</title>
<polygon fill="none" stroke="#242424" stroke-width="4" points="1043.4719,-2056.0011 970.2698,-2056.0011 970.2698,-1982.7989 1043.4719,-1982.7989 1043.4719,-2056.0011"/>
<text text-anchor="middle" x="1006.8709" y="-2017" font-family="Fira Code" font-size="12.00" fill="#242424">index.js</text>
</g>
<!-- index.js&#45;&gt;f&#45;utility/f&#45;utility.js -->
<g id="edge31" class="edge">
<title>index.js&#45;&gt;f&#45;utility/f&#45;utility.js</title>
<path fill="none" stroke="#242424" d="M1043.6269,-2016.1288C1161.8186,-2005.0683 1530.1979,-1966.2233 1629.8709,-1903.6 1752.9633,-1826.2625 1793.8709,-1765.9714 1793.8709,-1620.6 1793.8709,-1620.6 1793.8709,-1620.6 1793.8709,-745.2 1793.8709,-328.489 1171.7825,-156.6604 927.0754,-105.1893"/>
<polygon fill="#242424" stroke="#242424" points="927.623,-101.7283 917.1197,-103.1179 926.1971,-108.5815 927.623,-101.7283"/>
</g>
<!-- index.js&#45;&gt;either/assert.js -->
<g id="edge33" class="edge">
<title>index.js&#45;&gt;either/assert.js</title>
<path fill="none" stroke="#242424" d="M1043.5037,-2017.4372C1193.8801,-2007.2401 1755.8709,-1947.2782 1755.8709,-1620.6 1755.8709,-1620.6 1755.8709,-1620.6 1755.8709,-1085 1755.8709,-866.7004 1749.2581,-786.0455 1613.8709,-614.8 1544.0799,-526.5244 1428.7905,-462.0514 1353.0791,-426.4435"/>
<polygon fill="#242424" stroke="#242424" points="1354.1321,-423.0735 1343.5884,-422.0335 1351.1823,-429.4216 1354.1321,-423.0735"/>
</g>
<!-- index.js&#45;&gt;either/fold.js -->
<g id="edge34" class="edge">
<title>index.js&#45;&gt;either/fold.js</title>
<path fill="none" stroke="#242424" d="M1037.4193,-1982.761C1056.0501,-1960.1726 1080.1796,-1930.4797 1100.8709,-1903.6 1331.8056,-1603.5965 1404.2042,-1537.6802 1602.8709,-1215.4 1615.1452,-1195.4884 1627.2412,-1173.068 1637.7052,-1152.5061"/>
<polygon fill="#242424" stroke="#242424" points="1640.8621,-1154.019 1642.2387,-1143.514 1634.6115,-1150.8677 1640.8621,-1154.019"/>
</g>
<!-- index.js&#45;&gt;either/index.js -->
<g id="edge35" class="edge">
<title>index.js&#45;&gt;either/index.js</title>
<path fill="none" stroke="#242424" d="M1024.7092,-1982.4662C1075.3132,-1877.6918 1220.4318,-1577.2271 1287.3318,-1438.7124"/>
<polygon fill="#242424" stroke="#242424" points="1290.6198,-1439.9522 1291.8173,-1429.4253 1284.3164,-1436.9078 1290.6198,-1439.9522"/>
</g>
<!-- index.js&#45;&gt;guiderail.js -->
<g id="edge36" class="edge">
<title>index.js&#45;&gt;guiderail.js</title>
<path fill="none" stroke="#242424" d="M977.6835,-1982.7511C961.1267,-1961.9619 940.0075,-1935.4438 921.1458,-1911.7602"/>
<polygon fill="#242424" stroke="#242424" points="923.8133,-1909.4914 914.8456,-1903.8495 918.3376,-1913.8523 923.8133,-1909.4914"/>
</g>
<!-- index.js&#45;&gt;multirail.js -->
<g id="edge38" class="edge">
<title>index.js&#45;&gt;multirail.js</title>
<path fill="none" stroke="#242424" d="M995.4391,-1982.4249C981.7308,-1938.7838 957.6189,-1864.1799 933.8709,-1801.2 918.6765,-1760.9044 899.924,-1716.2968 884.8485,-1681.4964"/>
<polygon fill="#242424" stroke="#242424" points="887.8964,-1679.7284 880.6999,-1671.9527 881.4766,-1682.519 887.8964,-1679.7284"/>
</g>
<!-- index.js&#45;&gt;rail.js -->
<g id="edge39" class="edge">
<title>index.js&#45;&gt;rail.js</title>
<path fill="none" stroke="#242424" d="M970.0154,-2007.1337C926.1274,-1990.6096 853.7623,-1956.9609 813.8709,-1903.6 701.7524,-1753.6243 743.8865,-1509.2249 767.3478,-1410.5508"/>
<polygon fill="#242424" stroke="#242424" points="770.7975,-1411.1769 769.7608,-1400.633 763.9959,-1409.5221 770.7975,-1411.1769"/>
</g>
<!-- index.js&#45;&gt;handrail.js -->
<g id="edge37" class="edge">
<title>index.js&#45;&gt;handrail.js</title>
<path fill="none" stroke="#242424" d="M969.9986,-2004.652C916.2766,-1983.0511 813.4523,-1941.2788 726.8709,-1903.6 709.0068,-1895.8258 689.6694,-1887.0989 672.171,-1879.0825"/>
<polygon fill="#242424" stroke="#242424" points="673.208,-1875.7072 662.6599,-1874.7126 670.2855,-1882.068 673.208,-1875.7072"/>
</g>
<!-- index.js&#45;&gt;ramda/src/chain.js -->
<g id="edge32" class="edge">
<title>index.js&#45;&gt;ramda/src/chain.js</title>
<path fill="none" stroke="#242424" d="M1006.8709,-1982.4662C1006.8709,-1880.428 1006.8709,-1592.7871 1006.8709,-1449.8894"/>
<polygon fill="#242424" stroke="#242424" points="1010.371,-1449.8554 1006.8709,-1439.8555 1003.371,-1449.8555 1010.371,-1449.8554"/>
</g>
</g>
</svg>
