<?xml version="1.0" encoding="UTF-8" standalone="no"?>
<!DOCTYPE svg PUBLIC "-//W3C//DTD SVG 1.1//EN"
 "http://www.w3.org/Graphics/SVG/1.1/DTD/svg11.dtd">
<!-- Generated by graphviz version 2.40.1 (20161225.0304)
 -->
<!-- Title: G Pages: 1 -->
<svg width="1953pt" height="1902pt"
 viewBox="0.00 0.00 1952.78 1901.78" xmlns="http://www.w3.org/2000/svg" xmlns:xlink="http://www.w3.org/1999/xlink">
<g id="graph0" class="graph" transform="scale(1 1) rotate(0) translate(7.992 1893.792)">
<title>G</title>
<polygon fill="#eeeeff" stroke="transparent" points="-7.992,7.992 -7.992,-1893.792 1944.792,-1893.792 1944.792,7.992 -7.992,7.992"/>
<!-- assertions/all&#45;props&#45;are&#45;functions.js -->
<g id="node1" class="node">
<title>assertions/all&#45;props&#45;are&#45;functions.js</title>
<polygon fill="none" stroke="#242424" stroke-width="4" points="282.6003,-555.2003 -.2003,-555.2003 -.2003,-272.3997 282.6003,-272.3997 282.6003,-555.2003"/>
<text text-anchor="middle" x="141.2" y="-411.4" font-family="Fira Code" font-size="12.00" fill="#242424">assertions/all&#45;props&#45;are&#45;functions.js</text>
</g>
<!-- Ⓜ f&#45;utility/f&#45;utility.js -->
<g id="node2" class="node">
<title>Ⓜ f&#45;utility/f&#45;utility.js</title>
<polygon fill="none" stroke="#0c821d" stroke-width="4" points="903.8004,-193.4004 710.5996,-193.4004 710.5996,-.1996 903.8004,-.1996 903.8004,-193.4004"/>
<text text-anchor="middle" x="807.2" y="-95.6" font-family="Fira Code" font-size="12.00" fill="#0c821d">Ⓜ f&#45;utility/f&#45;utility.js</text>
</g>
<!-- assertions/all&#45;props&#45;are&#45;functions.js&#45;&gt;Ⓜ f&#45;utility/f&#45;utility.js -->
<g id="edge1" class="edge">
<title>assertions/all&#45;props&#45;are&#45;functions.js&#45;&gt;Ⓜ f&#45;utility/f&#45;utility.js</title>
<path fill="none" stroke="#242424" d="M282.4986,-278.0421C285.3874,-276.1684 288.2889,-274.352 291.2,-272.6 421.5327,-194.1598 591.6155,-144.9167 700.1551,-119.1291"/>
<polygon fill="#242424" stroke="#242424" points="701.2038,-122.4781 710.1374,-116.7824 699.6018,-115.6639 701.2038,-122.4781"/>
</g>
<!-- assertions/index.js -->
<g id="node3" class="node">
<title>assertions/index.js</title>
<polygon fill="none" stroke="#242424" stroke-width="4" points="478.5001,-850.3001 325.8999,-850.3001 325.8999,-697.6999 478.5001,-697.6999 478.5001,-850.3001"/>
<text text-anchor="middle" x="402.2" y="-771.6" font-family="Fira Code" font-size="12.00" fill="#242424">assertions/index.js</text>
</g>
<!-- assertions/index.js&#45;&gt;assertions/all&#45;props&#45;are&#45;functions.js -->
<g id="edge2" class="edge">
<title>assertions/index.js&#45;&gt;assertions/all&#45;props&#45;are&#45;functions.js</title>
<path fill="none" stroke="#242424" d="M346.8486,-697.6108C318.5457,-658.5507 283.0889,-609.6176 249.6264,-563.4368"/>
<polygon fill="#242424" stroke="#242424" points="252.3243,-561.195 243.6226,-555.151 246.6559,-565.3023 252.3243,-561.195"/>
</g>
<!-- assertions/judge&#45;object.js -->
<g id="node4" class="node">
<title>assertions/judge&#45;object.js</title>
<polygon fill="none" stroke="#242424" stroke-width="4" points="503.9001,-515.5001 300.4999,-515.5001 300.4999,-312.0999 503.9001,-312.0999 503.9001,-515.5001"/>
<text text-anchor="middle" x="402.2" y="-411.4" font-family="Fira Code" font-size="12.00" fill="#242424">assertions/judge&#45;object.js</text>
</g>
<!-- assertions/index.js&#45;&gt;assertions/judge&#45;object.js -->
<g id="edge3" class="edge">
<title>assertions/index.js&#45;&gt;assertions/judge&#45;object.js</title>
<path fill="none" stroke="#242424" d="M402.2,-697.6108C402.2,-647.7446 402.2,-581.787 402.2,-526.0078"/>
<polygon fill="#242424" stroke="#242424" points="405.7001,-525.7172 402.2,-515.7172 398.7001,-525.7173 405.7001,-525.7172"/>
</g>
<!-- assertions/reject&#45;non&#45;functions.js -->
<g id="node5" class="node">
<title>assertions/reject&#45;non&#45;functions.js</title>
<polygon fill="none" stroke="#242424" stroke-width="4" points="858.5001,-544.1001 597.8999,-544.1001 597.8999,-283.4999 858.5001,-283.4999 858.5001,-544.1001"/>
<text text-anchor="middle" x="728.2" y="-411.4" font-family="Fira Code" font-size="12.00" fill="#242424">assertions/reject&#45;non&#45;functions.js</text>
</g>
<!-- assertions/index.js&#45;&gt;assertions/reject&#45;non&#45;functions.js -->
<g id="edge4" class="edge">
<title>assertions/index.js&#45;&gt;assertions/reject&#45;non&#45;functions.js</title>
<path fill="none" stroke="#242424" d="M471.3362,-697.6108C509.6471,-655.2808 558.4522,-601.3556 603.2085,-551.9041"/>
<polygon fill="#242424" stroke="#242424" points="605.9519,-554.0888 610.0672,-544.3259 600.7618,-549.3916 605.9519,-554.0888"/>
</g>
<!-- assertions/judge&#45;object.js&#45;&gt;Ⓜ f&#45;utility/f&#45;utility.js -->
<g id="edge5" class="edge">
<title>assertions/judge&#45;object.js&#45;&gt;Ⓜ f&#45;utility/f&#45;utility.js</title>
<path fill="none" stroke="#242424" d="M478.7507,-311.9699C491.2164,-298.0277 504.5427,-284.4529 518.2,-272.6 573.6677,-224.4606 643.9106,-181.4008 701.2557,-149.946"/>
<polygon fill="#242424" stroke="#242424" points="703.2348,-152.8536 710.3443,-144.9983 699.8879,-146.7056 703.2348,-152.8536"/>
</g>
<!-- assertions/reject&#45;non&#45;functions.js&#45;&gt;Ⓜ f&#45;utility/f&#45;utility.js -->
<g id="edge6" class="edge">
<title>assertions/reject&#45;non&#45;functions.js&#45;&gt;Ⓜ f&#45;utility/f&#45;utility.js</title>
<path fill="none" stroke="#242424" d="M760.6743,-283.4917C767.3159,-256.8413 774.2313,-229.0921 780.6365,-203.3902"/>
<polygon fill="#242424" stroke="#242424" points="784.0427,-204.196 783.0648,-193.6464 777.2504,-202.5033 784.0427,-204.196"/>
</g>
<!-- either/ap.js -->
<g id="node6" class="node">
<title>either/ap.js</title>
<polygon fill="none" stroke="#242424" stroke-width="4" points="1650.6008,-1131.6008 1547.7992,-1131.6008 1547.7992,-1028.7992 1650.6008,-1028.7992 1650.6008,-1131.6008"/>
<text text-anchor="middle" x="1599.2" y="-1077.8" font-family="Fira Code" font-size="12.00" fill="#242424">either/ap.js</text>
</g>
<!-- Ⓜ entrust/entrust.js -->
<g id="node7" class="node">
<title>Ⓜ entrust/entrust.js</title>
<polygon fill="none" stroke="#0c821d" stroke-width="4" points="1681.5001,-856.3001 1516.8999,-856.3001 1516.8999,-691.6999 1681.5001,-691.6999 1681.5001,-856.3001"/>
<text text-anchor="middle" x="1599.2" y="-772.8" font-family="Fira Code" font-size="12.00" fill="#0c821d">Ⓜ entrust/entrust.js</text>
</g>
<!-- either/ap.js&#45;&gt;Ⓜ entrust/entrust.js -->
<g id="edge7" class="edge">
<title>either/ap.js&#45;&gt;Ⓜ entrust/entrust.js</title>
<path fill="none" stroke="#242424" d="M1599.2,-1028.949C1599.2,-984.7252 1599.2,-919.7519 1599.2,-866.4662"/>
<polygon fill="#242424" stroke="#242424" points="1602.7001,-866.3179 1599.2,-856.3179 1595.7001,-866.3179 1602.7001,-866.3179"/>
</g>
<!-- either/assert.js -->
<g id="node8" class="node">
<title>either/assert.js</title>
<polygon fill="none" stroke="#242424" stroke-width="4" points="1381.9002,-479.5002 1250.4998,-479.5002 1250.4998,-348.0998 1381.9002,-348.0998 1381.9002,-479.5002"/>
<text text-anchor="middle" x="1316.2" y="-411.4" font-family="Fira Code" font-size="12.00" fill="#242424">either/assert.js</text>
</g>
<!-- either/assert.js&#45;&gt;Ⓜ f&#45;utility/f&#45;utility.js -->
<g id="edge8" class="edge">
<title>either/assert.js&#45;&gt;Ⓜ f&#45;utility/f&#45;utility.js</title>
<path fill="none" stroke="#242424" d="M1250.1985,-367.9296C1209.168,-339.7881 1155.0947,-303.3727 1106.2,-272.6 1042.8183,-232.7096 970.4531,-190.0873 912.7914,-156.8018"/>
<polygon fill="#242424" stroke="#242424" points="914.4422,-153.7135 904.0307,-151.7511 910.946,-159.7779 914.4422,-153.7135"/>
</g>
<!-- either/bimap.js -->
<g id="node9" class="node">
<title>either/bimap.js</title>
<polygon fill="none" stroke="#242424" stroke-width="4" points="1530.2,-1142.2 1406.2,-1142.2 1406.2,-1018.2 1530.2,-1018.2 1530.2,-1142.2"/>
<text text-anchor="middle" x="1468.2" y="-1077.8" font-family="Fira Code" font-size="12.00" fill="#242424">either/bimap.js</text>
</g>
<!-- either/bimap.js&#45;&gt;Ⓜ entrust/entrust.js -->
<g id="edge9" class="edge">
<title>either/bimap.js&#45;&gt;Ⓜ entrust/entrust.js</title>
<path fill="none" stroke="#242424" d="M1494.8677,-1017.8668C1513.5622,-974.1702 1538.8618,-915.0347 1559.8656,-865.9404"/>
<polygon fill="#242424" stroke="#242424" points="1563.1546,-867.1507 1563.8702,-856.58 1556.7189,-864.3973 1563.1546,-867.1507"/>
</g>
<!-- either/fold.js -->
<g id="node10" class="node">
<title>either/fold.js</title>
<polygon fill="none" stroke="#242424" stroke-width="4" points="1785.5002,-1138.5002 1668.8998,-1138.5002 1668.8998,-1021.8998 1785.5002,-1021.8998 1785.5002,-1138.5002"/>
<text text-anchor="middle" x="1727.2" y="-1077.8" font-family="Fira Code" font-size="12.00" fill="#242424">either/fold.js</text>
</g>
<!-- either/fold.js&#45;&gt;Ⓜ entrust/entrust.js -->
<g id="edge10" class="edge">
<title>either/fold.js&#45;&gt;Ⓜ entrust/entrust.js</title>
<path fill="none" stroke="#242424" d="M1702.8229,-1021.8854C1684.3859,-977.7807 1658.7162,-916.3739 1637.539,-865.714"/>
<polygon fill="#242424" stroke="#242424" points="1640.7259,-864.2628 1633.6398,-856.3864 1634.2675,-866.9626 1640.7259,-864.2628"/>
</g>
<!-- either/guided&#45;left.js -->
<g id="node11" class="node">
<title>either/guided&#45;left.js</title>
<polygon fill="none" stroke="#242424" stroke-width="4" points="1119.9001,-1163.9001 952.4999,-1163.9001 952.4999,-996.4999 1119.9001,-996.4999 1119.9001,-1163.9001"/>
<text text-anchor="middle" x="1036.2" y="-1077.8" font-family="Fira Code" font-size="12.00" fill="#242424">either/guided&#45;left.js</text>
</g>
<!-- Ⓜ fantasy&#45;eithers/fantasy&#45;eithers.js -->
<g id="node12" class="node">
<title>Ⓜ fantasy&#45;eithers/fantasy&#45;eithers.js</title>
<polygon fill="none" stroke="#0c821d" stroke-width="4" points="1232.2,-914 952.2,-914 952.2,-634 1232.2,-634 1232.2,-914"/>
<text text-anchor="middle" x="1092.2" y="-772.8" font-family="Fira Code" font-size="12.00" fill="#0c821d">Ⓜ fantasy&#45;eithers/fantasy&#45;eithers.js</text>
</g>
<!-- either/guided&#45;left.js&#45;&gt;Ⓜ fantasy&#45;eithers/fantasy&#45;eithers.js -->
<g id="edge11" class="edge">
<title>either/guided&#45;left.js&#45;&gt;Ⓜ fantasy&#45;eithers/fantasy&#45;eithers.js</title>
<path fill="none" stroke="#242424" d="M1051.5022,-996.5295C1055.6191,-974.0194 1060.2005,-948.9688 1064.762,-924.027"/>
<polygon fill="#242424" stroke="#242424" points="1068.2201,-924.5729 1066.5764,-914.1064 1061.3344,-923.3135 1068.2201,-924.5729"/>
</g>
<!-- either/guided.js -->
<g id="node13" class="node">
<title>either/guided.js</title>
<polygon fill="none" stroke="#242424" stroke-width="4" points="1381.9002,-839.7002 1250.4998,-839.7002 1250.4998,-708.2998 1381.9002,-708.2998 1381.9002,-839.7002"/>
<text text-anchor="middle" x="1316.2" y="-771.6" font-family="Fira Code" font-size="12.00" fill="#242424">either/guided.js</text>
</g>
<!-- either/guided&#45;left.js&#45;&gt;either/guided.js -->
<g id="edge12" class="edge">
<title>either/guided&#45;left.js&#45;&gt;either/guided.js</title>
<path fill="none" stroke="#242424" d="M1119.8773,-1000.7585C1122.9978,-998.1107 1126.1116,-995.5167 1129.2,-993 1176.4211,-954.519 1200.8441,-959.6292 1241.2,-914 1258.1384,-894.8483 1272.6459,-871.2033 1284.2612,-848.8326"/>
<polygon fill="#242424" stroke="#242424" points="1287.5037,-850.1766 1288.8964,-839.6736 1281.258,-847.0157 1287.5037,-850.1766"/>
</g>
<!-- either/guided.js&#45;&gt;Ⓜ f&#45;utility/f&#45;utility.js -->
<g id="edge15" class="edge">
<title>either/guided.js&#45;&gt;Ⓜ f&#45;utility/f&#45;utility.js</title>
<path fill="none" stroke="#242424" d="M1284.125,-708.057C1271.663,-684.1594 1256.6702,-657.3229 1241.2,-634 1135.8102,-475.1142 993.8892,-306.3375 901.4869,-201.2649"/>
<polygon fill="#242424" stroke="#242424" points="903.8808,-198.6875 894.6442,-193.4975 898.6282,-203.3147 903.8808,-198.6875"/>
</g>
<!-- either/guided.js&#45;&gt;either/assert.js -->
<g id="edge16" class="edge">
<title>either/guided.js&#45;&gt;either/assert.js</title>
<path fill="none" stroke="#242424" d="M1316.2,-708.3526C1316.2,-646.7163 1316.2,-554.5423 1316.2,-489.7578"/>
<polygon fill="#242424" stroke="#242424" points="1319.7001,-489.6043 1316.2,-479.6044 1312.7001,-489.6044 1319.7001,-489.6043"/>
</g>
<!-- either/guided&#45;right.js -->
<g id="node14" class="node">
<title>either/guided&#45;right.js</title>
<polygon fill="none" stroke="#242424" stroke-width="4" points="1312.6005,-1167.6005 1137.7995,-1167.6005 1137.7995,-992.7995 1312.6005,-992.7995 1312.6005,-1167.6005"/>
<text text-anchor="middle" x="1225.2" y="-1077.8" font-family="Fira Code" font-size="12.00" fill="#242424">either/guided&#45;right.js</text>
</g>
<!-- either/guided&#45;right.js&#45;&gt;Ⓜ fantasy&#45;eithers/fantasy&#45;eithers.js -->
<g id="edge13" class="edge">
<title>either/guided&#45;right.js&#45;&gt;Ⓜ fantasy&#45;eithers/fantasy&#45;eithers.js</title>
<path fill="none" stroke="#242424" d="M1187.2655,-992.8651C1177.8438,-971.174 1167.4776,-947.3083 1157.1608,-923.5564"/>
<polygon fill="#242424" stroke="#242424" points="1160.2516,-921.8867 1153.0573,-914.109 1153.8311,-924.6756 1160.2516,-921.8867"/>
</g>
<!-- either/guided&#45;right.js&#45;&gt;either/guided.js -->
<g id="edge14" class="edge">
<title>either/guided&#45;right.js&#45;&gt;either/guided.js</title>
<path fill="none" stroke="#242424" d="M1251.1552,-992.8651C1264.5861,-947.6723 1280.8223,-893.0403 1293.7132,-849.6644"/>
<polygon fill="#242424" stroke="#242424" points="1297.0841,-850.6076 1296.578,-840.0249 1290.3742,-848.6134 1297.0841,-850.6076"/>
</g>
<!-- either/index.js -->
<g id="node15" class="node">
<title>either/index.js</title>
<polygon fill="none" stroke="#242424" stroke-width="4" points="1440.2,-1370.4 1316.2,-1370.4 1316.2,-1246.4 1440.2,-1246.4 1440.2,-1370.4"/>
<text text-anchor="middle" x="1378.2" y="-1306" font-family="Fira Code" font-size="12.00" fill="#242424">either/index.js</text>
</g>
<!-- either/index.js&#45;&gt;either/ap.js -->
<g id="edge17" class="edge">
<title>either/index.js&#45;&gt;either/ap.js</title>
<path fill="none" stroke="#242424" d="M1440.3657,-1260.1443C1471.7139,-1234.325 1509.3162,-1200.9882 1539.2,-1167.4 1546.758,-1158.9051 1554.1676,-1149.4226 1561.059,-1139.926"/>
<polygon fill="#242424" stroke="#242424" points="1564.0345,-1141.7808 1566.9723,-1131.6014 1558.3278,-1137.727 1564.0345,-1141.7808"/>
</g>
<!-- either/index.js&#45;&gt;either/assert.js -->
<g id="edge18" class="edge">
<title>either/index.js&#45;&gt;either/assert.js</title>
<path fill="none" stroke="#242424" d="M1382.2877,-1246.3469C1391.2832,-1102.6857 1410.5146,-750.6142 1391.2,-634 1382.9962,-584.4686 1365.0738,-531.1161 1348.8063,-489.334"/>
<polygon fill="#242424" stroke="#242424" points="1351.966,-487.8059 1345.0403,-479.788 1345.4544,-490.3748 1351.966,-487.8059"/>
</g>
<!-- either/index.js&#45;&gt;either/bimap.js -->
<g id="edge19" class="edge">
<title>either/index.js&#45;&gt;either/bimap.js</title>
<path fill="none" stroke="#242424" d="M1402.674,-1246.3448C1414.1814,-1217.1671 1427.968,-1182.2106 1439.92,-1151.9055"/>
<polygon fill="#242424" stroke="#242424" points="1443.3178,-1152.8297 1443.7309,-1142.2429 1436.806,-1150.2614 1443.3178,-1152.8297"/>
</g>
<!-- either/index.js&#45;&gt;either/fold.js -->
<g id="edge20" class="edge">
<title>either/index.js&#45;&gt;either/fold.js</title>
<path fill="none" stroke="#242424" d="M1440.3206,-1286.4912C1500.5243,-1263.2328 1592.3006,-1222.2529 1659.2,-1167.4 1666.7712,-1161.1921 1674.0246,-1153.9969 1680.7863,-1146.454"/>
<polygon fill="#242424" stroke="#242424" points="1683.4921,-1148.6757 1687.3776,-1138.8191 1678.1935,-1144.1014 1683.4921,-1148.6757"/>
</g>
<!-- either/index.js&#45;&gt;either/guided&#45;left.js -->
<g id="edge21" class="edge">
<title>either/index.js&#45;&gt;either/guided&#45;left.js</title>
<path fill="none" stroke="#242424" d="M1316.0958,-1278.4772C1264.1462,-1252.2396 1189.1264,-1211.483 1129.2,-1167.4 1128.81,-1167.1131 1128.4199,-1166.8247 1128.0296,-1166.535"/>
<polygon fill="#242424" stroke="#242424" points="1129.8989,-1163.5581 1119.8315,-1160.257 1125.643,-1169.1157 1129.8989,-1163.5581"/>
</g>
<!-- either/index.js&#45;&gt;either/guided.js -->
<g id="edge23" class="edge">
<title>either/index.js&#45;&gt;either/guided.js</title>
<path fill="none" stroke="#242424" d="M1370.9969,-1246.3138C1359.5748,-1147.8626 1337.3401,-956.2143 1324.9945,-849.8029"/>
<polygon fill="#242424" stroke="#242424" points="1328.4605,-849.3071 1323.8313,-839.7771 1321.5072,-850.1139 1328.4605,-849.3071"/>
</g>
<!-- either/index.js&#45;&gt;either/guided&#45;right.js -->
<g id="edge22" class="edge">
<title>either/index.js&#45;&gt;either/guided&#45;right.js</title>
<path fill="none" stroke="#242424" d="M1336.5942,-1246.3448C1322.0295,-1224.6214 1305.3171,-1199.6949 1289.3431,-1175.8696"/>
<polygon fill="#242424" stroke="#242424" points="1292.2043,-1173.8521 1283.7284,-1167.4953 1286.3902,-1177.7503 1292.2043,-1173.8521"/>
</g>
<!-- errors/expect&#45;function&#45;props.js -->
<g id="node16" class="node">
<title>errors/expect&#45;function&#45;props.js</title>
<polygon fill="none" stroke="#242424" stroke-width="4" points="895.9001,-893.7001 656.4999,-893.7001 656.4999,-654.2999 895.9001,-654.2999 895.9001,-893.7001"/>
<text text-anchor="middle" x="776.2" y="-771.6" font-family="Fira Code" font-size="12.00" fill="#242424">errors/expect&#45;function&#45;props.js</text>
</g>
<!-- errors/expect&#45;function&#45;props.js&#45;&gt;Ⓜ f&#45;utility/f&#45;utility.js -->
<g id="edge24" class="edge">
<title>errors/expect&#45;function&#45;props.js&#45;&gt;Ⓜ f&#45;utility/f&#45;utility.js</title>
<path fill="none" stroke="#242424" d="M835.8996,-654.1878C848.8132,-622.6867 860.5748,-588.21 867.2,-555 891.7549,-431.9143 887.7474,-396.4178 867.2,-272.6 863.3888,-249.634 856.9562,-225.6414 849.6835,-203.0274"/>
<polygon fill="#242424" stroke="#242424" points="852.974,-201.8295 846.5204,-193.4271 846.3256,-204.0201 852.974,-201.8295"/>
</g>
<!-- guiderail.js -->
<g id="node17" class="node">
<title>guiderail.js</title>
<polygon fill="none" stroke="#242424" stroke-width="4" points="1071.6008,-1733.4008 968.7992,-1733.4008 968.7992,-1630.5992 1071.6008,-1630.5992 1071.6008,-1733.4008"/>
<text text-anchor="middle" x="1020.2" y="-1679.6" font-family="Fira Code" font-size="12.00" fill="#242424">guiderail.js</text>
</g>
<!-- guiderail.js&#45;&gt;Ⓜ f&#45;utility/f&#45;utility.js -->
<g id="edge25" class="edge">
<title>guiderail.js&#45;&gt;Ⓜ f&#45;utility/f&#45;utility.js</title>
<path fill="none" stroke="#242424" d="M968.8978,-1669.2162C843.6057,-1634.5957 532.2,-1526.6008 532.2,-1308.4 532.2,-1308.4 532.2,-1308.4 532.2,-774 532.2,-662.4394 503.3362,-370.2958 557.2,-272.6 588.9246,-215.0592 648.4564,-172.0503 701.4692,-142.9787"/>
<polygon fill="#242424" stroke="#242424" points="703.4459,-145.8898 710.5977,-138.073 700.1322,-139.7238 703.4459,-145.8898"/>
</g>
<!-- multirail.js -->
<g id="node18" class="node">
<title>multirail.js</title>
<polygon fill="none" stroke="#242424" stroke-width="4" points="992.6008,-1552.0008 889.7992,-1552.0008 889.7992,-1449.1992 992.6008,-1449.1992 992.6008,-1552.0008"/>
<text text-anchor="middle" x="941.2" y="-1498.2" font-family="Fira Code" font-size="12.00" fill="#242424">multirail.js</text>
</g>
<!-- guiderail.js&#45;&gt;multirail.js -->
<g id="edge26" class="edge">
<title>guiderail.js&#45;&gt;multirail.js</title>
<path fill="none" stroke="#242424" d="M997.7731,-1630.5033C988.3931,-1608.9649 977.4226,-1583.7744 967.652,-1561.3391"/>
<polygon fill="#242424" stroke="#242424" points="970.7479,-1559.6821 963.5462,-1551.9113 964.3301,-1562.4771 970.7479,-1559.6821"/>
</g>
<!-- rail.js -->
<g id="node19" class="node">
<title>rail.js</title>
<polygon fill="none" stroke="#242424" stroke-width="4" points="1013.6012,-1341.8012 946.7988,-1341.8012 946.7988,-1274.9988 1013.6012,-1274.9988 1013.6012,-1341.8012"/>
<text text-anchor="middle" x="980.2" y="-1306" font-family="Fira Code" font-size="12.00" fill="#242424">rail.js</text>
</g>
<!-- guiderail.js&#45;&gt;rail.js -->
<g id="edge27" class="edge">
<title>guiderail.js&#45;&gt;rail.js</title>
<path fill="none" stroke="#242424" d="M1016.986,-1630.6278C1013.8003,-1583.4323 1008.3628,-1511.5868 1001.2,-1449.4 997.4207,-1416.5889 991.875,-1379.6699 987.4315,-1351.8421"/>
<polygon fill="#242424" stroke="#242424" points="990.8354,-1350.965 985.7884,-1341.6495 983.9246,-1352.0791 990.8354,-1350.965"/>
</g>
<!-- multirail.js&#45;&gt;Ⓜ f&#45;utility/f&#45;utility.js -->
<g id="edge35" class="edge">
<title>multirail.js&#45;&gt;Ⓜ f&#45;utility/f&#45;utility.js</title>
<path fill="none" stroke="#242424" d="M889.614,-1473.5867C787.6734,-1416.0643 570.2,-1270.9915 570.2,-1080.2 570.2,-1080.2 570.2,-1080.2 570.2,-774 570.2,-662.4978 539.1985,-372.2624 589.2,-272.6 613.7795,-223.6084 658.9865,-183.6736 701.887,-154.3196"/>
<polygon fill="#242424" stroke="#242424" points="704.0739,-157.0672 710.4295,-148.5903 700.1749,-151.2536 704.0739,-157.0672"/>
</g>
<!-- multirail.js&#45;&gt;rail.js -->
<g id="edge36" class="edge">
<title>multirail.js&#45;&gt;rail.js</title>
<path fill="none" stroke="#242424" d="M951.6001,-1449.3464C957.7968,-1418.8074 965.5741,-1380.4796 971.4536,-1351.5042"/>
<polygon fill="#242424" stroke="#242424" points="974.8898,-1352.1697 973.4484,-1341.6734 968.0296,-1350.7776 974.8898,-1352.1697"/>
</g>
<!-- rail.js&#45;&gt;Ⓜ f&#45;utility/f&#45;utility.js -->
<g id="edge37" class="edge">
<title>rail.js&#45;&gt;Ⓜ f&#45;utility/f&#45;utility.js</title>
<path fill="none" stroke="#242424" d="M969.4927,-1275.1794C960.8461,-1246.8547 949.1691,-1204.8897 943.2,-1167.4 880.5584,-773.9698 988.8132,-658.588 890.2,-272.6 884.2523,-249.3196 875.1938,-225.3919 865.2146,-202.9773"/>
<polygon fill="#242424" stroke="#242424" points="868.3689,-201.4585 861.0432,-193.8044 861.9969,-204.3563 868.3689,-201.4585"/>
</g>
<!-- rail.js&#45;&gt;assertions/reject&#45;non&#45;functions.js -->
<g id="edge38" class="edge">
<title>rail.js&#45;&gt;assertions/reject&#45;non&#45;functions.js</title>
<path fill="none" stroke="#242424" d="M946.8721,-1283.7588C874.5169,-1227.8348 704.9215,-1082.9695 647.2,-914 606.9776,-796.2559 635.925,-655.933 669.8887,-553.9212"/>
<polygon fill="#242424" stroke="#242424" points="673.2981,-554.765 673.189,-544.1707 666.6676,-552.5207 673.2981,-554.765"/>
</g>
<!-- rail.js&#45;&gt;either/guided&#45;left.js -->
<g id="edge39" class="edge">
<title>rail.js&#45;&gt;either/guided&#45;left.js</title>
<path fill="none" stroke="#242424" d="M988.463,-1274.7283C994.9983,-1248.0969 1004.4524,-1209.5716 1013.2258,-1173.8199"/>
<polygon fill="#242424" stroke="#242424" points="1016.6951,-1174.3679 1015.6793,-1163.8219 1009.8968,-1172.6996 1016.6951,-1174.3679"/>
</g>
<!-- rail.js&#45;&gt;either/guided&#45;right.js -->
<g id="edge40" class="edge">
<title>rail.js&#45;&gt;either/guided&#45;right.js</title>
<path fill="none" stroke="#242424" d="M1013.4968,-1277.3864C1043.5506,-1249.3934 1089.25,-1206.8277 1130.5069,-1168.3999"/>
<polygon fill="#242424" stroke="#242424" points="1132.9538,-1170.9038 1137.8858,-1161.5269 1128.1828,-1165.7815 1132.9538,-1170.9038"/>
</g>
<!-- rail.js&#45;&gt;errors/expect&#45;function&#45;props.js -->
<g id="edge41" class="edge">
<title>rail.js&#45;&gt;errors/expect&#45;function&#45;props.js</title>
<path fill="none" stroke="#242424" d="M962.0899,-1275.0796C947.1402,-1246.8697 925.9056,-1205.1189 910.2,-1167.4 874.2273,-1081.007 840.3087,-981.1723 815.5967,-903.6931"/>
<polygon fill="#242424" stroke="#242424" points="818.8416,-902.3474 812.477,-893.8773 812.1704,-904.4676 818.8416,-902.3474"/>
</g>
<!-- index.js -->
<g id="node20" class="node">
<title>index.js</title>
<polygon fill="none" stroke="#242424" stroke-width="4" points="1414.8011,-1885.6011 1341.5989,-1885.6011 1341.5989,-1812.3989 1414.8011,-1812.3989 1414.8011,-1885.6011"/>
<text text-anchor="middle" x="1378.2" y="-1846.6" font-family="Fira Code" font-size="12.00" fill="#242424">index.js</text>
</g>
<!-- index.js&#45;&gt;Ⓜ f&#45;utility/f&#45;utility.js -->
<g id="edge28" class="edge">
<title>index.js&#45;&gt;Ⓜ f&#45;utility/f&#45;utility.js</title>
<path fill="none" stroke="#242424" d="M1414.913,-1839.0873C1519.7857,-1808.3124 1813.2,-1704.0321 1813.2,-1500.6 1813.2,-1500.6 1813.2,-1500.6 1813.2,-774 1813.2,-344.192 1173.4552,-169.235 914.2967,-115.9937"/>
<polygon fill="#242424" stroke="#242424" points="914.6129,-112.4865 904.1161,-113.9247 913.2187,-119.3462 914.6129,-112.4865"/>
</g>
<!-- index.js&#45;&gt;either/fold.js -->
<g id="edge29" class="edge">
<title>index.js&#45;&gt;either/fold.js</title>
<path fill="none" stroke="#242424" d="M1394.9154,-1812.1782C1449.8106,-1691.2515 1625.1218,-1305.0645 1696.5119,-1147.8018"/>
<polygon fill="#242424" stroke="#242424" points="1699.7061,-1149.2325 1700.6527,-1138.6801 1693.3321,-1146.339 1699.7061,-1149.2325"/>
</g>
<!-- index.js&#45;&gt;either/index.js -->
<g id="edge30" class="edge">
<title>index.js&#45;&gt;either/index.js</title>
<path fill="none" stroke="#242424" d="M1378.2,-1812.2674C1378.2,-1723.8003 1378.2,-1497.6117 1378.2,-1380.7382"/>
<polygon fill="#242424" stroke="#242424" points="1381.7001,-1380.4615 1378.2,-1370.4616 1374.7001,-1380.4616 1381.7001,-1380.4615"/>
</g>
<!-- index.js&#45;&gt;guiderail.js -->
<g id="edge31" class="edge">
<title>index.js&#45;&gt;guiderail.js</title>
<path fill="none" stroke="#242424" d="M1341.5701,-1831.9129C1280.1323,-1803.2533 1155.7237,-1745.2192 1081.0029,-1710.3633"/>
<polygon fill="#242424" stroke="#242424" points="1082.2391,-1707.078 1071.6969,-1706.0223 1079.2798,-1713.4217 1082.2391,-1707.078"/>
</g>
<!-- index.js&#45;&gt;multirail.js -->
<g id="edge33" class="edge">
<title>index.js&#45;&gt;multirail.js</title>
<path fill="none" stroke="#242424" d="M1341.5764,-1844.2197C1249.0071,-1831.3429 1009.5121,-1792.8237 960.2,-1733.2 921.2247,-1686.0747 921.6041,-1613.6613 928.4801,-1562.1616"/>
<polygon fill="#242424" stroke="#242424" points="931.9598,-1562.5531 929.9322,-1552.1542 925.0324,-1561.5479 931.9598,-1562.5531"/>
</g>
<!-- index.js&#45;&gt;rail.js -->
<g id="edge34" class="edge">
<title>index.js&#45;&gt;rail.js</title>
<path fill="none" stroke="#242424" d="M1351.1567,-1812.2674C1279.6831,-1715.1854 1086.1076,-1452.2534 1010.7773,-1349.9328"/>
<polygon fill="#242424" stroke="#242424" points="1013.4571,-1347.6694 1004.7098,-1341.6915 1007.82,-1351.8195 1013.4571,-1347.6694"/>
</g>
<!-- handrail.js -->
<g id="node21" class="node">
<title>handrail.js</title>
<polygon fill="none" stroke="#0c821d" stroke-width="4" points="1936.9002,-1729.7002 1841.4998,-1729.7002 1841.4998,-1634.2998 1936.9002,-1634.2998 1936.9002,-1729.7002"/>
<text text-anchor="middle" x="1889.2" y="-1679.6" font-family="Fira Code" font-size="12.00" fill="#0c821d">handrail.js</text>
</g>
<!-- index.js&#45;&gt;handrail.js -->
<g id="edge32" class="edge">
<title>index.js&#45;&gt;handrail.js</title>
<path fill="none" stroke="#242424" d="M1415.03,-1845.0068C1494.2557,-1835.2686 1685.1862,-1805.5782 1827.2,-1733.2 1829.019,-1732.2729 1830.8325,-1731.2847 1832.6352,-1730.2453"/>
<polygon fill="#242424" stroke="#242424" points="1834.9193,-1732.9444 1841.5342,-1724.6683 1831.2021,-1727.0129 1834.9193,-1732.9444"/>
</g>
</g>
</svg>
