<?xml version="1.0" encoding="UTF-8" standalone="no"?>
<!DOCTYPE svg PUBLIC "-//W3C//DTD SVG 1.1//EN"
 "http://www.w3.org/Graphics/SVG/1.1/DTD/svg11.dtd">
<!-- Generated by graphviz version 2.40.1 (20161225.0304)
 -->
<!-- Title: G Pages: 1 -->
<svg width="2062pt" height="1539pt"
 viewBox="0.00 0.00 2061.78 1538.98" xmlns="http://www.w3.org/2000/svg" xmlns:xlink="http://www.w3.org/1999/xlink">
<g id="graph0" class="graph" transform="scale(1 1) rotate(0) translate(7.992 1530.992)">
<title>G</title>
<polygon fill="#eeeeff" stroke="transparent" points="-7.992,7.992 -7.992,-1530.992 2053.792,-1530.992 2053.792,7.992 -7.992,7.992"/>
<!-- assertions/all&#45;props&#45;are&#45;functions.js -->
<g id="node1" class="node">
<title>assertions/all&#45;props&#45;are&#45;functions.js</title>
<polygon fill="none" stroke="#242424" stroke-width="4" points="282.6003,-555.2003 -.2003,-555.2003 -.2003,-272.3997 282.6003,-272.3997 282.6003,-555.2003"/>
<text text-anchor="middle" x="141.2" y="-411.4" font-family="Fira Code" font-size="12.00" fill="#242424">assertions/all&#45;props&#45;are&#45;functions.js</text>
</g>
<!-- Ⓜ f&#45;utility/f&#45;utility.js -->
<g id="node2" class="node">
<title>Ⓜ f&#45;utility/f&#45;utility.js</title>
<polygon fill="none" stroke="#0c821d" stroke-width="4" points="1028.8004,-193.4004 835.5996,-193.4004 835.5996,-.1996 1028.8004,-.1996 1028.8004,-193.4004"/>
<text text-anchor="middle" x="932.2" y="-95.6" font-family="Fira Code" font-size="12.00" fill="#0c821d">Ⓜ f&#45;utility/f&#45;utility.js</text>
</g>
<!-- assertions/all&#45;props&#45;are&#45;functions.js&#45;&gt;Ⓜ f&#45;utility/f&#45;utility.js -->
<g id="edge1" class="edge">
<title>assertions/all&#45;props&#45;are&#45;functions.js&#45;&gt;Ⓜ f&#45;utility/f&#45;utility.js</title>
<path fill="none" stroke="#242424" d="M282.8177,-277.5109C285.5981,-275.8145 288.3931,-274.1754 291.2,-272.6 463.8099,-175.7243 692.89,-129.7436 825.2705,-109.9473"/>
<polygon fill="#242424" stroke="#242424" points="826.034,-113.3727 835.4173,-108.453 825.014,-106.4474 826.034,-113.3727"/>
</g>
<!-- assertions/index.js -->
<g id="node3" class="node">
<title>assertions/index.js</title>
<polygon fill="none" stroke="#242424" stroke-width="4" points="478.5001,-850.3001 325.8999,-850.3001 325.8999,-697.6999 478.5001,-697.6999 478.5001,-850.3001"/>
<text text-anchor="middle" x="402.2" y="-771.6" font-family="Fira Code" font-size="12.00" fill="#242424">assertions/index.js</text>
</g>
<!-- assertions/index.js&#45;&gt;assertions/all&#45;props&#45;are&#45;functions.js -->
<g id="edge2" class="edge">
<title>assertions/index.js&#45;&gt;assertions/all&#45;props&#45;are&#45;functions.js</title>
<path fill="none" stroke="#242424" d="M346.8486,-697.6108C318.5457,-658.5507 283.0889,-609.6176 249.6264,-563.4368"/>
<polygon fill="#242424" stroke="#242424" points="252.3243,-561.195 243.6226,-555.151 246.6559,-565.3023 252.3243,-561.195"/>
</g>
<!-- assertions/judge&#45;object.js -->
<g id="node4" class="node">
<title>assertions/judge&#45;object.js</title>
<polygon fill="none" stroke="#242424" stroke-width="4" points="503.9001,-515.5001 300.4999,-515.5001 300.4999,-312.0999 503.9001,-312.0999 503.9001,-515.5001"/>
<text text-anchor="middle" x="402.2" y="-411.4" font-family="Fira Code" font-size="12.00" fill="#242424">assertions/judge&#45;object.js</text>
</g>
<!-- assertions/index.js&#45;&gt;assertions/judge&#45;object.js -->
<g id="edge3" class="edge">
<title>assertions/index.js&#45;&gt;assertions/judge&#45;object.js</title>
<path fill="none" stroke="#242424" d="M402.2,-697.6108C402.2,-647.7446 402.2,-581.787 402.2,-526.0078"/>
<polygon fill="#242424" stroke="#242424" points="405.7001,-525.7172 402.2,-515.7172 398.7001,-525.7173 405.7001,-525.7172"/>
</g>
<!-- assertions/reject&#45;non&#45;functions.js -->
<g id="node5" class="node">
<title>assertions/reject&#45;non&#45;functions.js</title>
<polygon fill="none" stroke="#242424" stroke-width="4" points="782.5001,-544.1001 521.8999,-544.1001 521.8999,-283.4999 782.5001,-283.4999 782.5001,-544.1001"/>
<text text-anchor="middle" x="652.2" y="-411.4" font-family="Fira Code" font-size="12.00" fill="#242424">assertions/reject&#45;non&#45;functions.js</text>
</g>
<!-- assertions/index.js&#45;&gt;assertions/reject&#45;non&#45;functions.js -->
<g id="edge4" class="edge">
<title>assertions/index.js&#45;&gt;assertions/reject&#45;non&#45;functions.js</title>
<path fill="none" stroke="#242424" d="M455.2186,-697.6108C484.4171,-655.5416 521.5645,-602.0196 555.713,-552.8185"/>
<polygon fill="#242424" stroke="#242424" points="558.7808,-554.5367 561.6074,-544.3259 553.0302,-550.5454 558.7808,-554.5367"/>
</g>
<!-- assertions/judge&#45;object.js&#45;&gt;Ⓜ f&#45;utility/f&#45;utility.js -->
<g id="edge5" class="edge">
<title>assertions/judge&#45;object.js&#45;&gt;Ⓜ f&#45;utility/f&#45;utility.js</title>
<path fill="none" stroke="#242424" d="M471.5926,-312.1683C484.3122,-297.7148 498.3165,-283.9361 513.2,-272.6 607.8094,-200.5401 736.2965,-152.3847 825.9505,-124.9695"/>
<polygon fill="#242424" stroke="#242424" points="827.0329,-128.2988 835.5925,-122.0552 825.0075,-121.5982 827.0329,-128.2988"/>
</g>
<!-- assertions/reject&#45;non&#45;functions.js&#45;&gt;Ⓜ f&#45;utility/f&#45;utility.js -->
<g id="edge6" class="edge">
<title>assertions/reject&#45;non&#45;functions.js&#45;&gt;Ⓜ f&#45;utility/f&#45;utility.js</title>
<path fill="none" stroke="#242424" d="M767.2988,-283.4917C791.4608,-256.1368 816.6453,-227.6245 839.8473,-201.3565"/>
<polygon fill="#242424" stroke="#242424" points="842.6605,-203.4584 846.6574,-193.6464 837.414,-198.8243 842.6605,-203.4584"/>
</g>
<!-- either/ap.js -->
<g id="node6" class="node">
<title>either/ap.js</title>
<polygon fill="none" stroke="#242424" stroke-width="4" points="1512.6008,-1131.6008 1409.7992,-1131.6008 1409.7992,-1028.7992 1512.6008,-1028.7992 1512.6008,-1131.6008"/>
<text text-anchor="middle" x="1461.2" y="-1077.8" font-family="Fira Code" font-size="12.00" fill="#242424">either/ap.js</text>
</g>
<!-- Ⓜ entrust/entrust.js -->
<g id="node7" class="node">
<title>Ⓜ entrust/entrust.js</title>
<polygon fill="none" stroke="#0c821d" stroke-width="4" points="1512.5001,-856.3001 1347.8999,-856.3001 1347.8999,-691.6999 1512.5001,-691.6999 1512.5001,-856.3001"/>
<text text-anchor="middle" x="1430.2" y="-772.8" font-family="Fira Code" font-size="12.00" fill="#0c821d">Ⓜ entrust/entrust.js</text>
</g>
<!-- either/ap.js&#45;&gt;Ⓜ entrust/entrust.js -->
<g id="edge7" class="edge">
<title>either/ap.js&#45;&gt;Ⓜ entrust/entrust.js</title>
<path fill="none" stroke="#242424" d="M1456.0113,-1028.949C1451.534,-984.7252 1444.9561,-919.7519 1439.5614,-866.4662"/>
<polygon fill="#242424" stroke="#242424" points="1443.0235,-865.9145 1438.5339,-856.3179 1436.0591,-866.6196 1443.0235,-865.9145"/>
</g>
<!-- either/assert.js -->
<g id="node8" class="node">
<title>either/assert.js</title>
<polygon fill="none" stroke="#242424" stroke-width="4" points="1305.9002,-479.5002 1174.4998,-479.5002 1174.4998,-348.0998 1305.9002,-348.0998 1305.9002,-479.5002"/>
<text text-anchor="middle" x="1240.2" y="-411.4" font-family="Fira Code" font-size="12.00" fill="#242424">either/assert.js</text>
</g>
<!-- either/assert.js&#45;&gt;Ⓜ f&#45;utility/f&#45;utility.js -->
<g id="edge8" class="edge">
<title>either/assert.js&#45;&gt;Ⓜ f&#45;utility/f&#45;utility.js</title>
<path fill="none" stroke="#242424" d="M1176.3822,-348.1174C1135.1531,-305.6836 1080.6091,-249.5457 1033.5311,-201.092"/>
<polygon fill="#242424" stroke="#242424" points="1035.8215,-198.4268 1026.3427,-193.6936 1030.801,-203.3048 1035.8215,-198.4268"/>
</g>
<!-- either/bimap.js -->
<g id="node9" class="node">
<title>either/bimap.js</title>
<polygon fill="none" stroke="#242424" stroke-width="4" points="1392.2,-1142.2 1268.2,-1142.2 1268.2,-1018.2 1392.2,-1018.2 1392.2,-1142.2"/>
<text text-anchor="middle" x="1330.2" y="-1077.8" font-family="Fira Code" font-size="12.00" fill="#242424">either/bimap.js</text>
</g>
<!-- either/bimap.js&#45;&gt;Ⓜ entrust/entrust.js -->
<g id="edge9" class="edge">
<title>either/bimap.js&#45;&gt;Ⓜ entrust/entrust.js</title>
<path fill="none" stroke="#242424" d="M1350.557,-1017.8668C1364.798,-974.2611 1384.06,-915.2806 1400.0737,-866.2467"/>
<polygon fill="#242424" stroke="#242424" points="1403.4532,-867.1725 1403.2307,-856.58 1396.7991,-864.9994 1403.4532,-867.1725"/>
</g>
<!-- either/fold.js -->
<g id="node10" class="node">
<title>either/fold.js</title>
<polygon fill="none" stroke="#242424" stroke-width="4" points="1684.5002,-1138.5002 1567.8998,-1138.5002 1567.8998,-1021.8998 1684.5002,-1021.8998 1684.5002,-1138.5002"/>
<text text-anchor="middle" x="1626.2" y="-1077.8" font-family="Fira Code" font-size="12.00" fill="#242424">either/fold.js</text>
</g>
<!-- either/fold.js&#45;&gt;Ⓜ entrust/entrust.js -->
<g id="edge10" class="edge">
<title>either/fold.js&#45;&gt;Ⓜ entrust/entrust.js</title>
<path fill="none" stroke="#242424" d="M1588.8726,-1021.8854C1560.5238,-977.5977 1521.0078,-915.864 1488.5032,-865.0839"/>
<polygon fill="#242424" stroke="#242424" points="1491.2749,-862.9218 1482.9359,-856.3864 1485.3793,-866.6956 1491.2749,-862.9218"/>
</g>
<!-- either/guided&#45;left.js -->
<g id="node11" class="node">
<title>either/guided&#45;left.js</title>
<polygon fill="none" stroke="#242424" stroke-width="4" points="1019.9001,-1163.9001 852.4999,-1163.9001 852.4999,-996.4999 1019.9001,-996.4999 1019.9001,-1163.9001"/>
<text text-anchor="middle" x="936.2" y="-1077.8" font-family="Fira Code" font-size="12.00" fill="#242424">either/guided&#45;left.js</text>
</g>
<!-- Ⓜ fantasy&#45;eithers/fantasy&#45;eithers.js -->
<g id="node12" class="node">
<title>Ⓜ fantasy&#45;eithers/fantasy&#45;eithers.js</title>
<polygon fill="none" stroke="#0c821d" stroke-width="4" points="1156.2,-914 876.2,-914 876.2,-634 1156.2,-634 1156.2,-914"/>
<text text-anchor="middle" x="1016.2" y="-772.8" font-family="Fira Code" font-size="12.00" fill="#0c821d">Ⓜ fantasy&#45;eithers/fantasy&#45;eithers.js</text>
</g>
<!-- either/guided&#45;left.js&#45;&gt;Ⓜ fantasy&#45;eithers/fantasy&#45;eithers.js -->
<g id="edge11" class="edge">
<title>either/guided&#45;left.js&#45;&gt;Ⓜ fantasy&#45;eithers/fantasy&#45;eithers.js</title>
<path fill="none" stroke="#242424" d="M958.0604,-996.5295C963.9415,-974.0194 970.4864,-948.9688 977.0029,-924.027"/>
<polygon fill="#242424" stroke="#242424" points="980.4532,-924.6664 979.5948,-914.1064 973.6806,-922.8969 980.4532,-924.6664"/>
</g>
<!-- either/guided.js -->
<g id="node13" class="node">
<title>either/guided.js</title>
<polygon fill="none" stroke="#242424" stroke-width="4" points="1305.9002,-839.7002 1174.4998,-839.7002 1174.4998,-708.2998 1305.9002,-708.2998 1305.9002,-839.7002"/>
<text text-anchor="middle" x="1240.2" y="-771.6" font-family="Fira Code" font-size="12.00" fill="#242424">either/guided.js</text>
</g>
<!-- either/guided&#45;left.js&#45;&gt;either/guided.js -->
<g id="edge12" class="edge">
<title>either/guided&#45;left.js&#45;&gt;either/guided.js</title>
<path fill="none" stroke="#242424" d="M1019.8645,-1000.1876C1022.9755,-997.7159 1026.0926,-995.3123 1029.2,-993 1085.2794,-951.2697 1116.63,-964.272 1165.2,-914 1183.2131,-895.3557 1198.1113,-871.5226 1209.7529,-848.8267"/>
<polygon fill="#242424" stroke="#242424" points="1212.8917,-850.3752 1214.2164,-839.8635 1206.6257,-847.2548 1212.8917,-850.3752"/>
</g>
<!-- either/guided.js&#45;&gt;Ⓜ f&#45;utility/f&#45;utility.js -->
<g id="edge15" class="edge">
<title>either/guided.js&#45;&gt;Ⓜ f&#45;utility/f&#45;utility.js</title>
<path fill="none" stroke="#242424" d="M1210.2475,-708.1433C1156.8478,-590.7334 1044.7807,-344.3313 980.4174,-202.8156"/>
<polygon fill="#242424" stroke="#242424" points="983.5741,-201.3021 976.248,-193.6484 977.2021,-204.2002 983.5741,-201.3021"/>
</g>
<!-- either/guided.js&#45;&gt;either/assert.js -->
<g id="edge16" class="edge">
<title>either/guided.js&#45;&gt;either/assert.js</title>
<path fill="none" stroke="#242424" d="M1240.2,-708.3526C1240.2,-646.7163 1240.2,-554.5423 1240.2,-489.7578"/>
<polygon fill="#242424" stroke="#242424" points="1243.7001,-489.6043 1240.2,-479.6044 1236.7001,-489.6044 1243.7001,-489.6043"/>
</g>
<!-- either/guided&#45;right.js -->
<g id="node14" class="node">
<title>either/guided&#45;right.js</title>
<polygon fill="none" stroke="#242424" stroke-width="4" points="1212.6005,-1167.6005 1037.7995,-1167.6005 1037.7995,-992.7995 1212.6005,-992.7995 1212.6005,-1167.6005"/>
<text text-anchor="middle" x="1125.2" y="-1077.8" font-family="Fira Code" font-size="12.00" fill="#242424">either/guided&#45;right.js</text>
</g>
<!-- either/guided&#45;right.js&#45;&gt;Ⓜ fantasy&#45;eithers/fantasy&#45;eithers.js -->
<g id="edge13" class="edge">
<title>either/guided&#45;right.js&#45;&gt;Ⓜ fantasy&#45;eithers/fantasy&#45;eithers.js</title>
<path fill="none" stroke="#242424" d="M1094.1108,-992.8651C1086.3893,-971.174 1077.8937,-947.3083 1069.4386,-923.5564"/>
<polygon fill="#242424" stroke="#242424" points="1072.7265,-922.3561 1066.0755,-914.109 1066.1319,-924.7037 1072.7265,-922.3561"/>
</g>
<!-- either/guided&#45;right.js&#45;&gt;either/guided.js -->
<g id="edge14" class="edge">
<title>either/guided&#45;right.js&#45;&gt;either/guided.js</title>
<path fill="none" stroke="#242424" d="M1158.0005,-992.8651C1175.0093,-947.5774 1195.5781,-892.8107 1211.8852,-849.3911"/>
<polygon fill="#242424" stroke="#242424" points="1215.1635,-850.617 1215.4029,-840.0249 1208.6104,-848.1558 1215.1635,-850.617"/>
</g>
<!-- either/index.js -->
<g id="node15" class="node">
<title>either/index.js</title>
<polygon fill="none" stroke="#242424" stroke-width="4" points="1457.2,-1370.4 1333.2,-1370.4 1333.2,-1246.4 1457.2,-1246.4 1457.2,-1370.4"/>
<text text-anchor="middle" x="1395.2" y="-1306" font-family="Fira Code" font-size="12.00" fill="#242424">either/index.js</text>
</g>
<!-- either/index.js&#45;&gt;either/ap.js -->
<g id="edge17" class="edge">
<title>either/index.js&#45;&gt;either/ap.js</title>
<path fill="none" stroke="#242424" d="M1413.1476,-1246.3448C1422.5915,-1213.6917 1434.1286,-1173.8013 1443.5309,-1141.2922"/>
<polygon fill="#242424" stroke="#242424" points="1446.9594,-1142.0351 1446.3756,-1131.4564 1440.235,-1140.0903 1446.9594,-1142.0351"/>
</g>
<!-- either/index.js&#45;&gt;either/assert.js -->
<g id="edge18" class="edge">
<title>either/index.js&#45;&gt;either/assert.js</title>
<path fill="none" stroke="#242424" d="M1457.5047,-1257.3568C1482.3317,-1233.0332 1508.0879,-1201.7511 1521.2,-1167.4 1563.4704,-1056.6599 1588.6651,-731.4608 1521.2,-634 1464.4433,-552.0087 1385.3517,-621.674 1311.2,-555 1291.3864,-537.1844 1276.3882,-512.5671 1265.4033,-488.8719"/>
<polygon fill="#242424" stroke="#242424" points="1268.4989,-487.2191 1261.239,-479.5025 1262.1022,-490.0622 1268.4989,-487.2191"/>
</g>
<!-- either/index.js&#45;&gt;either/bimap.js -->
<g id="edge19" class="edge">
<title>either/index.js&#45;&gt;either/bimap.js</title>
<path fill="none" stroke="#242424" d="M1377.5243,-1246.3448C1369.2134,-1217.1671 1359.2565,-1182.2106 1350.6244,-1151.9055"/>
<polygon fill="#242424" stroke="#242424" points="1353.9778,-1150.9015 1347.8722,-1142.2429 1347.2455,-1152.8192 1353.9778,-1150.9015"/>
</g>
<!-- either/index.js&#45;&gt;either/fold.js -->
<g id="edge20" class="edge">
<title>either/index.js&#45;&gt;either/fold.js</title>
<path fill="none" stroke="#242424" d="M1457.2546,-1257.2889C1487.5127,-1231.4014 1523.8349,-1198.8551 1554.2,-1167.4 1560.6086,-1160.7613 1567.091,-1153.621 1573.404,-1146.3871"/>
<polygon fill="#242424" stroke="#242424" points="1576.3047,-1148.3823 1580.1762,-1138.5201 1570.9996,-1143.8154 1576.3047,-1148.3823"/>
</g>
<!-- either/index.js&#45;&gt;either/guided&#45;left.js -->
<g id="edge21" class="edge">
<title>either/index.js&#45;&gt;either/guided&#45;left.js</title>
<path fill="none" stroke="#242424" d="M1332.9005,-1292.3748C1257.2353,-1271.1695 1127.5372,-1229.1172 1029.2,-1167.4 1028.91,-1167.218 1028.6201,-1167.035 1028.3304,-1166.8511"/>
<polygon fill="#242424" stroke="#242424" points="1030.2277,-1163.9094 1019.9688,-1161.2625 1026.3379,-1169.7292 1030.2277,-1163.9094"/>
</g>
<!-- either/index.js&#45;&gt;either/guided.js -->
<g id="edge23" class="edge">
<title>either/index.js&#45;&gt;either/guided.js</title>
<path fill="none" stroke="#242424" d="M1333.1227,-1261.772C1305.2548,-1237.0768 1275.1163,-1204.2413 1259.2,-1167.4 1214.6842,-1064.3597 1219.4454,-931.7097 1228.5919,-849.7897"/>
<polygon fill="#242424" stroke="#242424" points="1232.0737,-850.1481 1229.756,-839.8099 1225.1209,-849.337 1232.0737,-850.1481"/>
</g>
<!-- either/index.js&#45;&gt;either/guided&#45;right.js -->
<g id="edge22" class="edge">
<title>either/index.js&#45;&gt;either/guided&#45;right.js</title>
<path fill="none" stroke="#242424" d="M1333.1838,-1257.0827C1301.1335,-1230.4545 1261.4504,-1197.3184 1226.2,-1167.4 1224.2296,-1165.7276 1222.2391,-1164.0354 1220.234,-1162.3283"/>
<polygon fill="#242424" stroke="#242424" points="1222.3192,-1159.5066 1212.4396,-1155.6799 1217.7765,-1164.8324 1222.3192,-1159.5066"/>
</g>
<!-- errors/expect&#45;function&#45;props.js -->
<g id="node16" class="node">
<title>errors/expect&#45;function&#45;props.js</title>
<polygon fill="none" stroke="#242424" stroke-width="4" points="819.9001,-893.7001 580.4999,-893.7001 580.4999,-654.2999 819.9001,-654.2999 819.9001,-893.7001"/>
<text text-anchor="middle" x="700.2" y="-771.6" font-family="Fira Code" font-size="12.00" fill="#242424">errors/expect&#45;function&#45;props.js</text>
</g>
<!-- errors/expect&#45;function&#45;props.js&#45;&gt;Ⓜ f&#45;utility/f&#45;utility.js -->
<g id="edge24" class="edge">
<title>errors/expect&#45;function&#45;props.js&#45;&gt;Ⓜ f&#45;utility/f&#45;utility.js</title>
<path fill="none" stroke="#242424" d="M756.1065,-654.2265C769.2051,-622.5043 782.0039,-587.9126 791.2,-555 825.3647,-432.7255 793.0811,-392.7146 834.2,-272.6 842.2427,-249.106 853.3723,-225.1082 865.2551,-202.6969"/>
<polygon fill="#242424" stroke="#242424" points="868.3543,-204.3237 870.0215,-193.8608 862.1935,-201.0003 868.3543,-204.3237"/>
</g>
<!-- guiderail.js -->
<g id="node17" class="node">
<title>guiderail.js</title>
<polygon fill="none" stroke="#242424" stroke-width="4" points="1696.6008,-825.4008 1593.7992,-825.4008 1593.7992,-722.5992 1696.6008,-722.5992 1696.6008,-825.4008"/>
<text text-anchor="middle" x="1645.2" y="-771.6" font-family="Fira Code" font-size="12.00" fill="#242424">guiderail.js</text>
</g>
<!-- guiderail.js&#45;&gt;Ⓜ f&#45;utility/f&#45;utility.js -->
<g id="edge25" class="edge">
<title>guiderail.js&#45;&gt;Ⓜ f&#45;utility/f&#45;utility.js</title>
<path fill="none" stroke="#242424" d="M1623.3502,-722.7795C1578.7918,-623.6897 1468.5277,-403.967 1315.2,-272.6 1234.0992,-203.115 1120.9625,-155.7134 1038.6913,-127.8026"/>
<polygon fill="#242424" stroke="#242424" points="1039.662,-124.4367 1029.0681,-124.5789 1037.4384,-131.0741 1039.662,-124.4367"/>
</g>
<!-- index.js -->
<g id="node18" class="node">
<title>index.js</title>
<polygon fill="none" stroke="#242424" stroke-width="4" points="1767.8011,-1522.8011 1694.5989,-1522.8011 1694.5989,-1449.5989 1767.8011,-1449.5989 1767.8011,-1522.8011"/>
<text text-anchor="middle" x="1731.2" y="-1483.8" font-family="Fira Code" font-size="12.00" fill="#242424">index.js</text>
</g>
<!-- index.js&#45;&gt;Ⓜ f&#45;utility/f&#45;utility.js -->
<g id="edge27" class="edge">
<title>index.js&#45;&gt;Ⓜ f&#45;utility/f&#45;utility.js</title>
<path fill="none" stroke="#242424" d="M1734.0651,-1449.5573C1739.3729,-1378.4084 1750.2,-1216.5635 1750.2,-1080.2 1750.2,-1080.2 1750.2,-1080.2 1750.2,-774 1750.2,-511.5346 1649.5898,-428.1713 1438.2,-272.6 1317.4472,-183.7326 1148.1089,-137.0738 1039.2683,-114.7056"/>
<polygon fill="#242424" stroke="#242424" points="1039.7503,-111.2322 1029.255,-112.6811 1038.3631,-118.0934 1039.7503,-111.2322"/>
</g>
<!-- index.js&#45;&gt;either/fold.js -->
<g id="edge28" class="edge">
<title>index.js&#45;&gt;either/fold.js</title>
<path fill="none" stroke="#242424" d="M1720.3986,-1449.5217C1713.7916,-1426.7912 1705.2778,-1396.9627 1698.2,-1370.4 1678.0483,-1294.771 1656.6581,-1207.5615 1642.4788,-1148.6476"/>
<polygon fill="#242424" stroke="#242424" points="1645.8316,-1147.6202 1640.092,-1138.7147 1639.0254,-1149.2557 1645.8316,-1147.6202"/>
</g>
<!-- index.js&#45;&gt;either/index.js -->
<g id="edge29" class="edge">
<title>index.js&#45;&gt;either/index.js</title>
<path fill="none" stroke="#242424" d="M1694.281,-1466.6637C1639.6255,-1437.7418 1536.1476,-1382.9848 1466.4214,-1346.088"/>
<polygon fill="#242424" stroke="#242424" points="1467.7172,-1342.8139 1457.2413,-1341.2302 1464.4431,-1349.001 1467.7172,-1342.8139"/>
</g>
<!-- index.js&#45;&gt;guiderail.js -->
<g id="edge30" class="edge">
<title>index.js&#45;&gt;guiderail.js</title>
<path fill="none" stroke="#242424" d="M1730.1146,-1449.5016C1727.3044,-1367.3392 1718.1813,-1162.4971 1693.2,-993 1685.2758,-939.2344 1671.7169,-878.9715 1661.027,-835.2922"/>
<polygon fill="#242424" stroke="#242424" points="1664.3793,-834.2679 1658.5852,-825.3978 1657.5832,-835.9451 1664.3793,-834.2679"/>
</g>
<!-- ../handrail.js -->
<g id="node19" class="node">
<title>../handrail.js</title>
<polygon fill="none" stroke="#0c821d" stroke-width="4" points="1932.5002,-1366.7002 1815.8998,-1366.7002 1815.8998,-1250.0998 1932.5002,-1250.0998 1932.5002,-1366.7002"/>
<text text-anchor="middle" x="1874.2" y="-1306" font-family="Fira Code" font-size="12.00" fill="#0c821d">../handrail.js</text>
</g>
<!-- index.js&#45;&gt;../handrail.js -->
<g id="edge26" class="edge">
<title>index.js&#45;&gt;../handrail.js</title>
<path fill="none" stroke="#242424" d="M1760.8297,-1449.3597C1778.1033,-1427.8825 1800.4109,-1400.1462 1820.6627,-1374.966"/>
<polygon fill="#242424" stroke="#242424" points="1823.6168,-1376.8776 1827.1567,-1366.8916 1818.1621,-1372.4905 1823.6168,-1376.8776"/>
</g>
<!-- handrail.js -->
<g id="node20" class="node">
<title>handrail.js</title>
<polygon fill="none" stroke="#0c821d" stroke-width="4" points="2045.9002,-1356.1002 1950.4998,-1356.1002 1950.4998,-1260.6998 2045.9002,-1260.6998 2045.9002,-1356.1002"/>
<text text-anchor="middle" x="1998.2" y="-1306" font-family="Fira Code" font-size="12.00" fill="#0c821d">handrail.js</text>
</g>
<!-- index.js&#45;&gt;handrail.js -->
<g id="edge31" class="edge">
<title>index.js&#45;&gt;handrail.js</title>
<path fill="none" stroke="#242424" d="M1767.9143,-1470.3992C1811.6302,-1450.6177 1885.6966,-1413.9825 1941.2,-1370.4 1944.1325,-1368.0974 1947.0463,-1365.6383 1949.9161,-1363.0768"/>
<polygon fill="#242424" stroke="#242424" points="1952.4731,-1365.4778 1957.3924,-1356.0942 1947.6951,-1360.362 1952.4731,-1365.4778"/>
</g>
<!-- multirail.js -->
<g id="node21" class="node">
<title>multirail.js</title>
<polygon fill="none" stroke="#242424" stroke-width="4" points="1880.6008,-465.2008 1777.7992,-465.2008 1777.7992,-362.3992 1880.6008,-362.3992 1880.6008,-465.2008"/>
<text text-anchor="middle" x="1829.2" y="-411.4" font-family="Fira Code" font-size="12.00" fill="#242424">multirail.js</text>
</g>
<!-- index.js&#45;&gt;multirail.js -->
<g id="edge32" class="edge">
<title>index.js&#45;&gt;multirail.js</title>
<path fill="none" stroke="#242424" d="M1743.8361,-1449.3723C1751.0274,-1426.8415 1759.5112,-1397.2745 1764.2,-1370.4 1822.5115,-1036.1764 1829.174,-627.7832 1829.4673,-475.1765"/>
<polygon fill="#242424" stroke="#242424" points="1832.9673,-475.07 1829.478,-465.0663 1825.9673,-475.0626 1832.9673,-475.07"/>
</g>
<!-- rail.js -->
<g id="node22" class="node">
<title>rail.js</title>
<polygon fill="none" stroke="#242424" stroke-width="4" points="913.6012,-1341.8012 846.7988,-1341.8012 846.7988,-1274.9988 913.6012,-1274.9988 913.6012,-1341.8012"/>
<text text-anchor="middle" x="880.2" y="-1306" font-family="Fira Code" font-size="12.00" fill="#242424">rail.js</text>
</g>
<!-- index.js&#45;&gt;rail.js -->
<g id="edge33" class="edge">
<title>index.js&#45;&gt;rail.js</title>
<path fill="none" stroke="#242424" d="M1694.3604,-1478.5031C1556.6565,-1449.7325 1072.4863,-1348.5745 923.8956,-1317.5294"/>
<polygon fill="#242424" stroke="#242424" points="924.2909,-1314.0364 913.7864,-1315.4172 922.8592,-1320.8885 924.2909,-1314.0364"/>
</g>
<!-- multirail.js&#45;&gt;Ⓜ f&#45;utility/f&#45;utility.js -->
<g id="edge34" class="edge">
<title>multirail.js&#45;&gt;Ⓜ f&#45;utility/f&#45;utility.js</title>
<path fill="none" stroke="#242424" d="M1817.9225,-362.4991C1808.5729,-331.9525 1792.1426,-294.9112 1764.2,-272.6 1653,-183.8103 1237.4945,-129.0559 1039.035,-107.4256"/>
<polygon fill="#242424" stroke="#242424" points="1039.2012,-103.9232 1028.8827,-106.3274 1038.4483,-110.8826 1039.2012,-103.9232"/>
</g>
<!-- rail.js&#45;&gt;Ⓜ f&#45;utility/f&#45;utility.js -->
<g id="edge35" class="edge">
<title>rail.js&#45;&gt;Ⓜ f&#45;utility/f&#45;utility.js</title>
<path fill="none" stroke="#242424" d="M868.831,-1274.9786C859.8466,-1246.7078 848.0414,-1204.9244 843.2,-1167.4 833.2816,-1090.5261 840.6134,-1070.4679 843.2,-993 848.5363,-833.1774 852.2569,-793.212 867.2,-634 881.2464,-484.3425 903.1264,-311.9061 917.5606,-203.6287"/>
<polygon fill="#242424" stroke="#242424" points="921.0348,-204.0537 918.8902,-193.6782 914.0965,-203.1265 921.0348,-204.0537"/>
</g>
<!-- rail.js&#45;&gt;assertions/reject&#45;non&#45;functions.js -->
<g id="edge36" class="edge">
<title>rail.js&#45;&gt;assertions/reject&#45;non&#45;functions.js</title>
<path fill="none" stroke="#242424" d="M846.8259,-1281.2235C778.1894,-1222.8047 623.2814,-1077.2534 571.2,-914 533.3775,-795.4425 549.381,-756.5167 571.2,-634 575.9228,-607.4806 583.6106,-579.9687 592.4164,-553.7465"/>
<polygon fill="#242424" stroke="#242424" points="595.7747,-554.7429 595.7078,-544.1483 589.1532,-552.4722 595.7747,-554.7429"/>
</g>
<!-- rail.js&#45;&gt;either/guided&#45;left.js -->
<g id="edge37" class="edge">
<title>rail.js&#45;&gt;either/guided&#45;left.js</title>
<path fill="none" stroke="#242424" d="M888.463,-1274.7283C894.9983,-1248.0969 904.4524,-1209.5716 913.2258,-1173.8199"/>
<polygon fill="#242424" stroke="#242424" points="916.6951,-1174.3679 915.6793,-1163.8219 909.8968,-1172.6996 916.6951,-1174.3679"/>
</g>
<!-- rail.js&#45;&gt;either/guided&#45;right.js -->
<g id="edge38" class="edge">
<title>rail.js&#45;&gt;either/guided&#45;right.js</title>
<path fill="none" stroke="#242424" d="M913.4968,-1277.3864C943.5506,-1249.3934 989.25,-1206.8277 1030.5069,-1168.3999"/>
<polygon fill="#242424" stroke="#242424" points="1032.9538,-1170.9038 1037.8858,-1161.5269 1028.1828,-1165.7815 1032.9538,-1170.9038"/>
</g>
<!-- rail.js&#45;&gt;errors/expect&#45;function&#45;props.js -->
<g id="edge39" class="edge">
<title>rail.js&#45;&gt;errors/expect&#45;function&#45;props.js</title>
<path fill="none" stroke="#242424" d="M861.3884,-1275.0167C846.1189,-1246.9423 824.8012,-1205.4137 810.2,-1167.4 777.1573,-1081.3748 749.3178,-981.3226 729.9126,-903.6473"/>
<polygon fill="#242424" stroke="#242424" points="733.2759,-902.6684 727.4693,-893.8065 726.4822,-904.3553 733.2759,-902.6684"/>
</g>
</g>
</svg>
