<?xml version="1.0" encoding="UTF-8" standalone="no"?>
<!DOCTYPE svg PUBLIC "-//W3C//DTD SVG 1.1//EN"
 "http://www.w3.org/Graphics/SVG/1.1/DTD/svg11.dtd">
<!-- Generated by graphviz version 2.40.1 (20161225.0304)
 -->
<!-- Title: G Pages: 1 -->
<svg width="1882pt" height="2132pt"
 viewBox="0.00 0.00 1882.45 2131.78" xmlns="http://www.w3.org/2000/svg" xmlns:xlink="http://www.w3.org/1999/xlink">
<g id="graph0" class="graph" transform="scale(1 1) rotate(0) translate(7.992 2123.792)">
<title>G</title>
<polygon fill="#eeeeff" stroke="transparent" points="-7.992,7.992 -7.992,-2123.792 1874.4618,-2123.792 1874.4618,7.992 -7.992,7.992"/>
<!-- assertions/all&#45;props&#45;are&#45;functions.js -->
<g id="node1" class="node">
<title>assertions/all&#45;props&#45;are&#45;functions.js</title>
<polygon fill="none" stroke="#242424" stroke-width="4" points="431.8701,-536.0003 149.0695,-536.0003 149.0695,-253.1997 431.8701,-253.1997 431.8701,-536.0003"/>
<text text-anchor="middle" x="290.4698" y="-392.2" font-family="Fira Code" font-size="12.00" fill="#242424">assertions/all&#45;props&#45;are&#45;functions.js</text>
</g>
<!-- f&#45;utility/f&#45;utility.js -->
<g id="node2" class="node">
<title>f&#45;utility/f&#45;utility.js</title>
<polygon fill="none" stroke="#0c821d" stroke-width="4" points="989.8703,-174.6005 815.0694,-174.6005 815.0694,.2005 989.8703,.2005 989.8703,-174.6005"/>
<text text-anchor="middle" x="902.4698" y="-84.8" font-family="Fira Code" font-size="12.00" fill="#0c821d">f&#45;utility/f&#45;utility.js</text>
</g>
<!-- assertions/all&#45;props&#45;are&#45;functions.js&#45;&gt;f&#45;utility/f&#45;utility.js -->
<g id="edge1" class="edge">
<title>assertions/all&#45;props&#45;are&#45;functions.js&#45;&gt;f&#45;utility/f&#45;utility.js</title>
<path fill="none" stroke="#242424" d="M431.9756,-261.9989C436.4507,-259.0056 440.9531,-256.131 445.4698,-253.4 560.5413,-183.8233 709.333,-136.4872 805.3384,-110.6505"/>
<polygon fill="#242424" stroke="#242424" points="806.2784,-114.0222 815.0395,-108.0645 804.4754,-107.2583 806.2784,-114.0222"/>
</g>
<!-- assertions/index.js -->
<g id="node3" class="node">
<title>assertions/index.js</title>
<polygon fill="none" stroke="#0c821d" stroke-width="4" points="152.77,-2115.7001 .1697,-2115.7001 .1697,-1963.0999 152.77,-1963.0999 152.77,-2115.7001"/>
<text text-anchor="middle" x="76.4698" y="-2037" font-family="Fira Code" font-size="12.00" fill="#0c821d">assertions/index.js</text>
</g>
<!-- assertions/judge&#45;object.js -->
<g id="node4" class="node">
<title>assertions/judge&#45;object.js</title>
<polygon fill="none" stroke="#242424" stroke-width="4" points="542.1699,-1722.3001 338.7697,-1722.3001 338.7697,-1518.8999 542.1699,-1518.8999 542.1699,-1722.3001"/>
<text text-anchor="middle" x="440.4698" y="-1618.2" font-family="Fira Code" font-size="12.00" fill="#242424">assertions/judge&#45;object.js</text>
</g>
<!-- assertions/judge&#45;object.js&#45;&gt;f&#45;utility/f&#45;utility.js -->
<g id="edge2" class="edge">
<title>assertions/judge&#45;object.js&#45;&gt;f&#45;utility/f&#45;utility.js</title>
<path fill="none" stroke="#242424" d="M402.8335,-1518.7448C359.5005,-1387.0864 300.0267,-1151.3712 347.4698,-954.6 429.5337,-614.2388 488.9612,-527.7542 706.4698,-253.4 735.0803,-217.3122 772.4852,-183.3051 806.9406,-155.5682"/>
<polygon fill="#242424" stroke="#242424" points="809.5214,-157.9873 815.1644,-149.0203 805.1612,-152.5111 809.5214,-157.9873"/>
</g>
<!-- assertions/reject&#45;non&#45;functions.js -->
<g id="node5" class="node">
<title>assertions/reject&#45;non&#45;functions.js</title>
<polygon fill="none" stroke="#242424" stroke-width="4" points="874.7699,-1215.3001 614.1697,-1215.3001 614.1697,-954.6999 874.7699,-954.6999 874.7699,-1215.3001"/>
<text text-anchor="middle" x="744.4698" y="-1082.6" font-family="Fira Code" font-size="12.00" fill="#242424">assertions/reject&#45;non&#45;functions.js</text>
</g>
<!-- assertions/reject&#45;non&#45;functions.js&#45;&gt;f&#45;utility/f&#45;utility.js -->
<g id="edge3" class="edge">
<title>assertions/reject&#45;non&#45;functions.js&#45;&gt;f&#45;utility/f&#45;utility.js</title>
<path fill="none" stroke="#242424" d="M765.1256,-954.5551C797.2456,-751.7109 858.4391,-365.2624 887.0303,-184.7034"/>
<polygon fill="#242424" stroke="#242424" points="890.5094,-185.1105 888.6165,-174.6862 883.5955,-184.0157 890.5094,-185.1105"/>
</g>
<!-- either/ap.js -->
<g id="node6" class="node">
<title>either/ap.js</title>
<polygon fill="none" stroke="#242424" stroke-width="4" points="1524.8706,-1136.4008 1422.069,-1136.4008 1422.069,-1033.5992 1524.8706,-1033.5992 1524.8706,-1136.4008"/>
<text text-anchor="middle" x="1473.4698" y="-1082.6" font-family="Fira Code" font-size="12.00" fill="#242424">either/ap.js</text>
</g>
<!-- entrust/entrust.js -->
<g id="node7" class="node">
<title>entrust/entrust.js</title>
<polygon fill="none" stroke="#0c821d" stroke-width="4" points="1677.0704,-817.8005 1531.8693,-817.8005 1531.8693,-672.5995 1677.0704,-672.5995 1677.0704,-817.8005"/>
<text text-anchor="middle" x="1604.4698" y="-742.8" font-family="Fira Code" font-size="12.00" fill="#0c821d">entrust/entrust.js</text>
</g>
<!-- either/ap.js&#45;&gt;entrust/entrust.js -->
<g id="edge4" class="edge">
<title>either/ap.js&#45;&gt;entrust/entrust.js</title>
<path fill="none" stroke="#242424" d="M1493.2237,-1033.7606C1514.2655,-979.1803 1547.8879,-891.9673 1572.6675,-827.6918"/>
<polygon fill="#242424" stroke="#242424" points="1576.0794,-828.5716 1576.4108,-817.982 1569.5479,-826.0536 1576.0794,-828.5716"/>
</g>
<!-- either/assert.js -->
<g id="node8" class="node">
<title>either/assert.js</title>
<polygon fill="none" stroke="#242424" stroke-width="4" points="1416.17,-460.3002 1284.7697,-460.3002 1284.7697,-328.8998 1416.17,-328.8998 1416.17,-460.3002"/>
<text text-anchor="middle" x="1350.4698" y="-392.2" font-family="Fira Code" font-size="12.00" fill="#242424">either/assert.js</text>
</g>
<!-- either/assert.js&#45;&gt;f&#45;utility/f&#45;utility.js -->
<g id="edge5" class="edge">
<title>either/assert.js&#45;&gt;f&#45;utility/f&#45;utility.js</title>
<path fill="none" stroke="#242424" d="M1284.541,-347.4492C1245.6833,-319.8108 1195.4677,-284.3554 1150.4698,-253.4 1100.522,-219.0394 1044.443,-181.3809 998.2632,-150.6117"/>
<polygon fill="#242424" stroke="#242424" points="1000.0227,-147.5784 989.7593,-144.9489 996.1428,-153.4048 1000.0227,-147.5784"/>
</g>
<!-- either/bimap.js -->
<g id="node9" class="node">
<title>either/bimap.js</title>
<polygon fill="none" stroke="#242424" stroke-width="4" points="1666.4698,-1147 1542.4698,-1147 1542.4698,-1023 1666.4698,-1023 1666.4698,-1147"/>
<text text-anchor="middle" x="1604.4698" y="-1082.6" font-family="Fira Code" font-size="12.00" fill="#242424">either/bimap.js</text>
</g>
<!-- either/bimap.js&#45;&gt;entrust/entrust.js -->
<g id="edge6" class="edge">
<title>either/bimap.js&#45;&gt;entrust/entrust.js</title>
<path fill="none" stroke="#242424" d="M1604.4698,-1022.6754C1604.4698,-968.0682 1604.4698,-888.2742 1604.4698,-828.2559"/>
<polygon fill="#242424" stroke="#242424" points="1607.9699,-828.0467 1604.4698,-818.0467 1600.9699,-828.0468 1607.9699,-828.0467"/>
</g>
<!-- either/fold.js -->
<g id="node10" class="node">
<title>either/fold.js</title>
<polygon fill="none" stroke="#242424" stroke-width="4" points="1800.77,-1143.3002 1684.1697,-1143.3002 1684.1697,-1026.6998 1800.77,-1026.6998 1800.77,-1143.3002"/>
<text text-anchor="middle" x="1742.4698" y="-1082.6" font-family="Fira Code" font-size="12.00" fill="#242424">either/fold.js</text>
</g>
<!-- either/fold.js&#45;&gt;entrust/entrust.js -->
<g id="edge7" class="edge">
<title>either/fold.js&#45;&gt;entrust/entrust.js</title>
<path fill="none" stroke="#242424" d="M1718.7468,-1026.5863C1696.4269,-971.6276 1662.7903,-888.8036 1637.7828,-827.2273"/>
<polygon fill="#242424" stroke="#242424" points="1641.0081,-825.867 1634.0025,-817.9189 1634.5225,-828.501 1641.0081,-825.867"/>
</g>
<!-- either/guided&#45;left.js -->
<g id="node11" class="node">
<title>either/guided&#45;left.js</title>
<polygon fill="none" stroke="#242424" stroke-width="4" points="1174.1699,-1168.7001 1006.7697,-1168.7001 1006.7697,-1001.2999 1174.1699,-1001.2999 1174.1699,-1168.7001"/>
<text text-anchor="middle" x="1090.4698" y="-1082.6" font-family="Fira Code" font-size="12.00" fill="#242424">either/guided&#45;left.js</text>
</g>
<!-- fantasy&#45;eithers/fantasy&#45;eithers.js -->
<g id="node12" class="node">
<title>fantasy&#45;eithers/fantasy&#45;eithers.js</title>
<polygon fill="none" stroke="#0c821d" stroke-width="4" points="1266.7699,-875.5001 1006.1697,-875.5001 1006.1697,-614.8999 1266.7699,-614.8999 1266.7699,-875.5001"/>
<text text-anchor="middle" x="1136.4698" y="-742.8" font-family="Fira Code" font-size="12.00" fill="#0c821d">fantasy&#45;eithers/fantasy&#45;eithers.js</text>
</g>
<!-- either/guided&#45;left.js&#45;&gt;fantasy&#45;eithers/fantasy&#45;eithers.js -->
<g id="edge8" class="edge">
<title>either/guided&#45;left.js&#45;&gt;fantasy&#45;eithers/fantasy&#45;eithers.js</title>
<path fill="none" stroke="#242424" d="M1101.8406,-1001.0045C1106.562,-966.1277 1112.1707,-924.6969 1117.4843,-885.4453"/>
<polygon fill="#242424" stroke="#242424" points="1120.9549,-885.8976 1118.8281,-875.5184 1114.0182,-884.9584 1120.9549,-885.8976"/>
</g>
<!-- either/guided.js -->
<g id="node13" class="node">
<title>either/guided.js</title>
<polygon fill="none" stroke="#242424" stroke-width="4" points="1416.17,-810.9002 1284.7697,-810.9002 1284.7697,-679.4998 1416.17,-679.4998 1416.17,-810.9002"/>
<text text-anchor="middle" x="1350.4698" y="-742.8" font-family="Fira Code" font-size="12.00" fill="#242424">either/guided.js</text>
</g>
<!-- either/guided&#45;left.js&#45;&gt;either/guided.js -->
<g id="edge9" class="edge">
<title>either/guided&#45;left.js&#45;&gt;either/guided.js</title>
<path fill="none" stroke="#242424" d="M1145.6177,-1001.2729C1157.4361,-985.2294 1170.3393,-968.9688 1183.4698,-954.6 1219.8266,-914.8146 1241.0965,-917.1111 1275.4698,-875.6 1289.4177,-858.7558 1302.2655,-838.9789 1313.2405,-819.9901"/>
<polygon fill="#242424" stroke="#242424" points="1316.4258,-821.4682 1318.3109,-811.0424 1310.3356,-818.017 1316.4258,-821.4682"/>
</g>
<!-- either/guided.js&#45;&gt;f&#45;utility/f&#45;utility.js -->
<g id="edge12" class="edge">
<title>either/guided.js&#45;&gt;f&#45;utility/f&#45;utility.js</title>
<path fill="none" stroke="#242424" d="M1314.2619,-679.4837C1302.3135,-658.5617 1288.6899,-635.4857 1275.4698,-614.8 1176.5127,-459.9605 1051.4686,-287.2481 974.2433,-182.9384"/>
<polygon fill="#242424" stroke="#242424" points="976.842,-180.5665 968.0759,-174.6161 971.2179,-184.7343 976.842,-180.5665"/>
</g>
<!-- either/guided.js&#45;&gt;either/assert.js -->
<g id="edge13" class="edge">
<title>either/guided.js&#45;&gt;either/assert.js</title>
<path fill="none" stroke="#242424" d="M1350.4698,-679.2548C1350.4698,-619.8786 1350.4698,-532.6335 1350.4698,-470.4012"/>
<polygon fill="#242424" stroke="#242424" points="1353.9699,-470.2494 1350.4698,-460.2495 1346.9699,-470.2495 1353.9699,-470.2494"/>
</g>
<!-- either/guided&#45;right.js -->
<g id="node14" class="node">
<title>either/guided&#45;right.js</title>
<polygon fill="none" stroke="#242424" stroke-width="4" points="1366.8703,-1172.4005 1192.0694,-1172.4005 1192.0694,-997.5995 1366.8703,-997.5995 1366.8703,-1172.4005"/>
<text text-anchor="middle" x="1279.4698" y="-1082.6" font-family="Fira Code" font-size="12.00" fill="#242424">either/guided&#45;right.js</text>
</g>
<!-- either/guided&#45;right.js&#45;&gt;fantasy&#45;eithers/fantasy&#45;eithers.js -->
<g id="edge10" class="edge">
<title>either/guided&#45;right.js&#45;&gt;fantasy&#45;eithers/fantasy&#45;eithers.js</title>
<path fill="none" stroke="#242424" d="M1242.6438,-997.4931C1228.2634,-963.322 1211.4139,-923.2839 1195.4279,-885.2976"/>
<polygon fill="#242424" stroke="#242424" points="1198.4892,-883.5486 1191.3843,-875.6891 1192.0373,-886.2638 1198.4892,-883.5486"/>
</g>
<!-- either/guided&#45;right.js&#45;&gt;either/guided.js -->
<g id="edge11" class="edge">
<title>either/guided&#45;right.js&#45;&gt;either/guided.js</title>
<path fill="none" stroke="#242424" d="M1297.7541,-997.4931C1309.1796,-942.8114 1323.7444,-873.1057 1334.6681,-820.8257"/>
<polygon fill="#242424" stroke="#242424" points="1338.1136,-821.4479 1336.733,-810.9434 1331.2616,-820.0161 1338.1136,-821.4479"/>
</g>
<!-- either/index.js -->
<g id="node15" class="node">
<title>either/index.js</title>
<polygon fill="none" stroke="#242424" stroke-width="4" points="1456.4698,-1429.2 1332.4698,-1429.2 1332.4698,-1305.2 1456.4698,-1305.2 1456.4698,-1429.2"/>
<text text-anchor="middle" x="1394.4698" y="-1364.8" font-family="Fira Code" font-size="12.00" fill="#242424">either/index.js</text>
</g>
<!-- either/index.js&#45;&gt;either/ap.js -->
<g id="edge14" class="edge">
<title>either/index.js&#45;&gt;either/ap.js</title>
<path fill="none" stroke="#242424" d="M1411.9045,-1304.9207C1425.14,-1257.6416 1443.2419,-1192.9786 1456.3895,-1146.0136"/>
<polygon fill="#242424" stroke="#242424" points="1459.7908,-1146.8464 1459.1163,-1136.273 1453.05,-1144.9592 1459.7908,-1146.8464"/>
</g>
<!-- either/index.js&#45;&gt;either/bimap.js -->
<g id="edge15" class="edge">
<title>either/index.js&#45;&gt;either/bimap.js</title>
<path fill="none" stroke="#242424" d="M1456.596,-1306.2469C1482.0179,-1279.6212 1510.7348,-1247.2457 1533.4698,-1215.4 1546.588,-1197.025 1559.0407,-1175.9594 1569.7478,-1156.1953"/>
<polygon fill="#242424" stroke="#242424" points="1572.9173,-1157.6901 1574.5406,-1147.2203 1566.7426,-1154.3926 1572.9173,-1157.6901"/>
</g>
<!-- either/index.js&#45;&gt;either/fold.js -->
<g id="edge16" class="edge">
<title>either/index.js&#45;&gt;either/fold.js</title>
<path fill="none" stroke="#242424" d="M1456.6098,-1346.1282C1518.5543,-1322.5012 1613.1951,-1278.9754 1675.4698,-1215.4 1692.8463,-1197.6606 1706.7093,-1174.5031 1717.2132,-1152.6335"/>
<polygon fill="#242424" stroke="#242424" points="1720.4818,-1153.9042 1721.5096,-1143.3593 1714.1303,-1150.9617 1720.4818,-1153.9042"/>
</g>
<!-- either/index.js&#45;&gt;either/guided&#45;left.js -->
<g id="edge17" class="edge">
<title>either/index.js&#45;&gt;either/guided&#45;left.js</title>
<path fill="none" stroke="#242424" d="M1332.1687,-1330.1174C1287.8183,-1301.9563 1228.3694,-1260.4852 1183.4698,-1215.4 1171.7421,-1203.6238 1160.4211,-1190.2383 1149.9563,-1176.6369"/>
<polygon fill="#242424" stroke="#242424" points="1152.7169,-1174.4846 1143.8971,-1168.6142 1147.131,-1178.7034 1152.7169,-1174.4846"/>
</g>
<!-- either/index.js&#45;&gt;either/guided.js -->
<g id="edge19" class="edge">
<title>either/index.js&#45;&gt;either/guided.js</title>
<path fill="none" stroke="#242424" d="M1393.0132,-1304.8979C1390.7987,-1224.033 1385.7125,-1078.5908 1375.4698,-954.6 1371.8096,-910.2927 1365.9969,-860.9047 1360.8972,-821.2249"/>
<polygon fill="#242424" stroke="#242424" points="1364.3404,-820.56 1359.5836,-811.093 1357.3985,-821.4601 1364.3404,-820.56"/>
</g>
<!-- either/index.js&#45;&gt;either/guided&#45;right.js -->
<g id="edge18" class="edge">
<title>either/index.js&#45;&gt;either/guided&#45;right.js</title>
<path fill="none" stroke="#242424" d="M1369.0902,-1304.9207C1354.3626,-1268.7804 1335.4956,-1222.4825 1318.8748,-1181.6963"/>
<polygon fill="#242424" stroke="#242424" points="1322.0497,-1180.2127 1315.0346,-1172.2729 1315.5673,-1182.8544 1322.0497,-1180.2127"/>
</g>
<!-- errors/expect&#45;function&#45;props.js -->
<g id="node16" class="node">
<title>errors/expect&#45;function&#45;props.js</title>
<polygon fill="none" stroke="#242424" stroke-width="4" points="596.1699,-1204.7001 356.7697,-1204.7001 356.7697,-965.2999 596.1699,-965.2999 596.1699,-1204.7001"/>
<text text-anchor="middle" x="476.4698" y="-1082.6" font-family="Fira Code" font-size="12.00" fill="#242424">errors/expect&#45;function&#45;props.js</text>
</g>
<!-- errors/expect&#45;function&#45;props.js&#45;&gt;f&#45;utility/f&#45;utility.js -->
<g id="edge20" class="edge">
<title>errors/expect&#45;function&#45;props.js&#45;&gt;f&#45;utility/f&#45;utility.js</title>
<path fill="none" stroke="#242424" d="M526.7155,-965.3353C594.7594,-803.5816 720.2649,-506.2848 829.4698,-253.4 839.1881,-230.8955 849.7401,-206.7231 859.7219,-183.974"/>
<polygon fill="#242424" stroke="#242424" points="862.9957,-185.2235 863.8116,-174.6601 856.5864,-182.4092 862.9957,-185.2235"/>
</g>
<!-- guiderail.js -->
<g id="node17" class="node">
<title>guiderail.js</title>
<polygon fill="none" stroke="#242424" stroke-width="4" points="997.8706,-1903.8008 895.069,-1903.8008 895.069,-1800.9992 997.8706,-1800.9992 997.8706,-1903.8008"/>
<text text-anchor="middle" x="946.4698" y="-1850" font-family="Fira Code" font-size="12.00" fill="#242424">guiderail.js</text>
</g>
<!-- guiderail.js&#45;&gt;f&#45;utility/f&#45;utility.js -->
<g id="edge21" class="edge">
<title>guiderail.js&#45;&gt;f&#45;utility/f&#45;utility.js</title>
<path fill="none" stroke="#242424" d="M968.1084,-1801.1251C976.9299,-1777.5426 986.0766,-1748.9224 990.4698,-1722.2 1005.1206,-1633.0852 991.718,-1609.3025 990.4698,-1519 987.8029,-1326.0558 978.4698,-1277.9626 978.4698,-1085 978.4698,-1085 978.4698,-1085 978.4698,-745.2 978.4698,-526.16 981.7755,-469.5759 946.4698,-253.4 942.7819,-230.8187 937.3573,-206.8587 931.5669,-184.3705"/>
<polygon fill="#242424" stroke="#242424" points="934.8989,-183.278 928.9767,-174.4928 928.1278,-185.0536 934.8989,-183.278"/>
</g>
<!-- multirail.js -->
<g id="node18" class="node">
<title>multirail.js</title>
<polygon fill="none" stroke="#242424" stroke-width="4" points="981.8706,-1672.0008 879.069,-1672.0008 879.069,-1569.1992 981.8706,-1569.1992 981.8706,-1672.0008"/>
<text text-anchor="middle" x="930.4698" y="-1618.2" font-family="Fira Code" font-size="12.00" fill="#242424">multirail.js</text>
</g>
<!-- guiderail.js&#45;&gt;multirail.js -->
<g id="edge22" class="edge">
<title>guiderail.js&#45;&gt;multirail.js</title>
<path fill="none" stroke="#242424" d="M942.9189,-1800.9561C940.4953,-1765.844 937.2729,-1719.1593 934.7138,-1682.0846"/>
<polygon fill="#242424" stroke="#242424" points="938.1912,-1681.6353 934.0108,-1671.9001 931.2078,-1682.1174 938.1912,-1681.6353"/>
</g>
<!-- rail.js -->
<g id="node19" class="node">
<title>rail.js</title>
<polygon fill="none" stroke="#242424" stroke-width="4" points="884.871,-1400.6012 818.0686,-1400.6012 818.0686,-1333.7988 884.871,-1333.7988 884.871,-1400.6012"/>
<text text-anchor="middle" x="851.4698" y="-1364.8" font-family="Fira Code" font-size="12.00" fill="#242424">rail.js</text>
</g>
<!-- guiderail.js&#45;&gt;rail.js -->
<g id="edge23" class="edge">
<title>guiderail.js&#45;&gt;rail.js</title>
<path fill="none" stroke="#242424" d="M908.9642,-1801.1936C894.1979,-1778.2061 878.8029,-1750.0316 870.4698,-1722.2 838.1218,-1614.1608 842.2719,-1479.4915 847.2979,-1411.2496"/>
<polygon fill="#242424" stroke="#242424" points="850.8183,-1411.1238 848.1067,-1400.8818 843.8395,-1410.5793 850.8183,-1411.1238"/>
</g>
<!-- multirail.js&#45;&gt;f&#45;utility/f&#45;utility.js -->
<g id="edge40" class="edge">
<title>multirail.js&#45;&gt;f&#45;utility/f&#45;utility.js</title>
<path fill="none" stroke="#242424" d="M932.0654,-1569.2766C934.8887,-1473.9015 940.4698,-1262.8669 940.4698,-1085 940.4698,-1085 940.4698,-1085 940.4698,-745.2 940.4698,-526.5206 943.8178,-471.3083 925.4698,-253.4 923.5857,-231.023 920.7505,-207.0513 917.7081,-184.4747"/>
<polygon fill="#242424" stroke="#242424" points="921.1737,-183.9843 916.3461,-174.5532 914.2387,-184.9363 921.1737,-183.9843"/>
</g>
<!-- multirail.js&#45;&gt;rail.js -->
<g id="edge42" class="edge">
<title>multirail.js&#45;&gt;rail.js</title>
<path fill="none" stroke="#242424" d="M914.483,-1569.3207C899.9269,-1522.6307 878.6729,-1454.4565 864.9558,-1410.4574"/>
<polygon fill="#242424" stroke="#242424" points="868.212,-1409.1422 861.8942,-1400.6371 861.5292,-1411.2257 868.212,-1409.1422"/>
</g>
<!-- ramda/src/chain.js -->
<g id="node22" class="node">
<title>ramda/src/chain.js</title>
<polygon fill="none" stroke="#0c821d" stroke-width="4" points="1152.0704,-1439.8005 1006.8693,-1439.8005 1006.8693,-1294.5995 1152.0704,-1294.5995 1152.0704,-1439.8005"/>
<text text-anchor="middle" x="1079.4698" y="-1364.8" font-family="Fira Code" font-size="12.00" fill="#0c821d">ramda/src/chain.js</text>
</g>
<!-- multirail.js&#45;&gt;ramda/src/chain.js -->
<g id="edge41" class="edge">
<title>multirail.js&#45;&gt;ramda/src/chain.js</title>
<path fill="none" stroke="#242424" d="M960.6222,-1569.3207C980.9397,-1534.7673 1008.1761,-1488.4472 1031.4493,-1448.8672"/>
<polygon fill="#242424" stroke="#242424" points="1034.6053,-1450.4048 1036.657,-1440.0105 1028.5712,-1446.8567 1034.6053,-1450.4048"/>
</g>
<!-- rail.js&#45;&gt;f&#45;utility/f&#45;utility.js -->
<g id="edge43" class="edge">
<title>rail.js&#45;&gt;f&#45;utility/f&#45;utility.js</title>
<path fill="none" stroke="#242424" d="M860.4482,-1333.7372C868.1857,-1303.1771 878.8217,-1256.6161 883.4698,-1215.4 926.2266,-836.2666 914.9221,-381.0004 907.0677,-184.8947"/>
<polygon fill="#242424" stroke="#242424" points="910.5534,-184.4685 906.6497,-174.619 903.5591,-184.753 910.5534,-184.4685"/>
</g>
<!-- rail.js&#45;&gt;assertions/reject&#45;non&#45;functions.js -->
<g id="edge44" class="edge">
<title>rail.js&#45;&gt;assertions/reject&#45;non&#45;functions.js</title>
<path fill="none" stroke="#242424" d="M838.8809,-1333.9982C828.5026,-1306.6265 813.0294,-1265.8178 797.5975,-1225.118"/>
<polygon fill="#242424" stroke="#242424" points="800.8125,-1223.725 793.9945,-1215.6155 794.2672,-1226.2068 800.8125,-1223.725"/>
</g>
<!-- rail.js&#45;&gt;either/guided&#45;left.js -->
<g id="edge45" class="edge">
<title>rail.js&#45;&gt;either/guided&#45;left.js</title>
<path fill="none" stroke="#242424" d="M879.589,-1333.9982C912.1669,-1295.5317 967.2202,-1230.5274 1012.9073,-1176.5822"/>
<polygon fill="#242424" stroke="#242424" points="1015.7843,-1178.6008 1019.5762,-1168.7078 1010.4425,-1174.0768 1015.7843,-1178.6008"/>
</g>
<!-- rail.js&#45;&gt;either/guided&#45;right.js -->
<g id="edge46" class="edge">
<title>rail.js&#45;&gt;either/guided&#45;right.js</title>
<path fill="none" stroke="#242424" d="M884.8226,-1349.844C914.2345,-1334.7135 958.3749,-1312.4291 997.4698,-1294.4 1079.029,-1256.788 1113.0112,-1271.0969 1183.4698,-1215.4 1196.1629,-1205.3663 1208.0009,-1193.253 1218.7268,-1180.5025"/>
<polygon fill="#242424" stroke="#242424" points="1221.6505,-1182.4554 1225.2591,-1172.4941 1216.2262,-1178.0309 1221.6505,-1182.4554"/>
</g>
<!-- rail.js&#45;&gt;errors/expect&#45;function&#45;props.js -->
<g id="edge47" class="edge">
<title>rail.js&#45;&gt;errors/expect&#45;function&#45;props.js</title>
<path fill="none" stroke="#242424" d="M817.9934,-1349.8734C769.0677,-1323.8316 676.1718,-1271.6256 605.4698,-1215.4 603.6979,-1213.9909 601.9248,-1212.5594 600.1522,-1211.108"/>
<polygon fill="#242424" stroke="#242424" points="602.3055,-1208.3463 592.3864,-1204.6233 597.8188,-1213.7194 602.3055,-1208.3463"/>
</g>
<!-- handrail.js -->
<g id="node20" class="node">
<title>handrail.js</title>
<polygon fill="none" stroke="#242424" stroke-width="4" points="735.17,-1900.1002 639.7696,-1900.1002 639.7696,-1804.6998 735.17,-1804.6998 735.17,-1900.1002"/>
<text text-anchor="middle" x="687.4698" y="-1850" font-family="Fira Code" font-size="12.00" fill="#242424">handrail.js</text>
</g>
<!-- handrail.js&#45;&gt;assertions/all&#45;props&#45;are&#45;functions.js -->
<g id="edge25" class="edge">
<title>handrail.js&#45;&gt;assertions/all&#45;props&#45;are&#45;functions.js</title>
<path fill="none" stroke="#242424" d="M639.5736,-1841.5825C551.3986,-1820.6559 368.7841,-1772.2641 329.4698,-1722.2 231.4384,-1597.3637 290.4698,-1525.927 290.4698,-1367.2 290.4698,-1367.2 290.4698,-1367.2 290.4698,-1085 290.4698,-899.6583 290.4698,-686.3289 290.4698,-546.4435"/>
<polygon fill="#242424" stroke="#242424" points="293.9699,-546.0811 290.4698,-536.0812 286.9699,-546.0812 293.9699,-546.0811"/>
</g>
<!-- handrail.js&#45;&gt;f&#45;utility/f&#45;utility.js -->
<g id="edge24" class="edge">
<title>handrail.js&#45;&gt;f&#45;utility/f&#45;utility.js</title>
<path fill="none" stroke="#242424" d="M639.544,-1842.7975C541.9583,-1822.4158 324.7439,-1772.5569 269.4698,-1722.2 143.1071,-1607.0783 121.4698,-1538.1402 121.4698,-1367.2 121.4698,-1367.2 121.4698,-1367.2 121.4698,-745.2 121.4698,-526.4592 0,-421.0776 140.4698,-253.4 224.8366,-152.6921 619.1467,-109.1635 805.0325,-93.9945"/>
<polygon fill="#242424" stroke="#242424" points="805.391,-97.4771 815.0778,-93.1859 804.8292,-90.4997 805.391,-97.4771"/>
</g>
<!-- handrail.js&#45;&gt;assertions/judge&#45;object.js -->
<g id="edge26" class="edge">
<title>handrail.js&#45;&gt;assertions/judge&#45;object.js</title>
<path fill="none" stroke="#242424" d="M639.8457,-1807.7066C614.149,-1783.5912 581.2967,-1752.7606 549.7063,-1723.1142"/>
<polygon fill="#242424" stroke="#242424" points="551.8242,-1720.3019 542.1372,-1716.0109 547.034,-1725.4063 551.8242,-1720.3019"/>
</g>
<!-- handrail.js&#45;&gt;assertions/reject&#45;non&#45;functions.js -->
<g id="edge27" class="edge">
<title>handrail.js&#45;&gt;assertions/reject&#45;non&#45;functions.js</title>
<path fill="none" stroke="#242424" d="M691.0139,-1804.6856C699.4541,-1691.0542 721.0089,-1400.858 734.0241,-1225.6322"/>
<polygon fill="#242424" stroke="#242424" points="737.5219,-1225.7913 734.7723,-1215.5595 730.5411,-1225.2727 737.5219,-1225.7913"/>
</g>
<!-- handrail.js&#45;&gt;errors/expect&#45;function&#45;props.js -->
<g id="edge28" class="edge">
<title>handrail.js&#45;&gt;errors/expect&#45;function&#45;props.js</title>
<path fill="none" stroke="#242424" d="M674.3505,-1804.6856C642.4288,-1688.5873 559.829,-1388.1747 512.0449,-1214.3854"/>
<polygon fill="#242424" stroke="#242424" points="515.3987,-1213.3808 509.3727,-1204.6665 508.6491,-1215.2366 515.3987,-1213.3808"/>
</g>
<!-- handrail.js&#45;&gt;multirail.js -->
<g id="edge29" class="edge">
<title>handrail.js&#45;&gt;multirail.js</title>
<path fill="none" stroke="#242424" d="M735.1889,-1806.8804C774.3059,-1769.5663 829.8437,-1716.5882 871.6976,-1676.6634"/>
<polygon fill="#242424" stroke="#242424" points="874.2619,-1679.0543 879.082,-1669.6193 869.4303,-1673.9892 874.2619,-1679.0543"/>
</g>
<!-- handrail.js&#45;&gt;rail.js -->
<g id="edge30" class="edge">
<title>handrail.js&#45;&gt;rail.js</title>
<path fill="none" stroke="#242424" d="M707.8076,-1804.572C717.8837,-1780.1319 729.9071,-1749.7986 739.4698,-1722.2 770.2994,-1633.2239 770.8718,-1608.7182 799.4698,-1519 811.2134,-1482.1577 825.51,-1440.639 836.1383,-1410.3469"/>
<polygon fill="#242424" stroke="#242424" points="839.5758,-1411.1222 839.593,-1400.5273 832.9725,-1408.7989 839.5758,-1411.1222"/>
</g>
<!-- index.js -->
<g id="node21" class="node">
<title>index.js</title>
<polygon fill="none" stroke="#242424" stroke-width="4" points="1116.0709,-2056.0011 1042.8687,-2056.0011 1042.8687,-1982.7989 1116.0709,-1982.7989 1116.0709,-2056.0011"/>
<text text-anchor="middle" x="1079.4698" y="-2017" font-family="Fira Code" font-size="12.00" fill="#242424">index.js</text>
</g>
<!-- index.js&#45;&gt;f&#45;utility/f&#45;utility.js -->
<g id="edge31" class="edge">
<title>index.js&#45;&gt;f&#45;utility/f&#45;utility.js</title>
<path fill="none" stroke="#242424" d="M1116.2259,-2016.1288C1234.4175,-2005.0683 1602.7968,-1966.2233 1702.4698,-1903.6 1825.5623,-1826.2625 1866.4698,-1765.9714 1866.4698,-1620.6 1866.4698,-1620.6 1866.4698,-1620.6 1866.4698,-745.2 1866.4698,-328.489 1244.3815,-156.6604 999.6744,-105.1893"/>
<polygon fill="#242424" stroke="#242424" points="1000.2219,-101.7283 989.7186,-103.1179 998.796,-108.5815 1000.2219,-101.7283"/>
</g>
<!-- index.js&#45;&gt;either/assert.js -->
<g id="edge33" class="edge">
<title>index.js&#45;&gt;either/assert.js</title>
<path fill="none" stroke="#242424" d="M1116.1027,-2017.4372C1266.4791,-2007.2401 1828.4698,-1947.2782 1828.4698,-1620.6 1828.4698,-1620.6 1828.4698,-1620.6 1828.4698,-1085 1828.4698,-866.7004 1821.857,-786.0455 1686.4698,-614.8 1616.6789,-526.5244 1501.3895,-462.0514 1425.678,-426.4435"/>
<polygon fill="#242424" stroke="#242424" points="1426.731,-423.0735 1416.1874,-422.0335 1423.7812,-429.4216 1426.731,-423.0735"/>
</g>
<!-- index.js&#45;&gt;either/fold.js -->
<g id="edge34" class="edge">
<title>index.js&#45;&gt;either/fold.js</title>
<path fill="none" stroke="#242424" d="M1110.0182,-1982.761C1128.649,-1960.1726 1152.7785,-1930.4797 1173.4698,-1903.6 1404.4046,-1603.5965 1476.8032,-1537.6802 1675.4698,-1215.4 1687.7441,-1195.4884 1699.8402,-1173.068 1710.3042,-1152.5061"/>
<polygon fill="#242424" stroke="#242424" points="1713.461,-1154.019 1714.8377,-1143.514 1707.2105,-1150.8677 1713.461,-1154.019"/>
</g>
<!-- index.js&#45;&gt;either/index.js -->
<g id="edge35" class="edge">
<title>index.js&#45;&gt;either/index.js</title>
<path fill="none" stroke="#242424" d="M1097.3081,-1982.4662C1147.9121,-1877.6918 1293.0308,-1577.2271 1359.9307,-1438.7124"/>
<polygon fill="#242424" stroke="#242424" points="1363.2187,-1439.9522 1364.4162,-1429.4253 1356.9154,-1436.9078 1363.2187,-1439.9522"/>
</g>
<!-- index.js&#45;&gt;guiderail.js -->
<g id="edge36" class="edge">
<title>index.js&#45;&gt;guiderail.js</title>
<path fill="none" stroke="#242424" d="M1050.2824,-1982.7511C1033.7257,-1961.9619 1012.6065,-1935.4438 993.7447,-1911.7602"/>
<polygon fill="#242424" stroke="#242424" points="996.4122,-1909.4914 987.4446,-1903.8495 990.9366,-1913.8523 996.4122,-1909.4914"/>
</g>
<!-- index.js&#45;&gt;multirail.js -->
<g id="edge38" class="edge">
<title>index.js&#45;&gt;multirail.js</title>
<path fill="none" stroke="#242424" d="M1068.0381,-1982.4249C1054.3297,-1938.7838 1030.2179,-1864.1799 1006.4698,-1801.2 991.2754,-1760.9044 972.523,-1716.2968 957.4474,-1681.4964"/>
<polygon fill="#242424" stroke="#242424" points="960.4953,-1679.7284 953.2988,-1671.9527 954.0756,-1682.519 960.4953,-1679.7284"/>
</g>
<!-- index.js&#45;&gt;rail.js -->
<g id="edge39" class="edge">
<title>index.js&#45;&gt;rail.js</title>
<path fill="none" stroke="#242424" d="M1042.6143,-2007.1337C998.7264,-1990.6096 926.3613,-1956.9609 886.4698,-1903.6 774.3513,-1753.6243 816.4854,-1509.2249 839.9467,-1410.5508"/>
<polygon fill="#242424" stroke="#242424" points="843.3964,-1411.1769 842.3598,-1400.633 836.5949,-1409.5221 843.3964,-1411.1769"/>
</g>
<!-- index.js&#45;&gt;handrail.js -->
<g id="edge37" class="edge">
<title>index.js&#45;&gt;handrail.js</title>
<path fill="none" stroke="#242424" d="M1042.5975,-2004.652C988.8755,-1983.0511 886.0513,-1941.2788 799.4698,-1903.6 781.6057,-1895.8258 762.2683,-1887.0989 744.7699,-1879.0825"/>
<polygon fill="#242424" stroke="#242424" points="745.8069,-1875.7072 735.2589,-1874.7126 742.8844,-1882.068 745.8069,-1875.7072"/>
</g>
<!-- index.js&#45;&gt;ramda/src/chain.js -->
<g id="edge32" class="edge">
<title>index.js&#45;&gt;ramda/src/chain.js</title>
<path fill="none" stroke="#242424" d="M1079.4698,-1982.4662C1079.4698,-1880.428 1079.4698,-1592.7871 1079.4698,-1449.8894"/>
<polygon fill="#242424" stroke="#242424" points="1082.9699,-1449.8554 1079.4698,-1439.8555 1075.9699,-1449.8555 1082.9699,-1449.8554"/>
</g>
</g>
</svg>
