<?xml version="1.0" encoding="UTF-8" standalone="no"?>
<!DOCTYPE svg PUBLIC "-//W3C//DTD SVG 1.1//EN"
 "http://www.w3.org/Graphics/SVG/1.1/DTD/svg11.dtd">
<!-- Generated by graphviz version 2.40.1 (20161225.0304)
 -->
<!-- Title: G Pages: 1 -->
<svg width="2076pt" height="1849pt"
 viewBox="0.00 0.00 2075.98 1848.98" xmlns="http://www.w3.org/2000/svg" xmlns:xlink="http://www.w3.org/1999/xlink">
<g id="graph0" class="graph" transform="scale(1 1) rotate(0) translate(7.992 1840.992)">
<title>G</title>
<polygon fill="#eeeeff" stroke="transparent" points="-7.992,7.992 -7.992,-1840.992 2067.992,-1840.992 2067.992,7.992 -7.992,7.992"/>
<!-- assertions/all&#45;props&#45;are&#45;functions.js -->
<g id="node1" class="node">
<title>assertions/all&#45;props&#45;are&#45;functions.js</title>
<polygon fill="none" stroke="#242424" stroke-width="4" points="310.4003,-1086.0003 27.5997,-1086.0003 27.5997,-803.1997 310.4003,-803.1997 310.4003,-1086.0003"/>
<text text-anchor="middle" x="169" y="-942.2" font-family="Fira Code" font-size="12.00" fill="#242424">assertions/all&#45;props&#45;are&#45;functions.js</text>
</g>
<!-- f&#45;utility/f&#45;utility.js -->
<g id="node2" class="node">
<title>f&#45;utility/f&#45;utility.js</title>
<polygon fill="none" stroke="#0c821d" stroke-width="4" points="1171.4005,-174.6005 996.5995,-174.6005 996.5995,.2005 1171.4005,.2005 1171.4005,-174.6005"/>
<text text-anchor="middle" x="1084" y="-84.8" font-family="Fira Code" font-size="12.00" fill="#0c821d">f&#45;utility/f&#45;utility.js</text>
</g>
<!-- assertions/all&#45;props&#45;are&#45;functions.js&#45;&gt;f&#45;utility/f&#45;utility.js -->
<g id="edge1" class="edge">
<title>assertions/all&#45;props&#45;are&#45;functions.js&#45;&gt;f&#45;utility/f&#45;utility.js</title>
<path fill="none" stroke="#242424" d="M280.2935,-803.3484C361.1217,-704.1664 475.4477,-570.6531 587,-463.6 694.963,-359.9915 730.5099,-343.4713 850,-253.4 894.8579,-219.5863 945.5861,-183.3233 988.3154,-153.3255"/>
<polygon fill="#242424" stroke="#242424" points="990.5713,-156.0184 996.7505,-147.4121 986.553,-150.2866 990.5713,-156.0184"/>
</g>
<!-- assertions/index.js -->
<g id="node3" class="node">
<title>assertions/index.js</title>
<polygon fill="none" stroke="#242424" stroke-width="4" points="610.3001,-1317.5001 457.6999,-1317.5001 457.6999,-1164.8999 610.3001,-1164.8999 610.3001,-1317.5001"/>
<text text-anchor="middle" x="534" y="-1238.8" font-family="Fira Code" font-size="12.00" fill="#242424">assertions/index.js</text>
</g>
<!-- assertions/index.js&#45;&gt;assertions/all&#45;props&#45;are&#45;functions.js -->
<g id="edge2" class="edge">
<title>assertions/index.js&#45;&gt;assertions/all&#45;props&#45;are&#45;functions.js</title>
<path fill="none" stroke="#242424" d="M457.5859,-1189.5745C415.6814,-1160.3782 363.3812,-1122.4685 319,-1085.8 318.7286,-1085.5758 318.4571,-1085.3512 318.1854,-1085.1262"/>
<polygon fill="#242424" stroke="#242424" points="320.1917,-1082.2413 310.2765,-1078.5078 315.6993,-1087.6096 320.1917,-1082.2413"/>
</g>
<!-- assertions/judge&#45;object.js -->
<g id="node4" class="node">
<title>assertions/judge&#45;object.js</title>
<polygon fill="none" stroke="#242424" stroke-width="4" points="531.7001,-1046.3001 328.2999,-1046.3001 328.2999,-842.8999 531.7001,-842.8999 531.7001,-1046.3001"/>
<text text-anchor="middle" x="430" y="-942.2" font-family="Fira Code" font-size="12.00" fill="#242424">assertions/judge&#45;object.js</text>
</g>
<!-- assertions/index.js&#45;&gt;assertions/judge&#45;object.js -->
<g id="edge3" class="edge">
<title>assertions/index.js&#45;&gt;assertions/judge&#45;object.js</title>
<path fill="none" stroke="#242424" d="M507.2174,-1164.8181C495.6154,-1131.7302 481.8036,-1092.34 469.0908,-1056.0838"/>
<polygon fill="#242424" stroke="#242424" points="472.3231,-1054.7245 465.7113,-1046.4459 465.7174,-1057.0408 472.3231,-1054.7245"/>
</g>
<!-- assertions/reject&#45;non&#45;functions.js -->
<g id="node5" class="node">
<title>assertions/reject&#45;non&#45;functions.js</title>
<polygon fill="none" stroke="#242424" stroke-width="4" points="810.3001,-1074.9001 549.6999,-1074.9001 549.6999,-814.2999 810.3001,-814.2999 810.3001,-1074.9001"/>
<text text-anchor="middle" x="680" y="-942.2" font-family="Fira Code" font-size="12.00" fill="#242424">assertions/reject&#45;non&#45;functions.js</text>
</g>
<!-- assertions/index.js&#45;&gt;assertions/reject&#45;non&#45;functions.js -->
<g id="edge4" class="edge">
<title>assertions/index.js&#45;&gt;assertions/reject&#45;non&#45;functions.js</title>
<path fill="none" stroke="#242424" d="M571.5986,-1164.8181C583.7587,-1140.1148 597.648,-1111.8986 611.3335,-1084.0964"/>
<polygon fill="#242424" stroke="#242424" points="614.491,-1085.607 615.7672,-1075.0893 608.2106,-1082.5155 614.491,-1085.607"/>
</g>
<!-- assertions/judge&#45;object.js&#45;&gt;f&#45;utility/f&#45;utility.js -->
<g id="edge5" class="edge">
<title>assertions/judge&#45;object.js&#45;&gt;f&#45;utility/f&#45;utility.js</title>
<path fill="none" stroke="#242424" d="M503.3073,-842.7487C601.8966,-706.6732 783.7237,-458.8545 947,-253.4 965.3939,-230.2546 985.4935,-205.5532 1004.4908,-182.4646"/>
<polygon fill="#242424" stroke="#242424" points="1007.2296,-184.6445 1010.887,-174.701 1001.827,-180.1935 1007.2296,-184.6445"/>
</g>
<!-- assertions/reject&#45;non&#45;functions.js&#45;&gt;f&#45;utility/f&#45;utility.js -->
<g id="edge6" class="edge">
<title>assertions/reject&#45;non&#45;functions.js&#45;&gt;f&#45;utility/f&#45;utility.js</title>
<path fill="none" stroke="#242424" d="M741.5786,-813.913C823.2543,-640.5746 965.5501,-338.5836 1038.3103,-184.1663"/>
<polygon fill="#242424" stroke="#242424" points="1041.6914,-185.2017 1042.7878,-174.6637 1035.3592,-182.2179 1041.6914,-185.2017"/>
</g>
<!-- either/ap.js -->
<g id="node6" class="node">
<title>either/ap.js</title>
<polygon fill="none" stroke="#242424" stroke-width="4" points="1756.4008,-996.0008 1653.5992,-996.0008 1653.5992,-893.1992 1756.4008,-893.1992 1756.4008,-996.0008"/>
<text text-anchor="middle" x="1705" y="-942.2" font-family="Fira Code" font-size="12.00" fill="#242424">either/ap.js</text>
</g>
<!-- entrust/entrust.js -->
<g id="node7" class="node">
<title>entrust/entrust.js</title>
<polygon fill="none" stroke="#0c821d" stroke-width="4" points="1908.6005,-666.6005 1763.3995,-666.6005 1763.3995,-521.3995 1908.6005,-521.3995 1908.6005,-666.6005"/>
<text text-anchor="middle" x="1836" y="-591.6" font-family="Fira Code" font-size="12.00" fill="#0c821d">entrust/entrust.js</text>
</g>
<!-- either/ap.js&#45;&gt;entrust/entrust.js -->
<g id="edge7" class="edge">
<title>either/ap.js&#45;&gt;entrust/entrust.js</title>
<path fill="none" stroke="#242424" d="M1724.1888,-893.2443C1745.458,-836.3209 1780.0656,-743.6991 1805.151,-676.5623"/>
<polygon fill="#242424" stroke="#242424" points="1808.5587,-677.4416 1808.7803,-666.8491 1802.0015,-674.9915 1808.5587,-677.4416"/>
</g>
<!-- either/assert.js -->
<g id="node8" class="node">
<title>either/assert.js</title>
<polygon fill="none" stroke="#242424" stroke-width="4" points="1719.7002,-384.7002 1588.2998,-384.7002 1588.2998,-253.2998 1719.7002,-253.2998 1719.7002,-384.7002"/>
<text text-anchor="middle" x="1654" y="-316.6" font-family="Fira Code" font-size="12.00" fill="#242424">either/assert.js</text>
</g>
<!-- either/assert.js&#45;&gt;f&#45;utility/f&#45;utility.js -->
<g id="edge8" class="edge">
<title>either/assert.js&#45;&gt;f&#45;utility/f&#45;utility.js</title>
<path fill="none" stroke="#242424" d="M1588.0526,-262.0078C1583.4161,-258.9197 1578.7108,-256.016 1574,-253.4 1446.5057,-182.6009 1283.6585,-134.7592 1181.5693,-109.2299"/>
<polygon fill="#242424" stroke="#242424" points="1182.1246,-105.7617 1171.5763,-106.7537 1180.4409,-112.5562 1182.1246,-105.7617"/>
</g>
<!-- either/bimap.js -->
<g id="node9" class="node">
<title>either/bimap.js</title>
<polygon fill="none" stroke="#242424" stroke-width="4" points="1898,-1006.6 1774,-1006.6 1774,-882.6 1898,-882.6 1898,-1006.6"/>
<text text-anchor="middle" x="1836" y="-942.2" font-family="Fira Code" font-size="12.00" fill="#242424">either/bimap.js</text>
</g>
<!-- either/bimap.js&#45;&gt;entrust/entrust.js -->
<g id="edge9" class="edge">
<title>either/bimap.js&#45;&gt;entrust/entrust.js</title>
<path fill="none" stroke="#242424" d="M1836,-882.3237C1836,-825.1929 1836,-740.1418 1836,-677.2068"/>
<polygon fill="#242424" stroke="#242424" points="1839.5001,-676.9102 1836,-666.9102 1832.5001,-676.9103 1839.5001,-676.9102"/>
</g>
<!-- either/fold.js -->
<g id="node10" class="node">
<title>either/fold.js</title>
<polygon fill="none" stroke="#242424" stroke-width="4" points="2032.3002,-1002.9002 1915.6998,-1002.9002 1915.6998,-886.2998 2032.3002,-886.2998 2032.3002,-1002.9002"/>
<text text-anchor="middle" x="1974" y="-942.2" font-family="Fira Code" font-size="12.00" fill="#242424">either/fold.js</text>
</g>
<!-- either/fold.js&#45;&gt;entrust/entrust.js -->
<g id="edge10" class="edge">
<title>either/fold.js&#45;&gt;entrust/entrust.js</title>
<path fill="none" stroke="#242424" d="M1950.9019,-885.9174C1928.304,-828.5057 1893.6846,-740.5524 1868.3512,-676.1907"/>
<polygon fill="#242424" stroke="#242424" points="1871.6028,-674.8956 1864.6834,-666.8724 1865.0892,-677.4595 1871.6028,-674.8956"/>
</g>
<!-- either/guided&#45;left.js -->
<g id="node11" class="node">
<title>either/guided&#45;left.js</title>
<polygon fill="none" stroke="#242424" stroke-width="4" points="1329.7001,-1028.3001 1162.2999,-1028.3001 1162.2999,-860.8999 1329.7001,-860.8999 1329.7001,-1028.3001"/>
<text text-anchor="middle" x="1246" y="-942.2" font-family="Fira Code" font-size="12.00" fill="#242424">either/guided&#45;left.js</text>
</g>
<!-- fantasy&#45;eithers/fantasy&#45;eithers.js -->
<g id="node12" class="node">
<title>fantasy&#45;eithers/fantasy&#45;eithers.js</title>
<polygon fill="none" stroke="#0c821d" stroke-width="4" points="1410.3001,-724.3001 1149.6999,-724.3001 1149.6999,-463.6999 1410.3001,-463.6999 1410.3001,-724.3001"/>
<text text-anchor="middle" x="1280" y="-591.6" font-family="Fira Code" font-size="12.00" fill="#0c821d">fantasy&#45;eithers/fantasy&#45;eithers.js</text>
</g>
<!-- either/guided&#45;left.js&#45;&gt;fantasy&#45;eithers/fantasy&#45;eithers.js -->
<g id="edge11" class="edge">
<title>either/guided&#45;left.js&#45;&gt;fantasy&#45;eithers/fantasy&#45;eithers.js</title>
<path fill="none" stroke="#242424" d="M1254.1438,-860.6226C1257.7996,-822.9257 1262.2133,-777.412 1266.3513,-734.7427"/>
<polygon fill="#242424" stroke="#242424" points="1269.8589,-734.8319 1267.3406,-724.5408 1262.8916,-734.1562 1269.8589,-734.8319"/>
</g>
<!-- either/guided.js -->
<g id="node13" class="node">
<title>either/guided.js</title>
<polygon fill="none" stroke="#242424" stroke-width="4" points="1559.7002,-659.7002 1428.2998,-659.7002 1428.2998,-528.2998 1559.7002,-528.2998 1559.7002,-659.7002"/>
<text text-anchor="middle" x="1494" y="-591.6" font-family="Fira Code" font-size="12.00" fill="#242424">either/guided.js</text>
</g>
<!-- either/guided&#45;left.js&#45;&gt;either/guided.js -->
<g id="edge12" class="edge">
<title>either/guided&#45;left.js&#45;&gt;either/guided.js</title>
<path fill="none" stroke="#242424" d="M1297.0507,-860.7808C1309.9885,-841.3804 1324.385,-821.2144 1339,-803.4 1370.6941,-764.7675 1388.4884,-763.9731 1419,-724.4 1432.2158,-707.2594 1444.7349,-687.5505 1455.6235,-668.7326"/>
<polygon fill="#242424" stroke="#242424" points="1458.7619,-670.2943 1460.6704,-659.8728 1452.6795,-666.8295 1458.7619,-670.2943"/>
</g>
<!-- either/guided.js&#45;&gt;f&#45;utility/f&#45;utility.js -->
<g id="edge15" class="edge">
<title>either/guided.js&#45;&gt;f&#45;utility/f&#45;utility.js</title>
<path fill="none" stroke="#242424" d="M1459.7235,-528.3594C1447.7256,-507.116 1433.585,-483.832 1419,-463.6 1345.4309,-361.5469 1248.8003,-255.3699 1178.2351,-181.9079"/>
<polygon fill="#242424" stroke="#242424" points="1180.5167,-179.2314 1171.059,-174.4563 1175.4746,-184.0871 1180.5167,-179.2314"/>
</g>
<!-- either/guided.js&#45;&gt;either/assert.js -->
<g id="edge16" class="edge">
<title>either/guided.js&#45;&gt;either/assert.js</title>
<path fill="none" stroke="#242424" d="M1532.324,-528.1306C1555.8869,-487.6319 1586.1421,-435.6307 1610.588,-393.6144"/>
<polygon fill="#242424" stroke="#242424" points="1613.708,-395.2115 1615.7118,-384.8079 1607.6576,-391.6912 1613.708,-395.2115"/>
</g>
<!-- either/guided&#45;right.js -->
<g id="node14" class="node">
<title>either/guided&#45;right.js</title>
<polygon fill="none" stroke="#242424" stroke-width="4" points="1522.4005,-1032.0005 1347.5995,-1032.0005 1347.5995,-857.1995 1522.4005,-857.1995 1522.4005,-1032.0005"/>
<text text-anchor="middle" x="1435" y="-942.2" font-family="Fira Code" font-size="12.00" fill="#242424">either/guided&#45;right.js</text>
</g>
<!-- either/guided&#45;right.js&#45;&gt;fantasy&#45;eithers/fantasy&#45;eithers.js -->
<g id="edge13" class="edge">
<title>either/guided&#45;right.js&#45;&gt;fantasy&#45;eithers/fantasy&#45;eithers.js</title>
<path fill="none" stroke="#242424" d="M1396.2868,-857.0332C1379.8226,-819.7923 1360.2117,-775.4338 1341.8286,-733.8522"/>
<polygon fill="#242424" stroke="#242424" points="1344.9252,-732.2005 1337.6806,-724.4697 1338.523,-735.031 1344.9252,-732.2005"/>
</g>
<!-- either/guided&#45;right.js&#45;&gt;either/guided.js -->
<g id="edge14" class="edge">
<title>either/guided&#45;right.js&#45;&gt;either/guided.js</title>
<path fill="none" stroke="#242424" d="M1449.736,-857.0332C1459.4237,-799.4652 1471.9736,-724.8894 1481.235,-669.8545"/>
<polygon fill="#242424" stroke="#242424" points="1484.7165,-670.2563 1482.9246,-659.8141 1477.8136,-669.0946 1484.7165,-670.2563"/>
</g>
<!-- either/index.js -->
<g id="node15" class="node">
<title>either/index.js</title>
<polygon fill="none" stroke="#242424" stroke-width="4" points="1740,-1303.2 1616,-1303.2 1616,-1179.2 1740,-1179.2 1740,-1303.2"/>
<text text-anchor="middle" x="1678" y="-1238.8" font-family="Fira Code" font-size="12.00" fill="#242424">either/index.js</text>
</g>
<!-- either/index.js&#45;&gt;either/ap.js -->
<g id="edge17" class="edge">
<title>either/index.js&#45;&gt;either/ap.js</title>
<path fill="none" stroke="#242424" d="M1683.6601,-1179.0229C1688.2894,-1128.1686 1694.8011,-1056.6373 1699.411,-1005.9961"/>
<polygon fill="#242424" stroke="#242424" points="1702.9144,-1006.1168 1700.3355,-995.8406 1695.9432,-1005.4821 1702.9144,-1006.1168"/>
</g>
<!-- either/index.js&#45;&gt;either/assert.js -->
<g id="edge18" class="edge">
<title>either/index.js&#45;&gt;either/assert.js</title>
<path fill="none" stroke="#242424" d="M1661.6596,-1178.9189C1655.0659,-1150.7062 1648.2548,-1116.7958 1645,-1085.8 1618.533,-833.75 1636.4041,-532.5546 1647.3084,-394.6709"/>
<polygon fill="#242424" stroke="#242424" points="1650.803,-394.8771 1648.1132,-384.6294 1643.8254,-394.3178 1650.803,-394.8771"/>
</g>
<!-- either/index.js&#45;&gt;either/bimap.js -->
<g id="edge19" class="edge">
<title>either/index.js&#45;&gt;either/bimap.js</title>
<path fill="none" stroke="#242424" d="M1713.5612,-1179.1647C1729.5759,-1150.8526 1748.5417,-1116.7948 1765,-1085.8 1776.9886,-1063.2228 1789.6545,-1038.3778 1800.9171,-1015.9058"/>
<polygon fill="#242424" stroke="#242424" points="1804.1459,-1017.2743 1805.4869,-1006.7646 1797.8847,-1014.1442 1804.1459,-1017.2743"/>
</g>
<!-- either/index.js&#45;&gt;either/fold.js -->
<g id="edge20" class="edge">
<title>either/index.js&#45;&gt;either/fold.js</title>
<path fill="none" stroke="#242424" d="M1740.1524,-1210.9325C1790.4693,-1183.8735 1860.4001,-1140.1464 1907,-1085.8 1925.3237,-1064.4302 1939.7995,-1037.1912 1950.5367,-1012.3496"/>
<polygon fill="#242424" stroke="#242424" points="1953.833,-1013.5391 1954.469,-1002.9634 1947.3767,-1010.8342 1953.833,-1013.5391"/>
</g>
<!-- either/index.js&#45;&gt;either/guided&#45;left.js -->
<g id="edge21" class="edge">
<title>either/index.js&#45;&gt;either/guided&#45;left.js</title>
<path fill="none" stroke="#242424" d="M1615.9265,-1224.2411C1543.1805,-1201.9494 1422.0414,-1157.0462 1339,-1085.8 1322.9183,-1072.0025 1308.5113,-1054.7589 1296.1132,-1037.1098"/>
<polygon fill="#242424" stroke="#242424" points="1298.7164,-1034.7151 1290.1897,-1028.4265 1292.9338,-1038.6598 1298.7164,-1034.7151"/>
</g>
<!-- either/index.js&#45;&gt;either/guided.js -->
<g id="edge23" class="edge">
<title>either/index.js&#45;&gt;either/guided.js</title>
<path fill="none" stroke="#242424" d="M1648.7705,-1178.9756C1636.3242,-1150.9194 1622.3277,-1117.1165 1612,-1085.8 1564.391,-941.4365 1527.2093,-767.4128 1508.1248,-669.867"/>
<polygon fill="#242424" stroke="#242424" points="1511.5122,-668.9504 1506.1669,-659.8028 1504.641,-670.2871 1511.5122,-668.9504"/>
</g>
<!-- either/index.js&#45;&gt;either/guided&#45;right.js -->
<g id="edge22" class="edge">
<title>either/index.js&#45;&gt;either/guided&#45;right.js</title>
<path fill="none" stroke="#242424" d="M1617.8579,-1178.829C1591.8864,-1151.0308 1561.6432,-1117.4689 1536,-1085.8 1524.3977,-1071.4714 1512.5733,-1055.9282 1501.2953,-1040.5691"/>
<polygon fill="#242424" stroke="#242424" points="1503.812,-1038.0801 1495.0909,-1032.064 1498.1568,-1042.2056 1503.812,-1038.0801"/>
</g>
<!-- errors/expect&#45;function&#45;props.js -->
<g id="node16" class="node">
<title>errors/expect&#45;function&#45;props.js</title>
<polygon fill="none" stroke="#242424" stroke-width="4" points="1067.7001,-1064.3001 828.2999,-1064.3001 828.2999,-824.8999 1067.7001,-824.8999 1067.7001,-1064.3001"/>
<text text-anchor="middle" x="948" y="-942.2" font-family="Fira Code" font-size="12.00" fill="#242424">errors/expect&#45;function&#45;props.js</text>
</g>
<!-- errors/expect&#45;function&#45;props.js&#45;&gt;f&#45;utility/f&#45;utility.js -->
<g id="edge24" class="edge">
<title>errors/expect&#45;function&#45;props.js&#45;&gt;f&#45;utility/f&#45;utility.js</title>
<path fill="none" stroke="#242424" d="M966.9818,-824.9311C994.1248,-653.8105 1043.5064,-342.4885 1068.5495,-184.6064"/>
<polygon fill="#242424" stroke="#242424" points="1072.0534,-184.8568 1070.1633,-174.432 1065.1399,-183.7601 1072.0534,-184.8568"/>
</g>
<!-- guiderail.js -->
<g id="node17" class="node">
<title>guiderail.js</title>
<polygon fill="none" stroke="#242424" stroke-width="4" points="1222.4008,-1680.6008 1119.5992,-1680.6008 1119.5992,-1577.7992 1222.4008,-1577.7992 1222.4008,-1680.6008"/>
<text text-anchor="middle" x="1171" y="-1626.8" font-family="Fira Code" font-size="12.00" fill="#242424">guiderail.js</text>
</g>
<!-- guiderail.js&#45;&gt;f&#45;utility/f&#45;utility.js -->
<g id="edge25" class="edge">
<title>guiderail.js&#45;&gt;f&#45;utility/f&#45;utility.js</title>
<path fill="none" stroke="#242424" d="M1222.5506,-1609.8441C1334.1193,-1564.2287 1588,-1438.7272 1588,-1241.2 1588,-1241.2 1588,-1241.2 1588,-944.6 1588,-730.6555 1663.6943,-655.4469 1569,-463.6 1488.0459,-299.5902 1297.696,-186.3305 1180.9867,-129.478"/>
<polygon fill="#242424" stroke="#242424" points="1182.1979,-126.1764 1171.6705,-124.9834 1179.1562,-132.481 1182.1979,-126.1764"/>
</g>
<!-- multirail.js -->
<g id="node18" class="node">
<title>multirail.js</title>
<polygon fill="none" stroke="#242424" stroke-width="4" points="1222.4008,-1499.2008 1119.5992,-1499.2008 1119.5992,-1396.3992 1222.4008,-1396.3992 1222.4008,-1499.2008"/>
<text text-anchor="middle" x="1171" y="-1445.4" font-family="Fira Code" font-size="12.00" fill="#242424">multirail.js</text>
</g>
<!-- guiderail.js&#45;&gt;multirail.js -->
<g id="edge26" class="edge">
<title>guiderail.js&#45;&gt;multirail.js</title>
<path fill="none" stroke="#242424" d="M1171,-1577.7033C1171,-1556.3572 1171,-1531.4239 1171,-1509.1407"/>
<polygon fill="#242424" stroke="#242424" points="1174.5001,-1509.1113 1171,-1499.1113 1167.5001,-1509.1114 1174.5001,-1509.1113"/>
</g>
<!-- rail.js -->
<g id="node19" class="node">
<title>rail.js</title>
<polygon fill="none" stroke="#242424" stroke-width="4" points="1106.4012,-1274.6012 1039.5988,-1274.6012 1039.5988,-1207.7988 1106.4012,-1207.7988 1106.4012,-1274.6012"/>
<text text-anchor="middle" x="1073" y="-1238.8" font-family="Fira Code" font-size="12.00" fill="#242424">rail.js</text>
</g>
<!-- guiderail.js&#45;&gt;rail.js -->
<g id="edge27" class="edge">
<title>guiderail.js&#45;&gt;rail.js</title>
<path fill="none" stroke="#242424" d="M1143.2558,-1577.9433C1131.6475,-1554.4846 1119.0176,-1525.9574 1111,-1499 1089.161,-1425.5712 1079.5872,-1336.4876 1075.6078,-1284.5866"/>
<polygon fill="#242424" stroke="#242424" points="1079.0834,-1284.1243 1074.8629,-1274.4064 1072.1021,-1284.6352 1079.0834,-1284.1243"/>
</g>
<!-- multirail.js&#45;&gt;f&#45;utility/f&#45;utility.js -->
<g id="edge42" class="edge">
<title>multirail.js&#45;&gt;f&#45;utility/f&#45;utility.js</title>
<path fill="none" stroke="#242424" d="M1168.2901,-1396.5501C1159.4473,-1231.0235 1130.1464,-695.7756 1098,-253.4 1096.3894,-231.2356 1094.4862,-207.4235 1092.6107,-184.9436"/>
<polygon fill="#242424" stroke="#242424" points="1096.0767,-184.3914 1091.752,-174.7194 1089.1013,-184.9773 1096.0767,-184.3914"/>
</g>
<!-- multirail.js&#45;&gt;rail.js -->
<g id="edge43" class="edge">
<title>multirail.js&#45;&gt;rail.js</title>
<path fill="none" stroke="#242424" d="M1146.6494,-1396.4649C1130.1908,-1361.7674 1108.7152,-1316.4935 1093.2052,-1283.7959"/>
<polygon fill="#242424" stroke="#242424" points="1096.2451,-1282.0378 1088.7971,-1274.5028 1089.9206,-1285.0379 1096.2451,-1282.0378"/>
</g>
<!-- rail.js&#45;&gt;f&#45;utility/f&#45;utility.js -->
<g id="edge44" class="edge">
<title>rail.js&#45;&gt;f&#45;utility/f&#45;utility.js</title>
<path fill="none" stroke="#242424" d="M1074.0387,-1207.8586C1074.9762,-1176.3933 1076.3107,-1127.8958 1077,-1085.8 1082.4085,-755.4818 1083.6437,-363.6357 1083.9219,-184.867"/>
<polygon fill="#242424" stroke="#242424" points="1087.422,-184.704 1083.937,-174.6988 1080.422,-184.6935 1087.422,-184.704"/>
</g>
<!-- rail.js&#45;&gt;assertions/reject&#45;non&#45;functions.js -->
<g id="edge45" class="edge">
<title>rail.js&#45;&gt;assertions/reject&#45;non&#45;functions.js</title>
<path fill="none" stroke="#242424" d="M1039.6547,-1224.2026C989.4411,-1197.875 892.4768,-1144.1505 819,-1085.8 817.3837,-1084.5165 815.7669,-1083.2155 814.1503,-1081.8987"/>
<polygon fill="#242424" stroke="#242424" points="816.003,-1078.8876 806.0745,-1075.1894 811.5297,-1084.2719 816.003,-1078.8876"/>
</g>
<!-- rail.js&#45;&gt;either/guided&#45;left.js -->
<g id="edge46" class="edge">
<title>rail.js&#45;&gt;either/guided&#45;left.js</title>
<path fill="none" stroke="#242424" d="M1092.509,-1207.7528C1116.4639,-1166.6833 1158.0804,-1095.3339 1191.941,-1037.2816"/>
<polygon fill="#242424" stroke="#242424" points="1195.0758,-1038.8537 1197.0909,-1028.4523 1189.0292,-1035.3269 1195.0758,-1038.8537"/>
</g>
<!-- rail.js&#45;&gt;either/guided&#45;right.js -->
<g id="edge47" class="edge">
<title>rail.js&#45;&gt;either/guided&#45;right.js</title>
<path fill="none" stroke="#242424" d="M1106.3452,-1227.5542C1159.974,-1204.4143 1266.6849,-1153.3326 1339,-1085.8 1353.298,-1072.4476 1366.6042,-1056.5955 1378.4796,-1040.42"/>
<polygon fill="#242424" stroke="#242424" points="1381.5747,-1042.1098 1384.5569,-1031.9433 1375.8857,-1038.0311 1381.5747,-1042.1098"/>
</g>
<!-- rail.js&#45;&gt;errors/expect&#45;function&#45;props.js -->
<g id="edge48" class="edge">
<title>rail.js&#45;&gt;errors/expect&#45;function&#45;props.js</title>
<path fill="none" stroke="#242424" d="M1058.9039,-1207.7528C1045.1078,-1175.0173 1023.2041,-1123.0442 1002.493,-1073.9009"/>
<polygon fill="#242424" stroke="#242424" points="1005.6149,-1072.2962 998.5059,-1064.4404 999.1643,-1075.0147 1005.6149,-1072.2962"/>
</g>
<!-- handrail.js -->
<g id="node20" class="node">
<title>handrail.js</title>
<polygon fill="none" stroke="#242424" stroke-width="4" points="862.7002,-1676.9002 767.2998,-1676.9002 767.2998,-1581.4998 862.7002,-1581.4998 862.7002,-1676.9002"/>
<text text-anchor="middle" x="815" y="-1626.8" font-family="Fira Code" font-size="12.00" fill="#242424">handrail.js</text>
</g>
<!-- handrail.js&#45;&gt;assertions/all&#45;props&#45;are&#45;functions.js -->
<g id="edge29" class="edge">
<title>handrail.js&#45;&gt;assertions/all&#45;props&#45;are&#45;functions.js</title>
<path fill="none" stroke="#242424" d="M767.1793,-1619.3558C700.9219,-1603.6745 580.4038,-1567.547 501,-1499 373.9541,-1389.3248 282.0157,-1218.5039 227.5391,-1095.4573"/>
<polygon fill="#242424" stroke="#242424" points="230.5844,-1093.6872 223.3578,-1085.9396 224.1756,-1096.5028 230.5844,-1093.6872"/>
</g>
<!-- handrail.js&#45;&gt;f&#45;utility/f&#45;utility.js -->
<g id="edge28" class="edge">
<title>handrail.js&#45;&gt;f&#45;utility/f&#45;utility.js</title>
<path fill="none" stroke="#242424" d="M767.3605,-1617.6083C593.0394,-1573.8265 0,-1412.307 0,-1241.2 0,-1241.2 0,-1241.2 0,-594 0,-377.2251 720.3756,-177.085 986.6246,-110.5168"/>
<polygon fill="#242424" stroke="#242424" points="987.8099,-113.8285 996.6675,-108.0153 986.1181,-107.036 987.8099,-113.8285"/>
</g>
<!-- handrail.js&#45;&gt;assertions/judge&#45;object.js -->
<g id="edge30" class="edge">
<title>handrail.js&#45;&gt;assertions/judge&#45;object.js</title>
<path fill="none" stroke="#242424" d="M767.2494,-1605.4085C685.0099,-1561.4823 518.7663,-1459.053 449,-1317.6 409.1302,-1236.7629 406.9571,-1133.7355 413.2975,-1056.4515"/>
<polygon fill="#242424" stroke="#242424" points="416.8093,-1056.4705 414.2003,-1046.2019 409.8363,-1055.8562 416.8093,-1056.4705"/>
</g>
<!-- handrail.js&#45;&gt;assertions/reject&#45;non&#45;functions.js -->
<g id="edge31" class="edge">
<title>handrail.js&#45;&gt;assertions/reject&#45;non&#45;functions.js</title>
<path fill="none" stroke="#242424" d="M805.5607,-1581.3324C785.5569,-1479.8908 738.2389,-1239.9358 707.7429,-1085.2876"/>
<polygon fill="#242424" stroke="#242424" points="711.1277,-1084.3608 705.759,-1075.2269 704.2599,-1085.7152 711.1277,-1084.3608"/>
</g>
<!-- handrail.js&#45;&gt;errors/expect&#45;function&#45;props.js -->
<g id="edge32" class="edge">
<title>handrail.js&#45;&gt;errors/expect&#45;function&#45;props.js</title>
<path fill="none" stroke="#242424" d="M824.2994,-1581.3324C844.4834,-1477.4383 892.8937,-1228.2526 922.8174,-1074.2241"/>
<polygon fill="#242424" stroke="#242424" points="926.2898,-1074.7026 924.7612,-1064.2187 919.4183,-1073.3676 926.2898,-1074.7026"/>
</g>
<!-- handrail.js&#45;&gt;multirail.js -->
<g id="edge33" class="edge">
<title>handrail.js&#45;&gt;multirail.js</title>
<path fill="none" stroke="#242424" d="M862.6423,-1604.9238C926.6501,-1572.3086 1040.4403,-1514.3268 1110.4499,-1478.6533"/>
<polygon fill="#242424" stroke="#242424" points="1112.2856,-1481.6462 1119.6066,-1473.9875 1109.1076,-1475.4092 1112.2856,-1481.6462"/>
</g>
<!-- handrail.js&#45;&gt;rail.js -->
<g id="edge34" class="edge">
<title>handrail.js&#45;&gt;rail.js</title>
<path fill="none" stroke="#242424" d="M848.4399,-1581.4912C865.5233,-1556.9505 886.5451,-1526.4923 905,-1499 955.663,-1423.5272 1013.1981,-1334.4904 1046.0875,-1283.2639"/>
<polygon fill="#242424" stroke="#242424" points="1049.0874,-1285.0696 1051.542,-1274.763 1043.1959,-1281.2893 1049.0874,-1285.0696"/>
</g>
<!-- index.js -->
<g id="node21" class="node">
<title>index.js</title>
<polygon fill="none" stroke="#242424" stroke-width="4" points="1286.6011,-1832.8011 1213.3989,-1832.8011 1213.3989,-1759.5989 1286.6011,-1759.5989 1286.6011,-1832.8011"/>
<text text-anchor="middle" x="1250" y="-1793.8" font-family="Fira Code" font-size="12.00" fill="#242424">index.js</text>
</g>
<!-- index.js&#45;&gt;f&#45;utility/f&#45;utility.js -->
<g id="edge35" class="edge">
<title>index.js&#45;&gt;f&#45;utility/f&#45;utility.js</title>
<path fill="none" stroke="#242424" d="M1286.6428,-1788.8882C1444.6793,-1756.3267 2060,-1618.5816 2060,-1447.8 2060,-1447.8 2060,-1447.8 2060,-594 2060,-200.8897 1428.6565,-112.289 1181.525,-92.6658"/>
<polygon fill="#242424" stroke="#242424" points="1181.7124,-89.1699 1171.4724,-91.8889 1181.173,-96.1491 1181.7124,-89.1699"/>
</g>
<!-- index.js&#45;&gt;either/fold.js -->
<g id="edge36" class="edge">
<title>index.js&#45;&gt;either/fold.js</title>
<path fill="none" stroke="#242424" d="M1286.7301,-1784.9501C1337.5652,-1768.1122 1430.4983,-1732.6463 1496,-1680.4 1731.3013,-1492.7161 1888.1287,-1156.4305 1947.448,-1012.7333"/>
<polygon fill="#242424" stroke="#242424" points="1950.8271,-1013.7175 1951.3822,-1003.1372 1944.3503,-1011.0621 1950.8271,-1013.7175"/>
</g>
<!-- index.js&#45;&gt;either/index.js -->
<g id="edge37" class="edge">
<title>index.js&#45;&gt;either/index.js</title>
<path fill="none" stroke="#242424" d="M1286.7415,-1775.3771C1358.3742,-1732.8849 1517.0992,-1629.1119 1602,-1499 1638.8477,-1442.5303 1658.3122,-1367.6686 1668.2775,-1313.1716"/>
<polygon fill="#242424" stroke="#242424" points="1671.7386,-1313.698 1670.0297,-1303.2419 1664.8451,-1312.4815 1671.7386,-1313.698"/>
</g>
<!-- index.js&#45;&gt;guiderail.js -->
<g id="edge38" class="edge">
<title>index.js&#45;&gt;guiderail.js</title>
<path fill="none" stroke="#242424" d="M1232.6631,-1759.5511C1222.9997,-1739.1234 1210.7197,-1713.1644 1199.6663,-1689.7984"/>
<polygon fill="#242424" stroke="#242424" points="1202.7785,-1688.1924 1195.3384,-1680.6495 1196.4508,-1691.1858 1202.7785,-1688.1924"/>
</g>
<!-- index.js&#45;&gt;multirail.js -->
<g id="edge40" class="edge">
<title>index.js&#45;&gt;multirail.js</title>
<path fill="none" stroke="#242424" d="M1250.6183,-1759.2477C1250.4814,-1715.3109 1247.4797,-1640.1138 1231,-1578 1224.7172,-1554.3193 1214.3947,-1529.5992 1204.0682,-1508.1403"/>
<polygon fill="#242424" stroke="#242424" points="1207.2051,-1506.5877 1199.6541,-1499.1558 1200.9224,-1509.6744 1207.2051,-1506.5877"/>
</g>
<!-- index.js&#45;&gt;rail.js -->
<g id="edge41" class="edge">
<title>index.js&#45;&gt;rail.js</title>
<path fill="none" stroke="#242424" d="M1213.1942,-1776.2268C1180.5947,-1756.4416 1134.6209,-1722.9698 1111,-1680.4 1039.4226,-1551.4022 1054.0903,-1367.6639 1065.7061,-1284.7528"/>
<polygon fill="#242424" stroke="#242424" points="1069.1953,-1285.0799 1067.1728,-1274.68 1062.2684,-1284.0713 1069.1953,-1285.0799"/>
</g>
<!-- index.js&#45;&gt;handrail.js -->
<g id="edge39" class="edge">
<title>index.js&#45;&gt;handrail.js</title>
<path fill="none" stroke="#242424" d="M1213.287,-1782.1056C1137.4965,-1753.009 963.2342,-1686.1083 872.4133,-1651.2414"/>
<polygon fill="#242424" stroke="#242424" points="873.4168,-1647.8777 862.8267,-1647.561 870.9079,-1654.4126 873.4168,-1647.8777"/>
</g>
</g>
</svg>
