<?xml version="1.0" encoding="UTF-8" standalone="no"?>
<!DOCTYPE svg PUBLIC "-//W3C//DTD SVG 1.1//EN"
 "http://www.w3.org/Graphics/SVG/1.1/DTD/svg11.dtd">
<!-- Generated by graphviz version 2.40.1 (20161225.0304)
 -->
<!-- Title: G Pages: 1 -->
<svg width="2018pt" height="1539pt"
 viewBox="0.00 0.00 2018.38 1538.98" xmlns="http://www.w3.org/2000/svg" xmlns:xlink="http://www.w3.org/1999/xlink">
<g id="graph0" class="graph" transform="scale(1 1) rotate(0) translate(7.992 1530.992)">
<title>G</title>
<polygon fill="#eeeeff" stroke="transparent" points="-7.992,7.992 -7.992,-1530.992 2010.392,-1530.992 2010.392,7.992 -7.992,7.992"/>
<!-- assertions/all&#45;props&#45;are&#45;functions.js -->
<g id="node1" class="node">
<title>assertions/all&#45;props&#45;are&#45;functions.js</title>
<polygon fill="none" stroke="#242424" stroke-width="4" points="282.6003,-555.2003 -.2003,-555.2003 -.2003,-272.3997 282.6003,-272.3997 282.6003,-555.2003"/>
<text text-anchor="middle" x="141.2" y="-411.4" font-family="Fira Code" font-size="12.00" fill="#242424">assertions/all&#45;props&#45;are&#45;functions.js</text>
</g>
<!-- Ⓜ f&#45;utility/f&#45;utility.js -->
<g id="node2" class="node">
<title>Ⓜ f&#45;utility/f&#45;utility.js</title>
<polygon fill="none" stroke="#0c821d" stroke-width="4" points="1028.8004,-193.4004 835.5996,-193.4004 835.5996,-.1996 1028.8004,-.1996 1028.8004,-193.4004"/>
<text text-anchor="middle" x="932.2" y="-95.6" font-family="Fira Code" font-size="12.00" fill="#0c821d">Ⓜ f&#45;utility/f&#45;utility.js</text>
</g>
<!-- assertions/all&#45;props&#45;are&#45;functions.js&#45;&gt;Ⓜ f&#45;utility/f&#45;utility.js -->
<g id="edge1" class="edge">
<title>assertions/all&#45;props&#45;are&#45;functions.js&#45;&gt;Ⓜ f&#45;utility/f&#45;utility.js</title>
<path fill="none" stroke="#242424" d="M282.8177,-277.5109C285.5981,-275.8145 288.3931,-274.1754 291.2,-272.6 463.8099,-175.7243 692.89,-129.7436 825.2705,-109.9473"/>
<polygon fill="#242424" stroke="#242424" points="826.034,-113.3727 835.4173,-108.453 825.014,-106.4474 826.034,-113.3727"/>
</g>
<!-- assertions/index.js -->
<g id="node3" class="node">
<title>assertions/index.js</title>
<polygon fill="none" stroke="#242424" stroke-width="4" points="478.5001,-850.3001 325.8999,-850.3001 325.8999,-697.6999 478.5001,-697.6999 478.5001,-850.3001"/>
<text text-anchor="middle" x="402.2" y="-771.6" font-family="Fira Code" font-size="12.00" fill="#242424">assertions/index.js</text>
</g>
<!-- assertions/index.js&#45;&gt;assertions/all&#45;props&#45;are&#45;functions.js -->
<g id="edge2" class="edge">
<title>assertions/index.js&#45;&gt;assertions/all&#45;props&#45;are&#45;functions.js</title>
<path fill="none" stroke="#242424" d="M346.8486,-697.6108C318.5457,-658.5507 283.0889,-609.6176 249.6264,-563.4368"/>
<polygon fill="#242424" stroke="#242424" points="252.3243,-561.195 243.6226,-555.151 246.6559,-565.3023 252.3243,-561.195"/>
</g>
<!-- assertions/judge&#45;object.js -->
<g id="node4" class="node">
<title>assertions/judge&#45;object.js</title>
<polygon fill="none" stroke="#242424" stroke-width="4" points="503.9001,-515.5001 300.4999,-515.5001 300.4999,-312.0999 503.9001,-312.0999 503.9001,-515.5001"/>
<text text-anchor="middle" x="402.2" y="-411.4" font-family="Fira Code" font-size="12.00" fill="#242424">assertions/judge&#45;object.js</text>
</g>
<!-- assertions/index.js&#45;&gt;assertions/judge&#45;object.js -->
<g id="edge3" class="edge">
<title>assertions/index.js&#45;&gt;assertions/judge&#45;object.js</title>
<path fill="none" stroke="#242424" d="M402.2,-697.6108C402.2,-647.7446 402.2,-581.787 402.2,-526.0078"/>
<polygon fill="#242424" stroke="#242424" points="405.7001,-525.7172 402.2,-515.7172 398.7001,-525.7173 405.7001,-525.7172"/>
</g>
<!-- assertions/reject&#45;non&#45;functions.js -->
<g id="node5" class="node">
<title>assertions/reject&#45;non&#45;functions.js</title>
<polygon fill="none" stroke="#242424" stroke-width="4" points="782.5001,-544.1001 521.8999,-544.1001 521.8999,-283.4999 782.5001,-283.4999 782.5001,-544.1001"/>
<text text-anchor="middle" x="652.2" y="-411.4" font-family="Fira Code" font-size="12.00" fill="#242424">assertions/reject&#45;non&#45;functions.js</text>
</g>
<!-- assertions/index.js&#45;&gt;assertions/reject&#45;non&#45;functions.js -->
<g id="edge4" class="edge">
<title>assertions/index.js&#45;&gt;assertions/reject&#45;non&#45;functions.js</title>
<path fill="none" stroke="#242424" d="M455.2186,-697.6108C484.4171,-655.5416 521.5645,-602.0196 555.713,-552.8185"/>
<polygon fill="#242424" stroke="#242424" points="558.7808,-554.5367 561.6074,-544.3259 553.0302,-550.5454 558.7808,-554.5367"/>
</g>
<!-- assertions/judge&#45;object.js&#45;&gt;Ⓜ f&#45;utility/f&#45;utility.js -->
<g id="edge5" class="edge">
<title>assertions/judge&#45;object.js&#45;&gt;Ⓜ f&#45;utility/f&#45;utility.js</title>
<path fill="none" stroke="#242424" d="M471.5926,-312.1683C484.3122,-297.7148 498.3165,-283.9361 513.2,-272.6 607.8094,-200.5401 736.2965,-152.3847 825.9505,-124.9695"/>
<polygon fill="#242424" stroke="#242424" points="827.0329,-128.2988 835.5925,-122.0552 825.0075,-121.5982 827.0329,-128.2988"/>
</g>
<!-- assertions/reject&#45;non&#45;functions.js&#45;&gt;Ⓜ f&#45;utility/f&#45;utility.js -->
<g id="edge6" class="edge">
<title>assertions/reject&#45;non&#45;functions.js&#45;&gt;Ⓜ f&#45;utility/f&#45;utility.js</title>
<path fill="none" stroke="#242424" d="M767.2988,-283.4917C791.4608,-256.1368 816.6453,-227.6245 839.8473,-201.3565"/>
<polygon fill="#242424" stroke="#242424" points="842.6605,-203.4584 846.6574,-193.6464 837.414,-198.8243 842.6605,-203.4584"/>
</g>
<!-- either/ap.js -->
<g id="node6" class="node">
<title>either/ap.js</title>
<polygon fill="none" stroke="#242424" stroke-width="4" points="1448.6008,-1131.6008 1345.7992,-1131.6008 1345.7992,-1028.7992 1448.6008,-1028.7992 1448.6008,-1131.6008"/>
<text text-anchor="middle" x="1397.2" y="-1077.8" font-family="Fira Code" font-size="12.00" fill="#242424">either/ap.js</text>
</g>
<!-- Ⓜ entrust/entrust.js -->
<g id="node7" class="node">
<title>Ⓜ entrust/entrust.js</title>
<polygon fill="none" stroke="#0c821d" stroke-width="4" points="1610.5001,-856.3001 1445.8999,-856.3001 1445.8999,-691.6999 1610.5001,-691.6999 1610.5001,-856.3001"/>
<text text-anchor="middle" x="1528.2" y="-772.8" font-family="Fira Code" font-size="12.00" fill="#0c821d">Ⓜ entrust/entrust.js</text>
</g>
<!-- either/ap.js&#45;&gt;Ⓜ entrust/entrust.js -->
<g id="edge7" class="edge">
<title>either/ap.js&#45;&gt;Ⓜ entrust/entrust.js</title>
<path fill="none" stroke="#242424" d="M1419.1265,-1028.949C1438.1252,-984.5414 1466.075,-919.2112 1488.9248,-865.8021"/>
<polygon fill="#242424" stroke="#242424" points="1492.2668,-866.8885 1492.9824,-856.3179 1485.831,-864.1351 1492.2668,-866.8885"/>
</g>
<!-- either/assert.js -->
<g id="node8" class="node">
<title>either/assert.js</title>
<polygon fill="none" stroke="#242424" stroke-width="4" points="1305.9002,-479.5002 1174.4998,-479.5002 1174.4998,-348.0998 1305.9002,-348.0998 1305.9002,-479.5002"/>
<text text-anchor="middle" x="1240.2" y="-411.4" font-family="Fira Code" font-size="12.00" fill="#242424">either/assert.js</text>
</g>
<!-- either/assert.js&#45;&gt;Ⓜ f&#45;utility/f&#45;utility.js -->
<g id="edge8" class="edge">
<title>either/assert.js&#45;&gt;Ⓜ f&#45;utility/f&#45;utility.js</title>
<path fill="none" stroke="#242424" d="M1176.3822,-348.1174C1135.1531,-305.6836 1080.6091,-249.5457 1033.5311,-201.092"/>
<polygon fill="#242424" stroke="#242424" points="1035.8215,-198.4268 1026.3427,-193.6936 1030.801,-203.3048 1035.8215,-198.4268"/>
</g>
<!-- either/bimap.js -->
<g id="node9" class="node">
<title>either/bimap.js</title>
<polygon fill="none" stroke="#242424" stroke-width="4" points="1590.2,-1142.2 1466.2,-1142.2 1466.2,-1018.2 1590.2,-1018.2 1590.2,-1142.2"/>
<text text-anchor="middle" x="1528.2" y="-1077.8" font-family="Fira Code" font-size="12.00" fill="#242424">either/bimap.js</text>
</g>
<!-- either/bimap.js&#45;&gt;Ⓜ entrust/entrust.js -->
<g id="edge9" class="edge">
<title>either/bimap.js&#45;&gt;Ⓜ entrust/entrust.js</title>
<path fill="none" stroke="#242424" d="M1528.2,-1017.8668C1528.2,-974.4427 1528.2,-915.7718 1528.2,-866.8601"/>
<polygon fill="#242424" stroke="#242424" points="1531.7001,-866.58 1528.2,-856.58 1524.7001,-866.5801 1531.7001,-866.58"/>
</g>
<!-- either/fold.js -->
<g id="node10" class="node">
<title>either/fold.js</title>
<polygon fill="none" stroke="#242424" stroke-width="4" points="1724.5002,-1138.5002 1607.8998,-1138.5002 1607.8998,-1021.8998 1724.5002,-1021.8998 1724.5002,-1138.5002"/>
<text text-anchor="middle" x="1666.2" y="-1077.8" font-family="Fira Code" font-size="12.00" fill="#242424">either/fold.js</text>
</g>
<!-- either/fold.js&#45;&gt;Ⓜ entrust/entrust.js -->
<g id="edge10" class="edge">
<title>either/fold.js&#45;&gt;Ⓜ entrust/entrust.js</title>
<path fill="none" stroke="#242424" d="M1639.9184,-1021.8854C1620.0411,-977.7807 1592.3659,-916.3739 1569.5342,-865.714"/>
<polygon fill="#242424" stroke="#242424" points="1572.6302,-864.0651 1565.3304,-856.3864 1566.2484,-866.9414 1572.6302,-864.0651"/>
</g>
<!-- either/guided&#45;left.js -->
<g id="node11" class="node">
<title>either/guided&#45;left.js</title>
<polygon fill="none" stroke="#242424" stroke-width="4" points="1059.9001,-1163.9001 892.4999,-1163.9001 892.4999,-996.4999 1059.9001,-996.4999 1059.9001,-1163.9001"/>
<text text-anchor="middle" x="976.2" y="-1077.8" font-family="Fira Code" font-size="12.00" fill="#242424">either/guided&#45;left.js</text>
</g>
<!-- Ⓜ fantasy&#45;eithers/fantasy&#45;eithers.js -->
<g id="node12" class="node">
<title>Ⓜ fantasy&#45;eithers/fantasy&#45;eithers.js</title>
<polygon fill="none" stroke="#0c821d" stroke-width="4" points="1156.2,-914 876.2,-914 876.2,-634 1156.2,-634 1156.2,-914"/>
<text text-anchor="middle" x="1016.2" y="-772.8" font-family="Fira Code" font-size="12.00" fill="#0c821d">Ⓜ fantasy&#45;eithers/fantasy&#45;eithers.js</text>
</g>
<!-- either/guided&#45;left.js&#45;&gt;Ⓜ fantasy&#45;eithers/fantasy&#45;eithers.js -->
<g id="edge11" class="edge">
<title>either/guided&#45;left.js&#45;&gt;Ⓜ fantasy&#45;eithers/fantasy&#45;eithers.js</title>
<path fill="none" stroke="#242424" d="M987.1302,-996.5295C990.0708,-974.0194 993.3432,-948.9688 996.6014,-924.027"/>
<polygon fill="#242424" stroke="#242424" points="1000.0725,-924.4755 997.8974,-914.1064 993.1315,-923.5687 1000.0725,-924.4755"/>
</g>
<!-- either/guided.js -->
<g id="node13" class="node">
<title>either/guided.js</title>
<polygon fill="none" stroke="#242424" stroke-width="4" points="1305.9002,-839.7002 1174.4998,-839.7002 1174.4998,-708.2998 1305.9002,-708.2998 1305.9002,-839.7002"/>
<text text-anchor="middle" x="1240.2" y="-771.6" font-family="Fira Code" font-size="12.00" fill="#242424">either/guided.js</text>
</g>
<!-- either/guided&#45;left.js&#45;&gt;either/guided.js -->
<g id="edge12" class="edge">
<title>either/guided&#45;left.js&#45;&gt;either/guided.js</title>
<path fill="none" stroke="#242424" d="M1059.8708,-1001.2788C1063.007,-998.4701 1066.124,-995.7027 1069.2,-993 1110.7094,-956.528 1130.1545,-956.7205 1165.2,-914 1181.2622,-894.4202 1195.4528,-870.8693 1207.0474,-848.717"/>
<polygon fill="#242424" stroke="#242424" points="1210.2456,-850.1504 1211.6901,-839.6545 1204.0156,-846.9587 1210.2456,-850.1504"/>
</g>
<!-- either/guided.js&#45;&gt;Ⓜ f&#45;utility/f&#45;utility.js -->
<g id="edge15" class="edge">
<title>either/guided.js&#45;&gt;Ⓜ f&#45;utility/f&#45;utility.js</title>
<path fill="none" stroke="#242424" d="M1210.2475,-708.1433C1156.8478,-590.7334 1044.7807,-344.3313 980.4174,-202.8156"/>
<polygon fill="#242424" stroke="#242424" points="983.5741,-201.3021 976.248,-193.6484 977.2021,-204.2002 983.5741,-201.3021"/>
</g>
<!-- either/guided.js&#45;&gt;either/assert.js -->
<g id="edge16" class="edge">
<title>either/guided.js&#45;&gt;either/assert.js</title>
<path fill="none" stroke="#242424" d="M1240.2,-708.3526C1240.2,-646.7163 1240.2,-554.5423 1240.2,-489.7578"/>
<polygon fill="#242424" stroke="#242424" points="1243.7001,-489.6043 1240.2,-479.6044 1236.7001,-489.6044 1243.7001,-489.6043"/>
</g>
<!-- either/guided&#45;right.js -->
<g id="node14" class="node">
<title>either/guided&#45;right.js</title>
<polygon fill="none" stroke="#242424" stroke-width="4" points="1252.6005,-1167.6005 1077.7995,-1167.6005 1077.7995,-992.7995 1252.6005,-992.7995 1252.6005,-1167.6005"/>
<text text-anchor="middle" x="1165.2" y="-1077.8" font-family="Fira Code" font-size="12.00" fill="#242424">either/guided&#45;right.js</text>
</g>
<!-- either/guided&#45;right.js&#45;&gt;Ⓜ fantasy&#45;eithers/fantasy&#45;eithers.js -->
<g id="edge13" class="edge">
<title>either/guided&#45;right.js&#45;&gt;Ⓜ fantasy&#45;eithers/fantasy&#45;eithers.js</title>
<path fill="none" stroke="#242424" d="M1122.702,-992.8651C1112.1001,-971.078 1100.4308,-947.097 1088.8222,-923.2411"/>
<polygon fill="#242424" stroke="#242424" points="1091.9012,-921.5695 1084.3785,-914.109 1085.6069,-924.6324 1091.9012,-921.5695"/>
</g>
<!-- either/guided&#45;right.js&#45;&gt;either/guided.js -->
<g id="edge14" class="edge">
<title>either/guided&#45;right.js&#45;&gt;either/guided.js</title>
<path fill="none" stroke="#242424" d="M1186.5916,-992.8651C1197.6378,-947.7673 1210.9863,-893.2698 1221.5999,-849.9379"/>
<polygon fill="#242424" stroke="#242424" points="1225.0484,-850.5705 1224.028,-840.0249 1218.2494,-848.9051 1225.0484,-850.5705"/>
</g>
<!-- either/index.js -->
<g id="node15" class="node">
<title>either/index.js</title>
<polygon fill="none" stroke="#242424" stroke-width="4" points="1420.2,-1370.4 1296.2,-1370.4 1296.2,-1246.4 1420.2,-1246.4 1420.2,-1370.4"/>
<text text-anchor="middle" x="1358.2" y="-1306" font-family="Fira Code" font-size="12.00" fill="#242424">either/index.js</text>
</g>
<!-- either/index.js&#45;&gt;either/ap.js -->
<g id="edge17" class="edge">
<title>either/index.js&#45;&gt;either/ap.js</title>
<path fill="none" stroke="#242424" d="M1368.8054,-1246.3448C1374.3618,-1213.8325 1381.1445,-1174.145 1386.6873,-1141.713"/>
<polygon fill="#242424" stroke="#242424" points="1390.2054,-1141.9031 1388.4401,-1131.4564 1383.3055,-1140.7239 1390.2054,-1141.9031"/>
</g>
<!-- either/index.js&#45;&gt;either/assert.js -->
<g id="edge18" class="edge">
<title>either/index.js&#45;&gt;either/assert.js</title>
<path fill="none" stroke="#242424" d="M1347.4607,-1246.1049C1343.6266,-1221.6394 1339.653,-1193.2706 1337.2,-1167.4 1314.8031,-931.1912 1358.786,-867.2305 1315.2,-634 1305.9427,-584.4641 1287.8913,-530.9027 1271.818,-489.0088"/>
<polygon fill="#242424" stroke="#242424" points="1274.9846,-487.4944 1268.103,-479.4387 1268.459,-490.0276 1274.9846,-487.4944"/>
</g>
<!-- either/index.js&#45;&gt;either/bimap.js -->
<g id="edge19" class="edge">
<title>either/index.js&#45;&gt;either/bimap.js</title>
<path fill="none" stroke="#242424" d="M1404.4287,-1246.3448C1426.5413,-1216.6618 1453.1093,-1180.9982 1475.9519,-1150.3355"/>
<polygon fill="#242424" stroke="#242424" points="1478.8131,-1152.3532 1481.9805,-1142.2429 1473.1996,-1148.1713 1478.8131,-1152.3532"/>
</g>
<!-- either/index.js&#45;&gt;either/fold.js -->
<g id="edge20" class="edge">
<title>either/index.js&#45;&gt;either/fold.js</title>
<path fill="none" stroke="#242424" d="M1420.3993,-1280.3773C1471.7778,-1255.3592 1544.8365,-1215.3224 1599.2,-1167.4 1606.2466,-1161.1883 1613.0596,-1154.1431 1619.4683,-1146.8143"/>
<polygon fill="#242424" stroke="#242424" points="1622.4781,-1148.675 1626.2558,-1138.7765 1617.1299,-1144.1587 1622.4781,-1148.675"/>
</g>
<!-- either/index.js&#45;&gt;either/guided&#45;left.js -->
<g id="edge21" class="edge">
<title>either/index.js&#45;&gt;either/guided&#45;left.js</title>
<path fill="none" stroke="#242424" d="M1296.0721,-1284.4764C1235.4761,-1259.7059 1142.0514,-1217.6228 1069.2,-1167.4 1068.8128,-1167.133 1068.4256,-1166.8645 1068.0384,-1166.5945"/>
<polygon fill="#242424" stroke="#242424" points="1070.0749,-1163.7479 1059.924,-1160.7133 1065.967,-1169.4158 1070.0749,-1163.7479"/>
</g>
<!-- either/index.js&#45;&gt;either/guided.js -->
<g id="edge23" class="edge">
<title>either/index.js&#45;&gt;either/guided.js</title>
<path fill="none" stroke="#242424" d="M1331.2052,-1246.1412C1321.5443,-1221.9261 1311.3008,-1193.7205 1304.2,-1167.4 1274.903,-1058.8051 1257.0078,-929.5104 1247.8468,-849.5843"/>
<polygon fill="#242424" stroke="#242424" points="1251.32,-849.1491 1246.7191,-839.6054 1244.3643,-849.9353 1251.32,-849.1491"/>
</g>
<!-- either/index.js&#45;&gt;either/guided&#45;right.js -->
<g id="edge22" class="edge">
<title>either/index.js&#45;&gt;either/guided&#45;right.js</title>
<path fill="none" stroke="#242424" d="M1305.7168,-1246.3448C1287.1839,-1224.4317 1265.8943,-1199.2592 1245.5847,-1175.2456"/>
<polygon fill="#242424" stroke="#242424" points="1248.16,-1172.8705 1239.0299,-1167.4953 1242.8152,-1177.3908 1248.16,-1172.8705"/>
</g>
<!-- errors/expect&#45;function&#45;props.js -->
<g id="node16" class="node">
<title>errors/expect&#45;function&#45;props.js</title>
<polygon fill="none" stroke="#242424" stroke-width="4" points="819.9001,-893.7001 580.4999,-893.7001 580.4999,-654.2999 819.9001,-654.2999 819.9001,-893.7001"/>
<text text-anchor="middle" x="700.2" y="-771.6" font-family="Fira Code" font-size="12.00" fill="#242424">errors/expect&#45;function&#45;props.js</text>
</g>
<!-- errors/expect&#45;function&#45;props.js&#45;&gt;Ⓜ f&#45;utility/f&#45;utility.js -->
<g id="edge24" class="edge">
<title>errors/expect&#45;function&#45;props.js&#45;&gt;Ⓜ f&#45;utility/f&#45;utility.js</title>
<path fill="none" stroke="#242424" d="M756.1065,-654.2265C769.2051,-622.5043 782.0039,-587.9126 791.2,-555 825.3647,-432.7255 793.0811,-392.7146 834.2,-272.6 842.2427,-249.106 853.3723,-225.1082 865.2551,-202.6969"/>
<polygon fill="#242424" stroke="#242424" points="868.3543,-204.3237 870.0215,-193.8608 862.1935,-201.0003 868.3543,-204.3237"/>
</g>
<!-- guiderail.js -->
<g id="node17" class="node">
<title>guiderail.js</title>
<polygon fill="none" stroke="#242424" stroke-width="4" points="1882.6008,-465.2008 1779.7992,-465.2008 1779.7992,-362.3992 1882.6008,-362.3992 1882.6008,-465.2008"/>
<text text-anchor="middle" x="1831.2" y="-411.4" font-family="Fira Code" font-size="12.00" fill="#242424">guiderail.js</text>
</g>
<!-- guiderail.js&#45;&gt;Ⓜ f&#45;utility/f&#45;utility.js -->
<g id="edge25" class="edge">
<title>guiderail.js&#45;&gt;Ⓜ f&#45;utility/f&#45;utility.js</title>
<path fill="none" stroke="#242424" d="M1819.9262,-362.4943C1810.5781,-331.946 1794.148,-294.9045 1766.2,-272.6 1654.7225,-183.633 1238.2234,-128.9684 1039.2899,-107.3931"/>
<polygon fill="#242424" stroke="#242424" points="1039.4306,-103.8881 1029.1135,-106.2978 1038.6814,-110.8479 1039.4306,-103.8881"/>
</g>
<!-- index.js -->
<g id="node18" class="node">
<title>index.js</title>
<polygon fill="none" stroke="#242424" stroke-width="4" points="1766.8011,-1522.8011 1693.5989,-1522.8011 1693.5989,-1449.5989 1766.8011,-1449.5989 1766.8011,-1522.8011"/>
<text text-anchor="middle" x="1730.2" y="-1483.8" font-family="Fira Code" font-size="12.00" fill="#242424">index.js</text>
</g>
<!-- index.js&#45;&gt;Ⓜ f&#45;utility/f&#45;utility.js -->
<g id="edge27" class="edge">
<title>index.js&#45;&gt;Ⓜ f&#45;utility/f&#45;utility.js</title>
<path fill="none" stroke="#242424" d="M1733.5174,-1449.5664C1739.6633,-1378.4333 1752.2,-1216.6142 1752.2,-1080.2 1752.2,-1080.2 1752.2,-1080.2 1752.2,-774 1752.2,-408.0969 1260.7849,-202.8745 1038.7991,-128.8361"/>
<polygon fill="#242424" stroke="#242424" points="1039.6732,-125.4388 1029.0799,-125.621 1037.4747,-132.0846 1039.6732,-125.4388"/>
</g>
<!-- index.js&#45;&gt;either/fold.js -->
<g id="edge28" class="edge">
<title>index.js&#45;&gt;either/fold.js</title>
<path fill="none" stroke="#242424" d="M1724.4075,-1449.4541C1713.6931,-1381.4842 1690.6292,-1235.1724 1676.9695,-1148.5188"/>
<polygon fill="#242424" stroke="#242424" points="1680.407,-1147.848 1675.3925,-1138.515 1673.4924,-1148.9381 1680.407,-1147.848"/>
</g>
<!-- index.js&#45;&gt;either/index.js -->
<g id="edge29" class="edge">
<title>index.js&#45;&gt;either/index.js</title>
<path fill="none" stroke="#242424" d="M1693.5131,-1468.6653C1632.3924,-1439.4522 1508.6629,-1380.3148 1429.7977,-1342.6206"/>
<polygon fill="#242424" stroke="#242424" points="1430.9413,-1339.288 1420.4096,-1338.1335 1427.9227,-1345.6037 1430.9413,-1339.288"/>
</g>
<!-- ../handrail.js -->
<g id="node19" class="node">
<title>../handrail.js</title>
<polygon fill="none" stroke="#0c821d" stroke-width="4" points="1896.5002,-1366.7002 1779.8998,-1366.7002 1779.8998,-1250.0998 1896.5002,-1250.0998 1896.5002,-1366.7002"/>
<text text-anchor="middle" x="1838.2" y="-1306" font-family="Fira Code" font-size="12.00" fill="#0c821d">../handrail.js</text>
</g>
<!-- index.js&#45;&gt;../handrail.js -->
<g id="edge26" class="edge">
<title>index.js&#45;&gt;../handrail.js</title>
<path fill="none" stroke="#242424" d="M1752.5777,-1449.3597C1765.5105,-1428.0684 1782.1797,-1400.626 1797.3686,-1375.6206"/>
<polygon fill="#242424" stroke="#242424" points="1800.4706,-1377.2555 1802.6708,-1366.8916 1794.4878,-1373.6213 1800.4706,-1377.2555"/>
</g>
<!-- multirail.js -->
<g id="node20" class="node">
<title>multirail.js</title>
<polygon fill="none" stroke="#242424" stroke-width="4" points="2002.6008,-465.2008 1899.7992,-465.2008 1899.7992,-362.3992 2002.6008,-362.3992 2002.6008,-465.2008"/>
<text text-anchor="middle" x="1951.2" y="-411.4" font-family="Fira Code" font-size="12.00" fill="#242424">multirail.js</text>
</g>
<!-- multirail.js&#45;&gt;Ⓜ f&#45;utility/f&#45;utility.js -->
<g id="edge30" class="edge">
<title>multirail.js&#45;&gt;Ⓜ f&#45;utility/f&#45;utility.js</title>
<path fill="none" stroke="#242424" d="M1942.0161,-362.322C1933.854,-331.7079 1918.7493,-294.6577 1891.2,-272.6 1760.7417,-168.1471 1260.9573,-120.2362 1039.2244,-103.7873"/>
<polygon fill="#242424" stroke="#242424" points="1039.4297,-100.293 1029.2001,-103.0511 1038.9169,-107.2742 1039.4297,-100.293"/>
</g>
<!-- rail.js -->
<g id="node21" class="node">
<title>rail.js</title>
<polygon fill="none" stroke="#242424" stroke-width="4" points="881.6012,-1341.8012 814.7988,-1341.8012 814.7988,-1274.9988 881.6012,-1274.9988 881.6012,-1341.8012"/>
<text text-anchor="middle" x="848.2" y="-1306" font-family="Fira Code" font-size="12.00" fill="#242424">rail.js</text>
</g>
<!-- rail.js&#45;&gt;Ⓜ f&#45;utility/f&#45;utility.js -->
<g id="edge31" class="edge">
<title>rail.js&#45;&gt;Ⓜ f&#45;utility/f&#45;utility.js</title>
<path fill="none" stroke="#242424" d="M848.0523,-1275.0126C847.8512,-1176.6713 848.922,-879.5861 867.2,-634 878.3565,-484.0994 900.9591,-311.7237 916.3415,-203.5262"/>
<polygon fill="#242424" stroke="#242424" points="919.8125,-203.9773 917.7605,-193.5831 912.8827,-202.9883 919.8125,-203.9773"/>
</g>
<!-- rail.js&#45;&gt;assertions/reject&#45;non&#45;functions.js -->
<g id="edge32" class="edge">
<title>rail.js&#45;&gt;assertions/reject&#45;non&#45;functions.js</title>
<path fill="none" stroke="#242424" d="M814.9724,-1276.4751C752.5946,-1213.9537 619.8702,-1067.9795 571.2,-914 533.6943,-795.3419 549.381,-756.5167 571.2,-634 575.9228,-607.4806 583.6106,-579.9687 592.4164,-553.7465"/>
<polygon fill="#242424" stroke="#242424" points="595.7747,-554.7429 595.7078,-544.1483 589.1532,-552.4722 595.7747,-554.7429"/>
</g>
<!-- rail.js&#45;&gt;either/guided&#45;left.js -->
<g id="edge33" class="edge">
<title>rail.js&#45;&gt;either/guided&#45;left.js</title>
<path fill="none" stroke="#242424" d="M867.0868,-1274.7283C882.1524,-1247.8692 904.0039,-1208.9122 924.2013,-1172.9039"/>
<polygon fill="#242424" stroke="#242424" points="927.456,-1174.2558 929.2955,-1163.8219 921.3508,-1170.8313 927.456,-1174.2558"/>
</g>
<!-- rail.js&#45;&gt;either/guided&#45;right.js -->
<g id="edge34" class="edge">
<title>rail.js&#45;&gt;either/guided&#45;right.js</title>
<path fill="none" stroke="#242424" d="M881.5694,-1289.5119C925.8842,-1263.8975 1005.9231,-1215.7685 1069.2,-1167.4 1069.3789,-1167.2633 1069.5578,-1167.1263 1069.7368,-1166.989"/>
<polygon fill="#242424" stroke="#242424" points="1072.1117,-1169.5747 1077.8248,-1160.6521 1067.7945,-1164.0645 1072.1117,-1169.5747"/>
</g>
<!-- rail.js&#45;&gt;errors/expect&#45;function&#45;props.js -->
<g id="edge35" class="edge">
<title>rail.js&#45;&gt;errors/expect&#45;function&#45;props.js</title>
<path fill="none" stroke="#242424" d="M838.9419,-1274.9709C818.7941,-1202.2208 770.0554,-1026.2345 736.0739,-903.5337"/>
<polygon fill="#242424" stroke="#242424" points="739.3885,-902.3885 733.3464,-893.6854 732.6424,-904.2568 739.3885,-902.3885"/>
</g>
</g>
</svg>
