<svg id="Layer_1" xmlns="http://www.w3.org/2000/svg" width="1196.2" height="1024" viewBox="4105.4 -12 1196.2 1024"><style>.st0{stroke:#000000;} .st1{fill:none;stroke:#000000;} .st2{enable-background:new ;} .st3{fill:#FFFFFF;} .st4{fill:#A30090;stroke:#000000;} .st5{fill:#088CBA;stroke:#000000;} .st6{fill:#A30090;stroke:#A30090;} .st7{fill:#088CBA;stroke:#088CBA;} .st8{fill:#DDBD00;stroke:#DDBD00;} .st9{fill:#DDBD00;stroke:#000000;}</style><title>handrail</title><ellipse class="st0" cx="4720.2" cy="827.1" rx="48.8" ry="48.8"/><ellipse class="st1" cx="4720.2" cy="827.1" rx="49.5" ry="49.5"/><g class="st2"><path class="st3" d="M4690.1 825c.6-.7 1.4-1.1 2.3-1.1 1.4 0 2 .8 2 2.1v5.2h-1.1V826c0-.9-.4-1.2-1.2-1.2-.8 0-1.5.6-1.9 1.2v5.2h-1.1v-10l1.1-.1v3.9zM4702.8 830.5l-.3.8c-.6-.1-1.1-.4-1.3-1-.5.7-1.3 1-2.2 1-1.4 0-2.3-.9-2.3-2.2 0-1.5 1.2-2.3 3.3-2.3h1.1v-.6c0-1-.6-1.4-1.7-1.4-.5 0-1.1.1-1.9.4l-.3-.9c.9-.3 1.6-.4 2.3-.4 1.8 0 2.7.9 2.7 2.3v3.4c0 .6.2.8.6.9zm-1.7-1.1v-1.8h-1c-1.6 0-2.1.6-2.1 1.5s.4 1.4 1.4 1.4c.6 0 1.3-.4 1.7-1.1zM4705.3 824h1l.1 1c.6-.7 1.5-1.2 2.4-1.2 1.4 0 2 .8 2 2.1v5.2h-1.1v-4.3c0-1.5-.1-2-1.2-2-.8 0-1.6.6-1.9 1.2v5.2h-1.1V824zM4718.8 821.1v10h-1l-.1-.9c-.5.7-1.2 1.1-2 1.1-1.9 0-2.7-1.5-2.7-3.7 0-2.1 1-3.7 2.8-3.7.8 0 1.4.3 1.9.9V821l1.1.1zm-4.6 6.5c0 1.9.6 2.8 1.7 2.8.8 0 1.4-.5 1.8-1.1v-3.6c-.4-.6-1-.9-1.6-.9-1.2 0-1.9.9-1.9 2.8zM4727.3 824l-.2 2.4h-.9v-1.5h-.1c-1.1 0-1.9.8-2.3 2.4v3h1.5v.9h-3.7v-.9h1.1v-5.4h-1.1v-.9h2l.2 1.7c.5-1.2 1.3-1.8 2.6-1.8.3 0 .6 0 .9.1zM4735.3 830.5l-.3.8c-.6-.1-1.1-.4-1.3-1-.5.7-1.3 1-2.2 1-1.4 0-2.3-.9-2.3-2.2 0-1.5 1.2-2.3 3.3-2.3h1.1v-.6c0-1-.6-1.4-1.7-1.4-.5 0-1.1.1-1.9.4l-.3-.9c.9-.3 1.6-.4 2.3-.4 1.8 0 2.7.9 2.7 2.3v3.4c.1.6.2.8.6.9zm-1.7-1.1v-1.8h-1c-1.6 0-2.1.6-2.1 1.5s.4 1.4 1.4 1.4c.6 0 1.3-.4 1.7-1.1zM4741.4 830.3h2v.9h-5.3v-.9h2.2V825h-2.1v-1h3.3v6.3zm-.1-8.8c0 .5-.3.8-.8.8s-.8-.3-.8-.8.3-.8.8-.8.8.3.8.8zM4748.7 829.4c0 .7.5 1 1.2 1 .4 0 .8-.1 1.2-.2l.3.8c-.4.2-1 .4-1.7.4-1.3 0-2.1-.7-2.1-2v-7.3h-2.2v-.9h3.3v8.2z"/></g><path class="st4" d="M4608.5 182.6l7-22.6-7-22.6-18.3-14h-22.6l-18.3 14-7 22.6 7 22.6 18.3 14h22.6l18.3-14z"/><g class="st2"><path class="st3" d="M4564 153.8l-.2.4c-.2-.1-.4-.1-.7-.1-.4 0-.7.2-.7.5v.7h1.1l-.1.4h-1v2.6h-.5v-2.6h-.8v-.4h.8v-.6c0-.6.5-1 1.2-1 .3-.1.6 0 .9.1zM4564.9 156.1h2.4v.4h-2.4v-.4zM4569 157.3c0 .4.2.6.5.6.4 0 .7-.2.9-.5V155h.5v3.2h-.4v-.4c-.3.3-.7.5-1 .5-.6 0-.9-.3-.9-.9V155h.5v2.3zM4573.9 158.3c-.7 0-1.1-.4-1.1-1v-1.9h-.7v-.4h.7v-.7l.5-.1v.8h1.1l-.1.4h-1v1.9c0 .4.2.5.6.5.2 0 .4-.1.6-.2l.2.3c-.2.3-.5.4-.8.4zM4577.5 157.8h.9v.4h-2.4v-.4h1v-2.4h-1v-.4h1.5v2.8zm-.1-4c0 .2-.2.4-.4.4s-.4-.2-.4-.4.1-.4.4-.4c.3.1.4.2.4.4zM4580.8 157.4c0 .3.2.4.5.4.2 0 .4 0 .5-.1l.1.4c-.2.1-.4.2-.8.2-.6 0-1-.3-1-.9v-3.3h-1v-.4h1.5v3.7zM4584.8 157.8h.9v.4h-2.4v-.4h1v-2.4h-1v-.4h1.5v2.8zm0-4c0 .2-.2.4-.4.4s-.4-.2-.4-.4.1-.4.4-.4c.2.1.4.2.4.4zM4588.5 158.3c-.7 0-1.1-.4-1.1-1v-1.9h-.7v-.4h.7v-.7l.5-.1v.8h1.1l-.1.4h-1v1.9c0 .4.2.5.6.5.2 0 .4-.1.6-.2l.2.3c-.2.3-.5.4-.8.4zM4592 158.2c-.2.7-.6 1.2-1.4 1.3l-.1-.4c.7-.1.9-.4 1-.9h-.2l-1.1-3.2h.5l.9 2.8.9-2.8h.5l-1 3.2zM4593.8 158.6l2.6-5.4.4.2-2.6 5.4-.4-.2z"/></g><g class="st2"><path class="st3" d="M4560.3 161.1l-.2.4c-.2-.1-.4-.1-.7-.1-.4 0-.7.2-.7.5v.7h1.1l-.1.4h-1v2.6h-.5V163h-.8v-.4h.8v-.6c0-.6.5-1 1.2-1 .4-.1.7 0 .9.1zM4561.2 163.4h2.4v.4h-2.4v-.4zM4565.4 164.6c0 .4.2.6.5.6.4 0 .7-.2.9-.5v-2.4h.5v3.2h-.4v-.4c-.3.3-.7.5-1 .5-.6 0-.9-.3-.9-.9v-2.3h.5v2.2zM4570.2 165.6c-.7 0-1.1-.4-1.1-1v-1.9h-.7v-.4h.7v-.7l.5-.1v.8h1.1l-.1.4h-1v1.9c0 .4.2.5.6.5.2 0 .4-.1.6-.2l.2.3c-.1.3-.5.4-.8.4zM4573.8 165.1h.9v.4h-2.4v-.4h1v-2.4h-1v-.4h1.5v2.8zm0-3.9c0 .2-.2.4-.4.4s-.4-.2-.4-.4.1-.4.4-.4c.2 0 .4.2.4.4zM4577.1 164.7c0 .3.2.4.5.4.2 0 .4 0 .5-.1l.1.4c-.2.1-.4.2-.8.2-.6 0-1-.3-1-.9v-3.3h-1v-.4h1.5v3.7zM4581.1 165.1h.9v.4h-2.4v-.4h1v-2.4h-1v-.4h1.5v2.8zm0-3.9c0 .2-.2.4-.4.4s-.4-.2-.4-.4.1-.4.4-.4c.2 0 .4.2.4.4zM4584.8 165.6c-.7 0-1.1-.4-1.1-1v-1.9h-.7v-.4h.7v-.7l.5-.1v.8h1.1l-.1.4h-1v1.9c0 .4.2.5.6.5.2 0 .4-.1.6-.2l.2.3c-.1.3-.4.4-.8.4zM4588.4 165.5c-.2.7-.6 1.2-1.4 1.3l-.1-.4c.7-.1.9-.4 1-.9h-.2l-1.1-3.2h.5l.9 2.8.9-2.8h.5l-1 3.2zM4591.7 164.5c.3 0 .5.2.5.5s-.2.5-.5.5-.5-.2-.5-.5c0-.2.2-.5.5-.5zM4596.2 165c0 1.1-.8 1.6-2 1.8l-.1-.4c.9-.2 1.6-.5 1.6-1.4v-2.3h-1.3v-.4h1.8v2.7zm-.1-3.8c0 .2-.1.4-.4.4-.2 0-.4-.2-.4-.4s.2-.4.4-.4c.3 0 .4.2.4.4zM4599.7 164.7c0-.3-.1-.4-.8-.6-.7-.2-1.1-.4-1.1-.9s.5-.9 1.2-.9c.5 0 .9.2 1.2.4l-.2.4c-.2-.2-.5-.3-.9-.3-.5 0-.7.2-.7.4 0 .3.2.4.8.6.6.2 1 .4 1 1 0 .7-.7 1-1.3 1-.6 0-1-.2-1.3-.4l.3-.3c.2.2.6.3 1 .3.5-.2.8-.4.8-.7z"/></g><path class="st1" d="M4672.4 814.2c-41.9-11.5-104.4-29.1-158.2-46.4-119.9-38.5-247.6-11.9-247.6-137.9V326c0-54.2-14.9-82 24.2-119.6 34.3-33 173.3-42.5 245-45.3"/><path class="st0" d="M4535.7 158.8l6.9 2.1-6.7 2.6-.2-4.7z"/><path class="st4" d="M4785.5 551.2l7-22.6-7-22.6-18.3-14h-22.6l-18.3 14-7 22.6 7 22.6 18.3 14h22.6l18.3-14z"/><g class="st2"><path class="st3" d="M4748.2 519.9l-.1 1.1h-.4v-.7c-.5 0-.8.4-1.1 1.1v1.4h.7v.4h-1.7v-.4h.5v-2.4h-.5v-.4h.9l.1.8c.2-.5.6-.8 1.2-.8.1-.1.2-.1.4-.1zM4751.8 522.8l-.1.4c-.3 0-.5-.2-.6-.5-.2.3-.6.5-1 .5-.6 0-1-.4-1-1 0-.7.5-1 1.5-1h.5v-.3c0-.5-.3-.6-.8-.6-.2 0-.5 0-.8.2l-.1-.4c.4-.1.7-.2 1.1-.2.8 0 1.2.4 1.2 1v1.5c-.2.3-.1.4.1.4zm-.8-.4v-.8h-.5c-.7 0-1 .3-1 .7 0 .4.2.6.6.6.4-.1.7-.2.9-.5zM4755.6 520.7v2.4h-.5v-2.3c0-.4 0-.6-.2-.6s-.4.1-.6.4v2.5h-.5v-2.3c0-.4 0-.6-.2-.6s-.4.1-.6.4v2.5h-.5v-3.2h.4v.4c.2-.2.4-.4.7-.4.2 0 .5.1.6.4.2-.3.4-.4.7-.4.4 0 .7.1.7.8zM4759 518.6v4.5h-.5v-.4c-.2.3-.6.5-.9.5-.8 0-1.2-.7-1.2-1.7s.5-1.7 1.3-1.7c.4 0 .6.1.9.4v-1.7l.4.1zm-2.1 2.9c0 .8.3 1.3.8 1.3.4 0 .6-.2.8-.5v-1.6c-.2-.3-.4-.4-.7-.4-.6 0-.9.4-.9 1.2zM4762.7 522.8l-.1.4c-.3 0-.5-.2-.6-.5-.2.3-.6.5-1 .5-.6 0-1-.4-1-1 0-.7.5-1 1.5-1h.5v-.3c0-.5-.3-.6-.8-.6-.2 0-.5 0-.8.2l-.1-.4c.4-.1.7-.2 1.1-.2.8 0 1.2.4 1.2 1v1.5c-.1.3 0 .4.1.4zm-.7-.4v-.8h-.5c-.7 0-1 .3-1 .7 0 .4.2.6.6.6.4-.1.7-.2.9-.5zM4763.5 523.6l2.6-5.4.4.2-2.6 5.4-.4-.2z"/></g><g class="st2"><path class="st3" d="M4751.1 529.6c0-.3-.1-.4-.8-.6-.7-.2-1.1-.4-1.1-.9s.5-.9 1.2-.9c.5 0 .9.2 1.2.4l-.2.4c-.2-.2-.5-.3-.9-.3-.5 0-.7.2-.7.4 0 .3.2.4.8.6.6.2 1 .4 1 1 0 .7-.7 1-1.3 1-.6 0-1-.2-1.3-.4l.3-.3c.2.2.6.3 1 .3.5-.2.8-.4.8-.7zM4755.5 527.2l-.1 1.1h-.4v-.7c-.5 0-.8.4-1.1 1.1v1.4h.7v.4h-1.7v-.4h.5v-2.4h-.5v-.4h.9l.1.8c.2-.5.6-.8 1.2-.8.1-.1.2-.1.4-.1zM4758.8 529.8l.2.3c-.3.2-.7.4-1.1.4-1 0-1.5-.7-1.5-1.7s.6-1.7 1.5-1.7c.4 0 .8.1 1.1.4l-.2.3c-.3-.2-.5-.3-.8-.3-.6 0-1 .4-1 1.3s.4 1.2 1 1.2c.3.1.6 0 .8-.2zM4759.9 530.9l2.6-5.4.4.2-2.6 5.4-.4-.2z"/></g><g class="st2"><path class="st3" d="M4744.2 537.1l.2.3c-.3.2-.7.4-1.1.4-1 0-1.5-.7-1.5-1.7s.6-1.7 1.5-1.7c.4 0 .8.1 1.1.4l-.3.3c-.3-.2-.5-.3-.8-.3-.6 0-1 .4-1 1.3s.4 1.2 1 1.2c.4.1.6 0 .9-.2zM4746 535c.3-.3.6-.5 1-.5.6 0 .9.4.9 1v2.3h-.5v-2.3c0-.4-.2-.5-.6-.5-.4 0-.7.3-.9.5v2.3h-.5v-4.5l.5-.1v1.8zM4751.8 537.5l-.1.4c-.3 0-.5-.2-.6-.5-.2.3-.6.5-1 .5-.6 0-1-.4-1-1 0-.7.5-1 1.5-1h.5v-.3c0-.5-.3-.6-.8-.6-.2 0-.5 0-.8.2l-.1-.4c.4-.1.7-.2 1.1-.2.8 0 1.2.4 1.2 1v1.5c-.2.2-.1.3.1.4zm-.8-.5v-.8h-.5c-.7 0-1 .3-1 .7 0 .4.2.6.6.6.4 0 .7-.2.9-.5zM4754.5 537.4h.9v.4h-2.4v-.4h1V535h-1v-.4h1.5v2.8zm0-4c0 .2-.2.4-.4.4s-.4-.2-.4-.4.1-.4.4-.4c.2.1.4.2.4.4zM4756.5 534.6h.4v.5c.3-.3.7-.5 1.1-.5.6 0 .9.4.9 1v2.3h-.5v-2c0-.7-.1-.9-.5-.9s-.7.3-.9.5v2.3h-.5v-3.2zM4761.4 536.8c.3 0 .5.2.5.5s-.2.5-.5.5-.5-.2-.5-.5c-.1-.3.2-.5.5-.5zM4765.9 537.3c0 1.1-.8 1.6-2 1.8l-.1-.4c.9-.2 1.6-.5 1.6-1.4V535h-1.3v-.4h1.8v2.7zm-.1-3.9c0 .2-.1.4-.4.4-.2 0-.4-.2-.4-.4s.2-.4.4-.4c.3.1.4.2.4.4zM4769.4 536.9c0-.3-.1-.4-.8-.6-.7-.2-1.1-.4-1.1-.9s.5-.9 1.2-.9c.5 0 .9.2 1.2.4l-.2.4c-.2-.2-.5-.3-.9-.3-.5 0-.7.2-.7.4 0 .3.2.4.8.6.6.2 1 .4 1 1 0 .7-.7 1-1.3 1-.6 0-1-.2-1.3-.4l.3-.3c.2.2.6.3 1 .3.5-.2.8-.4.8-.7z"/></g><path class="st1" d="M4737.3 780.6c9.2-27.5 19.7-63.1 24.3-95.8 6.9-48.3 3-61.1 0-109.8-.1-1-.1-2-.2-3"/><path class="st0" d="M4759.1 572.2l1.8-7 2.9 6.5-4.7.5z"/><ellipse class="st5" cx="4668.7" cy="731.2" rx="36.6" ry="36.6"/><g class="st2"><path class="st3" d="M4647 729.8c-.3.1-.7.1-1.1.1.4.2.7.5.7.9 0 .7-.5 1.3-1.4 1.3-.2 0-.4 0-.6-.1-.1.1-.2.2-.2.4s.1.3.5.3h.7c.8 0 1.3.4 1.3 1 0 .7-.6 1.1-1.8 1.1-1.2 0-1.6-.4-1.6-1.1h.5c0 .4.2.6 1 .6s1.2-.2 1.2-.6c0-.4-.4-.5-.8-.5h-.7c-.7 0-.9-.3-.9-.7 0-.2.1-.5.4-.7-.4-.2-.6-.5-.6-1 0-.8.6-1.3 1.5-1.3s1.3-.1 1.7-.3l.2.6zm-2.8 1c0 .5.3.9.9.9.5 0 .8-.3.8-.9 0-.6-.3-.9-.8-.9-.6.1-.9.4-.9.9zM4648.6 732.3c0 .5.2.7.6.7.4 0 .8-.3 1-.6v-2.8h.6v3.7h-.5v-.5c-.3.4-.8.6-1.2.6-.7 0-1.1-.4-1.1-1.1v-2.7h.6v2.7zM4654.2 732.9h1.1v.5h-2.8v-.5h1.2v-2.8h-1.1v-.5h1.7v3.3zm0-4.6c0 .2-.2.4-.4.4-.3 0-.4-.2-.4-.4s.2-.4.4-.4.4.1.4.4zM4659.4 728.1v5.3h-.5l-.1-.5c-.3.4-.7.6-1.1.6-1 0-1.4-.8-1.4-1.9 0-1.1.5-2 1.5-2 .4 0 .8.2 1 .4v-2l.6.1zm-2.4 3.4c0 1 .3 1.5.9 1.5.4 0 .7-.3.9-.6v-1.9c-.2-.3-.5-.5-.9-.5-.6 0-.9.5-.9 1.5zM4662.4 732.9c.4 0 .7-.1 1-.3l.3.4c-.3.3-.8.4-1.3.4-1.1 0-1.7-.8-1.7-1.9 0-1.1.6-2 1.6-2 .9 0 1.5.7 1.5 1.8v.3h-2.5c0 1 .5 1.3 1.1 1.3zm-1.1-1.7h1.9c0-.8-.4-1.2-.9-1.2s-.9.4-1 1.2zM4668.2 729.6l-.1 1.3h-.5v-.8c-.6 0-1 .4-1.2 1.2v1.6h.8v.5h-1.9v-.5h.6v-2.8h-.6v-.5h1l.1.9c.3-.6.7-1 1.3-1 .1 0 .3.1.5.1zM4672.4 733l-.1.4c-.3 0-.6-.2-.7-.5-.3.3-.7.5-1.2.5-.8 0-1.2-.5-1.2-1.2 0-.8.6-1.2 1.7-1.2h.6v-.3c0-.5-.3-.7-.9-.7-.2 0-.6.1-1 .2l-.2-.5c.5-.2.9-.2 1.2-.2.9 0 1.4.5 1.4 1.2v1.8c.1.3.2.4.4.5zm-.9-.5v-1h-.5c-.8 0-1.1.3-1.1.8s.2.7.7.7c.3 0 .6-.2.9-.5zM4675.5 732.9h1.1v.5h-2.8v-.5h1.2v-2.8h-1.1v-.5h1.7v3.3zm0-4.6c0 .2-.2.4-.4.4-.3 0-.4-.2-.4-.4s.2-.4.4-.4.4.1.4.4zM4679.4 732.4c0 .4.3.5.6.5.2 0 .4 0 .6-.1l.2.4c-.2.1-.5.2-.9.2-.7 0-1.1-.4-1.1-1v-3.8h-1.2v-.5h1.7v4.3zM4683.6 732.2c.4 0 .6.3.6.6 0 .4-.3.6-.6.6-.4 0-.6-.3-.6-.6s.2-.6.6-.6zM4688.9 732.8c0 1.3-.9 1.8-2.4 2.1l-.1-.5c1.1-.2 1.9-.6 1.9-1.6v-2.7h-1.6v-.5h2.2v3.2zm-.1-4.5c0 .2-.2.4-.4.4-.3 0-.4-.2-.4-.4s.2-.4.4-.4.4.1.4.4zM4692.9 732.3c0-.3-.1-.5-.9-.7-.8-.2-1.3-.4-1.3-1.1 0-.6.6-1 1.4-1 .6 0 1 .2 1.4.4l-.3.4c-.3-.2-.6-.3-1.1-.3-.6 0-.8.2-.8.5s.2.5 1 .7c.7.2 1.2.5 1.2 1.2 0 .8-.8 1.1-1.6 1.1-.7 0-1.1-.2-1.5-.5l.3-.4c.3.2.7.4 1.1.4.8-.1 1.1-.3 1.1-.7z"/></g><path class="st1" d="M4696.7 783.5l-7.5-14"/><path class="st0" d="M4687.1 770.6l-1.1-7.1 5.3 4.8-4.2 2.3z"/><ellipse class="st5" cx="4720.2" cy="629.9" rx="36.6" ry="36.6"/><g class="st2"><path class="st3" d="M4698.5 629.3v2.8h-.5v-2.7c0-.5 0-.7-.3-.7-.2 0-.4.1-.7.4v2.9h-.6v-2.7c0-.5 0-.7-.3-.7-.2 0-.4.1-.7.4v2.9h-.5v-3.7h.5v.4c.2-.3.4-.5.8-.5.3 0 .6.1.7.5.2-.3.4-.5.8-.5.4.1.8.3.8 1.2zM4700.1 631c0 .5.2.7.6.7.4 0 .8-.3 1-.6v-2.8h.6v3.7h-.5v-.5c-.3.4-.8.6-1.2.6-.7 0-1.1-.4-1.1-1.1v-2.7h.6v2.7zM4705.3 631.1c0 .4.3.5.6.5.2 0 .4 0 .6-.1l.2.4c-.2.1-.5.2-.9.2-.7 0-1.1-.4-1.1-1v-3.8h-1.2v-.5h1.7v4.3zM4710 632.1c-.8 0-1.3-.5-1.3-1.1v-2.2h-.9v-.5h.9v-.8l.6-.1v.9h1.3l-.1.5h-1.2v2.2c0 .4.2.6.7.6.3 0 .5-.1.7-.2l.2.4c-.1.2-.5.3-.9.3zM4714.2 631.6h1.1v.5h-2.8v-.5h1.2v-2.8h-1.1v-.5h1.7v3.3zm0-4.6c0 .2-.2.4-.4.4-.3 0-.4-.2-.4-.4s.2-.4.4-.4.4.1.4.4zM4719.7 628.3l-.1 1.3h-.5v-.8c-.6 0-1 .4-1.2 1.2v1.6h.8v.5h-1.9v-.5h.6v-2.8h-.6v-.5h1l.1.9c.3-.6.7-1 1.3-1 .1 0 .3.1.5.1zM4723.9 631.7l-.1.4c-.3 0-.6-.2-.7-.5-.3.3-.7.5-1.2.5-.8 0-1.2-.5-1.2-1.2 0-.8.6-1.2 1.8-1.2h.6v-.3c0-.5-.3-.7-.9-.7-.2 0-.6.1-1 .2l-.2-.5c.5-.2.9-.2 1.2-.2.9 0 1.4.5 1.4 1.2v1.8c0 .3.1.5.3.5zm-.9-.5v-1h-.5c-.8 0-1.1.3-1.1.8s.2.7.7.7c.3 0 .6-.2.9-.5zM4727 631.6h1.1v.5h-2.8v-.5h1.2v-2.8h-1.1v-.5h1.7v3.3zm0-4.6c0 .2-.2.4-.4.4-.3 0-.4-.2-.4-.4s.2-.4.4-.4.4.1.4.4zM4730.9 631.1c0 .4.3.5.6.5.2 0 .4 0 .6-.1l.2.4c-.2.1-.5.2-.9.2-.7 0-1.1-.4-1.1-1v-3.8h-1.2v-.5h1.7v4.3zM4735.1 630.9c.4 0 .6.3.6.6 0 .4-.3.6-.6.6-.4 0-.6-.3-.6-.6s.2-.6.6-.6zM4740.4 631.5c0 1.3-.9 1.8-2.4 2.1l-.1-.5c1.1-.2 1.9-.6 1.9-1.6v-2.7h-1.6v-.5h2.2v3.2zm-.1-4.5c0 .2-.2.4-.4.4-.3 0-.4-.2-.4-.4s.2-.4.4-.4.4.1.4.4zM4744.4 631c0-.3-.1-.5-.9-.7-.8-.2-1.3-.4-1.3-1.1 0-.6.6-1 1.4-1 .6 0 1 .2 1.4.4l-.3.4c-.3-.2-.6-.3-1.1-.3-.6 0-.8.2-.8.5s.2.5 1 .7c.7.2 1.2.5 1.2 1.2 0 .8-.8 1.1-1.6 1.1-.7 0-1.1-.2-1.5-.5l.3-.4c.3.2.7.4 1.1.4.8-.1 1.1-.3 1.1-.7z"/></g><path class="st1" d="M4720.2 777.6V673.3"/><path class="st0" d="M4717.8 673.3l2.4-6.8 2.4 6.8h-4.8z"/><ellipse class="st5" cx="4617.2" cy="528.6" rx="36.6" ry="36.6"/><g class="st2"><path class="st3" d="M4606 527l-.1 1.3h-.5v-.8c-.6 0-1 .4-1.2 1.2v1.6h.8v.5h-1.9v-.5h.6v-2.8h-.6v-.5h1l.1.9c.3-.6.7-1 1.3-1 .2 0 .3.1.5.1zM4610.2 530.4l-.1.4c-.3 0-.6-.2-.7-.5-.3.3-.7.5-1.2.5-.8 0-1.2-.5-1.2-1.2 0-.8.6-1.2 1.7-1.2h.6v-.3c0-.5-.3-.7-.9-.7-.2 0-.6.1-1 .2l-.2-.5c.5-.2.9-.2 1.2-.2.9 0 1.4.5 1.4 1.2v1.8c.1.3.2.5.4.5zm-.9-.5v-1h-.5c-.8 0-1.1.3-1.1.8s.2.7.7.7c.3 0 .7-.2.9-.5zM4613.4 530.3h1.1v.5h-2.8v-.5h1.2v-2.8h-1.1v-.5h1.7v3.3zm-.1-4.6c0 .2-.2.4-.4.4-.3 0-.4-.2-.4-.4s.2-.4.4-.4c.3 0 .4.1.4.4zM4617.2 529.8c0 .4.3.5.6.5.2 0 .4 0 .6-.1l.2.4c-.2.1-.5.2-.9.2-.7 0-1.1-.4-1.1-1V526h-1.2v-.5h1.7v4.3zM4621.4 529.6c.4 0 .6.3.6.6 0 .4-.3.6-.6.6-.4 0-.6-.3-.6-.6s.3-.6.6-.6zM4626.7 530.2c0 1.3-.9 1.8-2.4 2.1l-.1-.5c1.1-.2 1.9-.6 1.9-1.6v-2.7h-1.6v-.5h2.2v3.2zm-.1-4.5c0 .2-.2.4-.4.4-.3 0-.4-.2-.4-.4s.2-.4.4-.4.4.1.4.4zM4630.8 529.8c0-.3-.1-.5-.9-.7-.8-.2-1.3-.4-1.3-1.1 0-.6.6-1 1.4-1 .6 0 1 .2 1.4.4l-.3.4c-.3-.2-.6-.3-1.1-.3-.6 0-.8.2-.8.5s.2.5 1 .7c.7.2 1.2.5 1.2 1.2 0 .8-.8 1.1-1.6 1.1-.7 0-1.1-.2-1.5-.5l.3-.4c.3.2.7.4 1.1.4.7-.2 1.1-.4 1.1-.7z"/></g><path class="st1" d="M4674.1 809c-17.8-9.5-36.5-23-47-41.2-35.2-61.1-28.1-146.2-19.4-196.7"/><path class="st0" d="M4605.5 570.6l3.5-6.2 1.1 7.1-4.6-.9z"/><ellipse class="st5" cx="4555.7" cy="731.2" rx="36.6" ry="36.6"/><g class="st2"><path class="st3" d="M4533.5 730.1c.3-.4.8-.6 1.2-.6.7 0 1.1.4 1.1 1.1v2.7h-.6v-2.7c0-.4-.2-.6-.7-.6-.4 0-.8.3-1 .6v2.7h-.6v-5.2l.6-.1v2.1zM4540.2 733l-.1.4c-.3 0-.6-.2-.7-.5-.3.3-.7.5-1.2.5-.8 0-1.2-.5-1.2-1.2 0-.8.6-1.2 1.7-1.2h.6v-.3c0-.5-.3-.7-.9-.7-.2 0-.6.1-1 .2l-.2-.5c.5-.2.9-.2 1.2-.2.9 0 1.4.5 1.4 1.2v1.8c.1.3.2.4.4.5zm-.9-.5v-1h-.5c-.8 0-1.1.3-1.1.8s.2.7.7.7c.3 0 .6-.2.9-.5zM4541.5 729.6h.5v.5c.3-.4.8-.6 1.2-.6.7 0 1.1.4 1.1 1.1v2.7h-.6V731c0-.8-.1-1.1-.6-1.1-.4 0-.8.3-1 .6v2.7h-.6v-3.6zM4548.6 728.1v5.3h-.5l-.1-.5c-.3.4-.7.6-1.1.6-1 0-1.4-.8-1.4-1.9 0-1.1.5-2 1.5-2 .4 0 .8.2 1 .4v-2l.6.1zm-2.5 3.4c0 1 .3 1.5.9 1.5.4 0 .7-.3.9-.6v-1.9c-.2-.3-.5-.5-.9-.5-.5 0-.9.5-.9 1.5zM4553 729.6l-.1 1.3h-.5v-.8c-.6 0-1 .4-1.2 1.2v1.6h.8v.5h-1.9v-.5h.6v-2.8h-.6v-.5h1l.1.9c.3-.6.7-1 1.3-1 .2 0 .4.1.5.1zM4557.3 733l-.1.4c-.3 0-.6-.2-.7-.5-.3.3-.7.5-1.2.5-.8 0-1.2-.5-1.2-1.2 0-.8.6-1.2 1.7-1.2h.6v-.3c0-.5-.3-.7-.9-.7-.2 0-.6.1-1 .2l-.2-.5c.5-.2.9-.2 1.2-.2.9 0 1.4.5 1.4 1.2v1.8c0 .3.1.4.4.5zm-1-.5v-1h-.5c-.8 0-1.1.3-1.1.8s.2.7.7.7c.4 0 .7-.2.9-.5zM4560.4 732.9h1.1v.5h-2.8v-.5h1.2v-2.8h-1.1v-.5h1.7v3.3zm0-4.6c0 .2-.2.4-.4.4-.3 0-.4-.2-.4-.4s.2-.4.4-.4.4.1.4.4zM4564.3 732.4c0 .4.3.5.6.5.2 0 .4 0 .6-.1l.2.4c-.2.1-.5.2-.9.2-.7 0-1.1-.4-1.1-1v-3.8h-1.2v-.5h1.7v4.3zM4568.5 732.2c.4 0 .6.3.6.6 0 .4-.3.6-.6.6-.4 0-.6-.3-.6-.6s.2-.6.6-.6zM4573.8 732.8c0 1.3-.9 1.8-2.4 2.1l-.1-.5c1.1-.2 1.9-.6 1.9-1.6v-2.7h-1.6v-.5h2.2v3.2zm-.1-4.5c0 .2-.2.4-.4.4-.3 0-.4-.2-.4-.4s.2-.4.4-.4.4.1.4.4zM4577.8 732.3c0-.3-.1-.5-.9-.7-.8-.2-1.3-.4-1.3-1.1 0-.6.6-1 1.4-1 .6 0 1 .2 1.4.4l-.3.4c-.3-.2-.6-.3-1.1-.3-.6 0-.8.2-.8.5s.2.5 1 .7c.7.2 1.2.5 1.2 1.2 0 .8-.8 1.1-1.6 1.1-.7 0-1.1-.2-1.5-.5l.3-.4c.3.2.7.4 1.1.4.8-.1 1.1-.3 1.1-.7z"/></g><path class="st1" d="M4676 804.7c-20.4-10.7-44.9-24-66.3-36.9-6.1-3.7-12.4-7.7-18.5-11.8"/><path class="st0" d="M4589.9 758l-4.3-5.7 7 1.8-2.7 3.9z"/><ellipse class="st5" cx="4874.6" cy="528.6" rx="36.6" ry="36.6"/><g class="st2"><path class="st3" d="M4862 526.1c.4 0 .7-.1 1-.3l.3.4c-.3.3-.8.4-1.3.4-1.1 0-1.7-.8-1.7-1.9 0-1.1.6-2 1.6-2 .9 0 1.5.7 1.5 1.8v.3h-2.5c0 .9.5 1.3 1.1 1.3zm-1.1-1.7h1.9c0-.8-.4-1.2-.9-1.2-.6 0-1 .3-1 1.2zM4866.6 526h1.1v.5h-2.8v-.5h1.2v-2.8h-1.1v-.5h1.7v3.3zm-.1-4.6c0 .2-.2.4-.4.4-.3 0-.4-.2-.4-.4s.2-.4.4-.4c.3 0 .4.2.4.4zM4870.9 526.6c-.8 0-1.3-.5-1.3-1.1v-2.2h-.9v-.5h.9v-.8l.6-.1v.9h1.3l-.1.5h-1.2v2.2c0 .4.2.6.7.6.3 0 .5-.1.7-.2l.2.4c-.1.2-.5.3-.9.3zM4873.8 523.3c.3-.4.8-.6 1.2-.6.7 0 1.1.4 1.1 1.1v2.7h-.6v-2.7c0-.4-.2-.6-.7-.6-.4 0-.8.3-1 .6v2.7h-.6v-5.2l.6-.1v2.1zM4879.1 526.1c.4 0 .7-.1 1-.3l.3.4c-.3.3-.8.4-1.3.4-1.1 0-1.7-.8-1.7-1.9 0-1.1.6-2 1.6-2 .9 0 1.5.7 1.5 1.8v.3h-2.5c0 .9.5 1.3 1.1 1.3zm-1.1-1.7h1.9c0-.8-.4-1.2-.9-1.2-.6 0-1 .3-1 1.2zM4884.8 522.7l-.1 1.3h-.5v-.8c-.6 0-1 .4-1.2 1.2v1.6h.8v.5h-1.9v-.5h.6v-2.8h-.6v-.5h1l.1.9c.3-.6.7-1 1.3-1 .2.1.4.1.5.1zM4885.7 527l3-6.3.5.2-3 6.3-.5-.2z"/></g><g class="st2"><path class="st3" d="M4860.2 534.6h1.1v.5h-2.8v-.5h1.2v-2.8h-1.1v-.5h1.7v3.3zm-.1-4.6c0 .2-.2.4-.4.4-.3 0-.4-.2-.4-.4s.2-.4.4-.4c.3-.1.4.1.4.4zM4862.5 531.3h.5v.5c.3-.4.8-.6 1.2-.6.7 0 1.1.4 1.1 1.1v2.7h-.6v-2.3c0-.8-.1-1.1-.6-1.1-.4 0-.8.3-1 .6v2.7h-.6v-3.6zM4869.7 529.8v5.3h-.5l-.1-.5c-.3.4-.7.6-1.1.6-1 0-1.4-.8-1.4-1.9 0-1.1.5-2 1.5-2 .4 0 .8.2 1 .4v-1.9h.6zm-2.5 3.4c0 1 .3 1.5.9 1.5.4 0 .7-.3.9-.6v-1.9c-.2-.3-.5-.5-.9-.5-.5 0-.9.5-.9 1.5zM4872.7 534.6c.4 0 .7-.1 1-.3l.3.4c-.3.3-.8.4-1.3.4-1.1 0-1.7-.8-1.7-1.9 0-1.1.6-2 1.6-2 .9 0 1.5.7 1.5 1.8v.3h-2.5c0 .9.5 1.3 1.1 1.3zm-1.1-1.7h1.9c0-.8-.4-1.2-.9-1.2-.6 0-1 .4-1 1.2zM4875 535l1.4-2-1.2-1.8h.7l.9 1.4.9-1.4h.7l-1.2 1.7 1.4 2h-.7l-1-1.6-1 1.6h-.9zM4881 533.9c.4 0 .6.3.6.6 0 .4-.3.6-.6.6-.4 0-.6-.3-.6-.6 0-.4.3-.6.6-.6zM4886.3 534.4c0 1.3-.9 1.8-2.4 2.1l-.1-.5c1.1-.2 1.9-.6 1.9-1.6v-2.7h-1.6v-.5h2.2v3.2zm-.1-4.4c0 .2-.2.4-.4.4-.3 0-.4-.2-.4-.4s.2-.4.4-.4c.3-.1.4.1.4.4zM4890.4 534c0-.3-.1-.5-.9-.7-.8-.2-1.3-.4-1.3-1.1 0-.6.6-1 1.4-1 .6 0 1 .2 1.4.4l-.3.4c-.3-.2-.6-.3-1.1-.3-.6 0-.8.2-.8.5s.2.5 1 .7c.7.2 1.2.5 1.2 1.2 0 .8-.8 1.1-1.6 1.1-.7 0-1.1-.2-1.5-.5l.3-.4c.3.2.7.4 1.1.4.7-.1 1.1-.3 1.1-.7z"/></g><path class="st1" d="M4747.8 786c3.8-6 7.5-12.2 10.8-18.1 38.5-68.3 77-151.4 98.6-199.4"/><path class="st0" d="M4855 567.4l4.9-5.2-.6 7.2-4.3-2z"/><ellipse class="st5" cx="4823.1" cy="243" rx="36.6" ry="36.6"/><g class="st2"><path class="st3" d="M4810.5 240.5c.4 0 .7-.1 1-.3l.3.4c-.3.3-.8.4-1.3.4-1.1 0-1.7-.8-1.7-1.9 0-1.1.6-2 1.6-2 .9 0 1.5.7 1.5 1.8v.3h-2.5c0 .9.5 1.3 1.1 1.3zm-1.1-1.7h1.9c0-.8-.4-1.2-.9-1.2s-1 .4-1 1.2zM4815.1 240.4h1.1v.5h-2.8v-.5h1.2v-2.8h-1.1v-.5h1.7v3.3zm0-4.6c0 .2-.2.4-.4.4-.3 0-.4-.2-.4-.4s.2-.4.4-.4.4.2.4.4zM4819.4 241c-.8 0-1.3-.5-1.3-1.1v-2.2h-.9v-.5h.9v-.8l.6-.1v.9h1.3l-.1.5h-1.2v2.2c0 .4.2.6.7.6.3 0 .5-.1.7-.2l.2.4c-.1.2-.5.3-.9.3zM4822.3 237.7c.3-.4.8-.6 1.2-.6.7 0 1.1.4 1.1 1.1v2.7h-.6v-2.7c0-.4-.2-.6-.7-.6-.4 0-.8.3-1 .6v2.7h-.6v-5.2l.6-.1v2.1zM4827.6 240.5c.4 0 .7-.1 1-.3l.3.4c-.3.3-.8.4-1.3.4-1.1 0-1.7-.8-1.7-1.9 0-1.1.6-2 1.6-2 .9 0 1.5.7 1.5 1.8v.3h-2.5c0 .9.5 1.3 1.1 1.3zm-1.1-1.7h1.9c0-.8-.4-1.2-.9-1.2-.6 0-1 .4-1 1.2zM4833.3 237.2l-.1 1.3h-.5v-.8c-.6 0-1 .4-1.2 1.2v1.6h.8v.5h-1.9v-.5h.6v-2.8h-.6v-.5h1l.1.9c.3-.6.7-1 1.3-1 .2 0 .4 0 .5.1zM4834.2 241.4l3-6.3.5.2-3 6.3-.5-.2z"/></g><g class="st2"><path class="st3" d="M4807.6 249.1l-.1.4c-.3 0-.6-.2-.7-.5-.3.3-.7.5-1.2.5-.8 0-1.2-.5-1.2-1.2 0-.8.6-1.2 1.8-1.2h.6v-.3c0-.5-.3-.7-.9-.7-.2 0-.6.1-1 .2l-.2-.5c.5-.2.9-.2 1.2-.2.9 0 1.4.5 1.4 1.2v1.8c0 .3.1.4.3.5zm-.9-.6v-1h-.5c-.8 0-1.1.3-1.1.8s.2.7.7.7c.4.1.7-.1.9-.5zM4811.1 248.4c0-.3-.1-.5-.9-.7-.8-.2-1.3-.4-1.3-1.1 0-.6.6-1 1.4-1 .6 0 1 .2 1.4.4l-.3.4c-.3-.2-.6-.3-1.1-.3-.6 0-.8.2-.8.5s.2.5 1 .7c.7.2 1.2.5 1.2 1.2 0 .8-.8 1.1-1.6 1.1-.7 0-1.1-.2-1.5-.5l.3-.4c.3.2.7.4 1.1.4.8-.1 1.1-.3 1.1-.7zM4815.4 248.4c0-.3-.1-.5-.9-.7-.8-.2-1.3-.4-1.3-1.1 0-.6.6-1 1.4-1 .6 0 1 .2 1.4.4l-.3.4c-.3-.2-.6-.3-1.1-.3-.6 0-.8.2-.8.5s.2.5 1 .7c.7.2 1.2.5 1.2 1.2 0 .8-.8 1.1-1.6 1.1-.7 0-1.1-.2-1.5-.5l.3-.4c.3.2.7.4 1.1.4.7-.1 1.1-.3 1.1-.7zM4819 249c.4 0 .7-.1 1-.3l.3.4c-.3.3-.8.4-1.3.4-1.1 0-1.7-.8-1.7-1.9 0-1.1.6-2 1.6-2 .9 0 1.5.7 1.5 1.8v.3h-2.5c.1.9.5 1.3 1.1 1.3zm-1.1-1.7h1.9c0-.8-.4-1.2-.9-1.2s-.9.4-1 1.2zM4824.8 245.7l-.1 1.3h-.5v-.8c-.6 0-1 .4-1.2 1.2v1.6h.8v.5h-1.9v-.5h.6v-2.8h-.6v-.5h1l.1.9c.3-.6.7-1 1.3-1 .2 0 .3 0 .5.1zM4828 249.5c-.8 0-1.3-.5-1.3-1.1v-2.2h-.9v-.5h.9v-.8l.6-.1v.9h1.3l-.1.5h-1.2v2.2c0 .4.2.6.7.6.3 0 .5-.1.7-.2l.2.4c-.2.2-.6.3-.9.3zM4831.7 248.3c.4 0 .6.3.6.6 0 .4-.3.6-.6.6-.4 0-.6-.3-.6-.6 0-.4.2-.6.6-.6zM4837 248.8c0 1.3-.9 1.8-2.4 2.1l-.1-.5c1.1-.2 1.9-.6 1.9-1.6v-2.7h-1.6v-.5h2.2v3.2zm-.1-4.4c0 .2-.2.4-.4.4-.3 0-.4-.2-.4-.4s.2-.4.4-.4c.2-.1.4.1.4.4zM4841 248.4c0-.3-.1-.5-.9-.7-.8-.2-1.3-.4-1.3-1.1 0-.6.6-1 1.4-1 .6 0 1 .2 1.4.4l-.3.4c-.3-.2-.6-.3-1.1-.3-.6 0-.8.2-.8.5s.2.5 1 .7c.7.2 1.2.5 1.2 1.2 0 .8-.8 1.1-1.6 1.1-.7 0-1.1-.2-1.5-.5l.3-.4c.3.2.7.4 1.1.4.8-.1 1.1-.3 1.1-.7z"/></g><path class="st1" d="M4754.5 791.5c6.6-5.3 13.8-10.2 21.2-13.9 21.4-10.5 29.9-2.8 52.7-9.8 146.2-45 315.2 15 315.2-137.9V427.3c0-73.9-27.9-102.9-93-137.9-31.4-16.9-127.7-32.5-184.5-40.7"/><path class="st0" d="M4865.8 251.1l-6.4-3.3 7-1.4-.6 4.7z"/><ellipse class="st5" cx="5092.1" cy="427.3" rx="36.6" ry="36.6"/><g class="st2"><path class="st3" d="M5079.5 424.8c.4 0 .7-.1 1-.3l.3.4c-.3.3-.8.4-1.3.4-1.1 0-1.7-.8-1.7-1.9 0-1.1.6-2 1.6-2 .9 0 1.5.7 1.5 1.8v.3h-2.5c0 .9.5 1.3 1.1 1.3zm-1.1-1.7h1.9c0-.8-.4-1.2-.9-1.2-.6 0-1 .4-1 1.2zM5084.1 424.7h1.1v.5h-2.8v-.5h1.2v-2.8h-1.1v-.5h1.7v3.3zm-.1-4.6c0 .2-.2.4-.4.4-.3 0-.4-.2-.4-.4s.2-.4.4-.4c.3 0 .4.2.4.4zM5088.4 425.3c-.8 0-1.3-.5-1.3-1.1V422h-.9v-.5h.9v-.8l.6-.1v.9h1.3l-.1.5h-1.2v2.2c0 .4.2.6.7.6.3 0 .5-.1.7-.2l.2.4c-.1.2-.5.3-.9.3zM5091.3 422c.3-.4.8-.6 1.2-.6.7 0 1.1.4 1.1 1.1v2.7h-.6v-2.7c0-.4-.2-.6-.7-.6-.4 0-.8.3-1 .6v2.7h-.6V420l.6-.1v2.1zM5096.6 424.8c.4 0 .7-.1 1-.3l.3.4c-.3.3-.8.4-1.3.4-1.1 0-1.7-.8-1.7-1.9 0-1.1.6-2 1.6-2 .9 0 1.5.7 1.5 1.8v.3h-2.5c0 .9.5 1.3 1.1 1.3zm-1.1-1.7h1.9c0-.8-.4-1.2-.9-1.2-.6 0-1 .4-1 1.2zM5102.3 421.4l-.1 1.3h-.5v-.8c-.6 0-1 .4-1.2 1.2v1.6h.8v.5h-1.9v-.5h.6v-2.8h-.6v-.5h1l.1.9c.3-.6.7-1 1.3-1 .2.1.4.1.5.1zM5103.2 425.7l3-6.3.5.2-3 6.3-.5-.2z"/></g><g class="st2"><path class="st3" d="M5081.1 428.6l-.2.4c-.2-.1-.5-.2-.8-.2-.5 0-.8.2-.8.6v.8h1.3l-.1.5h-1.2v3h-.6v-3h-.9v-.5h.9v-.7c0-.7.6-1.1 1.4-1.1.4 0 .8.1 1 .2zM5085.2 431.9c0 1.2-.6 2-1.6 2-1.1 0-1.6-.8-1.6-1.9 0-1.2.6-2 1.6-2 1.1-.1 1.6.7 1.6 1.9zm-2.6 0c0 1 .3 1.5 1 1.5.6 0 1-.5 1-1.5s-.3-1.5-1-1.5c-.6 0-1 .5-1 1.5zM5087.9 432.8c0 .4.3.5.6.5.2 0 .4 0 .6-.1l.2.4c-.2.1-.5.2-.9.2-.7 0-1.1-.4-1.1-1V429h-1.2v-.5h1.7v4.3zM5093.6 428.5v5.3h-.5l-.1-.5c-.3.4-.7.6-1.1.6-1 0-1.4-.8-1.4-1.9 0-1.1.5-2 1.5-2 .4 0 .8.2 1 .4v-1.9h.6zm-2.5 3.4c0 1 .3 1.5.9 1.5.4 0 .7-.3.9-.6v-1.9c-.2-.3-.5-.5-.9-.5-.5 0-.9.5-.9 1.5zM5096.4 432.6c.4 0 .6.3.6.6 0 .4-.3.6-.6.6-.4 0-.6-.3-.6-.6 0-.4.2-.6.6-.6zM5101.7 433.1c0 1.3-.9 1.8-2.4 2.1l-.1-.5c1.1-.2 1.9-.6 1.9-1.6v-2.7h-1.6v-.4h2.2v3.1zm-.1-4.4c0 .2-.2.4-.4.4-.3 0-.4-.2-.4-.4s.2-.4.4-.4c.2-.1.4.1.4.4zM5105.7 432.7c0-.3-.1-.5-.9-.7-.8-.2-1.3-.4-1.3-1.1 0-.6.6-1 1.4-1 .6 0 1 .2 1.4.4l-.3.4c-.3-.2-.6-.3-1.1-.3-.6 0-.8.2-.8.5s.2.5 1 .7c.7.2 1.2.5 1.2 1.2 0 .8-.8 1.1-1.6 1.1-.7 0-1.1-.2-1.5-.5l.3-.4c.3.2.7.4 1.1.4.8-.1 1.1-.3 1.1-.7z"/></g><path class="st1" d="M4756.9 794c9.1-8.4 18.7-17.5 27.4-26.2 123-122.4 154.6-152.7 266.3-285.6 5.3-6.3 10.7-13.1 15.8-19.8"/><path class="st0" d="M5064.6 460.9l6-4-2.2 6.8-3.8-2.8z"/><path class="st1" d="M4881.2 868.8V822h132.1v46.8h-132.1z"/><g class="st2"><path d="M4938.8 863.1h.4v3.1h1.6l-.1.4h-2v-3.5zM4942.2 864.6h1.3v.4h-1.3v1.2h1.6v.4h-2v-3.5h2l-.1.4h-1.5v1.1zM4944.4 864.8c0-1.2.7-1.8 1.5-1.8.5 0 .7.1 1 .4l-.3.3c-.2-.2-.4-.3-.7-.3-.5 0-1 .4-1 1.4 0 1 .3 1.4.9 1.4.2 0 .5-.1.7-.2v-1h-.7l-.1-.4h1.2v1.7c-.3.2-.7.3-1.1.3-.9 0-1.4-.6-1.4-1.8zM4948.3 864.6h1.3v.4h-1.3v1.2h1.6v.4h-2v-3.5h2l-.1.4h-1.5v1.1zM4951 863.5c0 .2.1.8.1 1.3v1.8h-.4v-3.5h.6l1.3 3.1c0-.1-.1-.7-.1-1.3v-1.8h.4v3.5h-.6l-1.3-3.1zM4954.5 866.6h-.8v-3.5h.7c.8 0 1.6.3 1.6 1.7.1 1.5-.7 1.8-1.5 1.8zm.1-3.2h-.4v2.8h.4c.5 0 1.1-.3 1.1-1.4 0-1.2-.6-1.4-1.1-1.4z"/></g><ellipse class="st6" cx="4993.6" cy="841.7" rx="18.3" ry="18.3"/><g class="st2"><path class="st3" d="M4985.9 843.2h-.4l-.1-1.8v-1.3l-.6 2.5h-.4l-.6-2.5v1.3l-.1 1.8h-.4l.2-3.5h.6l.6 2.4.5-2.4h.6l.1 3.5zM4987.5 843.2c-.8 0-1.3-.7-1.3-1.8s.4-1.8 1.3-1.8 1.3.7 1.3 1.8-.4 1.8-1.3 1.8zm0-3.2c-.6 0-.8.5-.8 1.4 0 .9.3 1.4.8 1.4.6 0 .8-.5.8-1.4.1-.9-.2-1.4-.8-1.4zM4990.3 843.2h-.8v-3.5h.7c.8 0 1.6.3 1.6 1.7.1 1.5-.8 1.8-1.5 1.8zm0-3.2h-.4v2.8h.4c.5 0 1.1-.3 1.1-1.4 0-1.2-.6-1.4-1.1-1.4zM4994.8 842.1c0 .7-.5 1.2-1.2 1.2s-1.2-.5-1.2-1.2v-2.4h.4v2.4c0 .5.3.8.7.8.5 0 .7-.3.7-.8v-2.4h.4v2.4zM4995.9 839.7h.4v3.1h1.6l-.1.4h-2v-3.5zM4999.3 841.2h1.3v.4h-1.3v1.2h1.6v.4h-2v-3.5h2l-.1.4h-1.5v1.1zM5002.7 843.2c-.5 0-.9-.2-1.2-.4l.3-.3c.2.2.5.4 1 .4s.8-.2.8-.7c0-.3-.2-.5-.8-.7-.7-.2-1.1-.5-1.1-1s.5-.9 1.1-.9c.5 0 .8.1 1.1.4l-.3.3c-.2-.2-.5-.3-.8-.3-.4 0-.7.2-.7.5s.2.5.9.6c.5.2 1 .4 1 1.1 0 .6-.5 1-1.3 1z"/></g><ellipse class="st7" cx="4947.2" cy="841.7" rx="18.3" ry="18.3"/><g class="st2"><path class="st3" d="M4933.5 841.9h-.5v1.3h-.4v-3.5h.9c.8 0 1.4.3 1.4 1.1-.1.8-.7 1.1-1.4 1.1zm0-1.9h-.5v1.5h.5c.5 0 .8-.2.8-.8 0-.5-.3-.7-.8-.7zM4937.7 842.1c0 .7-.5 1.2-1.2 1.2s-1.2-.5-1.2-1.2v-2.4h.4v2.4c0 .5.3.8.7.8.5 0 .7-.3.7-.8v-2.4h.4v2.4zM4939.5 843.2h-.9v-3.5h.9c.6 0 1.2.2 1.2.9 0 .5-.3.7-.7.8.4.1.8.3.8.9 0 .7-.7.9-1.3.9zm0-3.2h-.5v1.1h.6c.4 0 .6-.2.6-.6 0-.3-.3-.5-.7-.5zm.1 1.5h-.6v1.3h.6c.3 0 .8-.1.8-.6s-.4-.7-.8-.7zM4941.8 839.7h.4v3.1h1.6l-.1.4h-2v-3.5zM4946.7 840h-.8v2.8h.8v.4h-2v-.4h.8V840h-.8v-.4h2v.4zM4950.1 840l-.2.3c-.2-.2-.5-.3-.7-.3-.6 0-1.1.4-1.1 1.4 0 1 .5 1.4 1.1 1.4.4 0 .6-.1.8-.3l.2.3c-.2.2-.5.4-1 .4-.9 0-1.5-.6-1.5-1.8s.7-1.8 1.5-1.8c.3 0 .6.2.9.4zM4954.1 842.3l-.3.9h-.4l1.1-3.5h.6l1.1 3.5h-.5l-.3-.9h-1.3zm1.3-.4l-.6-1.9-.6 1.9h1.2zM4957.8 841.9h-.5v1.3h-.4v-3.5h.9c.8 0 1.4.3 1.4 1.1s-.6 1.1-1.4 1.1zm.1-1.9h-.5v1.5h.5c.5 0 .8-.2.8-.8 0-.5-.3-.7-.8-.7zM4961.9 840h-.8v2.8h.8v.4h-2v-.4h.8V840h-.8v-.4h2v.4z"/></g><ellipse class="st8" cx="4900.8" cy="841.7" rx="18.3" ry="18.3"/><g class="st2"><path d="M4885.5 841.9h-.5v1.3h-.4v-3.5h.9c.8 0 1.4.3 1.4 1.1s-.6 1.1-1.4 1.1zm.1-1.9h-.5v1.5h.5c.5 0 .8-.2.8-.8 0-.5-.4-.7-.8-.7zM4889 841.6l1 1.5h-.5l-1-1.5h-.5v1.5h-.4v-3.5h.9c.9 0 1.3.3 1.3 1 0 .6-.4.9-.8 1zm-.4-1.6h-.5v1.3h.5c.5 0 .8-.2.8-.7-.1-.4-.3-.6-.8-.6zM4892.7 840h-.8v2.8h.8v.4h-2v-.4h.8V840h-.8v-.4h2v.4zM4895.7 839.7h.4l-1.2 3.5h-.5l-1.2-3.5h.5l.9 3 1.1-3zM4897.1 842.3l-.3.9h-.4l1.1-3.5h.6l1.1 3.5h-.5l-.3-.9h-1.3zm1.2-.4l-.6-1.9-.6 1.9h1.2zM4901 843.2h-.4v-3.1h-1.1v-.4h2.6v.4h-1.1v3.1zM4903.4 841.2h1.3v.4h-1.3v1.2h1.6v.4h-2v-3.5h2l-.1.4h-1.5v1.1zM4909.2 842.3l-.3.9h-.4l1.1-3.5h.6l1.1 3.5h-.5l-.3-.9h-1.3zm1.3-.4l-.6-1.9-.6 1.9h1.2zM4913 841.9h-.5v1.3h-.4v-3.5h.9c.8 0 1.4.3 1.4 1.1-.1.8-.7 1.1-1.4 1.1zm0-1.9h-.5v1.5h.5c.5 0 .8-.2.8-.8 0-.5-.3-.7-.8-.7zM4917.1 840h-.8v2.8h.8v.4h-2v-.4h.8V840h-.8v-.4h2v.4z"/></g><path class="st4" d="M5038.7 348.6l7-22.6-7-22.6-18.3-14h-22.6l-18.3 14-7 22.6 7 22.6 18.3 14h22.6l18.3-14z"/><g class="st2"><path class="st3" d="M4996.5 323.8c.3 0 .6-.1.9-.3l.2.3c-.3.2-.7.4-1.1.4-.9 0-1.5-.7-1.5-1.7s.5-1.7 1.4-1.7c.8 0 1.3.6 1.3 1.6v.3h-2.2c0 .8.5 1.1 1 1.1zm-1-1.4h1.7c0-.7-.3-1-.8-1-.5-.1-.8.3-.9 1zM4998.8 321h.4v.5c.3-.3.7-.5 1.1-.5.6 0 .9.4.9 1v2.3h-.5v-2c0-.7-.1-.9-.5-.9s-.7.3-.9.5v2.3h-.5V321zM5004.1 324.3c-.7 0-1.1-.4-1.1-1v-1.9h-.7v-.4h.7v-.7l.5-.1v.8h1.1l-.1.4h-1v1.9c0 .4.2.5.6.5.2 0 .4-.1.6-.2l.2.3c-.1.3-.5.4-.8.4zM5008.7 321l-.1 1.1h-.4v-.7c-.5 0-.8.4-1.1 1.1v1.4h.7v.4h-1.7v-.4h.5v-2.4h-.5v-.5h.9l.1.8c.2-.5.6-.8 1.2-.8.1-.1.3 0 .4 0zM5010.3 323.3c0 .4.2.6.5.6.4 0 .7-.2.9-.5V321h.5v3.2h-.4v-.4c-.3.3-.7.5-1 .5-.6 0-.9-.3-.9-.9V321h.5v2.3zM5015.3 323.3c0-.3-.1-.4-.8-.6-.7-.2-1.1-.4-1.1-.9s.5-.9 1.2-.9c.5 0 .9.2 1.2.4l-.2.4c-.2-.2-.5-.3-.9-.3-.5 0-.7.2-.7.4 0 .3.2.4.8.6.6.2 1 .4 1 1 0 .7-.7 1-1.3 1-.6 0-1-.2-1.3-.4l.3-.3c.3.2.6.3 1 .3.5-.1.8-.3.8-.7zM5018.8 324.3c-.7 0-1.1-.4-1.1-1v-1.9h-.7v-.4h.7v-.7l.5-.1v.8h1.1l-.1.4h-1v1.9c0 .4.2.5.6.5.2 0 .4-.1.6-.2l.2.3c-.2.3-.5.4-.8.4zM5020.4 324.7l2.6-5.4.4.2-2.6 5.4-.4-.2z"/></g><g class="st2"><path class="st3" d="M4992.8 331.2c.3 0 .6-.1.9-.3l.2.3c-.3.2-.7.4-1.1.4-.9 0-1.5-.7-1.5-1.7s.5-1.7 1.4-1.7c.8 0 1.3.6 1.3 1.6v.3h-2.2c.1.7.5 1.1 1 1.1zm-.9-1.5h1.7c0-.7-.3-1-.8-1s-.9.3-.9 1zM4995.1 328.3h.4v.5c.3-.3.7-.5 1.1-.5.6 0 .9.4.9 1v2.3h-.5v-2c0-.7-.1-.9-.5-.9s-.7.3-.9.5v2.3h-.5v-3.2zM5000.5 331.6c-.7 0-1.1-.4-1.1-1v-1.9h-.7v-.4h.7v-.7l.5-.1v.8h1.1l-.1.4h-1v1.9c0 .4.2.5.6.5.2 0 .4-.1.6-.2l.2.3c-.2.3-.5.4-.8.4zM5005.1 328.3l-.1 1.1h-.4v-.7c-.5 0-.8.4-1.1 1.1v1.4h.7v.4h-1.7v-.4h.5v-2.4h-.5v-.4h.9l.1.8c.2-.5.6-.8 1.2-.8.1-.2.2-.1.4-.1zM5006.6 330.6c0 .4.2.6.5.6.4 0 .7-.2.9-.5v-2.4h.5v3.2h-.4v-.4c-.3.3-.7.5-1 .5-.6 0-.9-.3-.9-.9v-2.3h.5v2.2zM5011.6 330.7c0-.3-.1-.4-.8-.6-.7-.2-1.1-.4-1.1-.9s.5-.9 1.2-.9c.5 0 .9.2 1.2.4l-.2.4c-.2-.2-.5-.3-.9-.3-.5 0-.7.2-.7.4 0 .3.2.4.8.6.6.2 1 .4 1 1 0 .7-.7 1-1.3 1-.6 0-1-.2-1.3-.4l.3-.3c.3.2.6.3 1 .3.5-.2.8-.4.8-.7zM5015.1 331.6c-.7 0-1.1-.4-1.1-1v-1.9h-.7v-.4h.7v-.7l.5-.1v.8h1.1l-.1.4h-1v1.9c0 .4.2.5.6.5.2 0 .4-.1.6-.2l.2.3c-.2.3-.5.4-.8.4zM5018.3 330.5c.3 0 .5.2.5.5s-.2.5-.5.5-.5-.2-.5-.5c-.1-.2.2-.5.5-.5zM5022.8 331c0 1.1-.8 1.6-2 1.8l-.1-.4c.9-.2 1.6-.5 1.6-1.4v-2.3h-1.3v-.4h1.8v2.7zm-.1-3.8c0 .2-.1.4-.4.4-.2 0-.4-.2-.4-.4s.2-.4.4-.4c.3 0 .4.2.4.4zM5026.3 330.7c0-.3-.1-.4-.8-.6-.7-.2-1.1-.4-1.1-.9s.5-.9 1.2-.9c.5 0 .9.2 1.2.4l-.2.4c-.2-.2-.5-.3-.9-.3-.5 0-.7.2-.7.4 0 .3.2.4.8.6.6.2 1 .4 1 1 0 .7-.7 1-1.3 1-.6 0-1-.2-1.3-.4l.3-.3c.3.2.6.3 1 .3.5-.2.8-.4.8-.7z"/></g><path class="st4" d="M4769.7 348.6l7-22.6-7-22.6-18.3-14h-22.6l-18.3 14-7 22.6 7 22.6 18.3 14h22.6l18.3-14z"/><g class="st2"><path class="st3" d="M4714.3 319.8l-.2.4c-.2-.1-.4-.1-.7-.1-.4 0-.7.2-.7.5v.7h1.1l-.1.4h-1v2.6h-.5v-2.6h-.8v-.4h.8v-.6c0-.6.5-1 1.2-1 .3-.1.6 0 .9.1zM4717.7 323.9l-.1.4c-.3 0-.5-.2-.6-.5-.2.3-.6.5-1 .5-.6 0-1-.4-1-1 0-.7.5-1 1.5-1h.5v-.3c0-.5-.3-.6-.8-.6-.2 0-.5 0-.8.2l-.1-.4c.4-.1.7-.2 1.1-.2.8 0 1.2.4 1.2 1v1.5c-.1.3-.1.4.1.4zm-.8-.5v-.8h-.5c-.7 0-1 .3-1 .7 0 .4.2.6.6.6.4 0 .7-.2.9-.5zM4718.8 321h.4v.5c.3-.3.7-.5 1.1-.5.6 0 .9.4.9 1v2.3h-.5v-2c0-.7-.1-.9-.5-.9s-.7.3-.9.5v2.3h-.5V321zM4724.2 324.3c-.7 0-1.1-.4-1.1-1v-1.9h-.7v-.4h.7v-.7l.5-.1v.8h1.1l-.1.4h-1v1.9c0 .4.2.5.6.5.2 0 .4-.1.6-.2l.2.3c-.2.3-.5.4-.8.4zM4728.7 323.9l-.1.4c-.3 0-.5-.2-.6-.5-.2.3-.6.5-1 .5-.6 0-1-.4-1-1 0-.7.5-1 1.5-1h.5v-.3c0-.5-.3-.6-.8-.6-.2 0-.5 0-.8.2l-.1-.4c.4-.1.7-.2 1.1-.2.8 0 1.2.4 1.2 1v1.5c-.2.3-.1.4.1.4zm-.8-.5v-.8h-.5c-.7 0-1 .3-1 .7 0 .4.2.6.6.6.4 0 .7-.2.9-.5zM4731.7 323.3c0-.3-.1-.4-.8-.6-.7-.2-1.1-.4-1.1-.9s.5-.9 1.2-.9c.5 0 .9.2 1.2.4l-.2.4c-.2-.2-.5-.3-.9-.3-.5 0-.7.2-.7.4 0 .3.2.4.8.6.6.2 1 .4 1 1 0 .7-.7 1-1.3 1-.6 0-1-.2-1.3-.4l.3-.3c.2.2.6.3 1 .3.5-.1.8-.3.8-.7zM4735 324.2c-.2.7-.6 1.2-1.4 1.3l-.1-.4c.7-.1.9-.4 1-.9h-.2l-1.1-3.2h.5l.9 2.8.9-2.8h.5l-1 3.2zM4737.1 322.1h2.4v.4h-2.4v-.4zM4742.1 323.8c.3 0 .6-.1.9-.3l.2.3c-.3.2-.7.4-1.1.4-.9 0-1.5-.7-1.5-1.7s.5-1.7 1.4-1.7c.8 0 1.3.6 1.3 1.6v.3h-2.2c.1.8.5 1.1 1 1.1zm-.9-1.4h1.7c0-.7-.3-1-.8-1-.5-.1-.9.3-.9 1zM4746 323.8h.9v.4h-2.4v-.4h1v-2.4h-1v-.4h1.5v2.8zm0-4c0 .2-.2.4-.4.4s-.4-.2-.4-.4.1-.4.4-.4c.3.1.4.2.4.4zM4749.8 324.3c-.7 0-1.1-.4-1.1-1v-1.9h-.7v-.4h.7v-.7l.5-.1v.8h1.1l-.1.4h-1v1.9c0 .4.2.5.6.5.2 0 .4-.1.6-.2l.2.3c-.2.3-.5.4-.8.4zM4752.2 321.4c.3-.3.6-.5 1-.5.6 0 .9.4.9 1v2.3h-.5v-2.3c0-.4-.2-.5-.6-.5-.4 0-.7.3-.9.5v2.3h-.5v-4.5l.5-.1v1.8zM4756.7 323.8c.3 0 .6-.1.9-.3l.2.3c-.3.2-.7.4-1.1.4-.9 0-1.5-.7-1.5-1.7s.5-1.7 1.4-1.7c.8 0 1.3.6 1.3 1.6v.3h-2.2c.1.8.5 1.1 1 1.1zm-.9-1.4h1.7c0-.7-.3-1-.8-1-.5-.1-.9.3-.9 1zM4761.7 321l-.1 1.1h-.4v-.7c-.5 0-.8.4-1.1 1.1v1.4h.7v.4h-1.7v-.4h.5v-2.4h-.5v-.5h.9l.1.8c.2-.5.6-.8 1.2-.8.1-.1.2 0 .4 0zM4764.6 323.3c0-.3-.1-.4-.8-.6-.7-.2-1.1-.4-1.1-.9s.5-.9 1.2-.9c.5 0 .9.2 1.2.4l-.2.4c-.2-.2-.5-.3-.9-.3-.5 0-.7.2-.7.4 0 .3.2.4.8.6.6.2 1 .4 1 1 0 .7-.7 1-1.3 1-.6 0-1-.2-1.3-.4l.3-.3c.2.2.6.3 1 .3.5-.1.8-.3.8-.7zM4766.1 324.7l2.6-5.4.4.2-2.6 5.4-.4-.2z"/></g><g class="st2"><path class="st3" d="M4710.6 327.1l-.2.4c-.2-.1-.4-.1-.7-.1-.4 0-.7.2-.7.5v.7h1.1l-.1.4h-1v2.6h-.5V329h-.8v-.4h.8v-.6c0-.6.5-1 1.2-1 .4 0 .6 0 .9.1zM4714.1 331.2l-.1.4c-.3 0-.5-.2-.6-.5-.2.3-.6.5-1 .5-.6 0-1-.4-1-1 0-.7.5-1 1.5-1h.5v-.3c0-.5-.3-.6-.8-.6-.2 0-.5 0-.8.2l-.1-.4c.4-.1.7-.2 1.1-.2.8 0 1.2.4 1.2 1v1.5c-.2.3-.1.4.1.4zm-.8-.5v-.8h-.5c-.7 0-1 .3-1 .7 0 .4.2.6.6.6.4 0 .7-.2.9-.5zM4715.1 328.3h.4v.5c.3-.3.7-.5 1.1-.5.6 0 .9.4.9 1v2.3h-.5v-2c0-.7-.1-.9-.5-.9s-.7.3-.9.5v2.3h-.5v-3.2zM4720.5 331.6c-.7 0-1.1-.4-1.1-1v-1.9h-.7v-.4h.7v-.7l.5-.1v.8h1.1l-.1.4h-1v1.9c0 .4.2.5.6.5.2 0 .4-.1.6-.2l.2.3c-.2.3-.5.4-.8.4zM4725 331.2l-.1.4c-.3 0-.5-.2-.6-.5-.2.3-.6.5-1 .5-.6 0-1-.4-1-1 0-.7.5-1 1.5-1h.5v-.3c0-.5-.3-.6-.8-.6-.2 0-.5 0-.8.2l-.1-.4c.4-.1.7-.2 1.1-.2.8 0 1.2.4 1.2 1v1.5c-.1.3 0 .4.1.4zm-.7-.5v-.8h-.5c-.7 0-1 .3-1 .7 0 .4.2.6.6.6.4 0 .7-.2.9-.5zM4728 330.7c0-.3-.1-.4-.8-.6-.7-.2-1.1-.4-1.1-.9s.5-.9 1.2-.9c.5 0 .9.2 1.2.4l-.2.4c-.2-.2-.5-.3-.9-.3-.5 0-.7.2-.7.4 0 .3.2.4.8.6.6.2 1 .4 1 1 0 .7-.7 1-1.3 1-.6 0-1-.2-1.3-.4l.3-.3c.3.2.6.3 1 .3.5-.2.8-.4.8-.7zM4731.3 331.5c-.2.7-.6 1.2-1.4 1.3l-.1-.4c.7-.1.9-.4 1-.9h-.2l-1.1-3.2h.5l.9 2.8.9-2.8h.5l-1 3.2zM4733.4 329.4h2.4v.4h-2.4v-.4zM4738.4 331.2c.3 0 .6-.1.9-.3l.2.3c-.3.2-.7.4-1.1.4-.9 0-1.5-.7-1.5-1.7s.5-1.7 1.4-1.7c.8 0 1.3.6 1.3 1.6v.3h-2.2c.1.7.5 1.1 1 1.1zm-.9-1.5h1.7c0-.7-.3-1-.8-1s-.8.3-.9 1zM4742.4 331.1h.9v.4h-2.4v-.4h1v-2.4h-1v-.4h1.5v2.8zm0-3.9c0 .2-.2.4-.4.4s-.4-.2-.4-.4.1-.4.4-.4c.2 0 .4.2.4.4zM4746.1 331.6c-.7 0-1.1-.4-1.1-1v-1.9h-.7v-.4h.7v-.7l.5-.1v.8h1.1l-.1.4h-1v1.9c0 .4.2.5.6.5.2 0 .4-.1.6-.2l.2.3c-.2.3-.5.4-.8.4zM4748.6 328.8c.3-.3.6-.5 1-.5.6 0 .9.4.9 1v2.3h-.5v-2.3c0-.4-.2-.5-.6-.5-.4 0-.7.3-.9.5v2.3h-.5V327l.5-.1v1.9zM4753.1 331.2c.3 0 .6-.1.9-.3l.2.3c-.3.2-.7.4-1.1.4-.9 0-1.5-.7-1.5-1.7s.5-1.7 1.4-1.7c.8 0 1.3.6 1.3 1.6v.3h-2.2c.1.7.5 1.1 1 1.1zm-1-1.5h1.7c0-.7-.3-1-.8-1s-.8.3-.9 1zM4758 328.3l-.1 1.1h-.4v-.7c-.5 0-.8.4-1.1 1.1v1.4h.7v.4h-1.7v-.4h.5v-2.4h-.5v-.4h.9l.1.8c.2-.5.6-.8 1.2-.8.1-.2.3-.1.4-.1zM4760.9 330.7c0-.3-.1-.4-.8-.6-.7-.2-1.1-.4-1.1-.9s.5-.9 1.2-.9c.5 0 .9.2 1.2.4l-.2.4c-.2-.2-.5-.3-.9-.3-.5 0-.7.2-.7.4 0 .3.2.4.8.6.6.2 1 .4 1 1 0 .7-.7 1-1.3 1-.6 0-1-.2-1.3-.4l.3-.3c.3.2.6.3 1 .3.5-.2.8-.4.8-.7zM4763.9 330.5c.3 0 .5.2.5.5s-.2.5-.5.5-.5-.2-.5-.5c0-.2.2-.5.5-.5zM4768.5 331c0 1.1-.8 1.6-2 1.8l-.1-.4c.9-.2 1.6-.5 1.6-1.4v-2.3h-1.3v-.4h1.8v2.7zm-.1-3.8c0 .2-.1.4-.4.4-.2 0-.4-.2-.4-.4s.2-.4.4-.4.4.2.4.4zM4771.9 330.7c0-.3-.1-.4-.8-.6-.7-.2-1.1-.4-1.1-.9s.5-.9 1.2-.9c.5 0 .9.2 1.2.4l-.2.4c-.2-.2-.5-.3-.9-.3-.5 0-.7.2-.7.4 0 .3.2.4.8.6.6.2 1 .4 1 1 0 .7-.7 1-1.3 1-.6 0-1-.2-1.3-.4l.3-.3c.2.2.6.3 1 .3.5-.2.8-.4.8-.7z"/></g><ellipse class="st9" cx="4356.3" cy="629.9" rx="54.9" ry="54.9"/><g class="st2"><path d="M4337.5 627.6l-.1.4c-.3 0-.6-.2-.7-.5-.3.3-.7.5-1.1.5-.7 0-1.2-.4-1.2-1.1 0-.7.6-1.1 1.7-1.1h.5v-.3c0-.5-.3-.7-.8-.7-.2 0-.6.1-.9.2l-.2-.4c.4-.2.8-.2 1.2-.2.9 0 1.3.4 1.3 1.2v1.7c0 .1.1.2.3.3zm-.9-.6v-.9h-.5c-.8 0-1.1.3-1.1.7 0 .4.2.7.7.7.4 0 .7-.2.9-.5zM4340.8 626.9c0-.3-.1-.5-.9-.7-.7-.2-1.2-.4-1.2-1s.5-1 1.4-1c.6 0 1 .2 1.3.4l-.3.4c-.3-.2-.6-.3-1-.3-.6 0-.8.2-.8.5s.2.4.9.6c.7.2 1.2.4 1.2 1.1 0 .8-.7 1.1-1.5 1.1-.7 0-1.1-.2-1.4-.5l.3-.4c.3.2.7.4 1.1.4.6 0 .9-.2.9-.6zM4344.9 626.9c0-.3-.1-.5-.9-.7-.7-.2-1.2-.4-1.2-1s.5-1 1.4-1c.6 0 1 .2 1.3.4l-.3.4c-.3-.2-.6-.3-1-.3-.6 0-.8.2-.8.5s.2.4.9.6c.7.2 1.2.4 1.2 1.1 0 .8-.7 1.1-1.5 1.1-.7 0-1.1-.2-1.4-.5l.3-.4c.3.2.7.4 1.1.4.5 0 .9-.2.9-.6zM4348.3 627.5c.4 0 .6-.1 1-.3l.3.4c-.3.3-.8.4-1.2.4-1 0-1.6-.7-1.6-1.9 0-1.1.6-1.9 1.6-1.9.9 0 1.5.7 1.5 1.8v.3h-2.4c-.2.8.3 1.2.8 1.2zm-1-1.6h1.9c0-.8-.4-1.2-.9-1.2-.6 0-1 .4-1 1.2zM4353.8 624.3l-.1 1.2h-.5v-.8c-.5 0-.9.4-1.2 1.2v1.5h.7v.4h-1.9v-.4h.6v-2.7h-.6v-.4h1l.1.8c.3-.6.6-.9 1.3-.9.3 0 .4.1.6.1zM4356.8 628c-.8 0-1.2-.4-1.2-1.1v-2.1h-.8v-.4h.8v-.8l.6-.1v.9h1.2l-.1.4h-1.2v2.1c0 .4.2.6.7.6.3 0 .5-.1.7-.2l.2.4c-.2.2-.5.3-.9.3zM4360.8 627.4h1v.5h-2.7v-.5h1.1v-2.7h-1.1v-.5h1.6v3.2zm0-4.3c0 .2-.2.4-.4.4s-.4-.2-.4-.4.2-.4.4-.4.4.1.4.4zM4366 626.1c0 1.1-.5 1.9-1.5 1.9s-1.5-.7-1.5-1.9c0-1.1.5-1.9 1.5-1.9.9 0 1.5.8 1.5 1.9zm-2.5 0c0 .9.3 1.4.9 1.4.6 0 .9-.4.9-1.4 0-.9-.3-1.4-.9-1.4-.6 0-.9.5-.9 1.4zM4367.1 624.3h.5v.5c.3-.4.8-.6 1.2-.6.7 0 1 .4 1 1.1v2.6h-.6v-2.2c0-.7-.1-1-.6-1-.4 0-.8.3-1 .6v2.6h-.6v-3.6zM4373.3 626.9c0-.3-.1-.5-.9-.7-.7-.2-1.2-.4-1.2-1s.5-1 1.4-1c.6 0 1 .2 1.3.4l-.3.4c-.3-.2-.6-.3-1-.3-.6 0-.8.2-.8.5s.2.4.9.6c.7.2 1.2.4 1.2 1.1 0 .8-.7 1.1-1.5 1.1-.7 0-1.1-.2-1.4-.5l.3-.4c.3.2.7.4 1.1.4.6 0 .9-.2.9-.6zM4375 628.4l2.9-6 .5.2-2.9 6-.5-.2z"/></g><g class="st2"><path d="M4307 635.7l-.1.4c-.3 0-.6-.2-.7-.5-.3.3-.7.5-1.1.5-.7 0-1.2-.4-1.2-1.1 0-.7.6-1.1 1.7-1.1h.5v-.3c0-.5-.3-.7-.8-.7-.2 0-.6.1-.9.2l-.2-.4c.4-.2.8-.2 1.2-.2.9 0 1.3.4 1.3 1.2v1.7c0 .1.1.2.3.3zm-.9-.5v-.9h-.5c-.8 0-1.1.3-1.1.7 0 .4.2.7.7.7.4 0 .7-.2.9-.5zM4309.6 635.1c0 .4.2.5.6.5.2 0 .4 0 .6-.1l.1.4c-.2.1-.5.2-.8.2-.6 0-1.1-.4-1.1-1v-3.6h-1.1v-.5h1.7v4.1zM4313.7 635.1c0 .4.2.5.6.5.2 0 .4 0 .6-.1l.1.4c-.2.1-.5.2-.8.2-.6 0-1.1-.4-1.1-1v-3.6h-1.1v-.5h1.7v4.1zM4316.3 633.7h2.7v.5h-2.7v-.5zM4323.3 634.2c0 1.1-.4 1.9-1.4 1.9-.4 0-.7-.1-.9-.4v1.7l-.6.1v-5h.5v.5c.3-.4.6-.6 1.1-.6.9 0 1.3.7 1.3 1.8zm-2.3-.8v1.8c.2.3.5.4.8.4.6 0 .9-.4.9-1.4 0-.9-.3-1.4-.8-1.4-.4 0-.7.3-.9.6zM4327.4 632.5l-.1 1.2h-.5v-.8c-.5 0-.9.4-1.2 1.2v1.5h.7v.4h-1.9v-.4h.6v-2.7h-.6v-.4h1l.1.8c.3-.6.6-.9 1.3-.9.3 0 .4 0 .6.1zM4331.4 634.2c0 1.1-.5 1.9-1.5 1.9s-1.5-.7-1.5-1.9c0-1.1.5-1.9 1.5-1.9 1 .1 1.5.8 1.5 1.9zm-2.4 0c0 .9.3 1.4.9 1.4.6 0 .9-.4.9-1.4 0-.9-.3-1.4-.9-1.4-.6 0-.9.5-.9 1.4zM4335.5 634.2c0 1.1-.4 1.9-1.4 1.9-.4 0-.7-.1-.9-.4v1.7l-.6.1v-5h.5v.5c.3-.4.6-.6 1.1-.6.9 0 1.3.7 1.3 1.8zm-2.3-.8v1.8c.2.3.5.4.8.4.6 0 .9-.4.9-1.4 0-.9-.3-1.4-.8-1.4-.4 0-.7.3-.9.6zM4338.8 635.1c0-.3-.1-.5-.9-.7-.7-.2-1.2-.4-1.2-1s.5-1 1.4-1c.6 0 1 .2 1.3.4l-.3.4c-.3-.2-.6-.3-1-.3-.6 0-.8.2-.8.5s.2.4.9.6c.7.2 1.2.4 1.2 1.1 0 .8-.7 1.1-1.5 1.1-.7 0-1.1-.2-1.4-.5l.3-.4c.3.2.7.4 1.1.4.5-.1.9-.3.9-.6zM4340.7 633.7h2.7v.5h-2.7v-.5zM4347.6 635.7l-.1.4c-.3 0-.6-.2-.7-.5-.3.3-.7.5-1.1.5-.7 0-1.2-.4-1.2-1.1 0-.7.6-1.1 1.7-1.1h.5v-.3c0-.5-.3-.7-.8-.7-.2 0-.6.1-.9.2l-.2-.4c.4-.2.8-.2 1.2-.2.9 0 1.3.4 1.3 1.2v1.7c0 .1.1.2.3.3zm-.8-.5v-.9h-.5c-.8 0-1.1.3-1.1.7 0 .4.2.7.7.7.3 0 .7-.2.9-.5zM4351.8 632.5l-.1 1.2h-.5v-.8c-.5 0-.9.4-1.2 1.2v1.5h.7v.4h-1.9v-.4h.6v-2.7h-.6v-.4h1l.1.8c.3-.6.6-.9 1.3-.9.3 0 .4 0 .6.1zM4354.4 635.6c.4 0 .6-.1 1-.3l.3.4c-.3.3-.8.4-1.2.4-1 0-1.6-.7-1.6-1.9 0-1.1.6-1.9 1.6-1.9.9 0 1.5.7 1.5 1.8v.3h-2.4c-.2.9.3 1.2.8 1.2zm-1-1.6h1.9c0-.8-.4-1.2-.9-1.2-.6 0-1 .4-1 1.2zM4357 633.7h2.7v.5h-2.7v-.5zM4364.1 631.1l-.2.4c-.2-.1-.5-.1-.8-.1-.5 0-.7.2-.7.6v.7h1.2l-.1.5h-1.1v2.8h-.6v-2.8h-.8v-.5h.8v-.7c0-.7.6-1.1 1.3-1.1.4 0 .7.1 1 .2zM4365.7 635c0 .5.2.7.6.7.4 0 .8-.3 1-.6v-2.6h.6v3.6h-.5v-.5c-.3.4-.7.6-1.1.6-.7 0-1-.4-1-1v-2.6h.6v2.4zM4369.2 632.5h.5v.5c.3-.4.8-.6 1.2-.6.7 0 1 .4 1 1.1v2.6h-.6v-2.2c0-.7-.1-1-.6-1-.4 0-.8.3-1 .6v2.6h-.6v-3.6zM4375.8 635.3l.3.4c-.3.3-.8.4-1.2.4-1.1 0-1.7-.7-1.7-1.8s.6-1.9 1.7-1.9c.5 0 .9.1 1.2.4l-.3.4c-.3-.2-.6-.3-.9-.3-.6 0-1.1.5-1.1 1.4 0 1 .4 1.4 1.1 1.4.3-.1.6-.2.9-.4zM4379.2 636.1c-.8 0-1.2-.4-1.2-1.1v-2.1h-.8v-.4h.8v-.8l.6-.1v.9h1.2l-.1.4h-1.2v2.1c0 .4.2.6.7.6.3 0 .5-.1.7-.2l.2.4c-.2.2-.6.3-.9.3zM4383.2 635.6h1v.5h-2.7v-.5h1.1v-2.7h-1.1v-.5h1.6v3.2zm0-4.4c0 .2-.2.4-.4.4s-.4-.2-.4-.4.2-.4.4-.4.4.2.4.4zM4388.3 634.2c0 1.1-.5 1.9-1.5 1.9s-1.5-.7-1.5-1.9c0-1.1.5-1.9 1.5-1.9 1 .1 1.5.8 1.5 1.9zm-2.4 0c0 .9.3 1.4.9 1.4.6 0 .9-.4.9-1.4 0-.9-.3-1.4-.9-1.4-.6 0-.9.5-.9 1.4zM4389.5 632.5h.5v.5c.3-.4.8-.6 1.2-.6.7 0 1 .4 1 1.1v2.6h-.6v-2.2c0-.7-.1-1-.6-1-.4 0-.8.3-1 .6v2.6h-.6v-3.6zM4395.7 635.1c0-.3-.1-.5-.9-.7-.7-.2-1.2-.4-1.2-1s.5-1 1.4-1c.6 0 1 .2 1.3.4l-.3.4c-.3-.2-.6-.3-1-.3-.6 0-.8.2-.8.5s.2.4.9.6c.7.2 1.2.4 1.2 1.1 0 .8-.7 1.1-1.5 1.1-.7 0-1.1-.2-1.4-.5l.3-.4c.3.2.7.4 1.1.4.5-.1.9-.3.9-.6zM4399 634.9c.3 0 .6.3.6.6s-.3.6-.6.6-.6-.3-.6-.6.2-.6.6-.6zM4404 635.5c0 1.2-.8 1.8-2.3 2l-.1-.4c1.1-.2 1.8-.6 1.8-1.5V633h-1.5v-.5h2.1v3zm-.1-4.3c0 .2-.2.4-.4.4s-.4-.2-.4-.4.2-.4.4-.4c.3 0 .4.2.4.4zM4407.9 635.1c0-.3-.1-.5-.9-.7-.7-.2-1.2-.4-1.2-1s.5-1 1.4-1c.6 0 1 .2 1.3.4l-.3.4c-.3-.2-.6-.3-1-.3-.6 0-.8.2-.8.5s.2.4.9.6c.7.2 1.2.4 1.2 1.1 0 .8-.7 1.1-1.5 1.1-.7 0-1.1-.2-1.4-.5l.3-.4c.3.2.7.4 1.1.4.5-.1.9-.3.9-.6z"/></g><path class="st1" d="M4359.1 575.1c1.8-40.7 3.9-97.7 3.9-147.7V326c0-55.7-3-81.2 37.3-119.6 19.5-18.6 90.5-32.8 136.9-40.3"/><path class="st0" d="M4536.7 163.8l7.1 1.3-6.3 3.4-.8-4.7z"/><ellipse class="st9" cx="4475.9" cy="629.9" rx="54.9" ry="54.9"/><g class="st2"><path d="M4457.1 627.6l-.1.4c-.3 0-.6-.2-.7-.5-.3.3-.7.5-1.1.5-.7 0-1.2-.4-1.2-1.1 0-.7.6-1.1 1.7-1.1h.5v-.3c0-.5-.3-.7-.8-.7-.2 0-.6.1-.9.2l-.2-.4c.4-.2.8-.2 1.2-.2.9 0 1.3.4 1.3 1.2v1.7c0 .1.1.2.3.3zm-.9-.6v-.9h-.5c-.8 0-1.1.3-1.1.7 0 .4.2.7.7.7.4 0 .7-.2.9-.5zM4460.4 626.9c0-.3-.1-.5-.9-.7-.7-.2-1.2-.4-1.2-1s.5-1 1.4-1c.6 0 1 .2 1.3.4l-.3.4c-.3-.2-.6-.3-1-.3-.6 0-.8.2-.8.5s.2.4.9.6c.7.2 1.2.4 1.2 1.1 0 .8-.7 1.1-1.5 1.1-.7 0-1.1-.2-1.4-.5l.3-.4c.3.2.7.4 1.1.4.5 0 .9-.2.9-.6zM4464.4 626.9c0-.3-.1-.5-.9-.7-.7-.2-1.2-.4-1.2-1s.5-1 1.4-1c.6 0 1 .2 1.3.4l-.3.4c-.3-.2-.6-.3-1-.3-.6 0-.8.2-.8.5s.2.4.9.6c.7.2 1.2.4 1.2 1.1 0 .8-.7 1.1-1.5 1.1-.7 0-1.1-.2-1.4-.5l.3-.4c.3.2.7.4 1.1.4.6 0 .9-.2.9-.6zM4467.9 627.5c.4 0 .6-.1 1-.3l.3.4c-.3.3-.8.4-1.2.4-1 0-1.6-.7-1.6-1.9 0-1.1.6-1.9 1.6-1.9.9 0 1.5.7 1.5 1.8v.3h-2.4c-.2.8.3 1.2.8 1.2zm-1-1.6h1.9c0-.8-.4-1.2-.9-1.2-.6 0-1 .4-1 1.2zM4473.4 624.3l-.1 1.2h-.5v-.8c-.5 0-.9.4-1.2 1.2v1.5h.7v.4h-1.9v-.4h.6v-2.7h-.6v-.4h1l.1.8c.3-.6.6-.9 1.3-.9.3 0 .4.1.6.1zM4476.4 628c-.8 0-1.2-.4-1.2-1.1v-2.1h-.8v-.4h.8v-.8l.6-.1v.9h1.2l-.1.4h-1.2v2.1c0 .4.2.6.7.6.3 0 .5-.1.7-.2l.2.4c-.2.2-.5.3-.9.3zM4480.4 627.4h1v.5h-2.7v-.5h1.1v-2.7h-1.1v-.5h1.6v3.2zm0-4.3c0 .2-.2.4-.4.4s-.4-.2-.4-.4.2-.4.4-.4.4.1.4.4zM4485.6 626.1c0 1.1-.5 1.9-1.5 1.9s-1.5-.7-1.5-1.9c0-1.1.5-1.9 1.5-1.9.9 0 1.5.8 1.5 1.9zm-2.5 0c0 .9.3 1.4.9 1.4.6 0 .9-.4.9-1.4 0-.9-.3-1.4-.9-1.4-.6 0-.9.5-.9 1.4zM4486.7 624.3h.5v.5c.3-.4.8-.6 1.2-.6.7 0 1 .4 1 1.1v2.6h-.6v-2.2c0-.7-.1-1-.6-1-.4 0-.8.3-1 .6v2.6h-.6v-3.6zM4492.9 626.9c0-.3-.1-.5-.9-.7-.7-.2-1.2-.4-1.2-1s.5-1 1.4-1c.6 0 1 .2 1.3.4l-.3.4c-.3-.2-.6-.3-1-.3-.6 0-.8.2-.8.5s.2.4.9.6c.7.2 1.2.4 1.2 1.1 0 .8-.7 1.1-1.5 1.1-.7 0-1.1-.2-1.4-.5l.3-.4c.3.2.7.4 1.1.4.6 0 .9-.2.9-.6zM4494.6 628.4l2.9-6 .5.2-2.9 6-.5-.2z"/></g><g class="st2"><path d="M4448.4 635.5c0 1.2-.8 1.8-2.3 2l-.1-.4c1.1-.2 1.8-.6 1.8-1.5V633h-1.5v-.5h2.1v3zm-.1-4.3c0 .2-.2.4-.4.4s-.4-.2-.4-.4.2-.4.4-.4.4.2.4.4zM4450.7 635c0 .5.2.7.6.7.4 0 .8-.3 1-.6v-2.6h.6v3.6h-.5v-.5c-.3.4-.7.6-1.1.6-.7 0-1-.4-1-1v-2.6h.6v2.4zM4456.9 631v5h-.5l-.1-.5c-.3.4-.6.5-1 .5-.9 0-1.4-.7-1.4-1.9 0-1.1.5-1.9 1.4-1.9.4 0 .7.1 1 .4v-1.9l.6.3zm-2.3 3.2c0 .9.3 1.4.9 1.4.4 0 .7-.3.9-.6v-1.8c-.2-.3-.5-.5-.8-.5-.6.1-1 .6-1 1.5zM4461.4 632.6c-.3.1-.6.1-1 .1.4.2.6.5.6.9 0 .7-.5 1.2-1.3 1.2-.2 0-.4 0-.5-.1-.1.1-.2.2-.2.3 0 .2.1.3.5.3h.6c.7 0 1.3.4 1.3 1 0 .7-.6 1.1-1.7 1.1s-1.5-.4-1.5-1.1h.5c0 .4.2.6 1 .6s1.1-.2 1.1-.6c0-.3-.3-.5-.8-.5h-.6c-.6 0-.9-.3-.9-.7 0-.2.1-.5.4-.6-.4-.2-.6-.5-.6-1 0-.7.6-1.2 1.4-1.2.9 0 1.2-.1 1.6-.3l.1.6zm-2.7 1c0 .5.3.8.8.8s.8-.3.8-.8-.3-.8-.8-.8-.8.3-.8.8zM4463.8 635.6c.4 0 .6-.1 1-.3l.3.4c-.3.3-.8.4-1.2.4-1 0-1.6-.7-1.6-1.9 0-1.1.6-1.9 1.6-1.9.9 0 1.5.7 1.5 1.8v.3h-2.4c-.2.9.3 1.2.8 1.2zm-1-1.6h1.9c0-.8-.4-1.2-.9-1.2-.6 0-1 .4-1 1.2zM4466.4 633.7h2.7v.5h-2.7v-.5zM4473.4 634.2c0 1.1-.5 1.9-1.5 1.9s-1.5-.7-1.5-1.9c0-1.1.5-1.9 1.5-1.9.9.1 1.5.8 1.5 1.9zm-2.5 0c0 .9.3 1.4.9 1.4.6 0 .9-.4.9-1.4 0-.9-.3-1.4-.9-1.4-.6 0-.9.5-.9 1.4zM4476.1 632.4c.9 0 1.3.7 1.3 1.9 0 1.1-.5 1.9-1.4 1.9-.4 0-.7-.1-1-.4v.4h-.5v-5l.6-.1v2c.3-.5.6-.7 1-.7zm.8 1.8c0-.9-.3-1.4-.8-1.4-.4 0-.7.3-.9.6v1.8c.2.3.5.5.8.5.5-.1.9-.5.9-1.5zM4480.9 635.5c0 1.2-.8 1.8-2.3 2l-.1-.4c1.1-.2 1.8-.6 1.8-1.5V633h-1.5v-.5h2.1v3zm-.1-4.3c0 .2-.2.4-.4.4s-.4-.2-.4-.4.2-.4.4-.4c.3 0 .4.2.4.4zM4484.2 635.6c.4 0 .6-.1 1-.3l.3.4c-.3.3-.8.4-1.2.4-1 0-1.6-.7-1.6-1.9 0-1.1.6-1.9 1.6-1.9.9 0 1.5.7 1.5 1.8v.3h-2.4c-.2.9.2 1.2.8 1.2zm-1.1-1.6h1.9c0-.8-.4-1.2-.9-1.2s-.9.4-1 1.2zM4489.3 635.3l.3.4c-.3.3-.8.4-1.2.4-1.1 0-1.7-.7-1.7-1.8s.6-1.9 1.7-1.9c.5 0 .9.1 1.2.4l-.3.4c-.3-.2-.6-.3-.9-.3-.6 0-1.1.5-1.1 1.4 0 1 .4 1.4 1.1 1.4.3-.1.6-.2.9-.4zM4492.7 636.1c-.8 0-1.2-.4-1.2-1.1v-2.1h-.8v-.4h.8v-.8l.6-.1v.9h1.2l-.1.4h-1.2v2.1c0 .4.2.6.7.6.3 0 .5-.1.7-.2l.2.4c-.2.2-.6.3-.9.3zM4496.2 634.9c.3 0 .6.3.6.6s-.3.6-.6.6-.6-.3-.6-.6.3-.6.6-.6zM4501.3 635.5c0 1.2-.8 1.8-2.3 2l-.1-.4c1.1-.2 1.8-.6 1.8-1.5V633h-1.5v-.5h2.1v3zm-.1-4.3c0 .2-.2.4-.4.4s-.4-.2-.4-.4.2-.4.4-.4.4.2.4.4zM4505.1 635.1c0-.3-.1-.5-.9-.7-.7-.2-1.2-.4-1.2-1s.5-1 1.4-1c.6 0 1 .2 1.3.4l-.3.4c-.3-.2-.6-.3-1-.3-.6 0-.8.2-.8.5s.2.4.9.6c.7.2 1.2.4 1.2 1.1 0 .8-.7 1.1-1.5 1.1-.7 0-1.1-.2-1.4-.5l.3-.4c.3.2.7.4 1.1.4.6-.1.9-.3.9-.6z"/></g><path class="st1" d="M4444.3 585c-24.7-39.6-54.8-99.8-54.8-157.6V326.1c0-79.1 94.5-129.3 150-151.9"/><path class="st0" d="M4538.7 171.9l7.2-.3-5.4 4.7-1.8-4.4z"/><ellipse class="st9" cx="4459.3" cy="427.3" rx="54.9" ry="54.9"/><g class="st2"><path d="M4440.5 425l-.1.4c-.3 0-.6-.2-.7-.5-.3.3-.7.5-1.1.5-.7 0-1.2-.4-1.2-1.1 0-.7.6-1.1 1.7-1.1h.5v-.3c0-.5-.3-.7-.8-.7-.2 0-.6.1-.9.2l-.2-.4c.4-.2.8-.2 1.2-.2.9 0 1.3.4 1.3 1.2v1.7c0 .1.1.2.3.3zm-.9-.6v-.9h-.5c-.8 0-1.1.3-1.1.7 0 .4.2.7.7.7.4 0 .7-.1.9-.5zM4443.8 424.3c0-.3-.1-.5-.9-.7-.7-.2-1.2-.4-1.2-1s.5-1 1.4-1c.6 0 1 .2 1.3.4l-.3.4c-.3-.2-.6-.3-1-.3-.6 0-.8.2-.8.5s.2.4.9.6c.7.2 1.2.4 1.2 1.1 0 .8-.7 1.1-1.5 1.1-.7 0-1.1-.2-1.4-.5l.3-.4c.3.2.7.4 1.1.4.5 0 .9-.2.9-.6zM4447.8 424.3c0-.3-.1-.5-.9-.7-.7-.2-1.2-.4-1.2-1s.5-1 1.4-1c.6 0 1 .2 1.3.4l-.3.4c-.3-.2-.6-.3-1-.3-.6 0-.8.2-.8.5s.2.4.9.6c.7.2 1.2.4 1.2 1.1 0 .8-.7 1.1-1.5 1.1-.7 0-1.1-.2-1.4-.5l.3-.4c.3.2.7.4 1.1.4.6 0 .9-.2.9-.6zM4451.3 424.9c.4 0 .6-.1 1-.3l.3.4c-.3.3-.8.4-1.2.4-1 0-1.6-.7-1.6-1.9 0-1.1.6-1.9 1.6-1.9.9 0 1.5.7 1.5 1.8v.3h-2.4c-.2.8.3 1.2.8 1.2zm-1-1.6h1.9c0-.8-.4-1.2-.9-1.2-.6 0-1 .4-1 1.2zM4456.8 421.7l-.1 1.2h-.5v-.8c-.5 0-.9.4-1.2 1.2v1.5h.7v.4h-1.9v-.4h.6v-2.7h-.6v-.4h1l.1.8c.3-.6.6-.9 1.3-.9.3.1.4.1.6.1zM4459.8 425.4c-.8 0-1.2-.4-1.2-1.1v-2.1h-.8v-.4h.8v-.8l.6-.1v.9h1.2l-.1.4h-1.2v2.1c0 .4.2.6.7.6.3 0 .5-.1.7-.2l.2.4c-.2.2-.5.3-.9.3zM4463.8 424.8h1v.5h-2.7v-.5h1.1v-2.7h-1.1v-.5h1.6v3.2zm0-4.3c0 .2-.2.4-.4.4s-.4-.2-.4-.4.2-.4.4-.4.4.1.4.4zM4469 423.5c0 1.1-.5 1.9-1.5 1.9s-1.5-.7-1.5-1.9c0-1.1.5-1.9 1.5-1.9.9.1 1.5.8 1.5 1.9zm-2.5 0c0 .9.3 1.4.9 1.4.6 0 .9-.4.9-1.4 0-.9-.3-1.4-.9-1.4-.6 0-.9.5-.9 1.4zM4470.1 421.7h.5v.5c.3-.4.8-.6 1.2-.6.7 0 1 .4 1 1.1v2.6h-.6v-2.2c0-.7-.1-1-.6-1-.4 0-.8.3-1 .6v2.6h-.6v-3.6zM4476.3 424.3c0-.3-.1-.5-.9-.7-.7-.2-1.2-.4-1.2-1s.5-1 1.4-1c.6 0 1 .2 1.3.4l-.3.4c-.3-.2-.6-.3-1-.3-.6 0-.8.2-.8.5s.2.4.9.6c.7.2 1.2.4 1.2 1.1 0 .8-.7 1.1-1.5 1.1-.7 0-1.1-.2-1.4-.5l.3-.4c.3.2.7.4 1.1.4.6 0 .9-.2.9-.6zM4477.9 425.8l2.9-6 .5.2-2.9 6-.5-.2z"/></g><g class="st2"><path d="M4416.1 429.9l-.1 1.2h-.5v-.8c-.5 0-.9.4-1.2 1.2v1.5h.7v.4h-1.9v-.4h.6v-2.7h-.6v-.4h1l.1.8c.3-.6.6-.9 1.3-.9.3 0 .5 0 .6.1zM4418.8 433c.4 0 .6-.1 1-.3l.3.4c-.3.3-.8.4-1.2.4-1 0-1.6-.7-1.6-1.9 0-1.1.6-1.9 1.6-1.9.9 0 1.5.7 1.5 1.8v.3h-2.4c-.2.9.2 1.2.8 1.2zm-1.1-1.6h1.9c0-.8-.4-1.2-.9-1.2-.5.1-.9.4-1 1.2zM4423.7 432.9c0 1.2-.8 1.8-2.3 2l-.1-.4c1.1-.2 1.8-.6 1.8-1.5v-2.6h-1.5v-.5h2.1v3zm-.1-4.3c0 .2-.2.4-.4.4s-.4-.2-.4-.4.2-.4.4-.4.4.2.4.4zM4426.9 433c.4 0 .6-.1 1-.3l.3.4c-.3.3-.8.4-1.2.4-1 0-1.6-.7-1.6-1.9 0-1.1.6-1.9 1.6-1.9.9 0 1.5.7 1.5 1.8v.3h-2.4c-.2.9.3 1.2.8 1.2zm-1-1.6h1.9c0-.8-.4-1.2-.9-1.2-.6.1-1 .4-1 1.2zM4432 432.7l.3.4c-.3.3-.8.4-1.2.4-1.1 0-1.7-.7-1.7-1.8s.6-1.9 1.7-1.9c.5 0 .9.1 1.2.4l-.3.4c-.3-.2-.6-.3-.9-.3-.6 0-1.1.5-1.1 1.4 0 1 .4 1.4 1.1 1.4.4-.1.7-.2.9-.4zM4435.4 433.5c-.8 0-1.2-.4-1.2-1.1v-2.1h-.8v-.4h.8v-.8l.6-.1v.9h1.2l-.1.4h-1.2v2.1c0 .4.2.6.7.6.3 0 .5-.1.7-.2l.2.4c-.2.2-.5.3-.9.3zM4437.6 431.1h2.7v.5h-2.7v-.5zM4441.7 429.9h.5v.5c.3-.4.8-.6 1.2-.6.7 0 1 .4 1 1.1v2.6h-.6v-2.2c0-.7-.1-1-.6-1-.4 0-.8.3-1 .6v2.6h-.6v-3.6zM4448.6 431.6c0 1.1-.5 1.9-1.5 1.9s-1.5-.7-1.5-1.9c0-1.1.5-1.9 1.5-1.9 1 .1 1.5.8 1.5 1.9zm-2.4 0c0 .9.3 1.4.9 1.4.6 0 .9-.4.9-1.4 0-.9-.3-1.4-.9-1.4-.6.1-.9.5-.9 1.4zM4449.8 429.9h.5v.5c.3-.4.8-.6 1.2-.6.7 0 1 .4 1 1.1v2.6h-.6v-2.2c0-.7-.1-1-.6-1-.4 0-.8.3-1 .6v2.6h-.6v-3.6zM4453.9 431.1h2.7v.5h-2.7v-.5zM4461 428.5l-.2.4c-.2-.1-.5-.1-.8-.1-.5 0-.7.2-.7.6v.7h1.2l-.1.5h-1.1v2.8h-.6v-2.8h-.8v-.5h.8v-.7c0-.7.6-1.1 1.3-1.1.4.1.7.1 1 .2zM4462.6 432.4c0 .5.2.7.6.7.4 0 .8-.3 1-.6v-2.6h.6v3.6h-.5v-.5c-.3.4-.7.6-1.1.6-.7 0-1-.4-1-1.1v-2.6h.6v2.5zM4466.1 429.9h.5v.5c.3-.4.8-.6 1.2-.6.7 0 1 .4 1 1.1v2.6h-.6v-2.2c0-.7-.1-1-.6-1-.4 0-.8.3-1 .6v2.6h-.6v-3.6zM4472.7 432.7l.3.4c-.3.3-.8.4-1.2.4-1.1 0-1.7-.7-1.7-1.8s.6-1.9 1.7-1.9c.5 0 .9.1 1.2.4l-.3.4c-.3-.2-.6-.3-.9-.3-.6 0-1.1.5-1.1 1.4 0 1 .4 1.4 1.1 1.4.3-.1.6-.2.9-.4zM4476.1 433.5c-.8 0-1.2-.4-1.2-1.1v-2.1h-.8v-.4h.8v-.8l.6-.1v.9h1.2l-.1.4h-1.2v2.1c0 .4.2.6.7.6.3 0 .5-.1.7-.2l.2.4c-.2.2-.6.3-.9.3zM4480.1 433h1v.5h-2.7v-.5h1.1v-2.7h-1.1v-.5h1.6v3.2zm-.1-4.4c0 .2-.2.4-.4.4s-.4-.2-.4-.4.2-.4.4-.4c.3 0 .4.2.4.4zM4485.2 431.6c0 1.1-.5 1.9-1.5 1.9s-1.5-.7-1.5-1.9c0-1.1.5-1.9 1.5-1.9 1 .1 1.5.8 1.5 1.9zm-2.4 0c0 .9.3 1.4.9 1.4.6 0 .9-.4.9-1.4 0-.9-.3-1.4-.9-1.4-.6.1-.9.5-.9 1.4zM4486.4 429.9h.5v.5c.3-.4.8-.6 1.2-.6.7 0 1 .4 1 1.1v2.6h-.6v-2.2c0-.7-.1-1-.6-1-.4 0-.8.3-1 .6v2.6h-.6v-3.6zM4492.6 432.5c0-.3-.1-.5-.9-.7-.7-.2-1.2-.4-1.2-1s.5-1 1.4-1c.6 0 1 .2 1.3.4l-.3.4c-.3-.2-.6-.3-1-.3-.6 0-.8.2-.8.5s.2.4.9.6c.7.2 1.2.4 1.2 1.1 0 .8-.7 1.1-1.5 1.1-.7 0-1.1-.2-1.4-.5l.3-.4c.3.2.7.4 1.1.4.5-.1.9-.3.9-.6zM4495.9 432.3c.3 0 .6.3.6.6s-.3.6-.6.6-.6-.3-.6-.6.2-.6.6-.6zM4500.9 432.9c0 1.2-.8 1.8-2.3 2l-.1-.4c1.1-.2 1.8-.6 1.8-1.5v-2.6h-1.5v-.5h2.1v3zm-.1-4.3c0 .2-.2.4-.4.4s-.4-.2-.4-.4.2-.4.4-.4c.3 0 .4.2.4.4zM4504.8 432.5c0-.3-.1-.5-.9-.7-.7-.2-1.2-.4-1.2-1s.5-1 1.4-1c.6 0 1 .2 1.3.4l-.3.4c-.3-.2-.6-.3-1-.3-.6 0-.8.2-.8.5s.2.4.9.6c.7.2 1.2.4 1.2 1.1 0 .8-.7 1.1-1.5 1.1-.7 0-1.1-.2-1.4-.5l.3-.4c.3.2.7.4 1.1.4.5-.1.9-.3.9-.6z"/></g><path class="st1" d="M4481.7 377.2c22.9-51.3 58.1-129.9 79.3-177.2"/><path class="st0" d="M4558.9 199l4.9-5.2-.6 7.2-4.3-2z"/><ellipse class="st9" cx="4578.9" cy="427.3" rx="54.9" ry="54.9"/><g class="st2"><path d="M4566.8 424.9c.4 0 .6-.1 1-.3l.3.4c-.3.3-.8.4-1.2.4-1 0-1.6-.7-1.6-1.9 0-1.1.6-1.9 1.6-1.9.9 0 1.5.7 1.5 1.8v.3h-2.4c-.2.8.3 1.2.8 1.2zm-1-1.6h1.9c0-.8-.4-1.2-.9-1.2-.6 0-1 .4-1 1.2zM4572.3 421.7l-.1 1.2h-.5v-.8c-.5 0-.9.4-1.2 1.2v1.5h.7v.4h-1.9v-.4h.6v-2.7h-.6v-.4h1l.1.8c.3-.6.6-.9 1.3-.9.3.1.5.1.6.1zM4576.4 421.7l-.1 1.2h-.5v-.8c-.5 0-.9.4-1.2 1.2v1.5h.7v.4h-1.9v-.4h.6v-2.7h-.6v-.4h1l.1.8c.3-.6.6-.9 1.3-.9.3.1.4.1.6.1zM4580.4 423.5c0 1.1-.5 1.9-1.5 1.9s-1.5-.7-1.5-1.9c0-1.1.5-1.9 1.5-1.9 1 .1 1.5.8 1.5 1.9zm-2.4 0c0 .9.3 1.4.9 1.4.6 0 .9-.4.9-1.4 0-.9-.3-1.4-.9-1.4-.6 0-.9.5-.9 1.4zM4584.5 421.7l-.1 1.2h-.5v-.8c-.5 0-.9.4-1.2 1.2v1.5h.7v.4h-1.9v-.4h.6v-2.7h-.6v-.4h1l.1.8c.3-.6.6-.9 1.3-.9.3.1.5.1.6.1zM4587.8 424.3c0-.3-.1-.5-.9-.7-.7-.2-1.2-.4-1.2-1s.5-1 1.4-1c.6 0 1 .2 1.3.4l-.3.4c-.3-.2-.6-.3-1-.3-.6 0-.8.2-.8.5s.2.4.9.6c.7.2 1.2.4 1.2 1.1 0 .8-.7 1.1-1.5 1.1-.7 0-1.1-.2-1.4-.5l.3-.4c.3.2.7.4 1.1.4.5 0 .9-.2.9-.6zM4589.4 425.8l2.9-6 .5.2-2.9 6-.5-.2z"/></g><g class="st2"><path d="M4532.3 433c.4 0 .6-.1 1-.3l.3.4c-.3.3-.8.4-1.2.4-1 0-1.6-.7-1.6-1.9 0-1.1.6-1.9 1.6-1.9.9 0 1.5.7 1.5 1.8v.3h-2.4c-.2.9.2 1.2.8 1.2zm-1.1-1.6h1.9c0-.8-.4-1.2-.9-1.2-.5.1-.9.4-1 1.2zM4534.5 433.4l1.3-1.9-1.2-1.7h.7l.8 1.3.8-1.3h.7l-1.2 1.7 1.3 1.9h-.7l-1-1.5-1 1.5h-.5zM4541.8 431.6c0 1.1-.4 1.9-1.4 1.9-.4 0-.7-.1-.9-.4v1.7l-.6.1v-5h.5v.5c.3-.4.6-.6 1.1-.6 1 0 1.3.7 1.3 1.8zm-2.3-.8v1.8c.2.3.5.4.8.4.6 0 .9-.4.9-1.4 0-.9-.3-1.4-.8-1.4-.4 0-.7.3-.9.6zM4544.5 433c.4 0 .6-.1 1-.3l.3.4c-.3.3-.8.4-1.2.4-1 0-1.6-.7-1.6-1.9 0-1.1.6-1.9 1.6-1.9.9 0 1.5.7 1.5 1.8v.3h-2.4c-.2.9.2 1.2.8 1.2zm-1.1-1.6h1.9c0-.8-.4-1.2-.9-1.2-.5.1-.9.4-1 1.2zM4549.6 432.7l.3.4c-.3.3-.8.4-1.2.4-1.1 0-1.7-.7-1.7-1.8s.6-1.9 1.7-1.9c.5 0 .9.1 1.2.4l-.3.4c-.3-.2-.6-.3-.9-.3-.6 0-1.1.5-1.1 1.4 0 1 .4 1.4 1.1 1.4.3-.1.6-.2.9-.4zM4553 433.5c-.8 0-1.2-.4-1.2-1.1v-2.1h-.8v-.4h.8v-.8l.6-.1v.9h1.2l-.1.4h-1.2v2.1c0 .4.2.6.7.6.3 0 .5-.1.7-.2l.2.4c-.2.2-.6.3-.9.3zM4555.2 431.1h2.7v.5h-2.7v-.5zM4562.3 428.5l-.2.4c-.2-.1-.5-.1-.8-.1-.5 0-.7.2-.7.6v.7h1.2l-.1.5h-1.1v2.8h-.6v-2.8h-.8v-.5h.8v-.7c0-.7.6-1.1 1.3-1.1.4.1.7.1 1 .2zM4563.9 432.4c0 .5.2.7.6.7.4 0 .8-.3 1-.6v-2.6h.6v3.6h-.5v-.5c-.3.4-.7.6-1.1.6-.7 0-1-.4-1-1.1v-2.6h.6v2.5zM4567.4 429.9h.5v.5c.3-.4.8-.6 1.2-.6.7 0 1 .4 1 1.1v2.6h-.6v-2.2c0-.7-.1-1-.6-1-.4 0-.8.3-1 .6v2.6h-.6v-3.6zM4574 432.7l.3.4c-.3.3-.8.4-1.2.4-1.1 0-1.7-.7-1.7-1.8s.6-1.9 1.7-1.9c.5 0 .9.1 1.2.4l-.3.4c-.3-.2-.6-.3-.9-.3-.6 0-1.1.5-1.1 1.4 0 1 .4 1.4 1.1 1.4.3-.1.6-.2.9-.4zM4577.4 433.5c-.8 0-1.2-.4-1.2-1.1v-2.1h-.8v-.4h.8v-.8l.6-.1v.9h1.2l-.1.4h-1.2v2.1c0 .4.2.6.7.6.3 0 .5-.1.7-.2l.2.4c-.2.2-.6.3-.9.3zM4581.4 433h1v.5h-2.7v-.5h1.1v-2.7h-1.1v-.5h1.6v3.2zm-.1-4.4c0 .2-.2.4-.4.4s-.4-.2-.4-.4.2-.4.4-.4c.3 0 .4.2.4.4zM4586.5 431.6c0 1.1-.5 1.9-1.5 1.9s-1.5-.7-1.5-1.9c0-1.1.5-1.9 1.5-1.9 1 .1 1.5.8 1.5 1.9zm-2.4 0c0 .9.3 1.4.9 1.4.6 0 .9-.4.9-1.4 0-.9-.3-1.4-.9-1.4-.6.1-.9.5-.9 1.4zM4587.7 429.9h.5v.5c.3-.4.8-.6 1.2-.6.7 0 1 .4 1 1.1v2.6h-.6v-2.2c0-.7-.1-1-.6-1-.4 0-.8.3-1 .6v2.6h-.6v-3.6zM4591.8 431.1h2.7v.5h-2.7v-.5zM4598.7 431.6c0 1.1-.4 1.9-1.4 1.9-.4 0-.7-.1-.9-.4v1.7l-.6.1v-5h.5v.5c.3-.4.6-.6 1.1-.6 1 0 1.3.7 1.3 1.8zm-2.3-.8v1.8c.2.3.5.4.8.4.6 0 .9-.4.9-1.4 0-.9-.3-1.4-.8-1.4-.4 0-.7.3-.9.6zM4602.8 429.9l-.1 1.2h-.5v-.8c-.5 0-.9.4-1.2 1.2v1.5h.7v.4h-1.9v-.4h.6v-2.7h-.6v-.4h1l.1.8c.3-.6.6-.9 1.3-.9.3 0 .4 0 .6.1zM4606.8 431.6c0 1.1-.5 1.9-1.5 1.9s-1.5-.7-1.5-1.9c0-1.1.5-1.9 1.5-1.9 1 .1 1.5.8 1.5 1.9zm-2.4 0c0 .9.3 1.4.9 1.4.6 0 .9-.4.9-1.4 0-.9-.3-1.4-.9-1.4-.6.1-.9.5-.9 1.4zM4610.9 431.6c0 1.1-.4 1.9-1.4 1.9-.4 0-.7-.1-.9-.4v1.7l-.6.1v-5h.5v.5c.3-.4.6-.6 1.1-.6 1 0 1.3.7 1.3 1.8zm-2.3-.8v1.8c.2.3.5.4.8.4.6 0 .9-.4.9-1.4 0-.9-.3-1.4-.8-1.4-.4 0-.7.3-.9.6zM4614.2 432.5c0-.3-.1-.5-.9-.7-.7-.2-1.2-.4-1.2-1s.5-1 1.4-1c.6 0 1 .2 1.3.4l-.3.4c-.3-.2-.6-.3-1-.3-.6 0-.8.2-.8.5s.2.4.9.6c.7.2 1.2.4 1.2 1.1 0 .8-.7 1.1-1.5 1.1-.7 0-1.1-.2-1.4-.5l.3-.4c.3.2.7.4 1.1.4.6-.1.9-.3.9-.6zM4617.5 432.3c.3 0 .6.3.6.6s-.3.6-.6.6-.6-.3-.6-.6.3-.6.6-.6zM4622.6 432.9c0 1.2-.8 1.8-2.3 2l-.1-.4c1.1-.2 1.8-.6 1.8-1.5v-2.6h-1.5v-.5h2.1v3zm-.2-4.3c0 .2-.2.4-.4.4s-.4-.2-.4-.4.2-.4.4-.4c.3 0 .4.2.4.4zM4626.4 432.5c0-.3-.1-.5-.9-.7-.7-.2-1.2-.4-1.2-1s.5-1 1.4-1c.6 0 1 .2 1.3.4l-.3.4c-.3-.2-.6-.3-1-.3-.6 0-.8.2-.8.5s.2.4.9.6c.7.2 1.2.4 1.2 1.1 0 .8-.7 1.1-1.5 1.1-.7 0-1.1-.2-1.4-.5l.3-.4c.3.2.7.4 1.1.4.6-.1.9-.3.9-.6z"/></g><path class="st1" d="M4578.9 372.4v-169"/><path class="st0" d="M4576.5 203.4l2.4-6.8 2.4 6.8h-4.8z"/><path class="st1" d="M4668.7 694.6V326c0-51.9-34.3-103-60.5-134.6"/><path class="st0" d="M4606.3 193l-2.6-6.7 6.2 3.6-3.6 3.1z"/><path class="st1" d="M4685.3 698.5l15.2-29.9"/><path class="st0" d="M4698.4 667.5l5.2-5-1 7.1-4.2-2.1z"/><path class="st1" d="M4659.7 695.8c-8.9-34.9-22.4-88.1-31.8-125"/><path class="st0" d="M4625.6 571.3l.6-7.2 4 6-4.6 1.2z"/><path class="st1" d="M4711.2 594.4c-9.3-40.2-22.6-107.9-22.6-167.1V326c0-53.4 18.3-75.9-12.5-119.6-13.3-18.8-36.2-30.2-56.4-37"/><path class="st0" d="M4619 171.7l-5.7-4.3 7.2-.2-1.5 4.5z"/><path class="st1" d="M4732.3 595.4l8.7-24.7"/><path class="st0" d="M4738.8 569.9l4.5-5.6v7.2l-4.5-1.6z"/><path class="st1" d="M4694 604.2c-14-13.7-31.3-30.8-45.9-45.2"/><path class="st0" d="M4646.4 560.7l-3.2-6.4 6.5 3.1-3.3 3.3z"/><path class="st1" d="M4634.3 496.3c1.8-4.6 3.4-9.4 4.4-14.1 10.5-47.6 6.7-61.4 0-109.8-8.4-60.7-29.6-128.5-44.4-170.8"/><path class="st0" d="M4592 202.4v-7.2l4.5 5.6-4.5 1.6z"/><path class="st1" d="M4586.3 509c-10.3-6-21.9-12.2-33.1-16.9-14.5-6.1-20.3-2.1-34-9.8-5.6-3.2-11.1-6.9-16.4-11"/><path class="st0" d="M4501.2 473l-3.8-6.1 6.8 2.4-3 3.7z"/><path class="st1" d="M4604.2 494.3l-3.5-9.3"/><path class="st0" d="M4598.5 485.9l-.2-7.2 4.6 5.5-4.4 1.7z"/><ellipse class="st5" cx="4740.1" cy="427.3" rx="36.6" ry="36.6"/><g class="st2"><path class="st3" d="M4727.5 424.8c.4 0 .7-.1 1-.3l.3.4c-.3.3-.8.4-1.3.4-1.1 0-1.7-.8-1.7-1.9 0-1.1.6-2 1.6-2 .9 0 1.5.7 1.5 1.8v.3h-2.5c0 .9.5 1.3 1.1 1.3zm-1.1-1.7h1.9c0-.8-.4-1.2-.9-1.2s-1 .4-1 1.2zM4732.1 424.7h1.1v.5h-2.8v-.5h1.2v-2.8h-1.1v-.5h1.7v3.3zm0-4.6c0 .2-.2.4-.4.4-.3 0-.4-.2-.4-.4s.2-.4.4-.4.4.2.4.4zM4736.4 425.3c-.8 0-1.3-.5-1.3-1.1V422h-.9v-.5h.9v-.8l.6-.1v.9h1.3l-.1.5h-1.2v2.2c0 .4.2.6.7.6.3 0 .5-.1.7-.2l.2.4c-.1.2-.5.3-.9.3zM4739.3 422c.3-.4.8-.6 1.2-.6.7 0 1.1.4 1.1 1.1v2.7h-.6v-2.7c0-.4-.2-.6-.7-.6-.4 0-.8.3-1 .6v2.7h-.6V420l.6-.1v2.1zM4744.6 424.8c.4 0 .7-.1 1-.3l.3.4c-.3.3-.8.4-1.3.4-1.1 0-1.7-.8-1.7-1.9 0-1.1.6-2 1.6-2 .9 0 1.5.7 1.5 1.8v.3h-2.5c0 .9.5 1.3 1.1 1.3zm-1.1-1.7h1.9c0-.8-.4-1.2-.9-1.2-.6 0-1 .4-1 1.2zM4750.3 421.4l-.1 1.3h-.5v-.8c-.6 0-1 .4-1.2 1.2v1.6h.8v.5h-1.9v-.5h.6v-2.8h-.6v-.5h1l.1.9c.3-.6.7-1 1.3-1 .2.1.4.1.5.1zM4751.2 425.7l3-6.3.5.2-3 6.3-.5-.2z"/></g><g class="st2"><path class="st3" d="M4714.2 430.2c-.3.1-.7.1-1.1.1.4.2.7.5.7.9 0 .7-.5 1.3-1.4 1.3-.2 0-.4 0-.6-.1-.1.1-.2.2-.2.4s.1.3.5.3h.7c.8 0 1.3.4 1.3 1 0 .7-.6 1.1-1.8 1.1-1.2 0-1.6-.4-1.6-1.1h.5c0 .4.2.6 1 .6s1.2-.2 1.2-.6c0-.4-.4-.5-.8-.5h-.7c-.7 0-.9-.3-.9-.7 0-.2.1-.5.4-.7-.4-.2-.6-.5-.6-1 0-.8.6-1.3 1.5-1.3s1.3-.1 1.7-.3l.2.6zm-2.8 1c0 .5.3.9.9.9.5 0 .8-.3.8-.9 0-.6-.3-.9-.8-.9-.6 0-.9.4-.9.9zM4715.8 432.6c0 .5.2.7.6.7.4 0 .8-.3 1-.6V430h.6v3.7h-.5v-.5c-.3.4-.8.6-1.2.6-.7 0-1.1-.4-1.1-1.1V430h.6v2.6zM4721.4 433.3h1.1v.5h-2.8v-.5h1.2v-2.8h-1.1v-.5h1.7v3.3zm0-4.6c0 .2-.2.4-.4.4-.3 0-.4-.2-.4-.4s.2-.4.4-.4c.2-.1.4.1.4.4zM4726.6 428.5v5.3h-.5l-.1-.5c-.3.4-.7.6-1.1.6-1 0-1.4-.8-1.4-1.9 0-1.1.5-2 1.5-2 .4 0 .8.2 1 .4v-1.9h.6zm-2.4 3.4c0 1 .3 1.5.9 1.5.4 0 .7-.3.9-.6v-1.9c-.2-.3-.5-.5-.9-.5-.5 0-.9.5-.9 1.5zM4729.6 433.3c.4 0 .7-.1 1-.3l.3.4c-.3.3-.8.4-1.3.4-1.1 0-1.7-.8-1.7-1.9 0-1.1.6-2 1.6-2 .9 0 1.5.7 1.5 1.8v.3h-2.5c.1.9.5 1.3 1.1 1.3zm-1.1-1.7h1.9c0-.8-.4-1.2-.9-1.2s-.9.4-1 1.2zM4735.2 428.5v5.3h-.5l-.1-.5c-.3.4-.7.6-1.1.6-1 0-1.4-.8-1.4-1.9 0-1.1.5-2 1.5-2 .4 0 .8.2 1 .4v-1.9h.6zm-2.5 3.4c0 1 .3 1.5.9 1.5.4 0 .7-.3.9-.6v-1.9c-.2-.3-.5-.5-.9-.5-.5 0-.9.5-.9 1.5zM4736.6 431.3h2.8v.5h-2.8v-.5zM4742.3 432.8c0 .4.3.5.6.5.2 0 .4 0 .6-.1l.2.4c-.2.1-.5.2-.9.2-.7 0-1.1-.4-1.1-1V429h-1.2v-.5h1.7v4.3zM4746.7 433.3c.4 0 .7-.1 1-.3l.3.4c-.3.3-.8.4-1.3.4-1.1 0-1.7-.8-1.7-1.9 0-1.1.6-2 1.6-2 .9 0 1.5.7 1.5 1.8v.3h-2.5c0 .9.5 1.3 1.1 1.3zm-1.1-1.7h1.9c0-.8-.4-1.2-.9-1.2s-.9.4-1 1.2zM4752.6 428.6l-.2.4c-.2-.1-.5-.2-.8-.2-.5 0-.8.2-.8.6v.8h1.3l-.1.5h-1.2v3h-.6v-3h-.9v-.5h.9v-.7c0-.7.6-1.1 1.4-1.1.4 0 .7.1 1 .2zM4755.6 433.8c-.8 0-1.3-.5-1.3-1.1v-2.2h-.9v-.5h.9v-.8l.6-.1v.9h1.3l-.1.5h-1.2v2.2c0 .4.2.6.7.6.3 0 .5-.1.7-.2l.2.4c-.1.2-.5.3-.9.3zM4759.3 432.6c.4 0 .6.3.6.6 0 .4-.3.6-.6.6-.4 0-.6-.3-.6-.6 0-.4.3-.6.6-.6zM4764.7 433.1c0 1.3-.9 1.8-2.4 2.1l-.1-.5c1.1-.2 1.9-.6 1.9-1.6v-2.7h-1.6v-.4h2.2v3.1zm-.2-4.4c0 .2-.2.4-.4.4-.3 0-.4-.2-.4-.4s.2-.4.4-.4c.3-.1.4.1.4.4zM4768.7 432.7c0-.3-.1-.5-.9-.7-.8-.2-1.3-.4-1.3-1.1 0-.6.6-1 1.4-1 .6 0 1 .2 1.4.4l-.3.4c-.3-.2-.6-.3-1.1-.3-.6 0-.8.2-.8.5s.2.5 1 .7c.7.2 1.2.5 1.2 1.2 0 .8-.8 1.1-1.6 1.1-.7 0-1.1-.2-1.5-.5l.3-.4c.3.2.7.4 1.1.4.7-.1 1.1-.3 1.1-.7z"/></g><path class="st1" d="M4645.5 505.3l61.2-50.4"/><path class="st0" d="M4705.1 453.1l6.7-2.5-3.7 6.1-3-3.6z"/><ellipse class="st5" cx="4823.1" cy="427.3" rx="36.6" ry="36.6"/><g class="st2"><path class="st3" d="M4810.5 424.8c.4 0 .7-.1 1-.3l.3.4c-.3.3-.8.4-1.3.4-1.1 0-1.7-.8-1.7-1.9 0-1.1.6-2 1.6-2 .9 0 1.5.7 1.5 1.8v.3h-2.5c0 .9.5 1.3 1.1 1.3zm-1.1-1.7h1.9c0-.8-.4-1.2-.9-1.2s-1 .4-1 1.2zM4815.1 424.7h1.1v.5h-2.8v-.5h1.2v-2.8h-1.1v-.5h1.7v3.3zm0-4.6c0 .2-.2.4-.4.4-.3 0-.4-.2-.4-.4s.2-.4.4-.4.4.2.4.4zM4819.4 425.3c-.8 0-1.3-.5-1.3-1.1V422h-.9v-.5h.9v-.8l.6-.1v.9h1.3l-.1.5h-1.2v2.2c0 .4.2.6.7.6.3 0 .5-.1.7-.2l.2.4c-.1.2-.5.3-.9.3zM4822.3 422c.3-.4.8-.6 1.2-.6.7 0 1.1.4 1.1 1.1v2.7h-.6v-2.7c0-.4-.2-.6-.7-.6-.4 0-.8.3-1 .6v2.7h-.6V420l.6-.1v2.1zM4827.6 424.8c.4 0 .7-.1 1-.3l.3.4c-.3.3-.8.4-1.3.4-1.1 0-1.7-.8-1.7-1.9 0-1.1.6-2 1.6-2 .9 0 1.5.7 1.5 1.8v.3h-2.5c0 .9.5 1.3 1.1 1.3zm-1.1-1.7h1.9c0-.8-.4-1.2-.9-1.2-.6 0-1 .4-1 1.2zM4833.3 421.4l-.1 1.3h-.5v-.8c-.6 0-1 .4-1.2 1.2v1.6h.8v.5h-1.9v-.5h.6v-2.8h-.6v-.5h1l.1.9c.3-.6.7-1 1.3-1 .2.1.4.1.5.1zM4834.2 425.7l3-6.3.5.2-3 6.3-.5-.2z"/></g><g class="st2"><path class="st3" d="M4795.1 430.2c-.3.1-.7.1-1.1.1.4.2.7.5.7.9 0 .7-.5 1.3-1.4 1.3-.2 0-.4 0-.6-.1-.1.1-.2.2-.2.4s.1.3.5.3h.7c.8 0 1.3.4 1.3 1 0 .7-.6 1.1-1.8 1.1-1.2 0-1.6-.4-1.6-1.1h.5c0 .4.2.6 1 .6s1.2-.2 1.2-.6c0-.4-.4-.5-.8-.5h-.7c-.7 0-.9-.3-.9-.7 0-.2.1-.5.4-.7-.4-.2-.6-.5-.6-1 0-.8.6-1.3 1.5-1.3s1.3-.1 1.7-.3l.2.6zm-2.8 1c0 .5.3.9.9.9.5 0 .8-.3.8-.9 0-.6-.3-.9-.8-.9-.6 0-.9.4-.9.9zM4796.7 432.6c0 .5.2.7.6.7.4 0 .8-.3 1-.6V430h.6v3.7h-.5v-.5c-.3.4-.8.6-1.2.6-.7 0-1.1-.4-1.1-1.1V430h.6v2.6zM4802.3 433.3h1.1v.5h-2.8v-.5h1.2v-2.8h-1.1v-.5h1.7v3.3zm-.1-4.6c0 .2-.2.4-.4.4-.3 0-.4-.2-.4-.4s.2-.4.4-.4c.3-.1.4.1.4.4zM4807.5 428.5v5.3h-.5l-.1-.5c-.3.4-.7.6-1.1.6-1 0-1.4-.8-1.4-1.9 0-1.1.5-2 1.5-2 .4 0 .8.2 1 .4v-1.9h.6zm-2.4 3.4c0 1 .3 1.5.9 1.5.4 0 .7-.3.9-.6v-1.9c-.2-.3-.5-.5-.9-.5-.6 0-.9.5-.9 1.5zM4810.5 433.3c.4 0 .7-.1 1-.3l.3.4c-.3.3-.8.4-1.3.4-1.1 0-1.7-.8-1.7-1.9 0-1.1.6-2 1.6-2 .9 0 1.5.7 1.5 1.8v.3h-2.5c0 .9.5 1.3 1.1 1.3zm-1.1-1.7h1.9c0-.8-.4-1.2-.9-1.2s-1 .4-1 1.2zM4816 428.5v5.3h-.5l-.1-.5c-.3.4-.7.6-1.1.6-1 0-1.4-.8-1.4-1.9 0-1.1.5-2 1.5-2 .4 0 .8.2 1 .4v-1.9h.6zm-2.4 3.4c0 1 .3 1.5.9 1.5.4 0 .7-.3.9-.6v-1.9c-.2-.3-.5-.5-.9-.5-.5 0-.9.5-.9 1.5zM4817.5 431.3h2.8v.5h-2.8v-.5zM4824.8 430l-.1 1.3h-.5v-.8c-.6 0-1 .4-1.2 1.2v1.6h.8v.5h-1.9v-.5h.6v-2.8h-.6v-.5h1l.1.9c.3-.6.7-1 1.3-1 .2 0 .3 0 .5.1zM4827.9 433.3h1.1v.5h-2.8v-.5h1.2v-2.8h-1.1v-.5h1.7v3.3zm0-4.6c0 .2-.2.4-.4.4-.3 0-.4-.2-.4-.4s.2-.4.4-.4c.2-.1.4.1.4.4zM4833.5 430.2c-.3.1-.7.1-1.1.1.4.2.7.5.7.9 0 .7-.5 1.3-1.4 1.3-.2 0-.4 0-.6-.1-.1.1-.2.2-.2.4s.1.3.5.3h.7c.8 0 1.3.4 1.3 1 0 .7-.6 1.1-1.8 1.1-1.2 0-1.6-.4-1.6-1.1h.5c0 .4.2.6 1 .6s1.2-.2 1.2-.6c0-.4-.4-.5-.8-.5h-.7c-.7 0-.9-.3-.9-.7 0-.2.1-.5.4-.7-.4-.2-.6-.5-.6-1 0-.8.6-1.3 1.5-1.3s1.3-.1 1.7-.3l.2.6zm-2.8 1c0 .5.3.9.9.9.5 0 .8-.3.8-.9 0-.6-.3-.9-.8-.9-.6 0-.9.4-.9.9zM4835.1 430.5c.3-.4.8-.6 1.2-.6.7 0 1.1.4 1.1 1.1v2.7h-.6V431c0-.4-.2-.6-.7-.6-.4 0-.8.3-1 .6v2.7h-.6v-5.2l.6-.1v2.1zM4840.8 433.8c-.8 0-1.3-.5-1.3-1.1v-2.2h-.9v-.5h.9v-.8l.6-.1v.9h1.3l-.1.5h-1.2v2.2c0 .4.2.6.7.6.3 0 .5-.1.7-.2l.2.4c-.2.2-.6.3-.9.3zM4844.5 432.6c.4 0 .6.3.6.6 0 .4-.3.6-.6.6-.4 0-.6-.3-.6-.6 0-.4.2-.6.6-.6zM4849.8 433.1c0 1.3-.9 1.8-2.4 2.1l-.1-.5c1.1-.2 1.9-.6 1.9-1.6v-2.7h-1.6v-.4h2.2v3.1zm-.1-4.4c0 .2-.2.4-.4.4-.3 0-.4-.2-.4-.4s.2-.4.4-.4c.2-.1.4.1.4.4zM4853.8 432.7c0-.3-.1-.5-.9-.7-.8-.2-1.3-.4-1.3-1.1 0-.6.6-1 1.4-1 .6 0 1 .2 1.4.4l-.3.4c-.3-.2-.6-.3-1.1-.3-.6 0-.8.2-.8.5s.2.5 1 .7c.7.2 1.2.5 1.2 1.2 0 .8-.8 1.1-1.6 1.1-.7 0-1.1-.2-1.5-.5l.3-.4c.3.2.7.4 1.1.4.8-.1 1.1-.3 1.1-.7z"/></g><path class="st1" d="M4650.7 514c18.5-7.6 42-16.3 63.7-21.9 29.2-7.5 41.3 5.6 67.2-9.8 7.4-4.4 14-10.7 19.6-17.5"/><path class="st0" d="M4799.3 463.3l6-3.9-2.3 6.8-3.7-2.9z"/><path class="st1" d="M4519.1 730c-64.3-2.9-193.6-12.8-222.6-45.2-23.2-25.9-10-121.4-10-156.2V326c0-62.7 23.5-83.6 74.9-119.6 27.9-19.5 120.4-34.1 175.4-41.4"/><path class="st0" d="M4536.5 162.7l7 1.5-6.4 3.2-.6-4.7z"/><path class="st1" d="M4519.8 723.7c-29.3-7.1-71-19.7-103.7-38.9-5.5-3.3-11-7.1-16.3-11.2"/><path class="st0" d="M4398.3 675.4l-3.8-6.1 6.8 2.4-3 3.7z"/><path class="st1" d="M4533 702.5l-18.9-24"/><path class="st0" d="M4512.2 679.9l-2.3-6.8 6.1 3.9-3.8 2.9z"/><path class="st1" d="M4554.6 694.6c-1.8-32.1-6.5-79.9-18.9-119.6-10.4-33.3-28-68-43.6-95.4"/><path class="st0" d="M4490 480.8l-1.3-7.1 5.4 4.7-4.1 2.4z"/><path class="st1" d="M4558.5 694.7l15.7-205.9"/><path class="st0" d="M4571.8 488.7l2.9-6.6 1.8 6.9-4.7-.3z"/><path class="st1" d="M4586.9 712l96.3-59.3"/><path class="st0" d="M4682 650.7l7-1.5-4.5 5.6-2.5-4.1z"/><path class="st1" d="M4568.9 697.1c1.5-4.1 2.9-8.3 4.2-12.2 12.6-38.3 24.8-82.5 33.2-114.1"/><path class="st0" d="M4604.1 570l4-5.9.6 7.2-4.6-1.3z"/><ellipse class="st5" cx="4926.1" cy="427.3" rx="36.6" ry="36.6"/><g class="st2"><path class="st3" d="M4913.5 424.8c.4 0 .7-.1 1-.3l.3.4c-.3.3-.8.4-1.3.4-1.1 0-1.7-.8-1.7-1.9 0-1.1.6-2 1.6-2 .9 0 1.5.7 1.5 1.8v.3h-2.5c0 .9.5 1.3 1.1 1.3zm-1.1-1.7h1.9c0-.8-.4-1.2-.9-1.2-.6 0-1 .4-1 1.2zM4918.1 424.7h1.1v.5h-2.8v-.5h1.2v-2.8h-1.1v-.5h1.7v3.3zm-.1-4.6c0 .2-.2.4-.4.4-.3 0-.4-.2-.4-.4s.2-.4.4-.4c.3 0 .4.2.4.4zM4922.4 425.3c-.8 0-1.3-.5-1.3-1.1V422h-.9v-.5h.9v-.8l.6-.1v.9h1.3l-.1.5h-1.2v2.2c0 .4.2.6.7.6.3 0 .5-.1.7-.2l.2.4c-.1.2-.5.3-.9.3zM4925.3 422c.3-.4.8-.6 1.2-.6.7 0 1.1.4 1.1 1.1v2.7h-.6v-2.7c0-.4-.2-.6-.7-.6-.4 0-.8.3-1 .6v2.7h-.6V420l.6-.1v2.1zM4930.5 424.8c.4 0 .7-.1 1-.3l.3.4c-.3.3-.8.4-1.3.4-1.1 0-1.7-.8-1.7-1.9 0-1.1.6-2 1.6-2 .9 0 1.5.7 1.5 1.8v.3h-2.5c.1.9.6 1.3 1.1 1.3zm-1-1.7h1.9c0-.8-.4-1.2-.9-1.2-.6 0-1 .4-1 1.2zM4936.3 421.4l-.1 1.3h-.5v-.8c-.6 0-1 .4-1.2 1.2v1.6h.8v.5h-1.9v-.5h.6v-2.8h-.6v-.5h1l.1.9c.3-.6.7-1 1.3-1 .2.1.3.1.5.1zM4937.2 425.7l3-6.3.5.2-3 6.3-.5-.2z"/></g><g class="st2"><path class="st3" d="M4919.2 433.4l-.1.4c-.3 0-.6-.2-.7-.5-.3.3-.7.5-1.2.5-.8 0-1.2-.5-1.2-1.2 0-.8.6-1.2 1.8-1.2h.6v-.3c0-.5-.3-.7-.9-.7-.2 0-.6.1-1 .2l-.2-.5c.5-.2.9-.2 1.2-.2.9 0 1.4.5 1.4 1.2v1.8c0 .3.1.4.3.5zm-.9-.6v-1h-.5c-.8 0-1.1.3-1.1.8s.2.7.7.7c.3.1.6-.1.9-.5zM4923.5 431.9c0 1.1-.5 2-1.4 2-.4 0-.7-.1-1-.4v1.8l-.6.1V430h.5v.5c.3-.4.7-.6 1.1-.6 1 0 1.4.8 1.4 2zm-2.5-.9v1.9c.2.3.5.5.9.5.6 0 .9-.5.9-1.5s-.3-1.5-.9-1.5c-.3 0-.6.3-.9.6zM4926.1 432.6c.4 0 .6.3.6.6 0 .4-.3.6-.6.6-.4 0-.6-.3-.6-.6 0-.4.3-.6.6-.6zM4931.4 433.1c0 1.3-.9 1.8-2.4 2.1l-.1-.5c1.1-.2 1.9-.6 1.9-1.6v-2.7h-1.6v-.4h2.2v3.1zm-.1-4.4c0 .2-.2.4-.4.4-.3 0-.4-.2-.4-.4s.2-.4.4-.4c.2-.1.4.1.4.4zM4935.5 432.7c0-.3-.1-.5-.9-.7-.8-.2-1.3-.4-1.3-1.1 0-.6.6-1 1.4-1 .6 0 1 .2 1.4.4l-.3.4c-.3-.2-.6-.3-1.1-.3-.6 0-.8.2-.8.5s.2.5 1 .7c.7.2 1.2.5 1.2 1.2 0 .8-.8 1.1-1.6 1.1-.7 0-1.1-.2-1.5-.5l.3-.4c.3.2.7.4 1.1.4.7-.1 1.1-.3 1.1-.7z"/></g><path class="st1" d="M4891.3 495.9l15.2-29.9"/><path class="st0" d="M4904.4 464.9l5.2-5-1 7.1-4.2-2.1z"/><ellipse class="st5" cx="5009.1" cy="427.3" rx="36.6" ry="36.6"/><g class="st2"><path class="st3" d="M4996.5 424.8c.4 0 .7-.1 1-.3l.3.4c-.3.3-.8.4-1.3.4-1.1 0-1.7-.8-1.7-1.9 0-1.1.6-2 1.6-2 .9 0 1.5.7 1.5 1.8v.3h-2.5c0 .9.5 1.3 1.1 1.3zm-1.1-1.7h1.9c0-.8-.4-1.2-.9-1.2-.6 0-1 .4-1 1.2zM5001.1 424.7h1.1v.5h-2.8v-.5h1.2v-2.8h-1.1v-.5h1.7v3.3zm-.1-4.6c0 .2-.2.4-.4.4-.3 0-.4-.2-.4-.4s.2-.4.4-.4c.3 0 .4.2.4.4zM5005.4 425.3c-.8 0-1.3-.5-1.3-1.1V422h-.9v-.5h.9v-.8l.6-.1v.9h1.3l-.1.5h-1.2v2.2c0 .4.2.6.7.6.3 0 .5-.1.7-.2l.2.4c-.1.2-.5.3-.9.3zM5008.3 422c.3-.4.8-.6 1.2-.6.7 0 1.1.4 1.1 1.1v2.7h-.6v-2.7c0-.4-.2-.6-.7-.6-.4 0-.8.3-1 .6v2.7h-.6V420l.6-.1v2.1zM5013.6 424.8c.4 0 .7-.1 1-.3l.3.4c-.3.3-.8.4-1.3.4-1.1 0-1.7-.8-1.7-1.9 0-1.1.6-2 1.6-2 .9 0 1.5.7 1.5 1.8v.3h-2.5c0 .9.5 1.3 1.1 1.3zm-1.1-1.7h1.9c0-.8-.4-1.2-.9-1.2-.6 0-1 .4-1 1.2zM5019.3 421.4l-.1 1.3h-.5v-.8c-.6 0-1 .4-1.2 1.2v1.6h.8v.5h-1.9v-.5h.6v-2.8h-.6v-.5h1l.1.9c.3-.6.7-1 1.3-1 .2.1.3.1.5.1zM5020.2 425.7l3-6.3.5.2-3 6.3-.5-.2z"/></g><g class="st2"><path class="st3" d="M4994.4 429.9c1 0 1.4.8 1.4 1.9 0 1.1-.5 2-1.5 2-.4 0-.8-.1-1-.5v.4h-.5v-5.3l.6-.1v2.1c.3-.3.6-.5 1-.5zm.8 2c0-1-.3-1.5-.9-1.5-.4 0-.7.3-.9.6v1.9c.2.3.5.5.9.5.5-.1.9-.5.9-1.5zM4998.9 433.3h1.1v.5h-2.8v-.5h1.2v-2.8h-1.1v-.5h1.7v3.3zm0-4.6c0 .2-.2.4-.4.4-.3 0-.4-.2-.4-.4s.2-.4.4-.4c.2-.1.4.1.4.4zM5004.5 430.9v2.8h-.5V431c0-.5 0-.7-.3-.7-.2 0-.4.1-.7.4v2.9h-.6V431c0-.5 0-.7-.3-.7-.2 0-.4.1-.7.4v2.9h-.5V430h.5v.4c.2-.3.4-.5.8-.5.3 0 .6.1.7.5.2-.3.4-.5.8-.5s.8.2.8 1zM5008.6 433.4l-.1.4c-.3 0-.6-.2-.7-.5-.3.3-.7.5-1.2.5-.8 0-1.2-.5-1.2-1.2 0-.8.6-1.2 1.8-1.2h.6v-.3c0-.5-.3-.7-.9-.7-.2 0-.6.1-1 .2l-.2-.5c.5-.2.9-.2 1.2-.2.9 0 1.4.5 1.4 1.2v1.8c0 .3.1.4.3.5zm-.9-.6v-1h-.5c-.8 0-1.1.3-1.1.8s.2.7.7.7c.3.1.6-.1.9-.5zM5012.9 431.9c0 1.1-.5 2-1.4 2-.4 0-.7-.1-1-.4v1.8l-.6.1V430h.5v.5c.3-.4.7-.6 1.1-.6 1 0 1.4.8 1.4 2zm-2.4-.9v1.9c.2.3.5.5.9.5.6 0 .9-.5.9-1.5s-.3-1.5-.9-1.5c-.4 0-.7.3-.9.6zM5015.5 432.6c.4 0 .6.3.6.6 0 .4-.3.6-.6.6-.4 0-.6-.3-.6-.6 0-.4.3-.6.6-.6zM5020.8 433.1c0 1.3-.9 1.8-2.4 2.1l-.1-.5c1.1-.2 1.9-.6 1.9-1.6v-2.7h-1.6v-.4h2.2v3.1zm-.1-4.4c0 .2-.2.4-.4.4-.3 0-.4-.2-.4-.4s.2-.4.4-.4c.3-.1.4.1.4.4zM5024.9 432.7c0-.3-.1-.5-.9-.7-.8-.2-1.3-.4-1.3-1.1 0-.6.6-1 1.4-1 .6 0 1 .2 1.4.4l-.3.4c-.3-.2-.6-.3-1.1-.3-.6 0-.8.2-.8.5s.2.5 1 .7c.7.2 1.2.5 1.2 1.2 0 .8-.8 1.1-1.6 1.1-.7 0-1.1-.2-1.5-.5l.3-.4c.3.2.7.4 1.1.4.7-.1 1.1-.3 1.1-.7z"/></g><path class="st1" d="M4909 516c18.6-7.9 41.2-19.3 58.6-33.8 6.4-5.3 12.4-11.8 17.8-18.5"/><path class="st0" d="M4983.6 462.2l6-3.9-2.3 6.8-3.7-2.9z"/><path class="st1" d="M4909.6 517.7c25.4-7.7 60.7-18 92.1-25.7 21.6-5.3 30.2 2 49-9.8 7.3-4.6 13.7-10.9 19.2-17.6"/><path class="st0" d="M5068 463.1l6-3.9-2.3 6.8-3.7-2.9z"/><path class="st1" d="M4841.5 513c-24.6-11.8-54.7-26.5-59.9-30.8-6.4-5.3-12.4-11.8-17.8-18.5"/><path class="st0" d="M4762 465.1l-2.3-6.8 6 3.9-3.7 2.9z"/><ellipse class="st5" cx="4823.1" cy="326" rx="36.6" ry="36.6"/><g class="st2"><path class="st3" d="M4810.5 323.5c.4 0 .7-.1 1-.3l.3.4c-.3.3-.8.4-1.3.4-1.1 0-1.7-.8-1.7-1.9 0-1.1.6-2 1.6-2 .9 0 1.5.7 1.5 1.8v.3h-2.5c0 .9.5 1.3 1.1 1.3zm-1.1-1.7h1.9c0-.8-.4-1.2-.9-1.2s-1 .4-1 1.2zM4815.1 323.4h1.1v.5h-2.8v-.5h1.2v-2.8h-1.1v-.5h1.7v3.3zm0-4.6c0 .2-.2.4-.4.4-.3 0-.4-.2-.4-.4s.2-.4.4-.4.4.2.4.4zM4819.4 324c-.8 0-1.3-.5-1.3-1.1v-2.2h-.9v-.5h.9v-.8l.6-.1v.9h1.3l-.1.5h-1.2v2.2c0 .4.2.6.7.6.3 0 .5-.1.7-.2l.2.4c-.1.2-.5.3-.9.3zM4822.3 320.7c.3-.4.8-.6 1.2-.6.7 0 1.1.4 1.1 1.1v2.7h-.6v-2.7c0-.4-.2-.6-.7-.6-.4 0-.8.3-1 .6v2.7h-.6v-5.2l.6-.1v2.1zM4827.6 323.5c.4 0 .7-.1 1-.3l.3.4c-.3.3-.8.4-1.3.4-1.1 0-1.7-.8-1.7-1.9 0-1.1.6-2 1.6-2 .9 0 1.5.7 1.5 1.8v.3h-2.5c0 .9.5 1.3 1.1 1.3zm-1.1-1.7h1.9c0-.8-.4-1.2-.9-1.2-.6 0-1 .4-1 1.2zM4833.3 320.2l-.1 1.3h-.5v-.8c-.6 0-1 .4-1.2 1.2v1.6h.8v.5h-1.9v-.5h.6v-2.8h-.6v-.5h1l.1.9c.3-.6.7-1 1.3-1 .2 0 .4 0 .5.1zM4834.2 324.4l3-6.3.5.2-3 6.3-.5-.2z"/></g><g class="st2"><path class="st3" d="M4807.9 328.9c-.3.1-.7.1-1.1.1.4.2.7.5.7.9 0 .7-.5 1.3-1.4 1.3-.2 0-.4 0-.6-.1-.1.1-.2.2-.2.4s.1.3.5.3h.7c.8 0 1.3.4 1.3 1 0 .7-.6 1.1-1.8 1.1-1.2 0-1.6-.4-1.6-1.1h.5c0 .4.2.6 1 .6s1.2-.2 1.2-.6c0-.4-.4-.5-.8-.5h-.7c-.7 0-.9-.3-.9-.7 0-.2.1-.5.4-.7-.4-.2-.6-.5-.6-1 0-.8.6-1.3 1.5-1.3s1.3-.1 1.7-.3l.2.6zm-2.8 1c0 .5.3.9.9.9.5 0 .8-.3.8-.9 0-.6-.3-.9-.8-.9-.6.1-.9.4-.9.9zM4809.5 331.4c0 .5.2.7.6.7.4 0 .8-.3 1-.6v-2.8h.6v3.7h-.5v-.5c-.3.4-.8.6-1.2.6-.7 0-1.1-.4-1.1-1.1v-2.7h.6v2.7zM4815.1 332h1.1v.5h-2.8v-.5h1.2v-2.8h-1.1v-.5h1.7v3.3zm0-4.6c0 .2-.2.4-.4.4-.3 0-.4-.2-.4-.4s.2-.4.4-.4c.2-.1.4.1.4.4zM4820.3 327.2v5.3h-.5l-.1-.5c-.3.4-.7.6-1.1.6-1 0-1.4-.8-1.4-1.9 0-1.1.5-2 1.5-2 .4 0 .8.2 1 .4v-1.9h.6zm-2.4 3.4c0 1 .3 1.5.9 1.5.4 0 .7-.3.9-.6v-1.9c-.2-.3-.5-.5-.9-.5-.6 0-.9.5-.9 1.5zM4823.3 332c.4 0 .7-.1 1-.3l.3.4c-.3.3-.8.4-1.3.4-1.1 0-1.7-.8-1.7-1.9 0-1.1.6-2 1.6-2 .9 0 1.5.7 1.5 1.8v.3h-2.5c0 .9.5 1.3 1.1 1.3zm-1.1-1.7h1.9c0-.8-.4-1.2-.9-1.2s-.9.4-1 1.2zM4828.8 327.2v5.3h-.5l-.1-.5c-.3.4-.7.6-1.1.6-1 0-1.4-.8-1.4-1.9 0-1.1.5-2 1.5-2 .4 0 .8.2 1 .4v-1.9h.6zm-2.4 3.4c0 1 .3 1.5.9 1.5.4 0 .7-.3.9-.6v-1.9c-.2-.3-.5-.5-.9-.5-.5 0-.9.5-.9 1.5zM4831.7 331.3c.4 0 .6.3.6.6 0 .4-.3.6-.6.6-.4 0-.6-.3-.6-.6 0-.4.2-.6.6-.6zM4837 331.8c0 1.3-.9 1.8-2.4 2.1l-.1-.5c1.1-.2 1.9-.6 1.9-1.6v-2.7h-1.6v-.5h2.2v3.2zm-.1-4.4c0 .2-.2.4-.4.4-.3 0-.4-.2-.4-.4s.2-.4.4-.4c.2-.1.4.1.4.4zM4841 331.4c0-.3-.1-.5-.9-.7-.8-.2-1.3-.4-1.3-1.1 0-.6.6-1 1.4-1 .6 0 1 .2 1.4.4l-.3.4c-.3-.2-.6-.3-1.1-.3-.6 0-.8.2-.8.5s.2.5 1 .7c.7.2 1.2.5 1.2 1.2 0 .8-.8 1.1-1.6 1.1-.7 0-1.1-.2-1.5-.5l.3-.4c.3.2.7.4 1.1.4.8-.1 1.1-.3 1.1-.7z"/></g><path class="st1" d="M4878.9 492.2c2.3-32.7 1.9-81.2-14.2-119.8-2.5-5.9-6-11.5-9.9-16.6"/><path class="st0" d="M4852.8 357.2l-2.4-6.7 6.1 3.8-3.7 2.9z"/><path class="st1" d="M4858 495.9c-4.8-9.5-10.2-20.1-15.2-29.9"/><path class="st0" d="M4840.7 467.1l-1-7.1 5.2 5-4.2 2.1z"/><path class="st1" d="M4947.8 397.8c6.3-8.3 13.2-17.3 19.9-25.3 4-4.8 8.3-9.8 12.5-14.7"/><path class="st0" d="M4978.4 356.2l6.3-3.5-2.7 6.6-3.6-3.1z"/><path class="st1" d="M4790.9 225.8c-13.2-6.6-28.7-13.9-43.3-19.3-42.6-16-93.1-29.2-127.7-37.4"/><path class="st0" d="M4619.3 171.4l-6.1-3.9 7.1-.8-1 4.7z"/><path class="st1" d="M5009.1 390.7v-21.3"/><path class="st0" d="M5006.8 369.4l2.4-6.8 2.4 6.8h-4.8z"/><path class="st1" d="M5070.5 397.8c-6.3-8.3-13.2-17.3-19.9-25.3-4-4.8-8.3-9.8-12.5-14.7"/><path class="st0" d="M5036.3 359.3l-2.7-6.6 6.3 3.5-3.6 3.1z"/><path class="st1" d="M4740.1 390.7v-21.3"/><path class="st0" d="M4737.8 369.4l2.4-6.8 2.4 6.8h-4.8z"/><path class="st1" d="M4761.8 397.8c6.3-8.3 13.2-17.3 19.9-25.3 3.9-4.7 8-9.6 12.2-14.3"/><path class="st0" d="M4792.1 356.5l6.3-3.5-2.7 6.6-3.6-3.1z"/><path class="st1" d="M4797.6 299.8c-30.4-30.8-79.6-79.4-101.5-93.3-23.9-15.2-53.6-26.9-77.1-34.7"/><path class="st0" d="M4618.3 174l-5.7-4.4 7.2-.1-1.5 4.5z"/><path class="st1" d="M4823.1 289.4v-3"/><path class="st0" d="M4820.8 286.4l2.4-6.8 2.4 6.8h-4.8z"/><path class="st1" d="M4801.5 397.8c-6.3-8.3-13.2-17.3-19.9-25.3-4-4.8-8.3-9.8-12.5-14.7"/><path class="st0" d="M4767.3 359.3l-2.7-6.6 6.3 3.5-3.6 3.1z"/><path class="st1" d="M4823.1 390.7v-21.3"/><path class="st0" d="M4820.8 369.4l2.4-6.8 2.4 6.8h-4.8z"/></svg>