<?xml version="1.0" encoding="UTF-8" standalone="no"?>
<!DOCTYPE svg PUBLIC "-//W3C//DTD SVG 1.1//EN"
 "http://www.w3.org/Graphics/SVG/1.1/DTD/svg11.dtd">
<!-- Generated by graphviz version 2.40.1 (20161225.0304)
 -->
<!-- Title: G Pages: 1 -->
<svg width="1612pt" height="1539pt"
 viewBox="0.00 0.00 1612.34 1538.98" xmlns="http://www.w3.org/2000/svg" xmlns:xlink="http://www.w3.org/1999/xlink">
<g id="graph0" class="graph" transform="scale(1 1) rotate(0) translate(7.992 1530.992)">
<title>G</title>
<polygon fill="#eeeeff" stroke="transparent" points="-7.992,7.992 -7.992,-1530.992 1604.3465,-1530.992 1604.3465,7.992 -7.992,7.992"/>
<!-- assertions/all&#45;props&#45;are&#45;functions.js -->
<g id="node1" class="node">
<title>assertions/all&#45;props&#45;are&#45;functions.js</title>
<polygon fill="none" stroke="#242424" stroke-width="4" points="593.1548,-555.2003 310.3542,-555.2003 310.3542,-272.3997 593.1548,-272.3997 593.1548,-555.2003"/>
<text text-anchor="middle" x="451.7545" y="-411.4" font-family="Fira Code" font-size="12.00" fill="#242424">assertions/all&#45;props&#45;are&#45;functions.js</text>
</g>
<!-- Ⓜ f&#45;utility/f&#45;utility.js -->
<g id="node2" class="node">
<title>Ⓜ f&#45;utility/f&#45;utility.js</title>
<polygon fill="none" stroke="#0c821d" stroke-width="4" points="996.3549,-193.4004 803.1541,-193.4004 803.1541,-.1996 996.3549,-.1996 996.3549,-193.4004"/>
<text text-anchor="middle" x="899.7545" y="-95.6" font-family="Fira Code" font-size="12.00" fill="#0c821d">Ⓜ f&#45;utility/f&#45;utility.js</text>
</g>
<!-- assertions/all&#45;props&#45;are&#45;functions.js&#45;&gt;Ⓜ f&#45;utility/f&#45;utility.js -->
<g id="edge1" class="edge">
<title>assertions/all&#45;props&#45;are&#45;functions.js&#45;&gt;Ⓜ f&#45;utility/f&#45;utility.js</title>
<path fill="none" stroke="#242424" d="M593.2614,-279.8656C596.4288,-277.3927 599.5953,-274.9677 602.7545,-272.6 663.068,-227.3966 735.8192,-184.1699 794.2221,-151.8917"/>
<polygon fill="#242424" stroke="#242424" points="796.0244,-154.8949 803.0994,-147.0085 792.6506,-148.7616 796.0244,-154.8949"/>
</g>
<!-- assertions/index.js -->
<g id="node3" class="node">
<title>assertions/index.js</title>
<polygon fill="none" stroke="#242424" stroke-width="4" points="353.0546,-850.3001 200.4544,-850.3001 200.4544,-697.6999 353.0546,-697.6999 353.0546,-850.3001"/>
<text text-anchor="middle" x="276.7545" y="-771.6" font-family="Fira Code" font-size="12.00" fill="#242424">assertions/index.js</text>
</g>
<!-- assertions/index.js&#45;&gt;assertions/all&#45;props&#45;are&#45;functions.js -->
<g id="edge2" class="edge">
<title>assertions/index.js&#45;&gt;assertions/all&#45;props&#45;are&#45;functions.js</title>
<path fill="none" stroke="#242424" d="M313.8675,-697.6108C332.7267,-658.7933 356.3231,-610.2251 378.6366,-564.2976"/>
<polygon fill="#242424" stroke="#242424" points="381.8585,-565.6751 383.0804,-555.151 375.5622,-562.6161 381.8585,-565.6751"/>
</g>
<!-- assertions/reject&#45;non&#45;functions.js -->
<g id="node4" class="node">
<title>assertions/reject&#45;non&#45;functions.js</title>
<polygon fill="none" stroke="#242424" stroke-width="4" points="872.0546,-544.1001 611.4544,-544.1001 611.4544,-283.4999 872.0546,-283.4999 872.0546,-544.1001"/>
<text text-anchor="middle" x="741.7545" y="-411.4" font-family="Fira Code" font-size="12.00" fill="#242424">assertions/reject&#45;non&#45;functions.js</text>
</g>
<!-- assertions/index.js&#45;&gt;assertions/reject&#45;non&#45;functions.js -->
<g id="edge3" class="edge">
<title>assertions/index.js&#45;&gt;assertions/reject&#45;non&#45;functions.js</title>
<path fill="none" stroke="#242424" d="M313.0779,-697.5478C327.1245,-674.4997 345.101,-650.8707 366.7545,-634 453.6751,-566.2782 508.2209,-613.2486 601.7545,-555 604.3803,-553.3647 606.9939,-551.671 609.5928,-549.9248"/>
<polygon fill="#242424" stroke="#242424" points="611.6368,-552.7664 617.8398,-544.1773 607.6344,-547.0235 611.6368,-552.7664"/>
</g>
<!-- assertions/reject&#45;non&#45;functions.js&#45;&gt;Ⓜ f&#45;utility/f&#45;utility.js -->
<g id="edge4" class="edge">
<title>assertions/reject&#45;non&#45;functions.js&#45;&gt;Ⓜ f&#45;utility/f&#45;utility.js</title>
<path fill="none" stroke="#242424" d="M806.7031,-283.4917C820.1033,-256.6065 834.0609,-228.6031 846.9659,-202.7113"/>
<polygon fill="#242424" stroke="#242424" points="850.1556,-204.1577 851.484,-193.6464 843.8907,-201.035 850.1556,-204.1577"/>
</g>
<!-- either/ap.js -->
<g id="node5" class="node">
<title>either/ap.js</title>
<polygon fill="none" stroke="#242424" stroke-width="4" points="1063.1553,-1131.6008 960.3537,-1131.6008 960.3537,-1028.7992 1063.1553,-1028.7992 1063.1553,-1131.6008"/>
<text text-anchor="middle" x="1011.7545" y="-1077.8" font-family="Fira Code" font-size="12.00" fill="#242424">either/ap.js</text>
</g>
<!-- Ⓜ entrust/entrust.js -->
<g id="node6" class="node">
<title>Ⓜ entrust/entrust.js</title>
<polygon fill="none" stroke="#0c821d" stroke-width="4" points="1063.0546,-856.3001 898.4544,-856.3001 898.4544,-691.6999 1063.0546,-691.6999 1063.0546,-856.3001"/>
<text text-anchor="middle" x="980.7545" y="-772.8" font-family="Fira Code" font-size="12.00" fill="#0c821d">Ⓜ entrust/entrust.js</text>
</g>
<!-- either/ap.js&#45;&gt;Ⓜ entrust/entrust.js -->
<g id="edge5" class="edge">
<title>either/ap.js&#45;&gt;Ⓜ entrust/entrust.js</title>
<path fill="none" stroke="#242424" d="M1006.5658,-1028.949C1002.0885,-984.7252 995.5106,-919.7519 990.1159,-866.4662"/>
<polygon fill="#242424" stroke="#242424" points="993.578,-865.9145 989.0884,-856.3179 986.6136,-866.6196 993.578,-865.9145"/>
</g>
<!-- either/assert.js -->
<g id="node7" class="node">
<title>either/assert.js</title>
<polygon fill="none" stroke="#242424" stroke-width="4" points="1059.4547,-479.5002 928.0543,-479.5002 928.0543,-348.0998 1059.4547,-348.0998 1059.4547,-479.5002"/>
<text text-anchor="middle" x="993.7545" y="-411.4" font-family="Fira Code" font-size="12.00" fill="#242424">either/assert.js</text>
</g>
<!-- either/assert.js&#45;&gt;Ⓜ f&#45;utility/f&#45;utility.js -->
<g id="edge6" class="edge">
<title>either/assert.js&#45;&gt;Ⓜ f&#45;utility/f&#45;utility.js</title>
<path fill="none" stroke="#242424" d="M974.2776,-348.1174C961.9014,-306.3807 945.594,-251.3864 931.3901,-203.486"/>
<polygon fill="#242424" stroke="#242424" points="934.685,-202.2859 928.4864,-193.6936 927.9738,-204.2761 934.685,-202.2859"/>
</g>
<!-- either/bimap.js -->
<g id="node8" class="node">
<title>either/bimap.js</title>
<polygon fill="none" stroke="#242424" stroke-width="4" points="942.7545,-1142.2 818.7545,-1142.2 818.7545,-1018.2 942.7545,-1018.2 942.7545,-1142.2"/>
<text text-anchor="middle" x="880.7545" y="-1077.8" font-family="Fira Code" font-size="12.00" fill="#242424">either/bimap.js</text>
</g>
<!-- either/bimap.js&#45;&gt;Ⓜ entrust/entrust.js -->
<g id="edge7" class="edge">
<title>either/bimap.js&#45;&gt;Ⓜ entrust/entrust.js</title>
<path fill="none" stroke="#242424" d="M901.1115,-1017.8668C915.3525,-974.2611 934.6145,-915.2806 950.6282,-866.2467"/>
<polygon fill="#242424" stroke="#242424" points="954.0077,-867.1725 953.7852,-856.58 947.3536,-864.9994 954.0077,-867.1725"/>
</g>
<!-- either/fold.js -->
<g id="node9" class="node">
<title>either/fold.js</title>
<polygon fill="none" stroke="#242424" stroke-width="4" points="1235.0547,-1138.5002 1118.4543,-1138.5002 1118.4543,-1021.8998 1235.0547,-1021.8998 1235.0547,-1138.5002"/>
<text text-anchor="middle" x="1176.7545" y="-1077.8" font-family="Fira Code" font-size="12.00" fill="#242424">either/fold.js</text>
</g>
<!-- either/fold.js&#45;&gt;Ⓜ entrust/entrust.js -->
<g id="edge8" class="edge">
<title>either/fold.js&#45;&gt;Ⓜ entrust/entrust.js</title>
<path fill="none" stroke="#242424" d="M1139.4271,-1021.8854C1111.0783,-977.5977 1071.5623,-915.864 1039.0577,-865.0839"/>
<polygon fill="#242424" stroke="#242424" points="1041.8294,-862.9218 1033.4904,-856.3864 1035.9338,-866.6956 1041.8294,-862.9218"/>
</g>
<!-- either/guided&#45;left.js -->
<g id="node10" class="node">
<title>either/guided&#45;left.js</title>
<polygon fill="none" stroke="#242424" stroke-width="4" points="570.4546,-1163.9001 403.0544,-1163.9001 403.0544,-996.4999 570.4546,-996.4999 570.4546,-1163.9001"/>
<text text-anchor="middle" x="486.7545" y="-1077.8" font-family="Fira Code" font-size="12.00" fill="#242424">either/guided&#45;left.js</text>
</g>
<!-- Ⓜ fantasy&#45;eithers/fantasy&#45;eithers.js -->
<g id="node11" class="node">
<title>Ⓜ fantasy&#45;eithers/fantasy&#45;eithers.js</title>
<polygon fill="none" stroke="#0c821d" stroke-width="4" points="700.7545,-914 420.7545,-914 420.7545,-634 700.7545,-634 700.7545,-914"/>
<text text-anchor="middle" x="560.7545" y="-772.8" font-family="Fira Code" font-size="12.00" fill="#0c821d">Ⓜ fantasy&#45;eithers/fantasy&#45;eithers.js</text>
</g>
<!-- either/guided&#45;left.js&#45;&gt;Ⓜ fantasy&#45;eithers/fantasy&#45;eithers.js -->
<g id="edge9" class="edge">
<title>either/guided&#45;left.js&#45;&gt;Ⓜ fantasy&#45;eithers/fantasy&#45;eithers.js</title>
<path fill="none" stroke="#242424" d="M506.9753,-996.5295C512.4154,-974.0194 518.4694,-948.9688 524.4972,-924.027"/>
<polygon fill="#242424" stroke="#242424" points="527.9476,-924.6488 526.8947,-914.1064 521.1435,-923.0044 527.9476,-924.6488"/>
</g>
<!-- either/guided.js -->
<g id="node12" class="node">
<title>either/guided.js</title>
<polygon fill="none" stroke="#242424" stroke-width="4" points="856.4547,-839.7002 725.0543,-839.7002 725.0543,-708.2998 856.4547,-708.2998 856.4547,-839.7002"/>
<text text-anchor="middle" x="790.7545" y="-771.6" font-family="Fira Code" font-size="12.00" fill="#242424">either/guided.js</text>
</g>
<!-- either/guided&#45;left.js&#45;&gt;either/guided.js -->
<g id="edge10" class="edge">
<title>either/guided&#45;left.js&#45;&gt;either/guided.js</title>
<path fill="none" stroke="#242424" d="M570.479,-1000.2675C573.573,-997.7731 576.6702,-995.343 579.7545,-993 633.5922,-952.103 662.465,-962.3194 709.7545,-914 728.2208,-895.1316 744.0486,-871.239 756.6851,-848.5576"/>
<polygon fill="#242424" stroke="#242424" points="759.8509,-850.0619 761.5474,-839.6038 753.6994,-846.7214 759.8509,-850.0619"/>
</g>
<!-- either/guided.js&#45;&gt;Ⓜ f&#45;utility/f&#45;utility.js -->
<g id="edge13" class="edge">
<title>either/guided.js&#45;&gt;Ⓜ f&#45;utility/f&#45;utility.js</title>
<path fill="none" stroke="#242424" d="M824.7884,-708.3765C845.0397,-665.8582 869.0102,-608.6054 880.7545,-555 906.6474,-436.8149 908.495,-297.4858 905.7203,-203.7596"/>
<polygon fill="#242424" stroke="#242424" points="909.2165,-203.5825 905.3995,-193.6991 902.2201,-203.8056 909.2165,-203.5825"/>
</g>
<!-- either/guided.js&#45;&gt;either/assert.js -->
<g id="edge14" class="edge">
<title>either/guided.js&#45;&gt;either/assert.js</title>
<path fill="none" stroke="#242424" d="M827.7518,-708.3526C862.703,-646.3358 915.0775,-553.4032 951.6209,-488.5613"/>
<polygon fill="#242424" stroke="#242424" points="954.8081,-490.0345 956.6688,-479.6044 948.7099,-486.5977 954.8081,-490.0345"/>
</g>
<!-- either/guided&#45;right.js -->
<g id="node13" class="node">
<title>either/guided&#45;right.js</title>
<polygon fill="none" stroke="#242424" stroke-width="4" points="763.155,-1167.6005 588.354,-1167.6005 588.354,-992.7995 763.155,-992.7995 763.155,-1167.6005"/>
<text text-anchor="middle" x="675.7545" y="-1077.8" font-family="Fira Code" font-size="12.00" fill="#242424">either/guided&#45;right.js</text>
</g>
<!-- either/guided&#45;right.js&#45;&gt;Ⓜ fantasy&#45;eithers/fantasy&#45;eithers.js -->
<g id="edge11" class="edge">
<title>either/guided&#45;right.js&#45;&gt;Ⓜ fantasy&#45;eithers/fantasy&#45;eithers.js</title>
<path fill="none" stroke="#242424" d="M642.954,-992.8651C634.8074,-971.174 625.8442,-947.3083 616.9236,-923.5564"/>
<polygon fill="#242424" stroke="#242424" points="620.168,-922.24 613.3755,-914.109 613.6149,-924.7011 620.168,-922.24"/>
</g>
<!-- either/guided&#45;right.js&#45;&gt;either/guided.js -->
<g id="edge12" class="edge">
<title>either/guided&#45;right.js&#45;&gt;either/guided.js</title>
<path fill="none" stroke="#242424" d="M708.555,-992.8651C725.5638,-947.5774 746.1326,-892.8107 762.4397,-849.3911"/>
<polygon fill="#242424" stroke="#242424" points="765.718,-850.617 765.9574,-840.0249 759.1649,-848.1558 765.718,-850.617"/>
</g>
<!-- either/index.js -->
<g id="node14" class="node">
<title>either/index.js</title>
<polygon fill="none" stroke="#242424" stroke-width="4" points="1007.7545,-1370.4 883.7545,-1370.4 883.7545,-1246.4 1007.7545,-1246.4 1007.7545,-1370.4"/>
<text text-anchor="middle" x="945.7545" y="-1306" font-family="Fira Code" font-size="12.00" fill="#242424">either/index.js</text>
</g>
<!-- either/index.js&#45;&gt;either/ap.js -->
<g id="edge15" class="edge">
<title>either/index.js&#45;&gt;either/ap.js</title>
<path fill="none" stroke="#242424" d="M963.7021,-1246.3448C973.146,-1213.6917 984.6831,-1173.8013 994.0854,-1141.2922"/>
<polygon fill="#242424" stroke="#242424" points="997.5139,-1142.0351 996.9301,-1131.4564 990.7895,-1140.0903 997.5139,-1142.0351"/>
</g>
<!-- either/index.js&#45;&gt;either/assert.js -->
<g id="edge16" class="edge">
<title>either/index.js&#45;&gt;either/assert.js</title>
<path fill="none" stroke="#242424" d="M1008.0592,-1257.3568C1032.8862,-1233.0332 1058.6424,-1201.7511 1071.7545,-1167.4 1114.0249,-1056.6599 1091.8335,-750.8203 1071.7545,-634 1063.1958,-584.2054 1044.4957,-530.7282 1027.5512,-488.9446"/>
<polygon fill="#242424" stroke="#242424" points="1030.7793,-487.5916 1023.742,-479.6715 1024.3043,-490.2514 1030.7793,-487.5916"/>
</g>
<!-- either/index.js&#45;&gt;either/bimap.js -->
<g id="edge17" class="edge">
<title>either/index.js&#45;&gt;either/bimap.js</title>
<path fill="none" stroke="#242424" d="M928.0788,-1246.3448C919.7679,-1217.1671 909.811,-1182.2106 901.1789,-1151.9055"/>
<polygon fill="#242424" stroke="#242424" points="904.5323,-1150.9015 898.4267,-1142.2429 897.8,-1152.8192 904.5323,-1150.9015"/>
</g>
<!-- either/index.js&#45;&gt;either/fold.js -->
<g id="edge18" class="edge">
<title>either/index.js&#45;&gt;either/fold.js</title>
<path fill="none" stroke="#242424" d="M1007.8091,-1257.2889C1038.0672,-1231.4014 1074.3894,-1198.8551 1104.7545,-1167.4 1111.1631,-1160.7613 1117.6455,-1153.621 1123.9585,-1146.3871"/>
<polygon fill="#242424" stroke="#242424" points="1126.8592,-1148.3823 1130.7307,-1138.5201 1121.5541,-1143.8154 1126.8592,-1148.3823"/>
</g>
<!-- either/index.js&#45;&gt;either/guided&#45;left.js -->
<g id="edge19" class="edge">
<title>either/index.js&#45;&gt;either/guided&#45;left.js</title>
<path fill="none" stroke="#242424" d="M883.455,-1292.3748C807.7898,-1271.1695 678.0917,-1229.1172 579.7545,-1167.4 579.4645,-1167.218 579.1746,-1167.035 578.8849,-1166.8511"/>
<polygon fill="#242424" stroke="#242424" points="580.7822,-1163.9094 570.5233,-1161.2625 576.8924,-1169.7292 580.7822,-1163.9094"/>
</g>
<!-- either/index.js&#45;&gt;either/guided.js -->
<g id="edge21" class="edge">
<title>either/index.js&#45;&gt;either/guided.js</title>
<path fill="none" stroke="#242424" d="M883.6772,-1261.772C855.8093,-1237.0768 825.6708,-1204.2413 809.7545,-1167.4 765.2387,-1064.3597 769.9999,-931.7097 779.1464,-849.7897"/>
<polygon fill="#242424" stroke="#242424" points="782.6282,-850.1481 780.3105,-839.8099 775.6754,-849.337 782.6282,-850.1481"/>
</g>
<!-- either/index.js&#45;&gt;either/guided&#45;right.js -->
<g id="edge20" class="edge">
<title>either/index.js&#45;&gt;either/guided&#45;right.js</title>
<path fill="none" stroke="#242424" d="M883.7383,-1257.0827C851.688,-1230.4545 812.0049,-1197.3184 776.7545,-1167.4 774.7841,-1165.7276 772.7936,-1164.0354 770.7886,-1162.3283"/>
<polygon fill="#242424" stroke="#242424" points="772.8737,-1159.5066 762.9941,-1155.6799 768.331,-1164.8324 772.8737,-1159.5066"/>
</g>
<!-- errors/expect&#45;function&#45;props.js -->
<g id="node15" class="node">
<title>errors/expect&#45;function&#45;props.js</title>
<polygon fill="none" stroke="#242424" stroke-width="4" points="292.4546,-533.5001 53.0544,-533.5001 53.0544,-294.0999 292.4546,-294.0999 292.4546,-533.5001"/>
<text text-anchor="middle" x="172.7545" y="-411.4" font-family="Fira Code" font-size="12.00" fill="#242424">errors/expect&#45;function&#45;props.js</text>
</g>
<!-- errors/expect&#45;function&#45;props.js&#45;&gt;Ⓜ f&#45;utility/f&#45;utility.js -->
<g id="edge22" class="edge">
<title>errors/expect&#45;function&#45;props.js&#45;&gt;Ⓜ f&#45;utility/f&#45;utility.js</title>
<path fill="none" stroke="#242424" d="M272.7483,-293.8887C282.0506,-286.0707 291.7564,-278.8435 301.7545,-272.6 456.804,-175.7754 667.612,-130.186 793.0806,-110.3747"/>
<polygon fill="#242424" stroke="#242424" points="793.7391,-113.8145 803.0836,-108.8214 792.6649,-106.8974 793.7391,-113.8145"/>
</g>
<!-- guiderail.js -->
<g id="node16" class="node">
<title>guiderail.js</title>
<polygon fill="none" stroke="#242424" stroke-width="4" points="1227.1553,-465.2008 1124.3537,-465.2008 1124.3537,-362.3992 1227.1553,-362.3992 1227.1553,-465.2008"/>
<text text-anchor="middle" x="1175.7545" y="-411.4" font-family="Fira Code" font-size="12.00" fill="#242424">guiderail.js</text>
</g>
<!-- guiderail.js&#45;&gt;Ⓜ f&#45;utility/f&#45;utility.js -->
<g id="edge23" class="edge">
<title>guiderail.js&#45;&gt;Ⓜ f&#45;utility/f&#45;utility.js</title>
<path fill="none" stroke="#242424" d="M1139.0213,-362.3551C1118.9913,-335.0816 1093.3303,-301.362 1068.7545,-272.6 1048.405,-248.7842 1025.7006,-224.0492 1003.7026,-200.9159"/>
<polygon fill="#242424" stroke="#242424" points="1006.026,-198.2809 996.5891,-193.4646 1000.9628,-203.1146 1006.026,-198.2809"/>
</g>
<!-- index.js -->
<g id="node17" class="node">
<title>index.js</title>
<polygon fill="none" stroke="#242424" stroke-width="4" points="1318.3556,-1522.8011 1245.1534,-1522.8011 1245.1534,-1449.5989 1318.3556,-1449.5989 1318.3556,-1522.8011"/>
<text text-anchor="middle" x="1281.7545" y="-1483.8" font-family="Fira Code" font-size="12.00" fill="#242424">index.js</text>
</g>
<!-- index.js&#45;&gt;Ⓜ f&#45;utility/f&#45;utility.js -->
<g id="edge25" class="edge">
<title>index.js&#45;&gt;Ⓜ f&#45;utility/f&#45;utility.js</title>
<path fill="none" stroke="#242424" d="M1284.6196,-1449.5573C1289.9274,-1378.4084 1300.7545,-1216.5635 1300.7545,-1080.2 1300.7545,-1080.2 1300.7545,-1080.2 1300.7545,-774 1300.7545,-661.6454 1300.0114,-364.7662 1235.7545,-272.6 1181.7735,-195.1729 1082.8731,-149.3319 1006.2962,-123.9825"/>
<polygon fill="#242424" stroke="#242424" points="1007.1903,-120.5932 996.5984,-120.8415 1005.0334,-127.2526 1007.1903,-120.5932"/>
</g>
<!-- index.js&#45;&gt;either/fold.js -->
<g id="edge26" class="edge">
<title>index.js&#45;&gt;either/fold.js</title>
<path fill="none" stroke="#242424" d="M1270.9531,-1449.5217C1264.3461,-1426.7912 1255.8323,-1396.9627 1248.7545,-1370.4 1228.6028,-1294.771 1207.2126,-1207.5615 1193.0333,-1148.6476"/>
<polygon fill="#242424" stroke="#242424" points="1196.3861,-1147.6202 1190.6465,-1138.7147 1189.5799,-1149.2557 1196.3861,-1147.6202"/>
</g>
<!-- index.js&#45;&gt;either/index.js -->
<g id="edge27" class="edge">
<title>index.js&#45;&gt;either/index.js</title>
<path fill="none" stroke="#242424" d="M1244.8355,-1466.6637C1190.18,-1437.7418 1086.7021,-1382.9848 1016.9759,-1346.088"/>
<polygon fill="#242424" stroke="#242424" points="1018.2717,-1342.8139 1007.7958,-1341.2302 1014.9976,-1349.001 1018.2717,-1342.8139"/>
</g>
<!-- index.js&#45;&gt;guiderail.js -->
<g id="edge28" class="edge">
<title>index.js&#45;&gt;guiderail.js</title>
<path fill="none" stroke="#242424" d="M1279.4204,-1449.3435C1274.1127,-1367.2809 1260.3064,-1163.311 1243.7545,-993 1225.3909,-804.0475 1197.4476,-581.1626 1183.8094,-475.4212"/>
<polygon fill="#242424" stroke="#242424" points="1187.2482,-474.7219 1182.4954,-465.253 1180.306,-475.6191 1187.2482,-474.7219"/>
</g>
<!-- ../handrail.js -->
<g id="node18" class="node">
<title>../handrail.js</title>
<polygon fill="none" stroke="#0c821d" stroke-width="4" points="1483.0547,-1366.7002 1366.4543,-1366.7002 1366.4543,-1250.0998 1483.0547,-1250.0998 1483.0547,-1366.7002"/>
<text text-anchor="middle" x="1424.7545" y="-1306" font-family="Fira Code" font-size="12.00" fill="#0c821d">../handrail.js</text>
</g>
<!-- index.js&#45;&gt;../handrail.js -->
<g id="edge24" class="edge">
<title>index.js&#45;&gt;../handrail.js</title>
<path fill="none" stroke="#242424" d="M1311.3842,-1449.3597C1328.6578,-1427.8825 1350.9654,-1400.1462 1371.2172,-1374.966"/>
<polygon fill="#242424" stroke="#242424" points="1374.1713,-1376.8776 1377.7112,-1366.8916 1368.7166,-1372.4905 1374.1713,-1376.8776"/>
</g>
<!-- handrail.js -->
<g id="node19" class="node">
<title>handrail.js</title>
<polygon fill="none" stroke="#0c821d" stroke-width="4" points="1596.4547,-1356.1002 1501.0543,-1356.1002 1501.0543,-1260.6998 1596.4547,-1260.6998 1596.4547,-1356.1002"/>
<text text-anchor="middle" x="1548.7545" y="-1306" font-family="Fira Code" font-size="12.00" fill="#0c821d">handrail.js</text>
</g>
<!-- index.js&#45;&gt;handrail.js -->
<g id="edge29" class="edge">
<title>index.js&#45;&gt;handrail.js</title>
<path fill="none" stroke="#242424" d="M1318.4688,-1470.3992C1362.1847,-1450.6177 1436.2511,-1413.9825 1491.7545,-1370.4 1494.687,-1368.0974 1497.6008,-1365.6383 1500.4706,-1363.0768"/>
<polygon fill="#242424" stroke="#242424" points="1503.0276,-1365.4778 1507.9469,-1356.0942 1498.2496,-1360.362 1503.0276,-1365.4778"/>
</g>
<!-- multirail.js -->
<g id="node20" class="node">
<title>multirail.js</title>
<polygon fill="none" stroke="#242424" stroke-width="4" points="1431.1553,-825.4008 1328.3537,-825.4008 1328.3537,-722.5992 1431.1553,-722.5992 1431.1553,-825.4008"/>
<text text-anchor="middle" x="1379.7545" y="-771.6" font-family="Fira Code" font-size="12.00" fill="#242424">multirail.js</text>
</g>
<!-- index.js&#45;&gt;multirail.js -->
<g id="edge30" class="edge">
<title>index.js&#45;&gt;multirail.js</title>
<path fill="none" stroke="#242424" d="M1293.9159,-1449.5584C1300.9815,-1426.9691 1309.4996,-1397.2761 1314.7545,-1370.4 1352.5097,-1177.3015 1369.9383,-944.4327 1376.4806,-835.6335"/>
<polygon fill="#242424" stroke="#242424" points="1379.9835,-835.6866 1377.08,-825.4974 1372.9957,-835.2732 1379.9835,-835.6866"/>
</g>
<!-- rail.js -->
<g id="node21" class="node">
<title>rail.js</title>
<polygon fill="none" stroke="#242424" stroke-width="4" points="464.1557,-1341.8012 397.3533,-1341.8012 397.3533,-1274.9988 464.1557,-1274.9988 464.1557,-1341.8012"/>
<text text-anchor="middle" x="430.7545" y="-1306" font-family="Fira Code" font-size="12.00" fill="#242424">rail.js</text>
</g>
<!-- index.js&#45;&gt;rail.js -->
<g id="edge31" class="edge">
<title>index.js&#45;&gt;rail.js</title>
<path fill="none" stroke="#242424" d="M1244.9149,-1478.5031C1107.211,-1449.7325 623.0408,-1348.5745 474.4501,-1317.5294"/>
<polygon fill="#242424" stroke="#242424" points="474.8454,-1314.0364 464.3409,-1315.4172 473.4137,-1320.8885 474.8454,-1314.0364"/>
</g>
<!-- multirail.js&#45;&gt;Ⓜ f&#45;utility/f&#45;utility.js -->
<g id="edge32" class="edge">
<title>multirail.js&#45;&gt;Ⓜ f&#45;utility/f&#45;utility.js</title>
<path fill="none" stroke="#242424" d="M1388.4447,-722.742C1402.0882,-624.5473 1417.3454,-407.6894 1314.7545,-272.6 1240.9398,-175.4025 1103.0096,-131.3848 1006.4977,-111.8262"/>
<polygon fill="#242424" stroke="#242424" points="1006.8994,-108.3382 996.4116,-109.8403 1005.547,-115.2063 1006.8994,-108.3382"/>
</g>
<!-- rail.js&#45;&gt;Ⓜ f&#45;utility/f&#45;utility.js -->
<g id="edge33" class="edge">
<title>rail.js&#45;&gt;Ⓜ f&#45;utility/f&#45;utility.js</title>
<path fill="none" stroke="#242424" d="M397.4246,-1295.1431C350.4873,-1274.7646 265.4404,-1231.2815 218.7545,-1167.4 99.2048,-1003.8172 -84.2942,-429.6191 43.7545,-272.6 137.2063,-158.0052 584.6603,-115.9967 792.8181,-102.4758"/>
<polygon fill="#242424" stroke="#242424" points="793.0939,-105.9654 802.8501,-101.8342 792.647,-98.9796 793.0939,-105.9654"/>
</g>
<!-- rail.js&#45;&gt;assertions/reject&#45;non&#45;functions.js -->
<g id="edge34" class="edge">
<title>rail.js&#45;&gt;assertions/reject&#45;non&#45;functions.js</title>
<path fill="none" stroke="#242424" d="M419.3855,-1274.9786C410.4011,-1246.7078 398.5959,-1204.9244 393.7545,-1167.4 378.3034,-1047.6443 407.7902,-639.6309 411.7545,-634 464.4014,-559.2206 525.857,-606.0217 601.7545,-555 603.9479,-553.5255 606.1354,-552.0128 608.3153,-550.4657"/>
<polygon fill="#242424" stroke="#242424" points="610.6848,-553.0685 616.6824,-544.3348 606.5474,-547.4221 610.6848,-553.0685"/>
</g>
<!-- rail.js&#45;&gt;either/guided&#45;left.js -->
<g id="edge35" class="edge">
<title>rail.js&#45;&gt;either/guided&#45;left.js</title>
<path fill="none" stroke="#242424" d="M439.0175,-1274.7283C445.5528,-1248.0969 455.0069,-1209.5716 463.7803,-1173.8199"/>
<polygon fill="#242424" stroke="#242424" points="467.2496,-1174.3679 466.2338,-1163.8219 460.4513,-1172.6996 467.2496,-1174.3679"/>
</g>
<!-- rail.js&#45;&gt;either/guided&#45;right.js -->
<g id="edge36" class="edge">
<title>rail.js&#45;&gt;either/guided&#45;right.js</title>
<path fill="none" stroke="#242424" d="M464.0513,-1277.3864C494.1051,-1249.3934 539.8045,-1206.8277 581.0614,-1168.3999"/>
<polygon fill="#242424" stroke="#242424" points="583.5083,-1170.9038 588.4403,-1161.5269 578.7373,-1165.7815 583.5083,-1170.9038"/>
</g>
<!-- rail.js&#45;&gt;errors/expect&#45;function&#45;props.js -->
<g id="edge37" class="edge">
<title>rail.js&#45;&gt;errors/expect&#45;function&#45;props.js</title>
<path fill="none" stroke="#242424" d="M402.3143,-1275.1396C349.1515,-1210.6288 236.0883,-1061.8166 191.7545,-914 155.2412,-792.2581 154.2471,-646.3588 160.1051,-543.6405"/>
<polygon fill="#242424" stroke="#242424" points="163.6067,-543.7168 160.712,-533.5251 156.6193,-543.2975 163.6067,-543.7168"/>
</g>
</g>
</svg>
