<?xml version="1.0" encoding="UTF-8" standalone="no"?>
<!DOCTYPE svg PUBLIC "-//W3C//DTD SVG 1.1//EN"
 "http://www.w3.org/Graphics/SVG/1.1/DTD/svg11.dtd">
<!-- Generated by graphviz version 2.40.1 (20161225.0304)
 -->
<!-- Title: G Pages: 1 -->
<svg width="2077pt" height="1849pt"
 viewBox="0.00 0.00 2076.98 1848.98" xmlns="http://www.w3.org/2000/svg" xmlns:xlink="http://www.w3.org/1999/xlink">
<g id="graph0" class="graph" transform="scale(1 1) rotate(0) translate(7.992 1840.992)">
<title>G</title>
<polygon fill="#eeeeff" stroke="transparent" points="-7.992,7.992 -7.992,-1840.992 2068.992,-1840.992 2068.992,7.992 -7.992,7.992"/>
<!-- assertions/all&#45;props&#45;are&#45;functions.js -->
<g id="node1" class="node">
<title>assertions/all&#45;props&#45;are&#45;functions.js</title>
<polygon fill="none" stroke="#242424" stroke-width="4" points="532.4003,-1086.0003 249.5997,-1086.0003 249.5997,-803.1997 532.4003,-803.1997 532.4003,-1086.0003"/>
<text text-anchor="middle" x="391" y="-942.2" font-family="Fira Code" font-size="12.00" fill="#242424">assertions/all&#45;props&#45;are&#45;functions.js</text>
</g>
<!-- f&#45;utility/f&#45;utility.js -->
<g id="node2" class="node">
<title>f&#45;utility/f&#45;utility.js</title>
<polygon fill="none" stroke="#0c821d" stroke-width="4" points="1184.4005,-174.6005 1009.5995,-174.6005 1009.5995,.2005 1184.4005,.2005 1184.4005,-174.6005"/>
<text text-anchor="middle" x="1097" y="-84.8" font-family="Fira Code" font-size="12.00" fill="#0c821d">f&#45;utility/f&#45;utility.js</text>
</g>
<!-- assertions/all&#45;props&#45;are&#45;functions.js&#45;&gt;f&#45;utility/f&#45;utility.js -->
<g id="edge1" class="edge">
<title>assertions/all&#45;props&#45;are&#45;functions.js&#45;&gt;f&#45;utility/f&#45;utility.js</title>
<path fill="none" stroke="#242424" d="M505.2243,-803.3268C618.8221,-663.1929 798.4233,-442.6178 956,-253.4 975.2533,-230.2806 996.1487,-205.4897 1015.8088,-182.2959"/>
<polygon fill="#242424" stroke="#242424" points="1018.6253,-184.3863 1022.4247,-174.4961 1013.2869,-179.8583 1018.6253,-184.3863"/>
</g>
<!-- assertions/index.js -->
<g id="node3" class="node">
<title>assertions/index.js</title>
<polygon fill="none" stroke="#242424" stroke-width="4" points="467.3001,-1317.5001 314.6999,-1317.5001 314.6999,-1164.8999 467.3001,-1164.8999 467.3001,-1317.5001"/>
<text text-anchor="middle" x="391" y="-1238.8" font-family="Fira Code" font-size="12.00" fill="#242424">assertions/index.js</text>
</g>
<!-- assertions/index.js&#45;&gt;assertions/all&#45;props&#45;are&#45;functions.js -->
<g id="edge2" class="edge">
<title>assertions/index.js&#45;&gt;assertions/all&#45;props&#45;are&#45;functions.js</title>
<path fill="none" stroke="#242424" d="M391,-1164.8181C391,-1143.7169 391,-1120.0526 391,-1096.2726"/>
<polygon fill="#242424" stroke="#242424" points="394.5001,-1096.0812 391,-1086.0813 387.5001,-1096.0813 394.5001,-1096.0812"/>
</g>
<!-- assertions/judge&#45;object.js -->
<g id="node4" class="node">
<title>assertions/judge&#45;object.js</title>
<polygon fill="none" stroke="#242424" stroke-width="4" points="231.7001,-1046.3001 28.2999,-1046.3001 28.2999,-842.8999 231.7001,-842.8999 231.7001,-1046.3001"/>
<text text-anchor="middle" x="130" y="-942.2" font-family="Fira Code" font-size="12.00" fill="#242424">assertions/judge&#45;object.js</text>
</g>
<!-- assertions/index.js&#45;&gt;assertions/judge&#45;object.js -->
<g id="edge3" class="edge">
<title>assertions/index.js&#45;&gt;assertions/judge&#45;object.js</title>
<path fill="none" stroke="#242424" d="M314.6448,-1165.189C290.5374,-1140.3791 264.1612,-1112.3695 241,-1085.8 232.1791,-1075.681 223.1858,-1064.9722 214.3277,-1054.1582"/>
<polygon fill="#242424" stroke="#242424" points="216.9344,-1051.8163 207.9059,-1046.2722 211.5064,-1056.2365 216.9344,-1051.8163"/>
</g>
<!-- assertions/reject&#45;non&#45;functions.js -->
<g id="node5" class="node">
<title>assertions/reject&#45;non&#45;functions.js</title>
<polygon fill="none" stroke="#242424" stroke-width="4" points="811.3001,-1074.9001 550.6999,-1074.9001 550.6999,-814.2999 811.3001,-814.2999 811.3001,-1074.9001"/>
<text text-anchor="middle" x="681" y="-942.2" font-family="Fira Code" font-size="12.00" fill="#242424">assertions/reject&#45;non&#45;functions.js</text>
</g>
<!-- assertions/index.js&#45;&gt;assertions/reject&#45;non&#45;functions.js -->
<g id="edge4" class="edge">
<title>assertions/index.js&#45;&gt;assertions/reject&#45;non&#45;functions.js</title>
<path fill="none" stroke="#242424" d="M465.6822,-1164.8181C490.3586,-1139.5801 518.6201,-1110.6755 546.3722,-1082.2917"/>
<polygon fill="#242424" stroke="#242424" points="548.9259,-1084.6864 553.4144,-1075.0893 543.9207,-1079.7926 548.9259,-1084.6864"/>
</g>
<!-- assertions/judge&#45;object.js&#45;&gt;f&#45;utility/f&#45;utility.js -->
<g id="edge5" class="edge">
<title>assertions/judge&#45;object.js&#45;&gt;f&#45;utility/f&#45;utility.js</title>
<path fill="none" stroke="#242424" d="M207.799,-842.8342C218.72,-829.3821 229.9812,-815.9252 241,-803.4 482.551,-528.8272 555.935,-466.6826 853,-253.4 901.3083,-218.7163 955.9496,-181.3311 1001.2596,-150.8181"/>
<polygon fill="#242424" stroke="#242424" points="1003.2637,-153.6883 1009.6078,-145.2029 999.3568,-147.88 1003.2637,-153.6883"/>
</g>
<!-- assertions/reject&#45;non&#45;functions.js&#45;&gt;f&#45;utility/f&#45;utility.js -->
<g id="edge6" class="edge">
<title>assertions/reject&#45;non&#45;functions.js&#45;&gt;f&#45;utility/f&#45;utility.js</title>
<path fill="none" stroke="#242424" d="M744.4077,-813.913C828.5932,-640.4018 975.324,-337.9813 1050.177,-183.7049"/>
<polygon fill="#242424" stroke="#242424" points="1053.3473,-185.1885 1054.5637,-174.6637 1047.0495,-182.1328 1053.3473,-185.1885"/>
</g>
<!-- either/ap.js -->
<g id="node6" class="node">
<title>either/ap.js</title>
<polygon fill="none" stroke="#242424" stroke-width="4" points="1757.4008,-996.0008 1654.5992,-996.0008 1654.5992,-893.1992 1757.4008,-893.1992 1757.4008,-996.0008"/>
<text text-anchor="middle" x="1706" y="-942.2" font-family="Fira Code" font-size="12.00" fill="#242424">either/ap.js</text>
</g>
<!-- entrust/entrust.js -->
<g id="node7" class="node">
<title>entrust/entrust.js</title>
<polygon fill="none" stroke="#0c821d" stroke-width="4" points="1909.6005,-666.6005 1764.3995,-666.6005 1764.3995,-521.3995 1909.6005,-521.3995 1909.6005,-666.6005"/>
<text text-anchor="middle" x="1837" y="-591.6" font-family="Fira Code" font-size="12.00" fill="#0c821d">entrust/entrust.js</text>
</g>
<!-- either/ap.js&#45;&gt;entrust/entrust.js -->
<g id="edge7" class="edge">
<title>either/ap.js&#45;&gt;entrust/entrust.js</title>
<path fill="none" stroke="#242424" d="M1725.1888,-893.2443C1746.458,-836.3209 1781.0656,-743.6991 1806.151,-676.5623"/>
<polygon fill="#242424" stroke="#242424" points="1809.5587,-677.4416 1809.7803,-666.8491 1803.0015,-674.9915 1809.5587,-677.4416"/>
</g>
<!-- either/assert.js -->
<g id="node8" class="node">
<title>either/assert.js</title>
<polygon fill="none" stroke="#242424" stroke-width="4" points="1610.7002,-384.7002 1479.2998,-384.7002 1479.2998,-253.2998 1610.7002,-253.2998 1610.7002,-384.7002"/>
<text text-anchor="middle" x="1545" y="-316.6" font-family="Fira Code" font-size="12.00" fill="#242424">either/assert.js</text>
</g>
<!-- either/assert.js&#45;&gt;f&#45;utility/f&#45;utility.js -->
<g id="edge8" class="edge">
<title>either/assert.js&#45;&gt;f&#45;utility/f&#45;utility.js</title>
<path fill="none" stroke="#242424" d="M1479.3772,-285.046C1404.028,-246.0596 1279.7281,-181.7455 1193.3867,-137.0715"/>
<polygon fill="#242424" stroke="#242424" points="1194.8564,-133.8913 1184.3665,-132.4043 1191.6396,-140.1084 1194.8564,-133.8913"/>
</g>
<!-- either/bimap.js -->
<g id="node9" class="node">
<title>either/bimap.js</title>
<polygon fill="none" stroke="#242424" stroke-width="4" points="1899,-1006.6 1775,-1006.6 1775,-882.6 1899,-882.6 1899,-1006.6"/>
<text text-anchor="middle" x="1837" y="-942.2" font-family="Fira Code" font-size="12.00" fill="#242424">either/bimap.js</text>
</g>
<!-- either/bimap.js&#45;&gt;entrust/entrust.js -->
<g id="edge9" class="edge">
<title>either/bimap.js&#45;&gt;entrust/entrust.js</title>
<path fill="none" stroke="#242424" d="M1837,-882.3237C1837,-825.1929 1837,-740.1418 1837,-677.2068"/>
<polygon fill="#242424" stroke="#242424" points="1840.5001,-676.9102 1837,-666.9102 1833.5001,-676.9103 1840.5001,-676.9102"/>
</g>
<!-- either/fold.js -->
<g id="node10" class="node">
<title>either/fold.js</title>
<polygon fill="none" stroke="#242424" stroke-width="4" points="2033.3002,-1002.9002 1916.6998,-1002.9002 1916.6998,-886.2998 2033.3002,-886.2998 2033.3002,-1002.9002"/>
<text text-anchor="middle" x="1975" y="-942.2" font-family="Fira Code" font-size="12.00" fill="#242424">either/fold.js</text>
</g>
<!-- either/fold.js&#45;&gt;entrust/entrust.js -->
<g id="edge10" class="edge">
<title>either/fold.js&#45;&gt;entrust/entrust.js</title>
<path fill="none" stroke="#242424" d="M1951.9019,-885.9174C1929.304,-828.5057 1894.6846,-740.5524 1869.3512,-676.1907"/>
<polygon fill="#242424" stroke="#242424" points="1872.6028,-674.8956 1865.6834,-666.8724 1866.0892,-677.4595 1872.6028,-674.8956"/>
</g>
<!-- either/guided&#45;left.js -->
<g id="node11" class="node">
<title>either/guided&#45;left.js</title>
<polygon fill="none" stroke="#242424" stroke-width="4" points="1560.7001,-1028.3001 1393.2999,-1028.3001 1393.2999,-860.8999 1560.7001,-860.8999 1560.7001,-1028.3001"/>
<text text-anchor="middle" x="1477" y="-942.2" font-family="Fira Code" font-size="12.00" fill="#242424">either/guided&#45;left.js</text>
</g>
<!-- fantasy&#45;eithers/fantasy&#45;eithers.js -->
<g id="node12" class="node">
<title>fantasy&#45;eithers/fantasy&#45;eithers.js</title>
<polygon fill="none" stroke="#0c821d" stroke-width="4" points="1461.3001,-724.3001 1200.6999,-724.3001 1200.6999,-463.6999 1461.3001,-463.6999 1461.3001,-724.3001"/>
<text text-anchor="middle" x="1331" y="-591.6" font-family="Fira Code" font-size="12.00" fill="#0c821d">fantasy&#45;eithers/fantasy&#45;eithers.js</text>
</g>
<!-- either/guided&#45;left.js&#45;&gt;fantasy&#45;eithers/fantasy&#45;eithers.js -->
<g id="edge11" class="edge">
<title>either/guided&#45;left.js&#45;&gt;fantasy&#45;eithers/fantasy&#45;eithers.js</title>
<path fill="none" stroke="#242424" d="M1442.0294,-860.6226C1426.232,-822.6871 1407.138,-776.8355 1389.2721,-733.9328"/>
<polygon fill="#242424" stroke="#242424" points="1392.4363,-732.4268 1385.361,-724.5408 1385.9743,-735.1178 1392.4363,-732.4268"/>
</g>
<!-- either/guided.js -->
<g id="node13" class="node">
<title>either/guided.js</title>
<polygon fill="none" stroke="#242424" stroke-width="4" points="1610.7002,-659.7002 1479.2998,-659.7002 1479.2998,-528.2998 1610.7002,-528.2998 1610.7002,-659.7002"/>
<text text-anchor="middle" x="1545" y="-591.6" font-family="Fira Code" font-size="12.00" fill="#242424">either/guided.js</text>
</g>
<!-- either/guided&#45;left.js&#45;&gt;either/guided.js -->
<g id="edge12" class="edge">
<title>either/guided&#45;left.js&#45;&gt;either/guided.js</title>
<path fill="none" stroke="#242424" d="M1493.2877,-860.6226C1504.5557,-802.5259 1519.4248,-725.8628 1530.3257,-669.6591"/>
<polygon fill="#242424" stroke="#242424" points="1533.7765,-670.2486 1532.2446,-659.7651 1526.9045,-668.9157 1533.7765,-670.2486"/>
</g>
<!-- either/guided.js&#45;&gt;f&#45;utility/f&#45;utility.js -->
<g id="edge15" class="edge">
<title>either/guided.js&#45;&gt;f&#45;utility/f&#45;utility.js</title>
<path fill="none" stroke="#242424" d="M1511.5442,-528.224C1499.5482,-506.8597 1485.2011,-483.5378 1470,-463.6 1385.974,-353.391 1271.681,-242.5519 1191.8365,-169.9854"/>
<polygon fill="#242424" stroke="#242424" points="1193.9799,-167.2045 1184.2193,-163.0836 1189.2798,-172.3919 1193.9799,-167.2045"/>
</g>
<!-- either/guided.js&#45;&gt;either/assert.js -->
<g id="edge16" class="edge">
<title>either/guided.js&#45;&gt;either/assert.js</title>
<path fill="none" stroke="#242424" d="M1545,-528.1306C1545,-488.0555 1545,-436.7173 1545,-394.9362"/>
<polygon fill="#242424" stroke="#242424" points="1548.5001,-394.8079 1545,-384.8079 1541.5001,-394.8079 1548.5001,-394.8079"/>
</g>
<!-- either/guided&#45;right.js -->
<g id="node14" class="node">
<title>either/guided&#45;right.js</title>
<polygon fill="none" stroke="#242424" stroke-width="4" points="1375.4005,-1032.0005 1200.5995,-1032.0005 1200.5995,-857.1995 1375.4005,-857.1995 1375.4005,-1032.0005"/>
<text text-anchor="middle" x="1288" y="-942.2" font-family="Fira Code" font-size="12.00" fill="#242424">either/guided&#45;right.js</text>
</g>
<!-- either/guided&#45;right.js&#45;&gt;fantasy&#45;eithers/fantasy&#45;eithers.js -->
<g id="edge13" class="edge">
<title>either/guided&#45;right.js&#45;&gt;fantasy&#45;eithers/fantasy&#45;eithers.js</title>
<path fill="none" stroke="#242424" d="M1298.7398,-857.0332C1303.2785,-820.027 1308.6792,-775.9926 1313.7511,-734.6388"/>
<polygon fill="#242424" stroke="#242424" points="1317.2548,-734.8214 1314.9983,-724.4697 1310.3069,-733.9692 1317.2548,-734.8214"/>
</g>
<!-- either/guided&#45;right.js&#45;&gt;either/guided.js -->
<g id="edge14" class="edge">
<title>either/guided&#45;right.js&#45;&gt;either/guided.js</title>
<path fill="none" stroke="#242424" d="M1342.8305,-857.1448C1355.59,-838.8017 1369.6608,-820.0002 1384,-803.4 1417.9272,-764.1231 1437.5723,-764.9237 1470,-724.4 1483.5935,-707.4127 1496.2821,-687.6725 1507.2152,-668.7699"/>
<polygon fill="#242424" stroke="#242424" points="1510.3771,-670.29 1512.2742,-659.8664 1504.2909,-666.8318 1510.3771,-670.29"/>
</g>
<!-- either/index.js -->
<g id="node15" class="node">
<title>either/index.js</title>
<polygon fill="none" stroke="#242424" stroke-width="4" points="1670,-1303.2 1546,-1303.2 1546,-1179.2 1670,-1179.2 1670,-1303.2"/>
<text text-anchor="middle" x="1608" y="-1238.8" font-family="Fira Code" font-size="12.00" fill="#242424">either/index.js</text>
</g>
<!-- either/index.js&#45;&gt;either/ap.js -->
<g id="edge17" class="edge">
<title>either/index.js&#45;&gt;either/ap.js</title>
<path fill="none" stroke="#242424" d="M1628.544,-1179.0229C1645.417,-1127.9562 1669.1791,-1056.0396 1685.9233,-1005.3629"/>
<polygon fill="#242424" stroke="#242424" points="1689.2554,-1006.4338 1689.0695,-995.8406 1682.6089,-1004.2377 1689.2554,-1006.4338"/>
</g>
<!-- either/index.js&#45;&gt;either/assert.js -->
<g id="edge18" class="edge">
<title>either/index.js&#45;&gt;either/assert.js</title>
<path fill="none" stroke="#242424" d="M1612.9878,-1178.9691C1625.1359,-1019.3778 1652.9334,-598.6238 1620,-463.6 1614.1691,-439.6939 1603.6376,-415.3337 1592.2744,-393.59"/>
<polygon fill="#242424" stroke="#242424" points="1595.35,-391.9192 1587.5404,-384.7596 1589.1806,-395.2267 1595.35,-391.9192"/>
</g>
<!-- either/index.js&#45;&gt;either/bimap.js -->
<g id="edge19" class="edge">
<title>either/index.js&#45;&gt;either/bimap.js</title>
<path fill="none" stroke="#242424" d="M1670.212,-1188.8709C1701.4785,-1160.5011 1738.4668,-1123.5782 1766,-1085.8 1781.551,-1064.4625 1795.4428,-1039.2158 1806.7256,-1016.0135"/>
<polygon fill="#242424" stroke="#242424" points="1809.9287,-1017.4279 1811.0785,-1006.8956 1803.6116,-1014.412 1809.9287,-1017.4279"/>
</g>
<!-- either/index.js&#45;&gt;either/fold.js -->
<g id="edge20" class="edge">
<title>either/index.js&#45;&gt;either/fold.js</title>
<path fill="none" stroke="#242424" d="M1670.1932,-1222.3307C1736.5322,-1199.447 1841.0744,-1155.103 1908,-1085.8 1927.8054,-1065.291 1942.6401,-1037.8297 1953.2478,-1012.5785"/>
<polygon fill="#242424" stroke="#242424" points="1956.6056,-1013.611 1957.108,-1003.028 1950.1156,-1010.9878 1956.6056,-1013.611"/>
</g>
<!-- either/index.js&#45;&gt;either/guided&#45;left.js -->
<g id="edge21" class="edge">
<title>either/index.js&#45;&gt;either/guided&#45;left.js</title>
<path fill="none" stroke="#242424" d="M1580.5381,-1179.0229C1562.4641,-1138.1011 1538.4766,-1083.7904 1518.1416,-1037.7497"/>
<polygon fill="#242424" stroke="#242424" points="1521.2358,-1036.0922 1513.9939,-1028.3588 1514.8326,-1038.9204 1521.2358,-1036.0922"/>
</g>
<!-- either/index.js&#45;&gt;either/guided.js -->
<g id="edge23" class="edge">
<title>either/index.js&#45;&gt;either/guided.js</title>
<path fill="none" stroke="#242424" d="M1603.2479,-1179.1523C1596.6012,-1094.2543 1583.7858,-937.1574 1570,-803.4 1565.442,-759.176 1559.5832,-709.7924 1554.6832,-670.0939"/>
<polygon fill="#242424" stroke="#242424" points="1558.1303,-669.4504 1553.4268,-659.9568 1551.1834,-670.3114 1558.1303,-669.4504"/>
</g>
<!-- either/index.js&#45;&gt;either/guided&#45;right.js -->
<g id="edge22" class="edge">
<title>either/index.js&#45;&gt;either/guided&#45;right.js</title>
<path fill="none" stroke="#242424" d="M1545.9153,-1206.6814C1498.1991,-1178.2351 1432.4661,-1134.7248 1384,-1085.8 1370.4985,-1072.1707 1357.688,-1056.4083 1346.0821,-1040.4623"/>
<polygon fill="#242424" stroke="#242424" points="1348.784,-1038.223 1340.1255,-1032.1172 1343.0865,-1042.2898 1348.784,-1038.223"/>
</g>
<!-- errors/expect&#45;function&#45;props.js -->
<g id="node16" class="node">
<title>errors/expect&#45;function&#45;props.js</title>
<polygon fill="none" stroke="#242424" stroke-width="4" points="1068.7001,-1064.3001 829.2999,-1064.3001 829.2999,-824.8999 1068.7001,-824.8999 1068.7001,-1064.3001"/>
<text text-anchor="middle" x="949" y="-942.2" font-family="Fira Code" font-size="12.00" fill="#242424">errors/expect&#45;function&#45;props.js</text>
</g>
<!-- errors/expect&#45;function&#45;props.js&#45;&gt;f&#45;utility/f&#45;utility.js -->
<g id="edge24" class="edge">
<title>errors/expect&#45;function&#45;props.js&#45;&gt;f&#45;utility/f&#45;utility.js</title>
<path fill="none" stroke="#242424" d="M969.6566,-824.9311C999.1946,-653.8105 1052.9334,-342.4885 1080.1862,-184.6064"/>
<polygon fill="#242424" stroke="#242424" points="1083.6904,-184.8816 1081.9425,-174.432 1076.7924,-183.6908 1083.6904,-184.8816"/>
</g>
<!-- guiderail.js -->
<g id="node17" class="node">
<title>guiderail.js</title>
<polygon fill="none" stroke="#242424" stroke-width="4" points="1169.4008,-1680.6008 1066.5992,-1680.6008 1066.5992,-1577.7992 1169.4008,-1577.7992 1169.4008,-1680.6008"/>
<text text-anchor="middle" x="1118" y="-1626.8" font-family="Fira Code" font-size="12.00" fill="#242424">guiderail.js</text>
</g>
<!-- guiderail.js&#45;&gt;f&#45;utility/f&#45;utility.js -->
<g id="edge25" class="edge">
<title>guiderail.js&#45;&gt;f&#45;utility/f&#45;utility.js</title>
<path fill="none" stroke="#242424" d="M1146.2906,-1577.9455C1157.6165,-1554.6054 1169.313,-1526.1711 1175,-1499 1184.3236,-1454.4542 1175.1007,-1442.111 1175,-1396.6 1174.5556,-1195.7096 1173,-1145.4909 1173,-944.6 1173,-944.6 1173,-944.6 1173,-594 1173,-441.9556 1167.6579,-403.0892 1141,-253.4 1136.9884,-230.8739 1131.434,-206.9361 1125.6206,-184.4518"/>
<polygon fill="#242424" stroke="#242424" points="1128.952,-183.3579 1123.0268,-174.5748 1122.1816,-185.1358 1128.952,-183.3579"/>
</g>
<!-- multirail.js -->
<g id="node18" class="node">
<title>multirail.js</title>
<polygon fill="none" stroke="#242424" stroke-width="4" points="1166.4008,-1499.2008 1063.5992,-1499.2008 1063.5992,-1396.3992 1166.4008,-1396.3992 1166.4008,-1499.2008"/>
<text text-anchor="middle" x="1115" y="-1445.4" font-family="Fira Code" font-size="12.00" fill="#242424">multirail.js</text>
</g>
<!-- guiderail.js&#45;&gt;multirail.js -->
<g id="edge26" class="edge">
<title>guiderail.js&#45;&gt;multirail.js</title>
<path fill="none" stroke="#242424" d="M1117.1483,-1577.7033C1116.7953,-1556.3572 1116.383,-1531.4239 1116.0145,-1509.1407"/>
<polygon fill="#242424" stroke="#242424" points="1119.5136,-1509.052 1115.8486,-1499.1113 1112.5145,-1509.1679 1119.5136,-1509.052"/>
</g>
<!-- rail.js -->
<g id="node19" class="node">
<title>rail.js</title>
<polygon fill="none" stroke="#242424" stroke-width="4" points="1069.4012,-1274.6012 1002.5988,-1274.6012 1002.5988,-1207.7988 1069.4012,-1207.7988 1069.4012,-1274.6012"/>
<text text-anchor="middle" x="1036" y="-1238.8" font-family="Fira Code" font-size="12.00" fill="#242424">rail.js</text>
</g>
<!-- guiderail.js&#45;&gt;rail.js -->
<g id="edge27" class="edge">
<title>guiderail.js&#45;&gt;rail.js</title>
<path fill="none" stroke="#242424" d="M1087.5422,-1577.7419C1075.2573,-1554.4806 1062.2878,-1526.164 1055,-1499 1035.3081,-1425.6014 1033.354,-1336.508 1034.2877,-1284.597"/>
<polygon fill="#242424" stroke="#242424" points="1037.7909,-1284.491 1034.517,-1274.4147 1030.7927,-1284.3334 1037.7909,-1284.491"/>
</g>
<!-- multirail.js&#45;&gt;f&#45;utility/f&#45;utility.js -->
<g id="edge43" class="edge">
<title>multirail.js&#45;&gt;f&#45;utility/f&#45;utility.js</title>
<path fill="none" stroke="#242424" d="M1118.3927,-1396.3948C1124.0988,-1305.3681 1135,-1109.8429 1135,-944.6 1135,-944.6 1135,-944.6 1135,-594 1135,-442.4944 1134.9561,-404.2614 1121,-253.4 1118.9297,-231.0206 1115.9299,-207.048 1112.7481,-184.4712"/>
<polygon fill="#242424" stroke="#242424" points="1116.2095,-183.9519 1111.326,-174.5497 1109.2803,-184.9452 1116.2095,-183.9519"/>
</g>
<!-- multirail.js&#45;&gt;rail.js -->
<g id="edge45" class="edge">
<title>multirail.js&#45;&gt;rail.js</title>
<path fill="none" stroke="#242424" d="M1095.3704,-1396.4649C1082.1597,-1361.9164 1064.9394,-1316.8819 1052.4491,-1284.2175"/>
<polygon fill="#242424" stroke="#242424" points="1055.5752,-1282.5931 1048.7344,-1274.5028 1049.0369,-1285.0933 1055.5752,-1282.5931"/>
</g>
<!-- ramda/src/chain.js -->
<g id="node22" class="node">
<title>ramda/src/chain.js</title>
<polygon fill="none" stroke="#0c821d" stroke-width="4" points="1346.6005,-1313.8005 1201.3995,-1313.8005 1201.3995,-1168.5995 1346.6005,-1168.5995 1346.6005,-1313.8005"/>
<text text-anchor="middle" x="1274" y="-1238.8" font-family="Fira Code" font-size="12.00" fill="#0c821d">ramda/src/chain.js</text>
</g>
<!-- multirail.js&#45;&gt;ramda/src/chain.js -->
<g id="edge44" class="edge">
<title>multirail.js&#45;&gt;ramda/src/chain.js</title>
<path fill="none" stroke="#242424" d="M1154.5077,-1396.4649C1171.7697,-1374.035 1192.4333,-1347.1854 1211.6848,-1322.1705"/>
<polygon fill="#242424" stroke="#242424" points="1214.5543,-1324.1807 1217.8796,-1314.1212 1209.0069,-1319.9114 1214.5543,-1324.1807"/>
</g>
<!-- rail.js&#45;&gt;f&#45;utility/f&#45;utility.js -->
<g id="edge46" class="edge">
<title>rail.js&#45;&gt;f&#45;utility/f&#45;utility.js</title>
<path fill="none" stroke="#242424" d="M1047.6014,-1207.746C1057.7829,-1176.6076 1071.8912,-1128.6852 1078,-1085.8 1124.6558,-758.2668 1112.3206,-364.2623 1103.0103,-184.8026"/>
<polygon fill="#242424" stroke="#242424" points="1106.4939,-184.3976 1102.4719,-174.5958 1099.5036,-184.7663 1106.4939,-184.3976"/>
</g>
<!-- rail.js&#45;&gt;assertions/reject&#45;non&#45;functions.js -->
<g id="edge47" class="edge">
<title>rail.js&#45;&gt;assertions/reject&#45;non&#45;functions.js</title>
<path fill="none" stroke="#242424" d="M1002.5005,-1219.6804C958.8902,-1191.0965 881.0397,-1138.1014 820,-1085.8 818.4817,-1084.499 816.9607,-1083.1844 815.4378,-1081.8573"/>
<polygon fill="#242424" stroke="#242424" points="817.6255,-1079.1198 807.8129,-1075.1243 812.9922,-1084.3669 817.6255,-1079.1198"/>
</g>
<!-- rail.js&#45;&gt;either/guided&#45;left.js -->
<g id="edge48" class="edge">
<title>rail.js&#45;&gt;either/guided&#45;left.js</title>
<path fill="none" stroke="#242424" d="M1069.4784,-1224.0189C1100.8663,-1208.0987 1149.2368,-1184.0446 1192,-1164.8 1276.1462,-1126.9319 1312.796,-1144.4904 1384,-1085.8 1400.4483,-1072.2424 1415.0482,-1055.0149 1427.5248,-1037.2903"/>
<polygon fill="#242424" stroke="#242424" points="1430.7341,-1038.7966 1433.478,-1028.5632 1424.9514,-1034.8519 1430.7341,-1038.7966"/>
</g>
<!-- rail.js&#45;&gt;either/guided&#45;right.js -->
<g id="edge49" class="edge">
<title>rail.js&#45;&gt;either/guided&#45;right.js</title>
<path fill="none" stroke="#242424" d="M1064.4177,-1207.7528C1098.849,-1167.2278 1158.3293,-1097.2203 1207.2876,-1039.5973"/>
<polygon fill="#242424" stroke="#242424" points="1210.0075,-1041.8015 1213.8151,-1031.9145 1204.6729,-1037.2691 1210.0075,-1041.8015"/>
</g>
<!-- rail.js&#45;&gt;errors/expect&#45;function&#45;props.js -->
<g id="edge50" class="edge">
<title>rail.js&#45;&gt;errors/expect&#45;function&#45;props.js</title>
<path fill="none" stroke="#242424" d="M1026.1891,-1207.7528C1016.607,-1175.0854 1001.4054,-1123.2602 987.017,-1074.2075"/>
<polygon fill="#242424" stroke="#242424" points="990.3253,-1073.0509 984.1521,-1064.4404 983.6083,-1075.0213 990.3253,-1073.0509"/>
</g>
<!-- handrail.js -->
<g id="node20" class="node">
<title>handrail.js</title>
<polygon fill="none" stroke="#242424" stroke-width="4" points="950.7002,-1676.9002 855.2998,-1676.9002 855.2998,-1581.4998 950.7002,-1581.4998 950.7002,-1676.9002"/>
<text text-anchor="middle" x="903" y="-1626.8" font-family="Fira Code" font-size="12.00" fill="#242424">handrail.js</text>
</g>
<!-- handrail.js&#45;&gt;assertions/all&#45;props&#45;are&#45;functions.js -->
<g id="edge29" class="edge">
<title>handrail.js&#45;&gt;assertions/all&#45;props&#45;are&#45;functions.js</title>
<path fill="none" stroke="#242424" d="M867.2007,-1581.3324C792.7613,-1481.7988 618.5906,-1248.9135 502.8107,-1094.1031"/>
<polygon fill="#242424" stroke="#242424" points="505.4449,-1091.7813 496.6528,-1085.8694 499.8392,-1095.9738 505.4449,-1091.7813"/>
</g>
<!-- handrail.js&#45;&gt;f&#45;utility/f&#45;utility.js -->
<g id="edge28" class="edge">
<title>handrail.js&#45;&gt;f&#45;utility/f&#45;utility.js</title>
<path fill="none" stroke="#242424" d="M855.0884,-1619.6069C668.4049,-1580.8811 0,-1429.1063 0,-1241.2 0,-1241.2 0,-1241.2 0,-594 0,-374.7221 731.4632,-175.6286 999.8092,-109.9669"/>
<polygon fill="#242424" stroke="#242424" points="1000.6568,-113.3628 1009.5433,-107.5939 998.9988,-106.562 1000.6568,-113.3628"/>
</g>
<!-- handrail.js&#45;&gt;assertions/judge&#45;object.js -->
<g id="edge30" class="edge">
<title>handrail.js&#45;&gt;assertions/judge&#45;object.js</title>
<path fill="none" stroke="#242424" d="M855.1274,-1615.8228C744.6696,-1582.7497 469.0001,-1487.2833 306,-1317.6 235.3341,-1244.0367 188.8146,-1136.8394 161.4506,-1056.2218"/>
<polygon fill="#242424" stroke="#242424" points="164.6991,-1054.8998 158.2082,-1046.5262 158.0605,-1057.12 164.6991,-1054.8998"/>
</g>
<!-- handrail.js&#45;&gt;assertions/reject&#45;non&#45;functions.js -->
<g id="edge31" class="edge">
<title>handrail.js&#45;&gt;assertions/reject&#45;non&#45;functions.js</title>
<path fill="none" stroke="#242424" d="M887.4776,-1581.3324C854.5496,-1479.7895 776.6152,-1239.4567 726.4717,-1084.8248"/>
<polygon fill="#242424" stroke="#242424" points="729.7733,-1083.6596 723.3593,-1075.2269 723.1147,-1085.8189 729.7733,-1083.6596"/>
</g>
<!-- handrail.js&#45;&gt;errors/expect&#45;function&#45;props.js -->
<g id="edge32" class="edge">
<title>handrail.js&#45;&gt;errors/expect&#45;function&#45;props.js</title>
<path fill="none" stroke="#242424" d="M906.2163,-1581.3324C913.1972,-1477.4383 929.9407,-1228.2526 940.2902,-1074.2241"/>
<polygon fill="#242424" stroke="#242424" points="943.7841,-1074.4308 940.9625,-1064.2187 936.7999,-1073.9615 943.7841,-1074.4308"/>
</g>
<!-- handrail.js&#45;&gt;multirail.js -->
<g id="edge33" class="edge">
<title>handrail.js&#45;&gt;multirail.js</title>
<path fill="none" stroke="#242424" d="M950.8413,-1588.2641C981.9327,-1561.6604 1022.6927,-1526.7837 1055.8186,-1498.4392"/>
<polygon fill="#242424" stroke="#242424" points="1058.3068,-1500.9165 1063.6295,-1491.7557 1053.7558,-1495.5978 1058.3068,-1500.9165"/>
</g>
<!-- handrail.js&#45;&gt;rail.js -->
<g id="edge34" class="edge">
<title>handrail.js&#45;&gt;rail.js</title>
<path fill="none" stroke="#242424" d="M919.4418,-1581.2344C945.5617,-1505.035 996.1376,-1357.4904 1021.1932,-1284.3959"/>
<polygon fill="#242424" stroke="#242424" points="1024.6223,-1285.1858 1024.5541,-1274.5912 1018.0005,-1282.9159 1024.6223,-1285.1858"/>
</g>
<!-- index.js -->
<g id="node21" class="node">
<title>index.js</title>
<polygon fill="none" stroke="#242424" stroke-width="4" points="1257.6011,-1832.8011 1184.3989,-1832.8011 1184.3989,-1759.5989 1257.6011,-1759.5989 1257.6011,-1832.8011"/>
<text text-anchor="middle" x="1221" y="-1793.8" font-family="Fira Code" font-size="12.00" fill="#242424">index.js</text>
</g>
<!-- index.js&#45;&gt;f&#45;utility/f&#45;utility.js -->
<g id="edge35" class="edge">
<title>index.js&#45;&gt;f&#45;utility/f&#45;utility.js</title>
<path fill="none" stroke="#242424" d="M1257.6339,-1789.415C1419.3097,-1758.4506 2061,-1624.4277 2061,-1447.8 2061,-1447.8 2061,-1447.8 2061,-594 2061,-205.3503 1439.5274,-114.0857 1194.5682,-93.2083"/>
<polygon fill="#242424" stroke="#242424" points="1194.5041,-89.691 1184.2488,-92.3515 1193.9249,-96.667 1194.5041,-89.691"/>
</g>
<!-- index.js&#45;&gt;either/fold.js -->
<g id="edge37" class="edge">
<title>index.js&#45;&gt;either/fold.js</title>
<path fill="none" stroke="#242424" d="M1257.8095,-1763.9739C1283.536,-1741.1294 1318.437,-1709.4897 1348,-1680.4 1606.7558,-1425.7866 1703.2514,-1385.5675 1908,-1085.8 1923.4018,-1063.2505 1937.0487,-1036.6083 1947.9401,-1012.5764"/>
<polygon fill="#242424" stroke="#242424" points="1951.2624,-1013.7191 1952.1294,-1003.1598 1944.8668,-1010.8737 1951.2624,-1013.7191"/>
</g>
<!-- index.js&#45;&gt;either/index.js -->
<g id="edge38" class="edge">
<title>index.js&#45;&gt;either/index.js</title>
<path fill="none" stroke="#242424" d="M1246.6919,-1759.3551C1310.2459,-1668.2117 1475.6775,-1430.9648 1558.8091,-1311.7451"/>
<polygon fill="#242424" stroke="#242424" points="1561.801,-1313.5735 1564.6498,-1303.3689 1556.0591,-1309.5697 1561.801,-1313.5735"/>
</g>
<!-- index.js&#45;&gt;guiderail.js -->
<g id="edge39" class="edge">
<title>index.js&#45;&gt;guiderail.js</title>
<path fill="none" stroke="#242424" d="M1198.3962,-1759.5511C1185.6856,-1738.9426 1169.5028,-1712.7045 1154.9929,-1689.1787"/>
<polygon fill="#242424" stroke="#242424" points="1157.9608,-1687.3235 1149.7323,-1680.6495 1152.0029,-1690.9982 1157.9608,-1687.3235"/>
</g>
<!-- index.js&#45;&gt;multirail.js -->
<g id="edge41" class="edge">
<title>index.js&#45;&gt;multirail.js</title>
<path fill="none" stroke="#242424" d="M1216.6965,-1759.5583C1210.8727,-1715.6011 1198.7493,-1640.0684 1178,-1578 1170.128,-1554.4522 1158.9389,-1529.6716 1148.1693,-1508.1234"/>
<polygon fill="#242424" stroke="#242424" points="1151.2365,-1506.4332 1143.5903,-1499.0993 1144.9941,-1509.6008 1151.2365,-1506.4332"/>
</g>
<!-- index.js&#45;&gt;rail.js -->
<g id="edge42" class="edge">
<title>index.js&#45;&gt;rail.js</title>
<path fill="none" stroke="#242424" d="M1184.3093,-1781.0056C1145.919,-1763.0282 1087.2504,-1729.2401 1058,-1680.4 982.1232,-1553.7068 1008.3502,-1367.7216 1025.7028,-1284.3779"/>
<polygon fill="#242424" stroke="#242424" points="1029.1471,-1285.0081 1027.8197,-1274.4968 1022.3024,-1283.5417 1029.1471,-1285.0081"/>
</g>
<!-- index.js&#45;&gt;handrail.js -->
<g id="edge40" class="edge">
<title>index.js&#45;&gt;handrail.js</title>
<path fill="none" stroke="#242424" d="M1184.2313,-1779.752C1137.091,-1758.3216 1053.1782,-1719.0128 984,-1680.4 975.999,-1675.9341 967.6914,-1671.0199 959.5795,-1666.057"/>
<polygon fill="#242424" stroke="#242424" points="961.223,-1662.9581 950.8778,-1660.6715 957.5391,-1668.9103 961.223,-1662.9581"/>
</g>
<!-- index.js&#45;&gt;ramda/src/chain.js -->
<g id="edge36" class="edge">
<title>index.js&#45;&gt;ramda/src/chain.js</title>
<path fill="none" stroke="#242424" d="M1224.5185,-1759.3551C1232.9289,-1671.2844 1254.3666,-1446.7949 1266.0744,-1324.1948"/>
<polygon fill="#242424" stroke="#242424" points="1269.5716,-1324.3894 1267.0382,-1314.1019 1262.6033,-1323.7239 1269.5716,-1324.3894"/>
</g>
</g>
</svg>
