<svg id="handrail" xmlns="http://www.w3.org/2000/svg" width="261.8" height="55.9" viewBox="-271.8 473.1 261.8 55.9"><style>.st0{fill:#ED1F24;}</style><g id="handrail_1_"><path d="M-259.2 502.6v19.9h-6.6v-44.1h6.6v18.1h7.3v-18.1h6.6v44.1h-6.6v-19.9h-7.3zm27.1 10.2l-1.5 9.7h-6.5l7.2-44.1h8.6l7.7 44.1h-6.8l-1.5-9.7h-7.2zm3.5-23.8l-2.5 17.6h5.2l-2.7-17.6zm32.2 33.5l-9.6-27.3v27.3h-6.2v-44.1h6.7l9.1 26.2v-26.2h6.2v44.1h-6.2zm12-44.1h9.4c7.6 0 11.2 4 11.2 12.4v19.3c0 8.5-3.6 12.4-11.2 12.4h-9.4v-44.1zm8.7 37.8c1.9 0 3.3-.6 4.2-1.7.9-1.2 1.1-2.5 1.1-5.8V492c0-3.3-.3-4.6-1.1-5.8-.9-1.1-2.3-1.7-4.2-1.7h-2.1v31.8l2.1-.1zm82.8 6.3h-6.6v-44.1h9.3c7.7 0 11 4 11 12.8 0 5.7-1.2 8.7-4.4 11.1l5.1 20.3h-7l-4.2-18.5h-3.2v18.4zm2.1-24.6c2.2 0 3.1-.3 3.8-1.4s1.1-3 1.1-5.3c0-2.4-.5-4.5-1.3-5.5-.7-.9-1.5-1.2-3.6-1.2h-2.1v13.4h2.1zm24.8 14.9l-1.5 9.7H-74l7.2-44.1h8.6l7.7 44.1h-6.8l-1.5-9.7H-66zm3.4-23.8l-2.5 17.6h5.2l-2.7-17.6zm23.1 33.5h-6.6v-44.1h6.6v44.1zm23.5 0h-17.6v-44.1h6.6v38h11v6.1z"/><path class="st0" d="M-130.5 478.4v7.1c1.6.4 3 1.3 4.3 2.6 2.6 2.7 4.3 7.1 5.2 13.3.3 2.2.4 4.1.5 5.6l3.2-1.3-5.5 12.2-4.9-12.5 2.9 1.3c-.1-1.3-.2-3.1-.4-4.9-.7-5.1-2.1-8.9-4-10.8-.6-.6-1.3-1.1-2.1-1.3h-3c-.7.2-1.3.7-1.9 1.3-3.2 3.3-4.1 11-4.2 15.8l2.9-1.4-4.7 12.5-5.7-12.1 3.2 1.2c0-1.5.1-3.5.4-5.7.8-6.2 2.4-10.7 5-13.3 1.2-1.3 2.6-2.1 4.1-2.5v-7.1h-20.3v45.4h45.4v-45.4h-20.4z"/></g></svg>